<?xml version="1.0" standalone="no"?>
<!DOCTYPE svg PUBLIC "-//W3C//DTD SVG 1.1//EN" "http://www.w3.org/Graphics/SVG/1.1/DTD/svg11.dtd" >
<svg>
<metadata>
Created by FontForge 20090914 at Fri Jul 22 12:03:10 2016
 By www-data
Copyright (c) 2011 by Ben Dalrymple. All rights reserved.
</metadata>
<defs>
<font id="ArvilSans" horiz-adv-x="320" >
  <font-face 
    font-family="Arvil Sans"
    font-weight="400"
    font-stretch="normal"
    units-per-em="1000"
    panose-1="2 8 6 6 0 2 0 8 0 0"
    ascent="800"
    descent="-200"
    x-height="695"
    cap-height="700"
    bbox="-38.3845 -158.997 566.004 893.513"
    underline-thickness="50"
    underline-position="-50"
    unicode-range="U+0020-U+2212"
  />
<missing-glyph horiz-adv-x="180" 
 />
    <glyph glyph-name=".notdef" horiz-adv-x="180" 
 />
    <glyph glyph-name="space" unicode=" " horiz-adv-x="180" 
 />
    <glyph glyph-name="space" unicode="&#xa0;" horiz-adv-x="180" 
 />
    <glyph glyph-name="exclam" unicode="!" horiz-adv-x="143" 
d="M71 56c21.333 0 32 -2.66602 32 -7.99902v-43c0 -3.33301 -3 -5.83301 -9 -7.5s-13.667 -2.5 -23 -2.5c-20.667 0 -31 3 -31 9v1v42c0 3.33301 2.83301 5.66602 8.5 6.99902s13.167 2 22.5 2zM72 126.001c-21.333 0 -32 2.66602 -32 7.99902v427v128
c0 2 2.33301 4.33301 7 7s12.667 4 24 4s19.5 -1.16699 24.5 -3.5s7.5 -4.83301 7.5 -7.5v-128v-426c0 -3.33301 -2.83301 -5.66602 -8.5 -6.99902s-13.167 -2 -22.5 -2z" />
    <glyph glyph-name="numbersign" unicode="#" horiz-adv-x="586" 
d="M555 453c4.66699 0 7.6709 -2.33203 9.00391 -6.99902s2 -10.667 2 -18s-0.833008 -13.5 -2.5 -18.5s-4.5 -7.5 -8.5 -7.5h-130c-2.66699 0 -4.33398 -1 -5.00098 -3c0 -0.666992 -1.33301 -5.5 -4 -14.5s-5.83398 -19.167 -9.50098 -30.5l-10.5 -33.5l-7 -23.5
c-1.33301 -2.66699 0.333984 -4 5.00098 -4h114c4.66699 0 7.66699 -2.33301 9 -7s2 -10.667 2 -18s-0.833008 -13.5 -2.5 -18.5s-4.16699 -7.5 -7.5 -7.5h-131c-4 0 -6.33301 -1.66699 -7 -5c0 -0.666992 -1.16699 -4.33398 -3.5 -11.001s-5 -15.5 -8 -26.5
s-6.66699 -23.333 -11 -37s-8.5 -27.834 -12.5 -42.501l-34 -115c-2 -6.66699 -12.333 -10 -31 -10c-9.33301 0 -17.5 0.5 -24.5 1.5s-9.5 5.16699 -7.5 12.5l34 113c4 14 8.16699 27.833 12.5 41.5s8 26 11 37s5.66699 19.833 8 26.5s3.5 10.334 3.5 11.001
c0.666992 2.66699 -0.333008 4 -3 4h-87c-3.33301 0 -5.33301 -1.66699 -6 -5l-70 -232c-0.666992 -6.66699 -11 -10 -31 -10c-9.33301 0 -17.5 0.5 -24.5 1.5s-9.16699 5.16699 -6.5 12.5l69 229c0.666992 2.66699 -0.333008 4 -3 4h-115c-7.33301 0 -11 8.33301 -11 25
c0 17.333 3.33301 26 10 26h130c2.66699 0 4.16699 0.333008 4.5 1s1.16602 2 2.49902 4c6 18.667 11 35.334 15 50.001c3.33301 12.667 6.5 24.167 9.5 34.5s4.83301 15.833 5.5 16.5c0.666992 2 -0.333008 3 -3 3h-116c-7.33301 0 -11 8.33301 -11 25
c0 17.333 3.33301 26 10 26h131c3.33301 0 5.33301 1.33301 6 4l3 10.5l8 27l11.5 37c4.33301 13.667 8.5 27.834 12.5 42.501l35 116c2 6.66699 12.333 10 31 10c9.33301 0 17.5 -0.5 24.5 -1.5s9.16699 -5.5 6.5 -13.5l-34 -113c-4 -14 -8.16699 -27.833 -12.5 -41.5
s-8 -25.834 -11 -36.501l-7.5 -26c-2 -6.66699 -3 -10.334 -3 -11.001c-0.666992 -2.66699 0.333008 -4 3 -4h87c3.33301 0 5.33301 1 6 3l3 10.5l8 27l11 37.5c4 14 8.33301 28.333 13 43l35 116c0.666992 6.66699 10.667 10 30 10c9.33301 0 17.666 -0.5 24.999 -1.5
s9.66602 -5.5 6.99902 -13.5l-34 -113c-4 -14 -8.16699 -27.833 -12.5 -41.5l-11.5 -37l-8 -26.5l-3 -10c-0.666992 -2.66699 0.333008 -4 3 -4h115zM356.004 398.001c0.666992 2.66699 -0.665039 3.99902 -3.99805 3.99902h-86c-3.33301 0 -5.33301 -1 -6 -3
c-1.33301 -4 -3.5 -11.5 -6.5 -22.5s-6.33301 -22.167 -10 -33.5s-6.83398 -21.5 -9.50098 -30.5s-4 -13.833 -4 -14.5c-0.666992 -3.33301 0.333008 -5 3 -5h86c4 0 6.33301 1.66699 7 5c1.33301 5.33301 3.66602 13.333 6.99902 24l10 32.5l9 29.5
c2.66699 8.66699 4 13.334 4 14.001z" />
    <glyph glyph-name="dollar" unicode="$" horiz-adv-x="279" 
d="M228 552c-9.33301 0 -16.666 1.33008 -21.999 3.99707s-8 5 -8 7v49c0 9.33301 -2.66699 17 -8 23s-13.666 9 -24.999 9h-11h-41c-10 0 -17.833 -3.66699 -23.5 -11s-8.5 -16.333 -8.5 -27v-85c0 -18.667 4.33301 -35.5 13 -50.5s19.667 -29.5 33 -43.5
s27.666 -28 42.999 -42s29.666 -29.167 42.999 -45.5s24.333 -34.666 33 -54.999s13 -43.5 13 -69.5v-129c0 -30 -7.33301 -51.833 -22 -65.5s-36.334 -20.5 -65.001 -20.5h-1v-23v-24c0 -3.33301 -2.83301 -5.66602 -8.5 -6.99902s-13.167 -2 -22.5 -2s-17 0.5 -23 1.5
s-9 3.16699 -9 6.5v48h-1c-28.667 0 -50.334 6.5 -65.001 19.5s-22 34.167 -22 63.5v49c0 2 2.5 4.5 7.5 7.5s12.833 4.5 23.5 4.5c20 0 30 -4 30 -12v-49c0 -9.33301 2.66699 -17 8 -23s13.666 -9 24.999 -9h52c10 0 17.833 3.66699 23.5 11s8.5 16.333 8.5 27v128
c0 16.667 -4.33301 33 -13 49s-19.667 31.667 -33 47s-27.666 30.666 -42.999 45.999s-29.666 30.833 -42.999 46.5s-24.333 31.334 -33 47.001s-13 31.834 -13 48.501v107c0 30 7.33301 52 22 66s36.334 21 65.001 21h1v45c0 2.66699 2.33301 5.16699 7 7.5
s12.667 3.5 24 3.5s19.5 -1.16699 24.5 -3.5s7.5 -4.83301 7.5 -7.5v-45h1c58 0 87 -27.667 87 -83v-49c0 -7.33301 -10.333 -11 -31 -11z" />
    <glyph glyph-name="percent" unicode="%" horiz-adv-x="530" 
d="M365 694c9.33301 0 17.5 -0.5 24.5 -1.5s9.16699 -5.16699 6.5 -12.5l-201 -669c-0.666992 -6.66699 -10.667 -10 -30 -10c-9.33301 0 -17.333 0.5 -24 1.5s-9 5.16699 -7 12.5l201 669c2 6.66699 12 10 30 10zM204 414c0 -23.333 -5.66699 -40.166 -17 -50.499
s-28 -15.5 -50 -15.5h-50c-22 0 -38.667 5 -50 15s-17 26 -17 48v218c0 23.333 5.66699 40.166 17 50.499s28 15.5 50 15.5h50c22 0 38.667 -5 50 -15s17 -26 17 -48v-218zM132 386c8 0 14.167 3 18.5 9s6.5 13 6.5 21v216c0 7.33301 -2 13.333 -6 18s-10.333 7 -19 7
l-40 -1c-8 0 -14.167 -2.83301 -18.5 -8.5s-6.5 -12.5 -6.5 -20.5v-216c0 -7.33301 2.16699 -13.333 6.5 -18s10.5 -7 18.5 -7h40zM443 348c22 0 38.667 -4.99902 50 -14.999s17 -26 17 -48v-218c0 -44.667 -22.333 -67 -67 -67h-50c-44.667 0 -67 21.333 -67 64v218
c0 23.333 5.66699 40.166 17 50.499s28 15.5 50 15.5h50zM463 285.001c0 6.66699 -2.16699 12.332 -6.5 16.999s-10.5 7 -18.5 7h-40c-8 0 -14.167 -2.83301 -18.5 -8.5s-6.5 -12.5 -6.5 -20.5v-216c0 -7.33301 2 -13.333 6 -18s10.333 -7 19 -7h40
c8 0 14.167 2.83301 18.5 8.5s6.5 12.834 6.5 21.501v216z" />
    <glyph glyph-name="ampersand" unicode="&#x26;" horiz-adv-x="403" 
d="M323 172c16 -30 30 -59.165 42 -87.498s18 -53.5 18 -75.5c0 -2.66699 -2.83301 -4.83398 -8.5 -6.50098s-13.167 -2.5 -22.5 -2.5c-20.667 0 -31 2.66699 -31 8c0 11.333 -3.5 24.833 -10.5 40.5s-15.167 32.5 -24.5 50.5c-10.667 -20 -20.667 -37.5 -30 -52.5
s-16.666 -24.833 -21.999 -29.5c-15.333 -11.333 -35.666 -17 -60.999 -17h-65c-29.333 0 -51.333 6.66699 -66 20s-22 34.666 -22 63.999v134c0 18.667 3 35.667 9 51s14 29.5 24 42.5s21.5 25.167 34.5 36.5s26.5 22 40.5 32
c-13.333 25.333 -24.166 48.666 -32.499 69.999s-12.5 39 -12.5 53v106v4c0 28.667 7.16699 49.5 21.5 62.5s35.833 19.5 64.5 19.5h65c28.667 0 50.334 -6.5 65.001 -19.5s22 -33.833 22 -62.5v-4v-106c0 -12 -3.16699 -23.833 -9.5 -35.5s-14.833 -23 -25.5 -34
s-22.834 -22.167 -36.501 -33.5l-41.5 -33l37.5 -62.5l39.5 -65.5c2 4.66699 4.33301 9.83398 7 15.501l8 16.5c2.66699 6 6 12.333 10 19l7 15c2 5.33301 5.16699 9 9.5 11s12.166 3 23.499 3s20.166 -2.16699 26.499 -6.5s8.16602 -9.5 5.49902 -15.5
c-5.33301 -12 -11.333 -24.667 -18 -38l-18.5 -40zM144 523.002c0 -13.333 3.16797 -29 9.50098 -47s15.166 -37.667 26.499 -59c22 16 40.833 32.333 56.5 49s23.5 35.667 23.5 57v84c-0.666992 9.33301 -3.5 17.833 -8.5 25.5s-11.167 11.5 -18.5 11.5h-63
c-9.33301 0 -16 -3.83301 -20 -11.5s-6 -16.167 -6 -25.5v-84zM167.001 51.002c8 0 15.832 3.83203 23.499 11.499s15 17.167 22 28.5s13.667 23.666 20 36.999l17.5 38l-46 80l-47 81c-21.333 -17.333 -39.166 -34.666 -53.499 -51.999s-21.5 -35.333 -21.5 -54v-137
c0 -9.33301 2.5 -17.166 7.5 -23.499s13.167 -9.5 24.5 -9.5h53z" />
    <glyph glyph-name="parenleft" unicode="(" horiz-adv-x="195" 
d="M186 -8c2.66699 0 4.83301 -2.49805 6.5 -7.49805s2.5 -11.5 2.5 -19.5c0 -16.667 -3 -25 -9 -25h-57c-29.333 0 -51.5 6.66699 -66.5 20s-22.5 34.666 -22.5 63.999v648c0 30 7.5 52 22.5 66s37.167 21 66.5 21h24h33c6 0 9 -8.33301 9 -25c0 -17.333 -3 -26 -9 -26h-51
c-10.667 0 -18.667 -3.83301 -24 -11.5s-8 -16.834 -8 -27.501v-645c0 -9.33301 2.5 -17 7.5 -23s13.167 -9 24.5 -9h51v0z" />
    <glyph glyph-name="parenright" unicode=")" horiz-adv-x="195" 
d="M10 708c-6.66699 0 -10.001 8.66699 -10.001 26c0 16.667 3.33301 25 10 25h57c29.333 0 51.333 -6.66699 66 -20s22 -34.666 22 -63.999v-647c0 -30.667 -7.33301 -53 -22 -67s-36.667 -21 -66 -21h-24h-33c-6.66699 0 -10 8.33301 -10 25c0 8 0.833008 14.5 2.5 19.5
s4.16699 7.5 7.5 7.5h50c10.667 0 18.834 3.66699 24.501 11s8.5 16.666 8.5 27.999v644c0 9.33301 -2.66699 17 -8 23s-13.333 9.33301 -24 10h-51v0z" />
    <glyph glyph-name="asterisk" unicode="*" horiz-adv-x="336" 
d="M311 612c6.66699 -20 6.3291 -31.334 -1.00391 -34.001l-89 -28c-2.66699 -0.666992 -3 -2.66699 -1 -6l56 -78c1.33301 -2 0.666016 -5.33301 -2.00098 -10s-8.66699 -10.334 -18 -17.001s-16.666 -10.5 -21.999 -11.5s-8.66602 -0.166992 -9.99902 2.5
c-10 12.667 -18.667 24.334 -26 35.001l-18 25c-5.33301 7.33301 -8.33301 11.666 -9 12.999c-2.66699 2.66699 -4.66699 2.33398 -6 -0.999023c-1.33301 -1.33301 -5 -5.66602 -11 -12.999s-12.333 -15.666 -19 -24.999l-26 -35c-1.33301 -2 -4.66602 -2.5 -9.99902 -1.5
s-12.333 4.83301 -21 11.5c-9.33301 7.33301 -15.166 13.333 -17.499 18s-2.83301 8.33398 -1.5 11.001c10.667 13.333 20 25.666 28 36.999c7.33301 9.33301 13.833 18 19.5 26s8.83398 12.333 9.50098 13c1.33301 1.33301 1 2.66602 -1 3.99902
c-0.666992 0 -5.66699 1.66699 -15 5l-31 11c-12.667 4.66699 -27.334 9.66699 -44.001 15c-2 0.666992 -3.33301 3.66699 -4 9s1 13.333 5 24c3.33301 10.667 7 18.167 11 22.5s7.33301 5.83301 10 4.5c15.333 -6 29 -11 41 -15
c10.667 -3.33301 20.334 -6.66602 29.001 -9.99902s13.667 -5 15 -5c2 -0.666992 3 0.333008 3 3v90c0 2.66699 2.5 5.16699 7.5 7.5s13.167 3.5 24.5 3.5s19.5 -1.16699 24.5 -3.5s7.5 -4.83301 7.5 -7.5v-89c0 -2.66699 1.33301 -3.33398 4 -2.00098
c0.666992 0 5.66699 1.5 15 4.5l31 9.5l43 14c2 0.666992 4.83301 -1 8.5 -5s7.16699 -11.333 10.5 -22z" />
    <glyph glyph-name="plus" unicode="+" horiz-adv-x="341" 
d="M312 331c3.33301 0 5.66602 -2.83301 6.99902 -8.5s2 -13.167 2 -22.5s-0.666992 -17 -2 -23s-3.33301 -9 -6 -9h-107c-2.66699 0 -4 -1.66699 -4 -5v-113c0 -3.33301 -2.83301 -5.66602 -8.5 -6.99902s-13.167 -2 -22.5 -2c-21.333 0 -32 3 -32 9v114
c0 2.66699 -1.33301 4 -4 4h-106c-3.33301 0 -5.66602 3 -6.99902 9s-2 13.667 -2 23c0 20.667 2.66699 31 8 31h106c3.33301 0 5 1.66699 5 5v113c0 3.33301 2.83301 5.66602 8.5 6.99902s13.167 2 22.5 2s17 -0.5 23 -1.5s9 -3.16699 9 -6.5v-114
c0 -3.33301 2.33301 -5 7 -5h103v0z" />
    <glyph glyph-name="comma" unicode="," horiz-adv-x="104" 
d="M52 61c9.33301 0 16.9971 -0.667969 22.9971 -2.00098s9 -3.33301 9 -6v-43v-13c0 -13.333 -2.16699 -23.5 -6.5 -30.5s-12.5 -16.5 -24.5 -28.5c-3.33301 -3.33301 -5.66602 -4.66602 -6.99902 -3.99902s-3.33301 2 -6 4c-3.33301 2.66699 -4.83301 4.66699 -4.5 6
s2.5 4 6.5 8c12.667 12.667 18.834 23.834 18.501 33.501s-5.16602 14.5 -14.499 14.5c-17.333 0 -26 3 -26 9v1v42c0 3.33301 3 5.66602 9 6.99902s13.667 2 23 2z" />
    <glyph glyph-name="hyphen" unicode="-" horiz-adv-x="308" 
d="M279 373c2.66699 0 4.83105 -2.83301 6.49805 -8.5s2.5 -11.167 2.5 -16.5s-0.666992 -10.833 -2 -16.5s-3.66602 -8.5 -6.99902 -8.5h-250c-3.33301 0 -5.66602 2.33301 -6.99902 7s-2 10.667 -2 18s0.666992 13.333 2 18s3.33301 7 6 7h251v0z" />
    <glyph glyph-name="period" unicode="." horiz-adv-x="104" 
d="M52 56c9.33301 0 17 -0.665039 23 -1.99805s9 -3.33301 9 -6v-43c0 -3.33301 -3 -5.83301 -9 -7.5s-13.667 -2.5 -23 -2.5s-17 0.666992 -23 2s-9 3.66602 -9 6.99902v1v42c0 3.33301 3 5.66602 9 6.99902s13.667 2 23 2z" />
    <glyph glyph-name="slash" unicode="/" horiz-adv-x="308" 
d="M256 700c9.33301 0 17.5 -0.5 24.5 -1.5s9.16699 -5.5 6.5 -13.5l-204 -680c-2 -6.66699 -12.333 -10 -31 -10c-9.33301 0 -17.5 0.5 -24.5 1.5s-9.16699 5.16699 -6.5 12.5l204 681c2 6.66699 12.333 10 31 10z" />
    <glyph glyph-name="zero" unicode="0" horiz-adv-x="319" 
d="M192 695c28.667 0 50.334 -6.5 65.001 -19.5s22 -34.167 22 -63.5v-526c0 -30 -7.33301 -51.833 -22 -65.5s-36.334 -20.5 -65.001 -20.5h-65c-28.667 0 -50.334 6.5 -65.001 19.5s-22 34.167 -22 63.5v526c0 30 7.33301 51.833 22 65.5s36.334 20.5 65.001 20.5h65z
M134 644c-10.667 0 -18.833 -3.66699 -24.5 -11s-8.5 -16.333 -8.5 -27v-404v-1l1 1c2 8 5.66699 24.167 11 48.5l18.5 84.5l22 101l21 97.5l16 74c4.33301 19.667 6.5 30.167 6.5 31.5c1.33301 3.33301 0.333008 5 -3 5h-9h-51zM186.001 51
c10.667 0 18.666 3.66797 23.999 11.001s8 16.333 8 27v399v2c0 1.33301 -0.666992 0.666016 -2 -2.00098c0 -0.666992 -2.16699 -10.834 -6.5 -30.501l-16 -74l-21 -97l-21.5 -100l-18 -83c-5.33301 -23.667 -8.66602 -39.167 -9.99902 -46.5
c-1.33301 -3.33301 -0.5 -5.16602 2.5 -5.49902s5.83301 -0.5 8.5 -0.5h52z" />
    <glyph glyph-name="one" unicode="1" horiz-adv-x="257" 
d="M217 5c0 -6.66699 -10.332 -9.99805 -30.999 -9.99805s-31 3.66699 -31 11v534c0 7.33301 -1.16699 12.5 -3.5 15.5s-7.16602 4.5 -14.499 4.5h-99c-2.66699 0 -6.33398 2.16699 -11.001 6.5s-7 11.166 -7 20.499s2.16699 16.166 6.5 20.499s8.16602 6.5 11.499 6.5h45
c15.333 0 27.833 1.83301 37.5 5.5s17 8.83398 22 15.501s8.33301 14.667 10 24s2.5 19.666 2.5 30.999c0 4.66699 2.33301 7.5 7 8.5s12.667 1.5 24 1.5c20.667 0 31 -3.66699 31 -11v-684z" />
    <glyph glyph-name="two" unicode="2" horiz-adv-x="299" 
d="M61 551c-7.33301 0 -13.0029 0.670898 -17.0029 2.00391s-7 2.66602 -9 3.99902c-2.66699 2 -4.33398 4 -5.00098 6v49c0 29.333 7.33301 50.5 22 63.5s36.334 19.5 65.001 19.5h65c28.667 0 50.334 -6.83301 65.001 -20.5s22 -35.5 22 -65.5v-108
c0 -16.667 -4.33301 -32.834 -13 -48.501s-19.667 -31.334 -33 -47.001s-27.666 -31 -42.999 -46s-29.666 -30.333 -42.999 -46s-24.333 -31.334 -33 -47.001s-13 -31.834 -13 -48.501v-155c0 -8 3.33301 -12 10 -12h36h27h37c4.66699 0 7 3 7 9v72c0 2 1.33301 4 4 6
c2 1.33301 5 2.66602 9 3.99902s9.66699 2 17 2s13 -0.666992 17 -2s7 -2.66602 9 -3.99902c2.66699 -2 4.33398 -4 5.00098 -6v-86c0 -15.333 -3 -26.833 -9 -34.5s-19.667 -11.5 -41 -11.5h-175c-9.33301 0 -14 3 -14 9v206c0 26 4.33301 49.167 13 69.5
s19.667 38.833 33 55.5s27.666 32 42.999 46s29.666 28 42.999 42s24.333 28.5 33 43.5s13 31.833 13 50.5v84c0 10.667 -2.83301 19.667 -8.5 27s-13.5 11 -23.5 11h-41h-11c-11.333 0 -19.666 -3 -24.999 -9s-8 -13.667 -8 -23v-49c0 -2 -1.33301 -4 -4 -6
c-2 -1.33301 -5 -2.66602 -9 -3.99902s-9.66699 -2 -17 -2z" />
    <glyph glyph-name="three" unicode="3" horiz-adv-x="311" 
d="M271 414c0 -12.667 -2.33203 -25.498 -6.99902 -38.498s-14 -19.5 -28 -19.5c14 0 23.333 -4.66699 28 -14s7 -20.333 7 -33v-217c0 -30.667 -7.33301 -52.834 -22 -66.501s-36.667 -20.5 -66 -20.5h-95c-17.333 0 -31.333 6 -42 18s-16 28.667 -16 50v63
c0 2 1.66699 4.66699 5 8s12 5 26 5c14.667 0 23.5 -1.33301 26.5 -4s4.5 -5.66699 4.5 -9v-52c0 -8.66699 2.5 -15.667 7.5 -21s11.833 -8 20.5 -8h57c13.333 0 22.166 3.16699 26.499 9.5s6.5 16.166 6.5 29.499v205c0 6.66699 -1.5 13.5 -4.5 20.5
s-12.167 10.5 -27.5 10.5h-94c-2 0 -4.33301 2.16699 -7 6.5s-4 10.833 -4 19.5c0 18 3.66699 27 11 27h93c22 0 33 13.333 33 40v201c0 9.33301 -1.5 15.833 -4.5 19.5s-8.83301 5.5 -17.5 5.5h-80c-10.667 0 -16 -5.66699 -16 -17v-63
c0 -3.33301 -2.83301 -6.33301 -8.5 -9s-13.5 -4 -23.5 -4s-17.5 1.5 -22.5 4.5s-7.5 5.83301 -7.5 8.5v69c0 20 4.33301 35.333 13 46s23.667 16 45 16h115c26.667 0 44.667 -5.5 54 -16.5s14 -29.167 14 -54.5v-215v0z" />
    <glyph glyph-name="four" unicode="4" horiz-adv-x="337" 
d="M307 180c0 -16.667 -3.00098 -24.998 -9.00098 -24.998h-30c-2.66699 0 -4 -1.33301 -4 -4v-145c0 -7.33301 -10.333 -11 -31 -11s-31 3 -31 9v146c0 3.33301 -1.33301 5 -4 5h-145c-16.667 0 -26.667 4.16699 -30 12.5s-3 18.166 1 29.499
c0.666992 2.66699 3.83398 12 9.50098 28l21.5 59l28.5 79l31.5 89l85 237c0.666992 1.33301 3.16699 3.5 7.5 6.5s12.166 4.5 23.499 4.5c10.667 0 18.834 -1.16699 24.501 -3.5s8.5 -4.5 8.5 -6.5v-477c0 -4 2 -6 6 -6h28c2 0 4 -2.33301 6 -7s3 -11.334 3 -20.001z
M194.999 207.002c4.66699 0 7 1.99902 7 5.99902v290c0 3.33301 -0.333008 4.5 -1 3.5s-1.33398 -2.16699 -2.00098 -3.5l-27 -75l-27.5 -76.5l-26 -72.5l-22.5 -63c-0.666992 -1.33301 -0.666992 -3.16602 0 -5.49902s2.33398 -3.5 5.00098 -3.5h94z" />
    <glyph glyph-name="five" unicode="5" horiz-adv-x="300" 
d="M188 391c25.333 0 45.3359 -6.5 60.0029 -19.5s22 -32.167 22 -57.5v-32v-29v-165c0 -55.333 -24.333 -83 -73 -83h-111c-14.667 0 -27.667 4.66699 -39 14s-17 24.333 -17 45v78c0 3.33301 3.33301 5.83301 10 7.5s14 2.5 22 2.5c7.33301 0 14.166 -1.16699 20.499 -3.5
s9.5 -5.16602 9.5 -8.49902v-50c0 -10.667 2.16699 -19 6.5 -25s12.166 -9 23.499 -9h54c10.667 0 18.834 3.16699 24.501 9.5s8.5 13.833 8.5 22.5v165v29v20c0 12 -2.33301 21.5 -7 28.5s-13 10.5 -25 10.5h-110c-12 0 -21.167 1.66699 -27.5 5s-9.5 11.666 -9.5 24.999
v63l1 1v257c0 5.33301 2 8 6 8h223c6.66699 0 10 -8.33301 10 -25c0 -17.333 -3.66699 -26 -11 -26h-161c-4 0 -6 -2.66699 -6 -8v-161v-82c0 -4 1.66699 -6 5 -6c1.33301 0 6.66602 -0.166992 15.999 -0.5s19.666 -0.5 30.999 -0.5h44v0z" />
    <glyph glyph-name="six" unicode="6" horiz-adv-x="310" 
d="M280 83c0 -55.333 -24.6689 -83.001 -74.002 -83.001h-110c-14.667 0 -27.667 4.66699 -39 14s-17 24.333 -17 45v554c0 28.667 7.33301 49.5 22 62.5s36.334 19.5 65.001 19.5h65c28.667 0 50.334 -6.83301 65.001 -20.5s22 -35.5 22 -65.5v-52
c0 -2 -2.83301 -3.66699 -8.5 -5s-13.167 -2 -22.5 -2c-20 0 -30 2.33301 -30 7v50c0 10.667 -2.83301 19.667 -8.5 27s-13.5 11 -23.5 11h-52c-11.333 0 -19.5 -3 -24.5 -9s-7.5 -13.667 -7.5 -23v-228c0 -4 1.66699 -6 5 -6h90c25.333 0 45.5 -6.66699 60.5 -20
s22.5 -32.666 22.5 -57.999v-218zM218.998 288.999c0 26 -10.667 39 -32 39h-47c-12.667 0 -22.167 -3 -28.5 -9s-9.5 -16.333 -9.5 -31v-203c0 -10.667 2 -19 6 -25s11.667 -9 23 -9h55c10 0 18 3.16699 24 9.5s9 13.833 9 22.5v206z" />
    <glyph glyph-name="seven" unicode="7" horiz-adv-x="288" 
d="M250 695c8.66699 0 13.832 -1.33203 15.499 -3.99902s2.5 -6 2.5 -10v-90c0 -16.667 -3 -37.834 -9 -63.501s-13.667 -53.834 -23 -84.501l-30 -96.5c-10.667 -33.667 -20.667 -67.167 -30 -100.5s-17 -65.666 -23 -96.999s-9 -59.333 -9 -84v-54
c0 -4.66699 -3.16699 -8.5 -9.5 -11.5s-13.166 -4.5 -20.499 -4.5s-14.5 1.5 -21.5 4.5s-10.5 7.5 -10.5 13.5v52c0 26 3 54.667 9 86s13.667 63.5 23 96.5s19.333 66.167 30 99.5l30 97c9.33301 31.333 17 60.5 23 87.5s9 50.833 9 71.5v34c0 4.66699 -2.66699 7 -8 7h-66
h-99c-3.33301 0 -6.33301 2.5 -9 7.5s-4 11.167 -4 18.5c0 16.667 3.66699 25 11 25h219v0z" />
    <glyph glyph-name="eight" unicode="8" 
d="M280 418c0 -7.33301 -0.5 -15.0029 -1.5 -23.0029s-2.83301 -15.333 -5.5 -22s-6.16699 -12 -10.5 -16s-9.83301 -6 -16.5 -6c6.66699 0 12.167 -2.33301 16.5 -7s7.83301 -10.167 10.5 -16.5s4.5 -13.333 5.5 -21s1.5 -14.5 1.5 -20.5v-199
c0 -30 -7.33301 -51.833 -22 -65.5s-36.334 -20.5 -65.001 -20.5h-65h-6c-27.333 0.666992 -47.833 7.83398 -61.5 21.501s-20.5 35.167 -20.5 64.5v199c0 6 0.5 12.833 1.5 20.5s2.83301 14.834 5.5 21.501s6.16699 12.334 10.5 17.001s9.83301 7 16.5 7
c-6.66699 0 -12.167 2 -16.5 6s-7.83301 9.16699 -10.5 15.5s-4.5 13.5 -5.5 21.5s-1.5 15.667 -1.5 23v194c0 28 6.83301 48.667 20.5 62s34.167 20.333 61.5 21v1c0 -0.666992 3.5 -0.833984 10.5 -0.500977s15.167 0.5 24.5 0.5h36c28.667 0 50.334 -6.66699 65.001 -20
s22 -34.666 22 -63.999v-194zM219 294.997c0 6.66699 -1.66602 13.5 -4.99902 20.5s-12.666 10.5 -27.999 10.5h-8h-51c-12 -1.33301 -19.333 -5.33301 -22 -12s-4 -13 -4 -19v-205c0 -13.333 2.16699 -23 6.5 -29s13.166 -9 26.499 -9h52c13.333 0 22.166 3 26.499 9
s6.5 15.667 6.5 29v205zM187.001 377.997c21.333 0 32.001 13.332 32.001 39.999v194c0 8.66699 -2.83301 16.334 -8.5 23.001s-13.834 10 -24.501 10h-53c-10 -0.666992 -17.833 -4.16699 -23.5 -10.5s-8.5 -13.833 -8.5 -22.5v-194c0 -26.667 10.667 -40 32 -40h54z" />
    <glyph glyph-name="nine" unicode="9" horiz-adv-x="304" 
d="M264 81c0 -28 -7.16797 -48.499 -21.501 -61.499s-35.5 -19.5 -63.5 -19.5h-64c-28 0 -49.167 6.66699 -63.5 20s-21.5 35 -21.5 65v50c0 4 3.33301 7 10 9s13.667 3 21 3c8 0 14.833 -1.33301 20.5 -4s8.5 -5.33398 8.5 -8.00098v-48c0 -10 2.66699 -18.667 8 -26
s13 -11 23 -11h51c10.667 0 18.667 3 24 9s8 13.333 8 22v252c0 2.66699 -1.66699 4 -5 4h-88c-25.333 0 -45.166 6.33301 -59.499 19s-21.5 31.667 -21.5 57v202c0 53.333 23.667 80 71 80h108c14.667 0 27.5 -4.5 38.5 -13.5s16.5 -23.5 16.5 -43.5v-557zM196.999 386.001
c2.66699 0 4.5 0.666992 5.5 2s1.5 4.66602 1.5 9.99902v22v40.5c0 15.667 -0.166992 32.167 -0.5 49.5s-0.5 33.333 -0.5 48v37.5v17.5c0 10.667 -2 18.834 -6 24.501s-11.667 8.5 -23 8.5h-53c-10 0 -17.667 -3.16699 -23 -9.5s-8 -13.5 -8 -21.5v-191
c0 -12 2.33301 -21.333 7 -28s12.667 -10 24 -10h76z" />
    <glyph glyph-name="colon" unicode=":" horiz-adv-x="103" 
d="M51 61c9.33301 0 17 -0.666016 23 -1.99902s9 -3.33301 9 -6v-43c0 -3.33301 -3 -5.83301 -9 -7.5s-13.667 -2.5 -23 -2.5c-20.667 0 -31 3 -31 9v1v42c0 3.33301 2.83301 5.66602 8.5 6.99902s13.167 2 22.5 2zM51 228.001c9.33301 0 17 -0.500977 23 -1.50098
s9 -3.16699 9 -6.5v-43c0 -3.33301 -3 -5.66602 -9 -6.99902s-13.667 -2 -23 -2c-20.667 0 -31 2.66699 -31 8v1v42c0 4 2.83301 6.5 8.5 7.5s13.167 1.5 22.5 1.5z" />
    <glyph glyph-name="semicolon" unicode=";" horiz-adv-x="104" 
d="M52 61c9.33301 0 16.9971 -0.667969 22.9971 -2.00098s9 -3.33301 9 -6v-43v-13c0 -13.333 -2.16699 -23.5 -6.5 -30.5s-12.5 -16.5 -24.5 -28.5c-3.33301 -3.33301 -5.66602 -4.66602 -6.99902 -3.99902s-3.33301 2 -6 4c-3.33301 2.66699 -4.83301 4.66699 -4.5 6
s2.5 4 6.5 8c12.667 12.667 18.834 23.834 18.501 33.501s-5.16602 14.5 -14.499 14.5c-17.333 0 -26 3 -26 9v1v42c0 3.33301 3 5.66602 9 6.99902s13.667 2 23 2zM51.9971 227.999c9.33301 0 17 -0.500977 23 -1.50098s9 -3.16699 9 -6.5v-43
c0 -3.33301 -3 -5.66602 -9 -6.99902s-13.667 -2 -23 -2s-17 0.5 -23 1.5s-9 3.16699 -9 6.5v1v42c0 4 3 6.5 9 7.5s13.667 1.5 23 1.5z" />
    <glyph glyph-name="less" unicode="&#x3c;" horiz-adv-x="222" 
d="M165 493c2 2 5.50098 1.49902 10.501 -1.50098s9.5 -6.5 13.5 -10.5c3.33301 -3.33301 6.66602 -7.5 9.99902 -12.5s4 -8.5 2 -10.5l-107 -107c-6.66699 -6.66699 -6.66699 -13 0 -19l106 -106c2.66699 -2.66699 2.66699 -6 0 -10s-6.33398 -8.66699 -11.001 -14
c-5.33301 -5.33301 -10.166 -9.16602 -14.499 -11.499s-7.5 -2.5 -9.5 -0.5l-118 118c-22 22.667 -22 45 0 67l20.5 20l40.5 40z" />
    <glyph glyph-name="equal" unicode="=" horiz-adv-x="341" 
d="M312 274c2.66699 0 4.83203 -2.83301 6.49902 -8.5s2.5 -11.167 2.5 -16.5s-0.666992 -10.833 -2 -16.5s-3.33301 -8.5 -6 -8.5h-284c-3.33301 0 -5.66602 2.33301 -6.99902 7s-2 10.667 -2 18s0.5 13.333 1.5 18s3.16699 7 6.5 7h284zM311.998 395
c2.66699 0 4.83203 -2.83301 6.49902 -8.5s2.5 -11.167 2.5 -16.5s-0.666992 -10.833 -2 -16.5s-3.33301 -8.5 -6 -8.5h-284c-3.33301 0 -5.66602 2.33301 -6.99902 7s-2 10.667 -2 18s0.5 13.333 1.5 18s3.16699 7 6.5 7h284z" />
    <glyph glyph-name="greater" unicode="&#x3e;" horiz-adv-x="222" 
d="M57 190c-2 -2 -5.66602 -1.50098 -10.999 1.49902s-9.66602 6.16699 -12.999 9.5c-3.33301 4 -6.66602 8.5 -9.99902 13.5s-4 8.5 -2 10.5l107 107c6 6 6 12 0 18l-55 55l-51 52c-2.66699 2.66699 -2.83398 6 -0.500977 10s6.16602 8.66699 11.499 14
c5.33301 4.66699 10.166 8.33398 14.499 11.001s7.5 3 9.5 1l118 -119c11.333 -11.333 16.833 -22.333 16.5 -33s-5.83301 -21.667 -16.5 -33l-118 -118v0z" />
    <glyph glyph-name="question" unicode="?" horiz-adv-x="294" 
d="M134 56c21.333 0 32 -2.66602 32 -7.99902v-43c0 -3.33301 -3 -5.83301 -9 -7.5s-13.667 -2.5 -23 -2.5c-20.667 0 -31 3 -31 9v1v42c0 3.33301 2.83301 5.66602 8.5 6.99902s13.167 2 22.5 2zM175 695.001c29.333 0 51.499 -6.99902 66.499 -20.999
s22.5 -36.333 22.5 -67v-109c0 -25.333 -5.16699 -49.833 -15.5 -73.5s-21.5 -47.167 -33.5 -70.5s-23.167 -47 -33.5 -71s-15.5 -48.667 -15.5 -74v-72c0 -3.33301 -3 -5.66602 -9 -6.99902s-13.667 -2 -23 -2c-20.667 0 -31 2.66699 -31 8v71
c0 26.667 2.5 50.334 7.5 71.001s11 39.334 18 56.001s14.833 32.167 23.5 46.5s16.5 28.666 23.5 42.999s13 29.166 18 44.499s7.5 32.333 7.5 51v85c0 11.333 -2.66699 20.666 -8 27.999s-13.333 11 -24 11h-42h-11c-11.333 0 -19.666 -3 -24.999 -9s-8 -13.667 -8 -23
v-50c0 -2 -2.83301 -4.33301 -8.5 -7s-13.167 -4 -22.5 -4c-21.333 0 -32 3.66699 -32 11v50c0 29.333 7.5 50.666 22.5 63.999s37.167 20 66.5 20h66z" />
    <glyph glyph-name="at" unicode="@" horiz-adv-x="548" 
d="M430 695c28.667 0 50.502 -6.5 65.502 -19.5s22.5 -34.167 22.5 -63.5v-378c0 -30 -7.5 -51.833 -22.5 -65.5s-36.833 -20.5 -65.5 -20.5h-78c-2.66699 0 -5 0.333008 -7 1s-3 2.66699 -3 6v10.5c0 6.33301 -0.333008 10.166 -1 11.499c0 3.33301 -1.5 3.33301 -4.5 0
s-10.833 -5 -23.5 -5h-39c-10.667 0 -22.334 0.333008 -35.001 1c-25.333 0 -45.166 6.5 -59.499 19.5s-21.5 32.167 -21.5 57.5v215c0 28.667 6.16699 49.5 18.5 62.5s30.166 19.5 53.499 19.5h141c9.33301 0 15.666 -2.33301 18.999 -7s5 -10.667 5 -18v-316
c0 -4.66699 2.33301 -7 7 -7h22c10.667 0 18.667 3.66699 24 11s8 16.333 8 27v375c0 9.33301 -2.5 17 -7.5 23s-13.167 9 -24.5 9h-300c-10.667 0 -18.667 -3.66699 -24 -11s-8 -16.333 -8 -27v-523c0 -9.33301 2.66699 -17 8 -23s13.333 -9 24 -9h50
c6.66699 0 10 -8.66699 10 -26c0 -16.667 -3.33301 -25 -10 -25h-56c-28.667 0 -50.5 6.5 -65.5 19.5s-22.5 34.167 -22.5 63.5v525c0 30.667 7.5 52.834 22.5 66.501s36.833 20.5 65.5 20.5h312zM334.002 484c0 5.33301 -0.666992 8.83301 -2 10.5
s-4.66602 2.5 -9.99902 2.5h-71c-10.667 0 -18.834 -3.16699 -24.501 -9.5s-8.5 -13.5 -8.5 -21.5v-205c0 -12 2.33301 -21.333 7 -28s13 -10 25 -10h46c12.667 0 22.167 3 28.5 9s9.5 16 9.5 30v222z" />
    <glyph glyph-name="A" unicode="A" horiz-adv-x="312" 
d="M200 201c5.33301 0 7.33594 3.33301 6.00293 10c0 0.666992 -1 8.83398 -3 24.501l-7.5 60.5l-10 82l-11 88c-3.66699 28.667 -6.83398 55 -9.50098 79l-6 55c-0.666992 5.33301 -1.33398 7.66602 -2.00098 6.99902s-1.33398 -3 -2.00098 -7
c-1.33301 -12.667 -3.5 -31 -6.5 -55l-9.5 -79c-3.33301 -28.667 -7 -58 -11 -88s-7.5 -57.333 -10.5 -82l-7.5 -61c-2 -16 -3 -24.333 -3 -25c0 -6 2 -9 6 -9h87zM156.003 700c23.333 0 39.1689 -3.66797 47.502 -11.001s13.166 -16 14.499 -26
c0 -1.33301 1.16699 -11.833 3.5 -31.5s5.16602 -45 8.49902 -76l11.5 -105l13.5 -119.5l13.5 -119.5l11.5 -104.5l8 -74c2 -18.667 3 -28.334 3 -29.001c0.666992 -1.33301 -1.16602 -3.16602 -5.49902 -5.49902s-12.5 -3.5 -24.5 -3.5s-19.833 1 -23.5 3
s-5.83398 3.66699 -6.50098 5c0 0.666992 -0.833008 8 -2.5 22l-5.5 46l-5.5 46c-1.66699 14 -2.5 22 -2.5 24c-0.666992 4.66699 -3 7 -7 7h-100c-5.33301 0 -8.33301 -2 -9 -6c0 -1.33301 -1 -9 -3 -23s-4 -29.333 -6 -46l-5.5 -46.5
c-1.66699 -14.333 -2.5 -21.833 -2.5 -22.5c-0.666992 -2 -2.83398 -4 -6.50098 -6s-12.167 -3 -25.5 -3s-21.666 0.833008 -24.999 2.5s-4.66602 3.5 -3.99902 5.5c0 0.666992 1 10.334 3 29.001s4.83301 43.334 8.5 74.001l12 104.5l13.5 120l14 120
c4.66699 39 8.66699 74 12 105s6.16602 56 8.49902 75s3.5 29.167 3.5 30.5c1.33301 11.333 6 20.666 14 27.999s23.333 11 46 11z" />
    <glyph glyph-name="B" unicode="B" horiz-adv-x="310" 
d="M219 295c0 10 -2.33105 17.668 -6.99805 23.001s-13.334 8 -26.001 8h-78c-4.66699 0 -7 -2 -7 -6v-262c0 -4.66699 2 -7 6 -7h79c13.333 0 22.166 3.16699 26.499 9.5s6.5 16.166 6.5 29.499v104v101zM106.002 645.001c-3.33301 0 -4.99902 -2 -4.99902 -6v-256
c0 -3.33301 2 -5 6 -5c1.33301 0 6 -0.166992 14 -0.5s17 -0.5 27 -0.5h39c11.333 0 19.5 3.66699 24.5 11s7.5 17.333 7.5 30v194c0 10 -2.83301 18 -8.5 24s-13.834 9 -24.501 9h-80zM193.003 695.001c28.667 0 50.334 -6.5 65.001 -19.5s22 -34.167 22 -63.5v-194
c0 -7.33301 -0.5 -15 -1.5 -23s-2.83301 -15.333 -5.5 -22s-6.16699 -12 -10.5 -16s-9.83301 -6 -16.5 -6c13.333 0 22.333 -5 27 -15s7 -21.333 7 -34v-108v-11v-96c0 -30 -7.33301 -52 -22 -66s-36.334 -21 -65.001 -21h-148c-3.33301 0 -5 2 -5 6v177v11v495c0 4 2 6 6 6
h147z" />
    <glyph glyph-name="C" unicode="C" horiz-adv-x="310" 
d="M248 151c9.33301 0 17 -1.33203 23 -3.99902s9 -5.33398 9 -8.00098v-56c0 -30 -7.5 -51.333 -22.5 -64s-36.5 -19 -64.5 -19h-66c-58 0 -87 27.667 -87 83v526c0 30 7.33301 51.833 22 65.5s36.334 20.5 65.001 20.5h66c28 0 49.5 -6.5 64.5 -19.5
s22.5 -34.167 22.5 -63.5v-48c0 -2 -3 -4 -9 -6s-13.333 -3 -22 -3c-9.33301 0 -16.833 0.833008 -22.5 2.5s-8.5 3.83398 -8.5 6.50098v48c0 9.33301 -2.5 17.166 -7.5 23.499s-13.167 9.5 -24.5 9.5h-52c-21.333 0 -32 -13 -32 -39v-523c0 -9.33301 2.5 -17 7.5 -23
s13.167 -9 24.5 -9h52c21.333 0 32 10.667 32 32v56c0 2 2.66699 4.5 8 7.5s12.666 4.5 21.999 4.5z" />
    <glyph glyph-name="D" unicode="D" 
d="M218 612c0 9.33301 -2.66699 17.168 -8 23.501s-13.333 9.5 -24 9.5h-79c-4 0 -6 -2 -6 -6v-579c0 -6 2.33301 -9 7 -9h78c10.667 0 18.667 3.66699 24 11s8 16.666 8 27.999v522zM192 695.002c28.667 0 50.5 -6.5 65.5 -19.5s22.5 -34.167 22.5 -63.5v-525
c0 -30 -7.5 -52 -22.5 -66s-36.833 -21 -65.5 -21h-142c-6.66699 0 -10 3.33301 -10 10v677c0 5.33301 2.66699 8 8 8h144z" />
    <glyph glyph-name="E" unicode="E" horiz-adv-x="264" 
d="M223 51c3.33301 0 6 -1.33203 8 -3.99902s3 -9.66699 3 -21c0 -10.667 -1 -17.667 -3 -21s-4.33301 -5 -7 -5l-176 1c-5.33301 0 -8 2.33301 -8 7v678c0 6 3 9 9 9h173c3.33301 0 6 -2.33301 8 -7s3 -10.334 3 -17.001c0 -6 -0.833008 -11.833 -2.5 -17.5
s-4.16699 -8.5 -7.5 -8.5h-116c-4 0 -6 -2 -6 -6v-252c0 -4 1.66699 -6 5 -6h106c2 0 4.16699 -1.5 6.5 -4.5s3.5 -10.167 3.5 -21.5s-1.16699 -18.5 -3.5 -21.5s-4.83301 -4.5 -7.5 -4.5h-103c-4.66699 0 -7 -2.66699 -7 -8v-263c0 -4.66699 2.33301 -7 7 -7h115v0z" />
    <glyph glyph-name="F" unicode="F" horiz-adv-x="264" 
d="M224 695c6.66699 0 9.99902 -7.33301 9.99902 -22c0 -6.66699 -0.833008 -13 -2.5 -19s-4.5 -9 -8.5 -9h-116c-4 0 -6 -2 -6 -6v-252c0 -4 1.66699 -6 5 -6h106c6.66699 0 10 -8.66699 10 -26s-3.66699 -26 -11 -26h-104c-4 0 -6 -2.66699 -6 -8v-313
c0 -2 -2.83301 -4.66699 -8.5 -8s-13.167 -5 -22.5 -5s-16.666 1.33301 -21.999 4s-8 5.66699 -8 9v677c0 6.66699 3 10 9 10h175v0z" />
    <glyph glyph-name="G" unicode="G" horiz-adv-x="319" 
d="M248 554c-8 0 -15.001 0.833008 -21.001 2.5s-9 4.16699 -9 7.5v45c0 9.33301 -2 17.666 -6 24.999s-11.667 11 -23 11h-56c-10 0 -17.833 -3.66699 -23.5 -11s-8.5 -16.666 -8.5 -27.999v-523c0 -9.33301 2.66699 -17 8 -23s13.666 -9 24.999 -9h51
c12.667 0 21.334 3 26.001 9s7 12.667 7 20v170c0 6 -3.33301 9 -10 9h-66c-2.66699 0 -5 1.66699 -7 5s-3 10.666 -3 21.999c0 10.667 1 17.667 3 21s4.66699 5 8 5h110c12 0 19.333 -3.66699 22 -11s4 -14.666 4 -21.999v-192c0 -30 -7.33301 -52 -22 -66
s-36.334 -21 -65.001 -21h-65c-58 0 -87 27.667 -87 83v526c0 30 6.83301 51.833 20.5 65.5s35.834 20.5 66.501 20.5h65c28.667 0 50.334 -6.5 65.001 -19.5s22 -34.167 22 -63.5v-48c0 -2.66699 -3 -5 -9 -7s-13.333 -3 -22 -3z" />
    <glyph glyph-name="H" unicode="H" horiz-adv-x="322" 
d="M282 4c0 -3.33301 -3.16699 -5.66699 -9.5 -7s-13.5 -2 -21.5 -2c-7.33301 0 -14.333 0.666992 -21 2s-10 3.33301 -10 6v320c0 4.66699 -2.33301 7 -7 7h-106c-3.33301 0 -5 -2.33301 -5 -7v-317c0 -3.33301 -3.16699 -6 -9.5 -8s-13.5 -3 -21.5 -3
s-15.167 0.5 -21.5 1.5s-9.5 3.16699 -9.5 6.5v687c0 2 2 4.16699 6 6.5s12.333 3.5 25 3.5c12 0 20.167 -1.16699 24.5 -3.5s6.5 -4.83301 6.5 -7.5v-299c0 -4.66699 2 -7 6 -7h105c4.66699 0 7 2 7 6v301c0 2 2.5 4.16699 7.5 6.5s12.833 3.5 23.5 3.5
c20.667 0 31 -3.66699 31 -11v-685v0z" />
    <glyph glyph-name="I" unicode="I" horiz-adv-x="163" 
d="M82 -5c-21.333 0 -32 3 -32 9v685c0 2.66699 2.33301 5.16699 7 7.5s12.667 3.5 24 3.5s19.5 -1.16699 24.5 -3.5s7.5 -4.83301 7.5 -7.5v-683c0 -7.33301 -10.333 -11 -31 -11z" />
    <glyph glyph-name="J" unicode="J" horiz-adv-x="311" 
d="M271 84c0 -30 -7.33203 -51.5029 -21.999 -64.5029s-36.667 -19.5 -66 -19.5h-65c-28.667 0 -50.5 6.83301 -65.5 20.5s-22.5 35.834 -22.5 66.501v52c0 2.66699 3 5.33398 9 8.00098s13.667 4 23 4s16.666 -1.16699 21.999 -3.5s8 -5.16602 8 -8.49902v-49
c0 -11.333 2.83301 -20.666 8.5 -27.999s13.5 -11 23.5 -11h42h11c11.333 0 19.5 3.16699 24.5 9.5s7.5 14.166 7.5 23.499v605c0 2.66699 1.83301 5.16699 5.5 7.5s12.167 3.5 25.5 3.5s21.833 -1 25.5 -3s5.5 -4.66699 5.5 -8v-605z" />
    <glyph glyph-name="K" unicode="K" 
d="M170 340c0 -1.33301 1.83301 -7 5.5 -17s8.16699 -23 13.5 -39s11.666 -34 18.999 -54l22 -61l59 -165c0.666992 -1.33301 -1.16602 -3.16602 -5.49902 -5.49902s-12.5 -3.5 -24.5 -3.5c-13.333 0 -22.166 0.666992 -26.499 2s-6.83301 2.66602 -7.5 3.99902l-91 253
c-0.666992 2.66699 -1.66699 4.16699 -3 4.5s-2.33301 -0.833984 -3 -3.50098l-25 -69c-0.666992 -1.33301 -1 -3.16602 -1 -5.49902v-5.5v-167c0 -3.33301 -4 -5.83301 -12 -7.5s-14.333 -2.5 -19 -2.5c-5.33301 0 -11.833 0.5 -19.5 1.5s-11.5 3.16699 -11.5 6.5v684
c0 2 2.66699 4.16699 8 6.5s12.666 3.5 21.999 3.5c10 0 17.833 -1.16699 23.5 -3.5s8.5 -4.83301 8.5 -7.5v-329c0 -1.33301 0.333008 -2.33301 1 -3s1.66699 0.333008 3 3c0 0.666992 1.83301 5.83398 5.5 15.501l14 38l19 53l21.5 60.5l58 164
c0.666992 2 3.16699 4 7.5 6s12.5 3 24.5 3c11.333 0 19.5 -1.16699 24.5 -3.5s7.16699 -4.5 6.5 -6.5l-39 -110l-37.5 -107l-40.5 -116c-2 -6.66699 -2 -12.334 0 -17.001z" />
    <glyph glyph-name="L" unicode="L" horiz-adv-x="261" 
d="M221 51c6.66699 0 10 -8.66797 10 -26.001c0 -16.667 -3.33301 -25 -10 -25h-172c-6 0 -9 2.66699 -9 8v682c0 2 2.5 4.16699 7.5 6.5s12.833 3.5 23.5 3.5c10 0 17.667 -1.16699 23 -3.5s8 -5.16602 8 -8.49902v-630c0 -4.66699 1.66699 -7 5 -7h114v0z" />
    <glyph glyph-name="M" unicode="M" horiz-adv-x="447" 
d="M313 685c1.33301 4 6.16699 7.49902 14.5 10.499s19.166 4.5 32.499 4.5s24.5 -1.66699 33.5 -5s13.5 -7.66602 13.5 -12.999v-675c0 -2.66699 -2.5 -5.33398 -7.5 -8.00098s-12.5 -4 -22.5 -4s-18 1.33301 -24 4s-9 5 -9 7v527
c0 2.66699 -0.166992 4.33398 -0.5 5.00098s-0.833008 0 -1.5 -2l-42 -160l-15.5 -59.5l-13.5 -53l-10 -38c-2.66699 -9.66699 -4 -14.834 -4 -15.501c-1.33301 -3.33301 -4.33301 -6.16602 -9 -8.49902s-12.667 -3.5 -24 -3.5s-19.5 1.16699 -24.5 3.5
s-8.16699 5.16602 -9.5 8.49902c0 0.666992 -1.33301 5.83398 -4 15.501l-10 38l-13.5 53l-15.5 59.5l-42 160c-0.666992 2.66699 -1 1.66699 -1 -3v-527c0 -2 -3 -4.33301 -9 -7s-14.333 -4 -25 -4c-10 0 -17.5 1.33301 -22.5 4s-7.5 5.33398 -7.5 8.00098v675
c0 5.33301 4.66699 9.66602 14 12.999s20.333 5 33 5c13.333 0 24.333 -1.5 33 -4.5s13.334 -6.5 14.001 -10.5l90 -344z" />
    <glyph glyph-name="N" unicode="N" horiz-adv-x="327" 
d="M286 6c0 -2.66699 -2.33301 -5.16602 -7 -7.49902s-12.334 -3.5 -23.001 -3.5s-18.167 1.33301 -22.5 4s-7.16602 5.33398 -8.49902 8.00098c0 0.666992 -3 11.5 -9 32.5l-22.5 78l-28.5 100.5l-28.5 100l-22.5 77c-6 20.667 -9 31.334 -9 32.001
c-0.666992 2 -1.33398 3.16699 -2.00098 3.5s-1 -0.833984 -1 -3.50098v-421c0 -2 -2.66699 -4.33301 -8 -7s-13 -4 -23 -4c-9.33301 0 -16.833 1.16699 -22.5 3.5s-8.5 5.16602 -8.5 8.49902v681c0 5.33301 2.5 8.66602 7.5 9.99902s12.833 2 23.5 2
c20 0 31.333 -2.66699 34 -8l57 -207l21.5 -76.5l18.5 -67c5.33301 -19.667 9.83301 -35.667 13.5 -48s5.5 -18.833 5.5 -19.5c0.666992 -2 1.33398 -3.66699 2.00098 -5s1 0.666992 1 6v415c0 6.66699 10.333 10 31 10c21.333 0 32 -3.66699 32 -11l-1 -683v0z" />
    <glyph glyph-name="O" unicode="O" 
d="M218 612c0 9.33301 -2.5 17 -7.5 23s-13.167 9 -24.5 9h-52c-10.667 0 -18.667 -3.66699 -24 -11s-8 -16.333 -8 -27v-523c0 -9.33301 2.66699 -17 8 -23s13.333 -9 24 -9h52c10.667 0 18.667 3.66699 24 11s8 16.333 8 27v523zM193 695
c28.667 0 50.334 -6.5 65.001 -19.5s22 -34.167 22 -63.5v-526c0 -30 -7.33301 -51.833 -22 -65.5s-36.334 -20.5 -65.001 -20.5h-65c-28.667 0 -50.5 6.5 -65.5 19.5s-22.5 34.167 -22.5 63.5v526c0 30 7.5 51.833 22.5 65.5s36.833 20.5 65.5 20.5h65z" />
    <glyph glyph-name="P" unicode="P" horiz-adv-x="311" 
d="M219 612c0 8.66699 -2.83203 16.167 -8.49902 22.5s-13.834 9.5 -24.501 9.5h-77c-4.66699 0 -7 -1.66699 -7 -5v-256c0 -4.66699 2 -7 6 -7h79c11.333 0 19.5 3.5 24.5 10.5s7.5 16.5 7.5 28.5v197zM207.001 695c49.333 0 74 -27.667 74 -83v-208
c0 -26 -7.5 -45.667 -22.5 -59s-35.5 -20 -61.5 -20h-90c-3.33301 0 -5 -1.66699 -5 -5v-315c0 -2 -2.83301 -4.16699 -8.5 -6.5s-13.5 -3.5 -23.5 -3.5s-17.5 1.16699 -22.5 3.5s-7.5 4.83301 -7.5 7.5v681c0 5.33301 3.33301 8 10 8h157z" />
    <glyph glyph-name="Q" unicode="Q" 
d="M102 83c0 -9.33301 2.66699 -17.165 8 -23.498s13.666 -9.5 24.999 -9.5c0.666992 -0.666992 1.33398 -0.666992 2.00098 0c0.666992 0 1 1.33301 1 4l-13 41c-1.33301 3.33301 1.33398 7.16602 8.00098 11.499s12 7.16602 16 8.49902
c4.66699 1.33301 11.167 2.5 19.5 3.5s13.166 -0.166992 14.499 -3.5l18 -56c0.666992 -2 1.66699 -3 3 -3c3.33301 1.33301 6.5 4.83301 9.5 10.5s4.5 13.167 4.5 22.5v523c0 9.33301 -2.5 17 -7.5 23s-13.167 9 -24.5 9h-52c-21.333 0 -32 -11.333 -32 -34v-527z
M193 695.001c28.667 0 50.3311 -6.50098 64.998 -19.501s22 -34.167 22 -63.5v-526c0 -48 -18.667 -75.667 -56 -83c-2 -0.666992 -3.33301 -1.16699 -4 -1.5s-0.333984 -2.16602 0.999023 -5.49902c0.666992 -2 1.5 -4.33301 2.5 -7l3.5 -9
c1.33301 -3.33301 2.33301 -7 3 -11c1.33301 -3.33301 -0.666992 -6.83301 -6 -10.5s-11.666 -7.16699 -18.999 -10.5s-14.166 -5 -20.499 -5s-10.166 1.66699 -11.499 5l-15 45c-1.33301 3.33301 -2.5 5.33301 -3.5 6s-4.16699 1 -9.5 1h-17
c-28.667 0 -50.5 6.5 -65.5 19.5s-22.5 34.167 -22.5 63.5v526c0 30 7.5 51.833 22.5 65.5s36.833 20.5 65.5 20.5h65z" />
    <glyph glyph-name="R" unicode="R" horiz-adv-x="319" 
d="M189 375c18.667 0 28 9.33301 28 28v212c0 7.33301 -2.16699 14 -6.5 20s-12.5 9 -24.5 9h-77c-4.66699 0 -7 -2 -7 -6v-257c0 -4 2 -6 6 -6h81zM279 401c0 -10.667 -3.5 -21.667 -10.5 -33s-17.167 -17 -30.5 -17c13.333 0 23.5 -4.66699 30.5 -14s10.5 -19 10.5 -29
v-302c0 -7.33301 -10 -11 -30 -11c-9.33301 0 -17 1 -23 3s-9 4.66699 -9 8v298c0 5.33301 -0.833008 9.83301 -2.5 13.5s-6.16699 5.5 -13.5 5.5h-92c-4.66699 0 -7 -1.66699 -7 -5v-312c0 -2 -2.83301 -4.16699 -8.5 -6.5s-13.167 -3.5 -22.5 -3.5
s-16.833 1.16699 -22.5 3.5s-8.5 4.83301 -8.5 7.5v681c0 4.66699 2.66699 7 8 7h161c23.333 0 40.833 -7.66699 52.5 -23s17.5 -32 17.5 -50v-221z" />
    <glyph glyph-name="S" unicode="S" horiz-adv-x="299" 
d="M238 552c-9.33301 0 -16.8301 1.3291 -22.4971 3.99609s-8.5 5 -8.5 7v49c0 9.33301 -2.5 17 -7.5 23s-13.167 9 -24.5 9h-11h-41c-10.667 0 -18.667 -3.66699 -24 -11s-8 -16.333 -8 -27v-84c0 -18.667 4.33301 -35.5 13 -50.5s19.667 -29.5 33 -43.5
s27.666 -28 42.999 -42s29.666 -29.333 42.999 -46s24.333 -35.167 33 -55.5s13 -43.5 13 -69.5v-129c0 -30 -7.33301 -51.833 -22 -65.5s-36.334 -20.5 -65.001 -20.5h-65c-28.667 0 -50.334 6.5 -65.001 19.5s-22 34.167 -22 63.5v49c0 2 2.33301 4.5 7 7.5
s12.667 4.5 24 4.5c20 0 30 -4 30 -12v-49c0 -9.33301 2.66699 -17 8 -23s13.666 -9 24.999 -9h51c10.667 0 18.667 3.66699 24 11s8 16.333 8 27v129c0 16.667 -4.33301 32.834 -13 48.501s-19.667 31.334 -33 47.001s-27.5 31 -42.5 46s-29.167 30.333 -42.5 46
s-24.333 31.334 -33 47.001s-13 31.834 -13 48.501v108c0 30 7.33301 51.833 22 65.5s36.334 20.5 65.001 20.5h65c28.667 0 50.334 -6.5 65.001 -19.5s22 -34.167 22 -63.5v-49c0 -7.33301 -10.333 -11 -31 -11z" />
    <glyph glyph-name="T" unicode="T" horiz-adv-x="319" 
d="M288 695c4.66699 0 7.66699 -2.33301 9 -7s2 -10.667 2 -18s-0.833008 -13.5 -2.5 -18.5s-4.16699 -7.5 -7.5 -7.5h-92c-3.33301 0 -5 -2 -5 -6v-632c0 -3.33301 -4 -6 -12 -8s-14.333 -3 -19 -3c-5.33301 0 -11.833 0.5 -19.5 1.5s-11.5 3.16699 -11.5 6.5v635
c0 4 -2.33301 6 -7 6h-91c-8 0 -12 8.33301 -12 25c0 17.333 3.66699 26 11 26h257v0z" />
    <glyph glyph-name="U" unicode="U" horiz-adv-x="321" 
d="M281 87c0 -30 -7.33008 -51.999 -21.9971 -65.999s-36.667 -21 -66 -21h-66c-28.667 0 -50.334 6.66699 -65.001 20s-22 34.666 -22 63.999v606c0 2.66699 3 5 9 7s13 3 21 3s15.167 -1 21.5 -3s9.5 -4.66699 9.5 -8v-605c0 -9.33301 2.66699 -17 8 -23
s13.666 -9 24.999 -9h53c10.667 0 18.667 3.66699 24 11s8 16.333 8 27v600c0 2.66699 2.66699 5 8 7s12.666 3 21.999 3s17 -1 23 -3s9 -4.66699 9 -8v-602z" />
    <glyph glyph-name="V" unicode="V" horiz-adv-x="326" 
d="M275 700c9.33301 0 16.8311 -1.33203 22.498 -3.99902s8.5 -5 8.5 -7l-112 -686c-0.666992 -3.33301 -4.66699 -5.5 -12 -6.5s-13.666 -1.5 -18.999 -1.5c-4.66699 0 -10.667 0.5 -18 1.5s-11.333 3.16699 -12 6.5l-112 686c-0.666992 2.66699 1.33301 5.16699 6 7.5
s12.667 3.5 24 3.5c20.667 0 31.667 -3 33 -9l77 -469c0.666992 -3.33301 1.5 -5 2.5 -5s1.83301 1.66699 2.5 5l77 469c0.666992 3.33301 3.83398 5.66602 9.50098 6.99902s13.167 2 22.5 2z" />
    <glyph glyph-name="W" unicode="W" horiz-adv-x="486" 
d="M438 700c6 0 12.1689 -0.831055 18.502 -2.49805s9.16602 -3.83398 8.49902 -6.50098l-101 -688c-0.666992 -3.33301 -3.83398 -5.5 -9.50098 -6.5s-11.834 -1.5 -18.501 -1.5c-7.33301 0 -13.666 0.5 -18.999 1.5s-8.33301 3.16699 -9 6.5l-32 216l-12 79.5l-10.5 70
c-3 20.333 -5.33301 37 -7 50s-2.5 19.833 -2.5 20.5c-0.666992 2.66699 -1.16699 3.66699 -1.5 3s-0.5 -1.66699 -0.5 -3c0 -0.666992 -1 -7.33398 -3 -20.001l-7.5 -49.5l-10.5 -69.5l-12 -80l-32 -217c0 -3.33301 -3.16699 -5.5 -9.5 -6.5s-12.5 -1.5 -18.5 -1.5
c-5.33301 0 -11.166 0.5 -17.499 1.5s-9.5 3.16699 -9.5 6.5l-102 688c0 2 2.16699 4 6.5 6s11.166 3 20.499 3s16.5 -0.166992 21.5 -0.5s7.83301 -2.16602 8.5 -5.49902l70 -472c1.33301 -6.66699 3 -6.33398 5 0.999023l32 233l12 86l10.5 75.5
c3 22.333 5.5 40.333 7.5 54s3 20.834 3 21.501c0 4.66699 8 7 24 7s24.333 -2.33301 25 -7c0 -0.666992 1 -8 3 -22l7.5 -54c3 -22 6.66699 -47 11 -75s8.5 -56.667 12.5 -86l33 -234c0.666992 -3.33301 1.5 -4.83301 2.5 -4.5s1.83301 2.16602 2.5 5.49902l3 20.5l8 54
l11.5 75.5c4.33301 28 8.5 56.667 12.5 86l35 234c0.666992 2.66699 4.16699 4.5 10.5 5.5s12.833 1.5 19.5 1.5z" />
    <glyph glyph-name="X" unicode="X" horiz-adv-x="302" 
d="M183 348l27.999 -112.502l29 -111.5l31 -120c0.666992 -3.33301 -1.83301 -5.66602 -7.5 -6.99902s-12.834 -2 -21.501 -2c-8 0 -14.667 0.5 -20 1.5s-8.66602 3.16699 -9.99902 6.5l-59 232c-1.33301 3.33301 -2.66602 3.33301 -3.99902 0l-59 -231
c-0.666992 -2.66699 -2.83398 -4.83398 -6.50098 -6.50098s-11.167 -2.5 -22.5 -2.5c-12 0 -20.167 0.833008 -24.5 2.5s-6.16602 3.83398 -5.49902 6.50098l44 172l16 63l14.5 56l10.5 40c2.66699 10 4 15.333 4 16c0.666992 4.66699 0.666992 10 0 16
c0 0.666992 -1.33301 5.83398 -4 15.501l-10 37.5l-13.5 52c-5 19.333 -9.83301 39 -14.5 59l-41 160c-1.33301 6 7.33398 9 26.001 9c9.33301 0 16.666 -0.166992 21.999 -0.5s8.33301 -2.16602 9 -5.49902l17 -64l18 -68l21 -82c0 -1.33301 0.333008 -2 1 -2
s1.33398 0.666992 2.00098 2c3.33301 10 6.33301 21 9 33c2.66699 10 5.5 21.333 8.5 34l9.5 39c7.33301 31.333 16.333 66.666 27 105.999c1.33301 5.33301 11.666 8 30.999 8c20 0 29 -3.33301 27 -10c-1.33301 -4.66699 -3.5 -13 -6.5 -25l-10.5 -42l-13 -52.5l-14 -56.5
l-38 -148c-2 -6 -2 -12 0 -18z" />
    <glyph glyph-name="Y" unicode="Y" horiz-adv-x="300" 
d="M252 700c20 0 29.001 -3.66992 27.001 -11.0029c-1.33301 -4.66699 -3.66602 -13.5 -6.99902 -26.5l-12 -46.5l-15.5 -59l-17.5 -65l-44 -169c-1.33301 -3.33301 -2 -7.66602 -2 -12.999v-298v-7c0 -2 -2.66699 -4.16699 -8 -6.5s-12.333 -3.5 -21 -3.5
c-9.33301 0 -16.5 1.16699 -21.5 3.5s-7.5 5.16602 -7.5 8.49902v6v296v6c0 0.666992 -0.333008 2.33398 -1 5.00098l-47 170l-18 65.5l-16.5 59.5c-5 18 -9.16699 33.667 -12.5 47s-5.66602 22.333 -6.99902 27c-2 7.33301 7 11 27 11c19.333 1.33301 29.666 -1 30.999 -7
l69 -252c1.33301 -3.33301 2.66602 -3.66602 3.99902 -0.999023l34 126l35 126c1.33301 6.66699 11.666 9.33398 30.999 8.00098z" />
    <glyph glyph-name="Z" unicode="Z" horiz-adv-x="285" 
d="M254 53c0 -16 -2.83203 -28.833 -8.49902 -38.5s-17.5 -14.5 -35.5 -14.5h-140c-13.333 -0 -23.833 4.83301 -31.5 14.5s-9.83398 20.834 -6.50098 33.501c0.666992 2 3.33398 12 8.00098 30l18.5 69l25.5 94l29 106l78 285c1.33301 3.33301 1.33301 6.16602 0 8.49902
s-4.66602 3.5 -9.99902 3.5h-76c-12 0 -18 -6.66699 -18 -20v-61c0 -2 -2.66699 -4.33301 -8 -7s-12.333 -4 -21 -4s-15.334 1.33301 -20.001 4s-7 5 -7 7v77c0 13.333 2.66699 25.833 8 37.5s16.666 17.5 33.999 17.5h150c11.333 0 20 -4.16699 26 -12.5
s7.33301 -19.5 4 -33.5l-161 -588c-2.66699 -6.66699 -1 -10 5 -10h85c5.33301 0 9.33301 1.33301 12 4s4 8 4 16v61c0 8.66699 9.33301 13 28 13s28 -4.33301 28 -13v-79v0z" />
    <glyph glyph-name="bracketleft" unicode="[" horiz-adv-x="196" 
d="M186 -8c6.66699 0 10 -9 10 -27c0 -16.667 -3.33301 -25 -10 -25h-136c-6.66699 0 -10 3 -10 9v802c0 5.33301 3.33301 8 10 8h136c6.66699 0 10 -8.33301 10 -25c0 -17.333 -3.33301 -26 -10 -26h-78c-3.33301 0 -5 -2.33301 -5 -7v-703c0 -4 1.66699 -6 5 -6h78v0z" />
    <glyph glyph-name="backslash" unicode="\" horiz-adv-x="308" 
d="M52 700c18.667 0 29 -3.33301 31 -10l204 -681c2.66699 -7.33301 0.5 -11.5 -6.5 -12.5s-15.167 -1.5 -24.5 -1.5c-20 0 -30.333 3.33301 -31 10l-204 680c-2.66699 8 -0.5 12.5 6.5 13.5s15.167 1.5 24.5 1.5z" />
    <glyph glyph-name="bracketright" unicode="]" horiz-adv-x="195" 
d="M10 708c-6.66699 0 -10 8.66699 -10 26c-0 16.667 3.33301 25 10 25h136c6 0 9 -2.66699 9 -8v-802c0 -6 -3 -9 -9 -9h-136c-6.66699 0 -10 8.33301 -10 25c-0 18 3.33301 27 10 27h78c3.33301 0 5 2 5 6v703c0 4.66699 -1.66699 7 -5 7h-78v0z" />
    <glyph glyph-name="asciicircum" unicode="^" horiz-adv-x="281" 
d="M259 591c2 -2 1.49902 -5.50098 -1.50098 -10.501s-6.16699 -9.5 -9.5 -13.5c-3.33301 -3.33301 -7.5 -6.66602 -12.5 -9.99902s-8.5 -4 -10.5 -2l-75 74c-3.33301 3.33301 -6.33301 5.16602 -9 5.49902s-6 -1.16699 -10 -4.5l-12 -12.5l-25 -25.5l-36 -36
c-2.66699 -2.66699 -6 -2.66699 -10 0s-8.66699 6.33398 -14 11.001c-5.33301 5.33301 -9.16602 10.166 -11.499 14.499s-2.5 7.5 -0.5 9.5l85 85c12 12 23.333 17.833 34 17.5s21.667 -6.16602 33 -17.499l85 -85v0z" />
    <glyph glyph-name="underscore" unicode="_" horiz-adv-x="528" 
d="M499 51c3.33301 0 5.66699 -3 7 -9s2 -11.667 2 -17s-0.5 -10.833 -1.5 -16.5s-3.16699 -8.5 -6.5 -8.5h-471c-3.33301 -0 -5.66602 2.33301 -6.99902 7s-2 10.667 -2 18s0.666992 13.5 2 18.5s3.66602 7.5 6.99902 7.5h470v0z" />
    <glyph glyph-name="grave" unicode="`" horiz-adv-x="152" 
d="M141 573c2.66699 -5.33301 -0.667969 -12.668 -10.001 -22.001c-10 -10 -17.333 -13.667 -22 -11l-93 94c-4 4 -6 8.16699 -6 12.5s4.33301 10.5 13 18.5c8 8.66699 14.5 13.334 19.5 14.001s9.16699 -1 12.5 -5l25.5 -30l28.5 -33c10.667 -12 21.334 -24.667 32.001 -38
z" />
    <glyph glyph-name="a" unicode="a" horiz-adv-x="312" 
d="M200 201c5.33301 0 7.33594 3.33301 6.00293 10c0 0.666992 -1 8.83398 -3 24.501l-7.5 60.5l-10 82l-11 88c-3.66699 28.667 -6.83398 55 -9.50098 79l-6 55c-0.666992 5.33301 -1.33398 7.66602 -2.00098 6.99902s-1.33398 -3 -2.00098 -7
c-1.33301 -12.667 -3.5 -31 -6.5 -55l-9.5 -79c-3.33301 -28.667 -7 -58 -11 -88s-7.5 -57.333 -10.5 -82l-7.5 -61c-2 -16 -3 -24.333 -3 -25c0 -6 2 -9 6 -9h87zM156.003 700c23.333 0 39.1689 -3.66797 47.502 -11.001s13.166 -16 14.499 -26
c0 -1.33301 1.16699 -11.833 3.5 -31.5s5.16602 -45 8.49902 -76l11.5 -105l13.5 -119.5l13.5 -119.5l11.5 -104.5l8 -74c2 -18.667 3 -28.334 3 -29.001c0.666992 -1.33301 -1.16602 -3.16602 -5.49902 -5.49902s-12.5 -3.5 -24.5 -3.5s-19.833 1 -23.5 3
s-5.83398 3.66699 -6.50098 5c0 0.666992 -0.833008 8 -2.5 22l-5.5 46l-5.5 46c-1.66699 14 -2.5 22 -2.5 24c-0.666992 4.66699 -3 7 -7 7h-100c-5.33301 0 -8.33301 -2 -9 -6c0 -1.33301 -1 -9 -3 -23s-4 -29.333 -6 -46l-5.5 -46.5
c-1.66699 -14.333 -2.5 -21.833 -2.5 -22.5c-0.666992 -2 -2.83398 -4 -6.50098 -6s-12.167 -3 -25.5 -3s-21.666 0.833008 -24.999 2.5s-4.66602 3.5 -3.99902 5.5c0 0.666992 1 10.334 3 29.001s4.83301 43.334 8.5 74.001l12 104.5l13.5 120l14 120
c4.66699 39 8.66699 74 12 105s6.16602 56 8.49902 75s3.5 29.167 3.5 30.5c1.33301 11.333 6 20.666 14 27.999s23.333 11 46 11z" />
    <glyph glyph-name="b" unicode="b" horiz-adv-x="310" 
d="M219 295c0 10 -2.33105 17.668 -6.99805 23.001s-13.334 8 -26.001 8h-78c-4.66699 0 -7 -2 -7 -6v-262c0 -4.66699 2 -7 6 -7h79c13.333 0 22.166 3.16699 26.499 9.5s6.5 16.166 6.5 29.499v104v101zM106.002 645.001c-3.33301 0 -4.99902 -2 -4.99902 -6v-256
c0 -3.33301 2 -5 6 -5c1.33301 0 6 -0.166992 14 -0.5s17 -0.5 27 -0.5h39c11.333 0 19.5 3.66699 24.5 11s7.5 17.333 7.5 30v194c0 10 -2.83301 18 -8.5 24s-13.834 9 -24.501 9h-80zM193.003 695.001c28.667 0 50.334 -6.5 65.001 -19.5s22 -34.167 22 -63.5v-194
c0 -7.33301 -0.5 -15 -1.5 -23s-2.83301 -15.333 -5.5 -22s-6.16699 -12 -10.5 -16s-9.83301 -6 -16.5 -6c13.333 0 22.333 -5 27 -15s7 -21.333 7 -34v-108v-11v-96c0 -30 -7.33301 -52 -22 -66s-36.334 -21 -65.001 -21h-148c-3.33301 0 -5 2 -5 6v177v11v495c0 4 2 6 6 6
h147z" />
    <glyph glyph-name="c" unicode="c" horiz-adv-x="310" 
d="M248 151c9.33301 0 17 -1.33203 23 -3.99902s9 -5.33398 9 -8.00098v-56c0 -30 -7.5 -51.333 -22.5 -64s-36.5 -19 -64.5 -19h-66c-58 0 -87 27.667 -87 83v526c0 30 7.33301 51.833 22 65.5s36.334 20.5 65.001 20.5h66c28 0 49.5 -6.5 64.5 -19.5
s22.5 -34.167 22.5 -63.5v-48c0 -2 -3 -4 -9 -6s-13.333 -3 -22 -3c-9.33301 0 -16.833 0.833008 -22.5 2.5s-8.5 3.83398 -8.5 6.50098v48c0 9.33301 -2.5 17.166 -7.5 23.499s-13.167 9.5 -24.5 9.5h-52c-21.333 0 -32 -13 -32 -39v-523c0 -9.33301 2.5 -17 7.5 -23
s13.167 -9 24.5 -9h52c21.333 0 32 10.667 32 32v56c0 2 2.66699 4.5 8 7.5s12.666 4.5 21.999 4.5z" />
    <glyph glyph-name="d" unicode="d" 
d="M218 612c0 9.33301 -2.66699 17.168 -8 23.501s-13.333 9.5 -24 9.5h-79c-4 0 -6 -2 -6 -6v-579c0 -6 2.33301 -9 7 -9h78c10.667 0 18.667 3.66699 24 11s8 16.666 8 27.999v522zM192 695.002c28.667 0 50.5 -6.5 65.5 -19.5s22.5 -34.167 22.5 -63.5v-525
c0 -30 -7.5 -52 -22.5 -66s-36.833 -21 -65.5 -21h-142c-6.66699 0 -10 3.33301 -10 10v677c0 5.33301 2.66699 8 8 8h144z" />
    <glyph glyph-name="e" unicode="e" horiz-adv-x="264" 
d="M223 51c3.33301 0 6 -1.33203 8 -3.99902s3 -9.66699 3 -21c0 -10.667 -1 -17.667 -3 -21s-4.33301 -5 -7 -5l-176 1c-5.33301 0 -8 2.33301 -8 7v678c0 6 3 9 9 9h173c3.33301 0 6 -2.33301 8 -7s3 -10.334 3 -17.001c0 -6 -0.833008 -11.833 -2.5 -17.5
s-4.16699 -8.5 -7.5 -8.5h-116c-4 0 -6 -2 -6 -6v-252c0 -4 1.66699 -6 5 -6h106c2 0 4.16699 -1.5 6.5 -4.5s3.5 -10.167 3.5 -21.5s-1.16699 -18.5 -3.5 -21.5s-4.83301 -4.5 -7.5 -4.5h-103c-4.66699 0 -7 -2.66699 -7 -8v-263c0 -4.66699 2.33301 -7 7 -7h115v0z" />
    <glyph glyph-name="f" unicode="f" horiz-adv-x="264" 
d="M224 695c6.66699 0 9.99902 -7.33301 9.99902 -22c0 -6.66699 -0.833008 -13 -2.5 -19s-4.5 -9 -8.5 -9h-116c-4 0 -6 -2 -6 -6v-252c0 -4 1.66699 -6 5 -6h106c6.66699 0 10 -8.66699 10 -26s-3.66699 -26 -11 -26h-104c-4 0 -6 -2.66699 -6 -8v-313
c0 -2 -2.83301 -4.66699 -8.5 -8s-13.167 -5 -22.5 -5s-16.666 1.33301 -21.999 4s-8 5.66699 -8 9v677c0 6.66699 3 10 9 10h175v0z" />
    <glyph glyph-name="g" unicode="g" horiz-adv-x="319" 
d="M248 554c-8 0 -15.001 0.833008 -21.001 2.5s-9 4.16699 -9 7.5v45c0 9.33301 -2 17.666 -6 24.999s-11.667 11 -23 11h-56c-10 0 -17.833 -3.66699 -23.5 -11s-8.5 -16.666 -8.5 -27.999v-523c0 -9.33301 2.66699 -17 8 -23s13.666 -9 24.999 -9h51
c12.667 0 21.334 3 26.001 9s7 12.667 7 20v170c0 6 -3.33301 9 -10 9h-66c-2.66699 0 -5 1.66699 -7 5s-3 10.666 -3 21.999c0 10.667 1 17.667 3 21s4.66699 5 8 5h110c12 0 19.333 -3.66699 22 -11s4 -14.666 4 -21.999v-192c0 -30 -7.33301 -52 -22 -66
s-36.334 -21 -65.001 -21h-65c-58 0 -87 27.667 -87 83v526c0 30 6.83301 51.833 20.5 65.5s35.834 20.5 66.501 20.5h65c28.667 0 50.334 -6.5 65.001 -19.5s22 -34.167 22 -63.5v-48c0 -2.66699 -3 -5 -9 -7s-13.333 -3 -22 -3z" />
    <glyph glyph-name="h" unicode="h" horiz-adv-x="322" 
d="M282 4c0 -3.33301 -3.16699 -5.66699 -9.5 -7s-13.5 -2 -21.5 -2c-7.33301 0 -14.333 0.666992 -21 2s-10 3.33301 -10 6v320c0 4.66699 -2.33301 7 -7 7h-106c-3.33301 0 -5 -2.33301 -5 -7v-317c0 -3.33301 -3.16699 -6 -9.5 -8s-13.5 -3 -21.5 -3
s-15.167 0.5 -21.5 1.5s-9.5 3.16699 -9.5 6.5v687c0 2 2 4.16699 6 6.5s12.333 3.5 25 3.5c12 0 20.167 -1.16699 24.5 -3.5s6.5 -4.83301 6.5 -7.5v-299c0 -4.66699 2 -7 6 -7h105c4.66699 0 7 2 7 6v301c0 2 2.5 4.16699 7.5 6.5s12.833 3.5 23.5 3.5
c20.667 0 31 -3.66699 31 -11v-685v0z" />
    <glyph glyph-name="i" unicode="i" horiz-adv-x="163" 
d="M82 -5c-21.333 0 -32 3 -32 9v685c0 2.66699 2.33301 5.16699 7 7.5s12.667 3.5 24 3.5s19.5 -1.16699 24.5 -3.5s7.5 -4.83301 7.5 -7.5v-683c0 -7.33301 -10.333 -11 -31 -11z" />
    <glyph glyph-name="j" unicode="j" horiz-adv-x="311" 
d="M271 84c0 -30 -7.33203 -51.5029 -21.999 -64.5029s-36.667 -19.5 -66 -19.5h-65c-28.667 0 -50.5 6.83301 -65.5 20.5s-22.5 35.834 -22.5 66.501v52c0 2.66699 3 5.33398 9 8.00098s13.667 4 23 4s16.666 -1.16699 21.999 -3.5s8 -5.16602 8 -8.49902v-49
c0 -11.333 2.83301 -20.666 8.5 -27.999s13.5 -11 23.5 -11h42h11c11.333 0 19.5 3.16699 24.5 9.5s7.5 14.166 7.5 23.499v605c0 2.66699 1.83301 5.16699 5.5 7.5s12.167 3.5 25.5 3.5s21.833 -1 25.5 -3s5.5 -4.66699 5.5 -8v-605z" />
    <glyph glyph-name="k" unicode="k" 
d="M170 340c0 -1.33301 1.83301 -7 5.5 -17s8.16699 -23 13.5 -39s11.666 -34 18.999 -54l22 -61l59 -165c0.666992 -1.33301 -1.16602 -3.16602 -5.49902 -5.49902s-12.5 -3.5 -24.5 -3.5c-13.333 0 -22.166 0.666992 -26.499 2s-6.83301 2.66602 -7.5 3.99902l-91 253
c-0.666992 2.66699 -1.66699 4.16699 -3 4.5s-2.33301 -0.833984 -3 -3.50098l-25 -69c-0.666992 -1.33301 -1 -3.16602 -1 -5.49902v-5.5v-167c0 -3.33301 -4 -5.83301 -12 -7.5s-14.333 -2.5 -19 -2.5c-5.33301 0 -11.833 0.5 -19.5 1.5s-11.5 3.16699 -11.5 6.5v684
c0 2 2.66699 4.16699 8 6.5s12.666 3.5 21.999 3.5c10 0 17.833 -1.16699 23.5 -3.5s8.5 -4.83301 8.5 -7.5v-329c0 -1.33301 0.333008 -2.33301 1 -3s1.66699 0.333008 3 3c0 0.666992 1.83301 5.83398 5.5 15.501l14 38l19 53l21.5 60.5l58 164
c0.666992 2 3.16699 4 7.5 6s12.5 3 24.5 3c11.333 0 19.5 -1.16699 24.5 -3.5s7.16699 -4.5 6.5 -6.5l-39 -110l-37.5 -107l-40.5 -116c-2 -6.66699 -2 -12.334 0 -17.001z" />
    <glyph glyph-name="l" unicode="l" horiz-adv-x="261" 
d="M221 51c6.66699 0 10 -8.66797 10 -26.001c0 -16.667 -3.33301 -25 -10 -25h-172c-6 0 -9 2.66699 -9 8v682c0 2 2.5 4.16699 7.5 6.5s12.833 3.5 23.5 3.5c10 0 17.667 -1.16699 23 -3.5s8 -5.16602 8 -8.49902v-630c0 -4.66699 1.66699 -7 5 -7h114v0z" />
    <glyph glyph-name="m" unicode="m" horiz-adv-x="447" 
d="M313 685c1.33301 4 6.16699 7.49902 14.5 10.499s19.166 4.5 32.499 4.5s24.5 -1.66699 33.5 -5s13.5 -7.66602 13.5 -12.999v-675c0 -2.66699 -2.5 -5.33398 -7.5 -8.00098s-12.5 -4 -22.5 -4s-18 1.33301 -24 4s-9 5 -9 7v527
c0 2.66699 -0.166992 4.33398 -0.5 5.00098s-0.833008 0 -1.5 -2l-42 -160l-15.5 -59.5l-13.5 -53l-10 -38c-2.66699 -9.66699 -4 -14.834 -4 -15.501c-1.33301 -3.33301 -4.33301 -6.16602 -9 -8.49902s-12.667 -3.5 -24 -3.5s-19.5 1.16699 -24.5 3.5
s-8.16699 5.16602 -9.5 8.49902c0 0.666992 -1.33301 5.83398 -4 15.501l-10 38l-13.5 53l-15.5 59.5l-42 160c-0.666992 2.66699 -1 1.66699 -1 -3v-527c0 -2 -3 -4.33301 -9 -7s-14.333 -4 -25 -4c-10 0 -17.5 1.33301 -22.5 4s-7.5 5.33398 -7.5 8.00098v675
c0 5.33301 4.66699 9.66602 14 12.999s20.333 5 33 5c13.333 0 24.333 -1.5 33 -4.5s13.334 -6.5 14.001 -10.5l90 -344z" />
    <glyph glyph-name="n" unicode="n" horiz-adv-x="327" 
d="M286 6c0 -2.66699 -2.33301 -5.16602 -7 -7.49902s-12.334 -3.5 -23.001 -3.5s-18.167 1.33301 -22.5 4s-7.16602 5.33398 -8.49902 8.00098c0 0.666992 -3 11.5 -9 32.5l-22.5 78l-28.5 100.5l-28.5 100l-22.5 77c-6 20.667 -9 31.334 -9 32.001
c-0.666992 2 -1.33398 3.16699 -2.00098 3.5s-1 -0.833984 -1 -3.50098v-421c0 -2 -2.66699 -4.33301 -8 -7s-13 -4 -23 -4c-9.33301 0 -16.833 1.16699 -22.5 3.5s-8.5 5.16602 -8.5 8.49902v681c0 5.33301 2.5 8.66602 7.5 9.99902s12.833 2 23.5 2
c20 0 31.333 -2.66699 34 -8l57 -207l21.5 -76.5l18.5 -67c5.33301 -19.667 9.83301 -35.667 13.5 -48s5.5 -18.833 5.5 -19.5c0.666992 -2 1.33398 -3.66699 2.00098 -5s1 0.666992 1 6v415c0 6.66699 10.333 10 31 10c21.333 0 32 -3.66699 32 -11l-1 -683v0z" />
    <glyph glyph-name="o" unicode="o" 
d="M218 612c0 9.33301 -2.5 17 -7.5 23s-13.167 9 -24.5 9h-52c-10.667 0 -18.667 -3.66699 -24 -11s-8 -16.333 -8 -27v-523c0 -9.33301 2.66699 -17 8 -23s13.333 -9 24 -9h52c10.667 0 18.667 3.66699 24 11s8 16.333 8 27v523zM193 695
c28.667 0 50.334 -6.5 65.001 -19.5s22 -34.167 22 -63.5v-526c0 -30 -7.33301 -51.833 -22 -65.5s-36.334 -20.5 -65.001 -20.5h-65c-28.667 0 -50.5 6.5 -65.5 19.5s-22.5 34.167 -22.5 63.5v526c0 30 7.5 51.833 22.5 65.5s36.833 20.5 65.5 20.5h65z" />
    <glyph glyph-name="p" unicode="p" horiz-adv-x="311" 
d="M219 612c0 8.66699 -2.83203 16.167 -8.49902 22.5s-13.834 9.5 -24.501 9.5h-77c-4.66699 0 -7 -1.66699 -7 -5v-256c0 -4.66699 2 -7 6 -7h79c11.333 0 19.5 3.5 24.5 10.5s7.5 16.5 7.5 28.5v197zM207.001 695c49.333 0 74 -27.667 74 -83v-208
c0 -26 -7.5 -45.667 -22.5 -59s-35.5 -20 -61.5 -20h-90c-3.33301 0 -5 -1.66699 -5 -5v-315c0 -2 -2.83301 -4.16699 -8.5 -6.5s-13.5 -3.5 -23.5 -3.5s-17.5 1.16699 -22.5 3.5s-7.5 4.83301 -7.5 7.5v681c0 5.33301 3.33301 8 10 8h157z" />
    <glyph glyph-name="q" unicode="q" 
d="M102 83c0 -9.33301 2.66699 -17.165 8 -23.498s13.666 -9.5 24.999 -9.5c0.666992 -0.666992 1.33398 -0.666992 2.00098 0c0.666992 0 1 1.33301 1 4l-13 41c-1.33301 3.33301 1.33398 7.16602 8.00098 11.499s12 7.16602 16 8.49902
c4.66699 1.33301 11.167 2.5 19.5 3.5s13.166 -0.166992 14.499 -3.5l18 -56c0.666992 -2 1.66699 -3 3 -3c3.33301 1.33301 6.5 4.83301 9.5 10.5s4.5 13.167 4.5 22.5v523c0 9.33301 -2.5 17 -7.5 23s-13.167 9 -24.5 9h-52c-21.333 0 -32 -11.333 -32 -34v-527z
M193 695.001c28.667 0 50.3311 -6.50098 64.998 -19.501s22 -34.167 22 -63.5v-526c0 -48 -18.667 -75.667 -56 -83c-2 -0.666992 -3.33301 -1.16699 -4 -1.5s-0.333984 -2.16602 0.999023 -5.49902c0.666992 -2 1.5 -4.33301 2.5 -7l3.5 -9
c1.33301 -3.33301 2.33301 -7 3 -11c1.33301 -3.33301 -0.666992 -6.83301 -6 -10.5s-11.666 -7.16699 -18.999 -10.5s-14.166 -5 -20.499 -5s-10.166 1.66699 -11.499 5l-15 45c-1.33301 3.33301 -2.5 5.33301 -3.5 6s-4.16699 1 -9.5 1h-17
c-28.667 0 -50.5 6.5 -65.5 19.5s-22.5 34.167 -22.5 63.5v526c0 30 7.5 51.833 22.5 65.5s36.833 20.5 65.5 20.5h65z" />
    <glyph glyph-name="r" unicode="r" horiz-adv-x="319" 
d="M189 375c18.667 0 28 9.33301 28 28v212c0 7.33301 -2.16699 14 -6.5 20s-12.5 9 -24.5 9h-77c-4.66699 0 -7 -2 -7 -6v-257c0 -4 2 -6 6 -6h81zM279 401c0 -10.667 -3.5 -21.667 -10.5 -33s-17.167 -17 -30.5 -17c13.333 0 23.5 -4.66699 30.5 -14s10.5 -19 10.5 -29
v-302c0 -7.33301 -10 -11 -30 -11c-9.33301 0 -17 1 -23 3s-9 4.66699 -9 8v298c0 5.33301 -0.833008 9.83301 -2.5 13.5s-6.16699 5.5 -13.5 5.5h-92c-4.66699 0 -7 -1.66699 -7 -5v-312c0 -2 -2.83301 -4.16699 -8.5 -6.5s-13.167 -3.5 -22.5 -3.5
s-16.833 1.16699 -22.5 3.5s-8.5 4.83301 -8.5 7.5v681c0 4.66699 2.66699 7 8 7h161c23.333 0 40.833 -7.66699 52.5 -23s17.5 -32 17.5 -50v-221z" />
    <glyph glyph-name="s" unicode="s" horiz-adv-x="299" 
d="M238 552c-9.33301 0 -16.8301 1.3291 -22.4971 3.99609s-8.5 5 -8.5 7v49c0 9.33301 -2.5 17 -7.5 23s-13.167 9 -24.5 9h-11h-41c-10.667 0 -18.667 -3.66699 -24 -11s-8 -16.333 -8 -27v-84c0 -18.667 4.33301 -35.5 13 -50.5s19.667 -29.5 33 -43.5
s27.666 -28 42.999 -42s29.666 -29.333 42.999 -46s24.333 -35.167 33 -55.5s13 -43.5 13 -69.5v-129c0 -30 -7.33301 -51.833 -22 -65.5s-36.334 -20.5 -65.001 -20.5h-65c-28.667 0 -50.334 6.5 -65.001 19.5s-22 34.167 -22 63.5v49c0 2 2.33301 4.5 7 7.5
s12.667 4.5 24 4.5c20 0 30 -4 30 -12v-49c0 -9.33301 2.66699 -17 8 -23s13.666 -9 24.999 -9h51c10.667 0 18.667 3.66699 24 11s8 16.333 8 27v129c0 16.667 -4.33301 32.834 -13 48.501s-19.667 31.334 -33 47.001s-27.5 31 -42.5 46s-29.167 30.333 -42.5 46
s-24.333 31.334 -33 47.001s-13 31.834 -13 48.501v108c0 30 7.33301 51.833 22 65.5s36.334 20.5 65.001 20.5h65c28.667 0 50.334 -6.5 65.001 -19.5s22 -34.167 22 -63.5v-49c0 -7.33301 -10.333 -11 -31 -11z" />
    <glyph glyph-name="t" unicode="t" horiz-adv-x="319" 
d="M288 695c4.66699 0 7.66699 -2.33301 9 -7s2 -10.667 2 -18s-0.833008 -13.5 -2.5 -18.5s-4.16699 -7.5 -7.5 -7.5h-92c-3.33301 0 -5 -2 -5 -6v-632c0 -3.33301 -4 -6 -12 -8s-14.333 -3 -19 -3c-5.33301 0 -11.833 0.5 -19.5 1.5s-11.5 3.16699 -11.5 6.5v635
c0 4 -2.33301 6 -7 6h-91c-8 0 -12 8.33301 -12 25c0 17.333 3.66699 26 11 26h257v0z" />
    <glyph glyph-name="u" unicode="u" horiz-adv-x="321" 
d="M281 87c0 -30 -7.33008 -51.999 -21.9971 -65.999s-36.667 -21 -66 -21h-66c-28.667 0 -50.334 6.66699 -65.001 20s-22 34.666 -22 63.999v606c0 2.66699 3 5 9 7s13 3 21 3s15.167 -1 21.5 -3s9.5 -4.66699 9.5 -8v-605c0 -9.33301 2.66699 -17 8 -23
s13.666 -9 24.999 -9h53c10.667 0 18.667 3.66699 24 11s8 16.333 8 27v600c0 2.66699 2.66699 5 8 7s12.666 3 21.999 3s17 -1 23 -3s9 -4.66699 9 -8v-602z" />
    <glyph glyph-name="v" unicode="v" horiz-adv-x="326" 
d="M275 700c9.33301 0 16.8311 -1.33203 22.498 -3.99902s8.5 -5 8.5 -7l-112 -686c-0.666992 -3.33301 -4.66699 -5.5 -12 -6.5s-13.666 -1.5 -18.999 -1.5c-4.66699 0 -10.667 0.5 -18 1.5s-11.333 3.16699 -12 6.5l-112 686c-0.666992 2.66699 1.33301 5.16699 6 7.5
s12.667 3.5 24 3.5c20.667 0 31.667 -3 33 -9l77 -469c0.666992 -3.33301 1.5 -5 2.5 -5s1.83301 1.66699 2.5 5l77 469c0.666992 3.33301 3.83398 5.66602 9.50098 6.99902s13.167 2 22.5 2z" />
    <glyph glyph-name="w" unicode="w" horiz-adv-x="486" 
d="M438 700c6 0 12.1689 -0.831055 18.502 -2.49805s9.16602 -3.83398 8.49902 -6.50098l-101 -688c-0.666992 -3.33301 -3.83398 -5.5 -9.50098 -6.5s-11.834 -1.5 -18.501 -1.5c-7.33301 0 -13.666 0.5 -18.999 1.5s-8.33301 3.16699 -9 6.5l-32 216l-12 79.5l-10.5 70
c-3 20.333 -5.33301 37 -7 50s-2.5 19.833 -2.5 20.5c-0.666992 2.66699 -1.16699 3.66699 -1.5 3s-0.5 -1.66699 -0.5 -3c0 -0.666992 -1 -7.33398 -3 -20.001l-7.5 -49.5l-10.5 -69.5l-12 -80l-32 -217c0 -3.33301 -3.16699 -5.5 -9.5 -6.5s-12.5 -1.5 -18.5 -1.5
c-5.33301 0 -11.166 0.5 -17.499 1.5s-9.5 3.16699 -9.5 6.5l-102 688c0 2 2.16699 4 6.5 6s11.166 3 20.499 3s16.5 -0.166992 21.5 -0.5s7.83301 -2.16602 8.5 -5.49902l70 -472c1.33301 -6.66699 3 -6.33398 5 0.999023l32 233l12 86l10.5 75.5
c3 22.333 5.5 40.333 7.5 54s3 20.834 3 21.501c0 4.66699 8 7 24 7s24.333 -2.33301 25 -7c0 -0.666992 1 -8 3 -22l7.5 -54c3 -22 6.66699 -47 11 -75s8.5 -56.667 12.5 -86l33 -234c0.666992 -3.33301 1.5 -4.83301 2.5 -4.5s1.83301 2.16602 2.5 5.49902l3 20.5l8 54
l11.5 75.5c4.33301 28 8.5 56.667 12.5 86l35 234c0.666992 2.66699 4.16699 4.5 10.5 5.5s12.833 1.5 19.5 1.5z" />
    <glyph glyph-name="x" unicode="x" horiz-adv-x="302" 
d="M183 348l27.999 -112.502l29 -111.5l31 -120c0.666992 -3.33301 -1.83301 -5.66602 -7.5 -6.99902s-12.834 -2 -21.501 -2c-8 0 -14.667 0.5 -20 1.5s-8.66602 3.16699 -9.99902 6.5l-59 232c-1.33301 3.33301 -2.66602 3.33301 -3.99902 0l-59 -231
c-0.666992 -2.66699 -2.83398 -4.83398 -6.50098 -6.50098s-11.167 -2.5 -22.5 -2.5c-12 0 -20.167 0.833008 -24.5 2.5s-6.16602 3.83398 -5.49902 6.50098l44 172l16 63l14.5 56l10.5 40c2.66699 10 4 15.333 4 16c0.666992 4.66699 0.666992 10 0 16
c0 0.666992 -1.33301 5.83398 -4 15.501l-10 37.5l-13.5 52c-5 19.333 -9.83301 39 -14.5 59l-41 160c-1.33301 6 7.33398 9 26.001 9c9.33301 0 16.666 -0.166992 21.999 -0.5s8.33301 -2.16602 9 -5.49902l17 -64l18 -68l21 -82c0 -1.33301 0.333008 -2 1 -2
s1.33398 0.666992 2.00098 2c3.33301 10 6.33301 21 9 33c2.66699 10 5.5 21.333 8.5 34l9.5 39c7.33301 31.333 16.333 66.666 27 105.999c1.33301 5.33301 11.666 8 30.999 8c20 0 29 -3.33301 27 -10c-1.33301 -4.66699 -3.5 -13 -6.5 -25l-10.5 -42l-13 -52.5l-14 -56.5
l-38 -148c-2 -6 -2 -12 0 -18z" />
    <glyph glyph-name="y" unicode="y" horiz-adv-x="300" 
d="M252 700c20 0 29.001 -3.66992 27.001 -11.0029c-1.33301 -4.66699 -3.66602 -13.5 -6.99902 -26.5l-12 -46.5l-15.5 -59l-17.5 -65l-44 -169c-1.33301 -3.33301 -2 -7.66602 -2 -12.999v-298v-7c0 -2 -2.66699 -4.16699 -8 -6.5s-12.333 -3.5 -21 -3.5
c-9.33301 0 -16.5 1.16699 -21.5 3.5s-7.5 5.16602 -7.5 8.49902v6v296v6c0 0.666992 -0.333008 2.33398 -1 5.00098l-47 170l-18 65.5l-16.5 59.5c-5 18 -9.16699 33.667 -12.5 47s-5.66602 22.333 -6.99902 27c-2 7.33301 7 11 27 11c19.333 1.33301 29.666 -1 30.999 -7
l69 -252c1.33301 -3.33301 2.66602 -3.66602 3.99902 -0.999023l34 126l35 126c1.33301 6.66699 11.666 9.33398 30.999 8.00098z" />
    <glyph glyph-name="z" unicode="z" horiz-adv-x="285" 
d="M254 53c0 -16 -2.83203 -28.833 -8.49902 -38.5s-17.5 -14.5 -35.5 -14.5h-140c-13.333 -0 -23.833 4.83301 -31.5 14.5s-9.83398 20.834 -6.50098 33.501c0.666992 2 3.33398 12 8.00098 30l18.5 69l25.5 94l29 106l78 285c1.33301 3.33301 1.33301 6.16602 0 8.49902
s-4.66602 3.5 -9.99902 3.5h-76c-12 0 -18 -6.66699 -18 -20v-61c0 -2 -2.66699 -4.33301 -8 -7s-12.333 -4 -21 -4s-15.334 1.33301 -20.001 4s-7 5 -7 7v77c0 13.333 2.66699 25.833 8 37.5s16.666 17.5 33.999 17.5h150c11.333 0 20 -4.16699 26 -12.5
s7.33301 -19.5 4 -33.5l-161 -588c-2.66699 -6.66699 -1 -10 5 -10h85c5.33301 0 9.33301 1.33301 12 4s4 8 4 16v61c0 8.66699 9.33301 13 28 13s28 -4.33301 28 -13v-79v0z" />
    <glyph glyph-name="braceleft" unicode="{" horiz-adv-x="234" 
d="M224 -8c6.66699 0 10.001 -8.99902 10.001 -26.999c0 -16.667 -3.33301 -25 -10 -25h-136c-6.66699 0 -10 3 -10 9l1 359c0 6.66699 -1.66699 13.5 -5 20.5s-12.333 10.5 -27 10.5h-13h-2c-2.66699 0 -5.33398 2.16699 -8.00098 6.5s-4 11.166 -4 20.499
c0 18 3.66699 27 11 27h3h11c22.667 0 34 13 34 39l-1 319c0 5.33301 3.33301 8 10 8h136c6.66699 0 10 -8.33301 10 -25c0 -17.333 -3.33301 -26 -10 -26h-78c-3.33301 0 -5 -2.33301 -5 -7v-278c0 -12.667 -2.66699 -25.5 -8 -38.5s-14.666 -19.5 -27.999 -19.5
c13.333 0 22.666 -4.66699 27.999 -14s8 -20 8 -32v-321c0 -4 1.66699 -6 5 -6h78v0z" />
    <glyph glyph-name="bar" unicode="|" horiz-adv-x="124" 
d="M94 -116c0 -3.33301 -3 -5.66699 -9 -7s-13.667 -2 -23 -2s-17 0.5 -23 1.5s-9 3.16699 -9 6.5v806c0 2.66699 2.5 5.16699 7.5 7.5s13.167 3.5 24.5 3.5s19.5 -1.16699 24.5 -3.5s7.5 -4.83301 7.5 -7.5v-805z" />
    <glyph glyph-name="braceright" unicode="}" horiz-adv-x="233" 
d="M87 -16c3.33301 0 5 1.99902 5 5.99902v321c0 12 2.66699 22.667 8 32s15 14 29 14c-14 0 -23.667 6.5 -29 19.5s-8 25.833 -8 38.5v278c0 4.66699 -1.66699 7 -5 7h-78c-6 0 -9 8.66699 -9 26c0 16.667 3 25 9 25h137c6 0 9 -2.66699 9 -8v-319c0 -26 11 -39 33 -39h11
h3c7.33301 0 11 -9 11 -27c0 -9.33301 -1.33301 -16.166 -4 -20.499s-5 -6.5 -7 -6.5h-3h-12c-15.333 0 -24.5 -3.5 -27.5 -10.5s-4.5 -13.833 -4.5 -20.5v-359c0 -5.33301 -3 -8 -9 -8c-0.666992 0 -8 -0.166992 -22 -0.5s-29.667 -0.5 -47 -0.5h-68c-6 0 -9 8.33301 -9 25
c0 18 3 27 9 27h78z" />
    <glyph glyph-name="asciitilde" unicode="~" horiz-adv-x="441" 
d="M414 314c-2 -2 -3.66406 -3.5 -4.99707 -4.5s-2.66602 -2.16699 -3.99902 -3.5s-2.66602 -2.33301 -3.99902 -3c-14 -10 -30.167 -15.833 -48.5 -17.5s-38 -1.5 -59 0.5s-42.5 4.83301 -64.5 8.5s-43.333 6.5 -64 8.5s-39.834 2 -57.501 0s-32.5 -7.66699 -44.5 -17
c-4.66699 -4 -9.33398 -4.5 -14.001 -1.5s-9.66699 7.16699 -15 12.5s-9.5 12 -12.5 20s-1.83301 14 3.5 18c21.333 15.333 42.833 25.166 64.5 29.499s43.167 5.83301 64.5 4.5s42.333 -4.33301 63 -9s40.667 -8.33398 60 -11.001s37.833 -3.16699 55.5 -1.5
s34.167 7.83398 49.5 18.501l2 1c3.33301 2 7.66602 2 12.999 0s10.666 -7.33301 15.999 -16c9.33301 -17.333 9.66602 -29.666 0.999023 -36.999z" />
    <glyph glyph-name="exclamdown" unicode="&#xa1;" horiz-adv-x="143" 
d="M72 639c-21.333 0 -32 2.66602 -32 7.99902v43c0 3.33301 3 5.83301 9 7.5s13.667 2.5 23 2.5c20.667 0 31 -3 31 -9v-1v-42c0 -3.33301 -2.83301 -5.66602 -8.5 -6.99902s-13.167 -2 -22.5 -2zM71 568.999c21.333 0 32 -2.66602 32 -7.99902v-427v-128
c0 -2 -2.33301 -4.33301 -7 -7s-12.667 -4 -24 -4s-19.5 1.16699 -24.5 3.5s-7.5 4.83301 -7.5 7.5v128v426c0 3.33301 2.83301 5.66602 8.5 6.99902s13.167 2 22.5 2z" />
    <glyph glyph-name="sterling" unicode="&#xa3;" horiz-adv-x="414" 
d="M363 147c8 0 15.1699 -0.832031 21.5029 -2.49902s9.5 -4.16699 9.5 -7.5v-78c0 -20.667 -5.5 -35.667 -16.5 -45s-23.833 -14 -38.5 -14h-184c-47.333 0 -72 26.333 -74 79v25c0 16 1.33301 35.833 4 59.5s6.33398 49.834 11.001 78.501
c0 2.66699 -0.166992 4.66699 -0.5 6s-2.16602 2 -5.49902 2h-60c-4 0 -6.66699 2.33301 -8 7s-2 10.667 -2 18s0.666992 13.333 2 18s3.66602 7 6.99902 7h68c4 0 6.66699 2 8 6c1.33301 5.33301 2.16602 11 2.49902 17s1.16602 12 2.49902 18c0.666992 4 -1 6 -5 6h-38
c-3.33301 0 -5.66602 2.5 -6.99902 7.5s-2 11.167 -2 18.5s0.666992 13.333 2 18s3.66602 7 6.99902 7h45c4 0 6.66699 2 8 6c5.33301 40.667 10.166 80.334 14.499 119.001s6.5 73 6.5 103v26c0 13.333 2.33301 23.666 7 30.999s14.334 11 29.001 11l61 1
c28.667 0 50.5 -6.5 65.5 -19.5s22.833 -34.167 23.5 -63.5v-50c0 -2 -2.5 -4.66699 -7.5 -8s-12.833 -5 -23.5 -5c-20.667 0 -31 4.33301 -31 13c0 1.33301 -0.166992 4.83301 -0.5 10.5s-0.5 11.167 -0.5 16.5v22c0 9.33301 -2.66699 17.166 -8 23.499
s-13.666 9.5 -24.999 9.5h-17c-3.33301 0 -6.16602 -1.33301 -8.49902 -4s-3.5 -6.33398 -3.5 -11.001v-3c0 -31.333 -2 -66.166 -6 -104.499s-8.66699 -77.833 -14 -118.5c-0.666992 -3.33301 0.333008 -5 3 -5h133c3.33301 0 5.66602 -2.83301 6.99902 -8.5
s2 -11.167 2 -16.5s-0.666992 -11 -2 -17s-3.33301 -9 -6 -9h-139c-4 0 -6.33301 -2 -7 -6c-1.33301 -6 -2.33301 -11.833 -3 -17.5l-2 -17.5c-1.33301 -4 0 -6 4 -6h108c3.33301 0 5.66602 -2.83301 6.99902 -8.5s2 -11.167 2 -16.5s-0.666992 -10.833 -2 -16.5
s-3.33301 -8.5 -6 -8.5h-114c-4.66699 0 -7.66699 -2.66699 -9 -8c-4 -31.333 -7.5 -60.333 -10.5 -87s-4.5 -50 -4.5 -70h-1v-2c0 -8.66699 3 -16.167 9 -22.5s14 -9.5 24 -9.5h128c11.333 0 19.166 3 23.499 9s6.5 14.333 6.5 25v50
c0 3.33301 3.16699 6.16602 9.5 8.49902s13.166 3.5 20.499 3.5z" />
    <glyph glyph-name="yen" unicode="&#xa5;" horiz-adv-x="300" 
d="M292 249c2.66699 0 4.83301 -2.83496 6.5 -8.50195s2.5 -11.167 2.5 -16.5s-0.666992 -10.833 -2 -16.5s-3.33301 -8.5 -6 -8.5h-112v-194c0 -2 -2.66699 -4.16699 -8 -6.5s-12.333 -3.5 -21 -3.5c-9.33301 0 -16.5 1.16699 -21.5 3.5s-7.5 5.16602 -7.5 8.49902v192
h-114c-3.33301 0 -5.66602 2.33301 -6.99902 7s-2 10.667 -2 18s0.5 13.333 1.5 18s3.16699 7 6.5 7h115v60v6c0 0.666992 -0.333008 2.33398 -1 5.00098h-113c-3.33301 0 -5.66602 2.33301 -6.99902 7s-2 10.667 -2 18s0.5 13.333 1.5 18s3.16699 7 6.5 7h100l-23.5 85.5
l-27 98.5l-23.5 86l-13 49c-2 7.33301 7 11 27 11c19.333 1.33301 29.666 -1 30.999 -7l69 -252c1.33301 -3.33301 2.66602 -3.66602 3.99902 -0.999023l34 126l35 126c1.33301 6.66699 11.666 9.33398 30.999 8.00098c20 0 29 -3.66699 27 -11l-84 -319h97
c2.66699 0 4.83398 -2.83301 6.50098 -8.5s2.5 -11.167 2.5 -16.5s-0.666992 -10.833 -2 -16.5s-3.33301 -8.5 -6 -8.5h-111c-0.666992 -2.66699 -1 -6 -1 -10v-61h111v0z" />
    <glyph glyph-name="dieresis" unicode="&#xa8;" horiz-adv-x="220" 
d="M52 600c9.33301 0 17 -0.665039 23 -1.99805s9 -3.33301 9 -6v-43c0 -3.33301 -3 -5.83301 -9 -7.5s-13.667 -2.5 -23 -2.5s-17 0.666992 -23 2s-9 3.66602 -9 6.99902v1v42c0 3.33301 3 5.66602 9 6.99902s13.667 2 23 2zM168 600.002
c9.33301 0 17 -0.665039 23 -1.99805s9 -3.33301 9 -6v-43c0 -3.33301 -3 -5.83301 -9 -7.5s-13.667 -2.5 -23 -2.5s-17 0.666992 -23 2s-9 3.66602 -9 6.99902v1v42c0 3.33301 3 5.66602 9 6.99902s13.667 2 23 2z" />
    <glyph glyph-name="logicalnot" unicode="&#xac;" horiz-adv-x="387" 
d="M319 373c19.333 0 32.166 -4.83301 38.499 -14.5s9.5 -22.5 9.5 -38.5v-80c0 -3.33301 -3 -6.33301 -9 -9s-13.667 -4 -23 -4s-16.666 1.16699 -21.999 3.5s-8 5.5 -8 9.5v62c0 8 -1.5 13.5 -4.5 16.5s-7.5 4.5 -13.5 4.5h-19h-239c-4 0 -6.5 2.33301 -7.5 7
s-1.5 10.667 -1.5 18s0.5 13.333 1.5 18s3.16699 7 6.5 7h240h47h4v0z" />
    <glyph glyph-name="degree" unicode="&#xb0;" horiz-adv-x="247" 
d="M149 683c22 0 38.833 -5 50.5 -15s17.5 -26.333 17.5 -49v-126c0 -45.333 -22.667 -68 -68 -68h-51c-45.333 0 -68 21.667 -68 65v126c0 23.333 5.83301 40.333 17.5 51s28.5 16 50.5 16h51zM169 619c0 7.33301 -2 13.332 -6 17.999s-10.333 7 -19 7h-41
c-8 0 -14.167 -3 -18.5 -9s-6.5 -13 -6.5 -21v-124c0 -7.33301 2 -13.333 6 -18s10.667 -7 20 -7h40c8 0 14.167 2.83301 18.5 8.5s6.5 12.834 6.5 21.501v124z" />
    <glyph glyph-name="plusminus" unicode="&#xb1;" horiz-adv-x="341" 
d="M29 302c-4 0 -6.50195 2.83301 -7.50195 8.5s-1.5 13.167 -1.5 22.5c0 21.333 2.66699 32 8 32h106c3.33301 0 5 1.33301 5 4v114c0 3.33301 2.83301 5.66602 8.5 6.99902s13.167 2 22.5 2c20.667 0 31 -2.66699 31 -8v-114c0 -3.33301 2.33301 -5 7 -5h104
c2.66699 0 4.83398 -2.83301 6.50098 -8.5s2.5 -13.167 2.5 -22.5s-0.666992 -17 -2 -23s-3.66602 -9 -6.99902 -9h-106c-3.33301 0 -5 -2 -5 -6v-57v-11v-44c0 -3.33301 -2.83301 -5.66602 -8.5 -6.99902s-13.167 -2 -22.5 -2c-20.667 0 -31 2.66699 -31 8v37v19v59
c0 2.66699 -1.33301 4 -4 4h-106zM311.998 158c2.66699 0 4.83203 -2.83301 6.49902 -8.5s2.5 -11.167 2.5 -16.5s-0.666992 -11 -2 -17s-3.66602 -9 -6.99902 -9h-283c-4 0 -6.5 2.5 -7.5 7.5s-1.5 11.167 -1.5 18.5c0 6.66699 0.5 12.5 1.5 17.5s3.16699 7.5 6.5 7.5h284z
" />
    <glyph glyph-name="acute" unicode="&#xb4;" horiz-adv-x="153" 
d="M97 674c3.33301 4 7.49902 5.66797 12.499 5.00098s11.833 -5.33398 20.5 -14.001c8 -8 12.167 -14.167 12.5 -18.5s-1.5 -8.5 -5.5 -12.5l-94 -94c-4 -2.66699 -11 1 -21 11s-13.333 17.333 -10 22c10.667 13.333 21.334 26 32.001 38l28 33z" />
    <glyph glyph-name="cedilla" unicode="&#xb8;" horiz-adv-x="131" 
d="M71 -46c14 0 25.832 -4.99707 35.499 -14.9971s14.5 -24 14.5 -42c-0.666992 -16 -6.5 -29.333 -17.5 -40s-26.167 -16 -45.5 -16c-7.33301 0 -13.666 0.666992 -18.999 2s-9.66602 2.66602 -12.999 3.99902c-4 2 -7.66699 4.33301 -11 7c-2.66699 2.66699 -4 4.5 -4 5.5
s0.666992 4.16699 2 9.5c2 8 4.33301 11.667 7 11c3.33301 -0.666992 7.83301 -2.66699 13.5 -6s14.167 -5 25.5 -5c8 0 14.5 2.66699 19.5 8s7.5 11.666 7.5 18.999v2c0 16 -7.66699 25 -23 27c-7.33301 1.33301 -12 2 -14 2s-5 0.333008 -9 1c-6.66699 0 -9 2.66699 -7 8
c0.666992 1.33301 2.16699 5.33301 4.5 12s5.16602 14 8.49902 22c3.33301 9.33301 7.33301 19.666 12 30.999c2 2.66699 7.33301 4 16 4c10 0 14.667 -1.66699 14 -5l-18 -46h1v0z" />
    <glyph glyph-name="questiondown" unicode="&#xbf;" horiz-adv-x="304" 
d="M160 639c-21.333 0 -32 2.66602 -32 7.99902v43c0 3.33301 3 5.83301 9 7.5s13.667 2.5 23 2.5c20.667 0 31 -3 31 -9v-1v-42c0 -3.33301 -2.83301 -5.66602 -8.5 -6.99902s-13.167 -2 -22.5 -2zM119 -0.000976562c-29.333 0 -51.499 6.99902 -66.499 20.999
s-22.5 36.333 -22.5 67v109c0 25.333 5.16699 49.833 15.5 73.5s21.5 47.167 33.5 70.5s23.167 47 33.5 71s15.5 48.667 15.5 74v72c0 3.33301 3 5.66602 9 6.99902s13.667 2 23 2c20.667 0 31 -2.66699 31 -8v-71c0 -26.667 -2.5 -50.334 -7.5 -71.001
s-11 -39.334 -18 -56.001s-14.833 -32.167 -23.5 -46.5s-16.5 -28.666 -23.5 -42.999s-13 -29.166 -18 -44.499s-7.5 -32.333 -7.5 -51v-85c0 -11.333 2.66699 -20.666 8 -27.999s13.333 -11 24 -11h42h11c11.333 0 19.666 3 24.999 9s8 13.667 8 23v50
c0 2 2.83301 4.33301 8.5 7s13.167 4 22.5 4c21.333 0 32 -3.66699 32 -11v-50c0 -29.333 -7.5 -50.666 -22.5 -63.999s-37.167 -20 -66.5 -20h-66z" />
    <glyph glyph-name="Agrave" unicode="&#xc0;" horiz-adv-x="312" 
d="M200 201c5.33301 0 7.33594 3.33301 6.00293 10c0 0.666992 -1 8.83398 -3 24.501l-7.5 60.5l-10 82l-11 88c-3.66699 28.667 -6.83398 55 -9.50098 79l-6 55c-0.666992 5.33301 -1.33398 7.66602 -2.00098 6.99902s-1.33398 -3 -2.00098 -7
c-1.33301 -12.667 -3.5 -31 -6.5 -55l-9.5 -79c-3.33301 -28.667 -7 -58 -11 -88s-7.5 -57.333 -10.5 -82l-7.5 -61c-2 -16 -3 -24.333 -3 -25c0 -6 2 -9 6 -9h87zM156.003 700c23.333 0 39.1689 -3.66797 47.502 -11.001s13.166 -16 14.499 -26
c0 -1.33301 1.16699 -11.833 3.5 -31.5s5.16602 -45 8.49902 -76l11.5 -105l13.5 -119.5l13.5 -119.5l11.5 -104.5l8 -74c2 -18.667 3 -28.334 3 -29.001c0.666992 -1.33301 -1.16602 -3.16602 -5.49902 -5.49902s-12.5 -3.5 -24.5 -3.5s-19.833 1 -23.5 3
s-5.83398 3.66699 -6.50098 5c0 0.666992 -0.833008 8 -2.5 22l-5.5 46l-5.5 46c-1.66699 14 -2.5 22 -2.5 24c-0.666992 4.66699 -3 7 -7 7h-100c-5.33301 0 -8.33301 -2 -9 -6c0 -1.33301 -1 -9 -3 -23s-4 -29.333 -6 -46l-5.5 -46.5
c-1.66699 -14.333 -2.5 -21.833 -2.5 -22.5c-0.666992 -2 -2.83398 -4 -6.50098 -6s-12.167 -3 -25.5 -3s-21.666 0.833008 -24.999 2.5s-4.66602 3.5 -3.99902 5.5c0 0.666992 1 10.334 3 29.001s4.83301 43.334 8.5 74.001l12 104.5l13.5 120l14 120
c4.66699 39 8.66699 74 12 105s6.16602 56 8.49902 75s3.5 29.167 3.5 30.5c1.33301 11.333 6 20.666 14 27.999s23.333 11 46 11zM222.006 772.999c2.66699 -5.33301 -0.667969 -12.668 -10.001 -22.001c-10 -10 -17.333 -13.667 -22 -11l-93 94c-4 4 -6 8.16699 -6 12.5
s4.33301 10.5 13 18.5c8 8.66699 14.5 13.334 19.5 14.001s9.16699 -1 12.5 -5l25.5 -30l28.5 -33c10.667 -12 21.334 -24.667 32.001 -38z" />
    <glyph glyph-name="Aacute" unicode="&#xc1;" horiz-adv-x="312" 
d="M200 201c5.33301 0 7.33594 3.33301 6.00293 10c0 0.666992 -1 8.83398 -3 24.501l-7.5 60.5l-10 82l-11 88c-3.66699 28.667 -6.83398 55 -9.50098 79l-6 55c-0.666992 5.33301 -1.33398 7.66602 -2.00098 6.99902s-1.33398 -3 -2.00098 -7
c-1.33301 -12.667 -3.5 -31 -6.5 -55l-9.5 -79c-3.33301 -28.667 -7 -58 -11 -88s-7.5 -57.333 -10.5 -82l-7.5 -61c-2 -16 -3 -24.333 -3 -25c0 -6 2 -9 6 -9h87zM156.003 700c23.333 0 39.1689 -3.66797 47.502 -11.001s13.166 -16 14.499 -26
c0 -1.33301 1.16699 -11.833 3.5 -31.5s5.16602 -45 8.49902 -76l11.5 -105l13.5 -119.5l13.5 -119.5l11.5 -104.5l8 -74c2 -18.667 3 -28.334 3 -29.001c0.666992 -1.33301 -1.16602 -3.16602 -5.49902 -5.49902s-12.5 -3.5 -24.5 -3.5s-19.833 1 -23.5 3
s-5.83398 3.66699 -6.50098 5c0 0.666992 -0.833008 8 -2.5 22l-5.5 46l-5.5 46c-1.66699 14 -2.5 22 -2.5 24c-0.666992 4.66699 -3 7 -7 7h-100c-5.33301 0 -8.33301 -2 -9 -6c0 -1.33301 -1 -9 -3 -23s-4 -29.333 -6 -46l-5.5 -46.5
c-1.66699 -14.333 -2.5 -21.833 -2.5 -22.5c-0.666992 -2 -2.83398 -4 -6.50098 -6s-12.167 -3 -25.5 -3s-21.666 0.833008 -24.999 2.5s-4.66602 3.5 -3.99902 5.5c0 0.666992 1 10.334 3 29.001s4.83301 43.334 8.5 74.001l12 104.5l13.5 120l14 120
c4.66699 39 8.66699 74 12 105s6.16602 56 8.49902 75s3.5 29.167 3.5 30.5c1.33301 11.333 6 20.666 14 27.999s23.333 11 46 11zM176.006 873.999c3.33301 4 7.49902 5.66797 12.499 5.00098s11.833 -5.33398 20.5 -14.001c8 -8 12.167 -14.167 12.5 -18.5
s-1.5 -8.5 -5.5 -12.5l-94 -94c-4 -2.66699 -11 1 -21 11s-13.333 17.333 -10 22c10.667 13.333 21.334 26 32.001 38l28 33z" />
    <glyph glyph-name="Acircumflex" unicode="&#xc2;" horiz-adv-x="312" 
d="M200 201c5.33301 0 7.33594 3.33301 6.00293 10c0 0.666992 -1 8.83398 -3 24.501l-7.5 60.5l-10 82l-11 88c-3.66699 28.667 -6.83398 55 -9.50098 79l-6 55c-0.666992 5.33301 -1.33398 7.66602 -2.00098 6.99902s-1.33398 -3 -2.00098 -7
c-1.33301 -12.667 -3.5 -31 -6.5 -55l-9.5 -79c-3.33301 -28.667 -7 -58 -11 -88s-7.5 -57.333 -10.5 -82l-7.5 -61c-2 -16 -3 -24.333 -3 -25c0 -6 2 -9 6 -9h87zM156.003 700c23.333 0 39.1689 -3.66797 47.502 -11.001s13.166 -16 14.499 -26
c0 -1.33301 1.16699 -11.833 3.5 -31.5s5.16602 -45 8.49902 -76l11.5 -105l13.5 -119.5l13.5 -119.5l11.5 -104.5l8 -74c2 -18.667 3 -28.334 3 -29.001c0.666992 -1.33301 -1.16602 -3.16602 -5.49902 -5.49902s-12.5 -3.5 -24.5 -3.5s-19.833 1 -23.5 3
s-5.83398 3.66699 -6.50098 5c0 0.666992 -0.833008 8 -2.5 22l-5.5 46l-5.5 46c-1.66699 14 -2.5 22 -2.5 24c-0.666992 4.66699 -3 7 -7 7h-100c-5.33301 0 -8.33301 -2 -9 -6c0 -1.33301 -1 -9 -3 -23s-4 -29.333 -6 -46l-5.5 -46.5
c-1.66699 -14.333 -2.5 -21.833 -2.5 -22.5c-0.666992 -2 -2.83398 -4 -6.50098 -6s-12.167 -3 -25.5 -3s-21.666 0.833008 -24.999 2.5s-4.66602 3.5 -3.99902 5.5c0 0.666992 1 10.334 3 29.001s4.83301 43.334 8.5 74.001l12 104.5l13.5 120l14 120
c4.66699 39 8.66699 74 12 105s6.16602 56 8.49902 75s3.5 29.167 3.5 30.5c1.33301 11.333 6 20.666 14 27.999s23.333 11 46 11zM274.006 783.999c2 -2 1.49902 -5.50098 -1.50098 -10.501s-6.16699 -9.5 -9.5 -13.5c-3.33301 -3.33301 -7.5 -6.66602 -12.5 -9.99902
s-8.5 -4 -10.5 -2l-75 74c-3.33301 3.33301 -6.33301 5.16602 -9 5.49902s-6 -1.16699 -10 -4.5l-12 -12.5l-25 -25.5l-36 -36c-2.66699 -2.66699 -6 -2.66699 -10 0s-8.66699 6.33398 -14 11.001c-5.33301 5.33301 -9.16602 10.166 -11.499 14.499s-2.5 7.5 -0.5 9.5l85 85
c12 12 23.333 17.833 34 17.5s21.667 -6.16602 33 -17.499z" />
    <glyph glyph-name="Atilde" unicode="&#xc3;" horiz-adv-x="312" 
d="M200 201c5.33301 0 7.33594 3.33301 6.00293 10c0 0.666992 -1 8.83398 -3 24.501l-7.5 60.5l-10 82l-11 88c-3.66699 28.667 -6.83398 55 -9.50098 79l-6 55c-0.666992 5.33301 -1.33398 7.66602 -2.00098 6.99902s-1.33398 -3 -2.00098 -7
c-1.33301 -12.667 -3.5 -31 -6.5 -55l-9.5 -79c-3.33301 -28.667 -7 -58 -11 -88s-7.5 -57.333 -10.5 -82l-7.5 -61c-2 -16 -3 -24.333 -3 -25c0 -6 2 -9 6 -9h87zM156.003 700c23.333 0 39.1689 -3.66797 47.502 -11.001s13.166 -16 14.499 -26
c0 -1.33301 1.16699 -11.833 3.5 -31.5s5.16602 -45 8.49902 -76l11.5 -105l13.5 -119.5l13.5 -119.5l11.5 -104.5l8 -74c2 -18.667 3 -28.334 3 -29.001c0.666992 -1.33301 -1.16602 -3.16602 -5.49902 -5.49902s-12.5 -3.5 -24.5 -3.5s-19.833 1 -23.5 3
s-5.83398 3.66699 -6.50098 5c0 0.666992 -0.833008 8 -2.5 22l-5.5 46l-5.5 46c-1.66699 14 -2.5 22 -2.5 24c-0.666992 4.66699 -3 7 -7 7h-100c-5.33301 0 -8.33301 -2 -9 -6c0 -1.33301 -1 -9 -3 -23s-4 -29.333 -6 -46l-5.5 -46.5
c-1.66699 -14.333 -2.5 -21.833 -2.5 -22.5c-0.666992 -2 -2.83398 -4 -6.50098 -6s-12.167 -3 -25.5 -3s-21.666 0.833008 -24.999 2.5s-4.66602 3.5 -3.99902 5.5c0 0.666992 1 10.334 3 29.001s4.83301 43.334 8.5 74.001l12 104.5l13.5 120l14 120
c4.66699 39 8.66699 74 12 105s6.16602 56 8.49902 75s3.5 29.167 3.5 30.5c1.33301 11.333 6 20.666 14 27.999s23.333 11 46 11zM262.006 771.999c-3.33301 -3.33301 -5.66699 -5.33105 -7 -5.99805s-2.33301 -1.33398 -3 -2.00098c-15.333 -10 -30.5 -14.167 -45.5 -12.5
s-29.833 4.5 -44.5 8.5s-29.167 6.83301 -43.5 8.5s-28.166 -2.5 -41.499 -12.5c-3.33301 -3.33301 -6.83301 -3.66602 -10.5 -0.999023s-7.16699 5.66699 -10.5 9s-6.16602 8 -8.49902 14s-1.5 10.667 2.5 14c14 9.33301 26.833 15.166 38.5 17.499s22.667 2.83301 33 1.5
s20.166 -3.5 29.499 -6.5s18.666 -5.33301 27.999 -7s19 -2 29 -1s20.667 5.5 32 13.5l1 1c2.66699 1.33301 6 1.16602 10 -0.500977s7.66699 -5.5 11 -11.5c6 -13.333 6 -22.333 0 -27z" />
    <glyph glyph-name="Adieresis" unicode="&#xc4;" horiz-adv-x="312" 
d="M200 201c5.33301 0 7.33594 3.33301 6.00293 10c0 0.666992 -1 8.83398 -3 24.501l-7.5 60.5l-10 82l-11 88c-3.66699 28.667 -6.83398 55 -9.50098 79l-6 55c-0.666992 5.33301 -1.33398 7.66602 -2.00098 6.99902s-1.33398 -3 -2.00098 -7
c-1.33301 -12.667 -3.5 -31 -6.5 -55l-9.5 -79c-3.33301 -28.667 -7 -58 -11 -88s-7.5 -57.333 -10.5 -82l-7.5 -61c-2 -16 -3 -24.333 -3 -25c0 -6 2 -9 6 -9h87zM156.003 700c23.333 0 39.1689 -3.66797 47.502 -11.001s13.166 -16 14.499 -26
c0 -1.33301 1.16699 -11.833 3.5 -31.5s5.16602 -45 8.49902 -76l11.5 -105l13.5 -119.5l13.5 -119.5l11.5 -104.5l8 -74c2 -18.667 3 -28.334 3 -29.001c0.666992 -1.33301 -1.16602 -3.16602 -5.49902 -5.49902s-12.5 -3.5 -24.5 -3.5s-19.833 1 -23.5 3
s-5.83398 3.66699 -6.50098 5c0 0.666992 -0.833008 8 -2.5 22l-5.5 46l-5.5 46c-1.66699 14 -2.5 22 -2.5 24c-0.666992 4.66699 -3 7 -7 7h-100c-5.33301 0 -8.33301 -2 -9 -6c0 -1.33301 -1 -9 -3 -23s-4 -29.333 -6 -46l-5.5 -46.5
c-1.66699 -14.333 -2.5 -21.833 -2.5 -22.5c-0.666992 -2 -2.83398 -4 -6.50098 -6s-12.167 -3 -25.5 -3s-21.666 0.833008 -24.999 2.5s-4.66602 3.5 -3.99902 5.5c0 0.666992 1 10.334 3 29.001s4.83301 43.334 8.5 74.001l12 104.5l13.5 120l14 120
c4.66699 39 8.66699 74 12 105s6.16602 56 8.49902 75s3.5 29.167 3.5 30.5c1.33301 11.333 6 20.666 14 27.999s23.333 11 46 11zM98.0059 799.999c9.33301 0 17 -0.665039 23 -1.99805s9 -3.33301 9 -6v-43c0 -3.33301 -3 -5.83301 -9 -7.5s-13.667 -2.5 -23 -2.5
s-17 0.666992 -23 2s-9 3.66602 -9 6.99902v1v42c0 3.33301 3 5.66602 9 6.99902s13.667 2 23 2zM214.006 800.001c9.33301 0 17 -0.665039 23 -1.99805s9 -3.33301 9 -6v-43c0 -3.33301 -3 -5.83301 -9 -7.5s-13.667 -2.5 -23 -2.5s-17 0.666992 -23 2
s-9 3.66602 -9 6.99902v1v42c0 3.33301 3 5.66602 9 6.99902s13.667 2 23 2z" />
    <glyph glyph-name="Aring" unicode="&#xc5;" horiz-adv-x="312" 
d="M200 201c5.33301 0 7.33594 3.33301 6.00293 10c0 0.666992 -1 8.83398 -3 24.501l-7.5 60.5l-10 82l-11 88c-3.66699 28.667 -6.83398 55 -9.50098 79l-6 55c-0.666992 5.33301 -1.33398 7.66602 -2.00098 6.99902s-1.33398 -3 -2.00098 -7
c-1.33301 -12.667 -3.5 -31 -6.5 -55l-9.5 -79c-3.33301 -28.667 -7 -58 -11 -88s-7.5 -57.333 -10.5 -82l-7.5 -61c-2 -16 -3 -24.333 -3 -25c0 -6 2 -9 6 -9h87zM156.003 700c23.333 0 39.1689 -3.66797 47.502 -11.001s13.166 -16 14.499 -26
c0 -1.33301 1.16699 -11.833 3.5 -31.5s5.16602 -45 8.49902 -76l11.5 -105l13.5 -119.5l13.5 -119.5l11.5 -104.5l8 -74c2 -18.667 3 -28.334 3 -29.001c0.666992 -1.33301 -1.16602 -3.16602 -5.49902 -5.49902s-12.5 -3.5 -24.5 -3.5s-19.833 1 -23.5 3
s-5.83398 3.66699 -6.50098 5c0 0.666992 -0.833008 8 -2.5 22l-5.5 46l-5.5 46c-1.66699 14 -2.5 22 -2.5 24c-0.666992 4.66699 -3 7 -7 7h-100c-5.33301 0 -8.33301 -2 -9 -6c0 -1.33301 -1 -9 -3 -23s-4 -29.333 -6 -46l-5.5 -46.5
c-1.66699 -14.333 -2.5 -21.833 -2.5 -22.5c-0.666992 -2 -2.83398 -4 -6.50098 -6s-12.167 -3 -25.5 -3s-21.666 0.833008 -24.999 2.5s-4.66602 3.5 -3.99902 5.5c0 0.666992 1 10.334 3 29.001s4.83301 43.334 8.5 74.001l12 104.5l13.5 120l14 120
c4.66699 39 8.66699 74 12 105s6.16602 56 8.49902 75s3.5 29.167 3.5 30.5c1.33301 11.333 6 20.666 14 27.999s23.333 11 46 11zM162.006 892.999c22 0 38.833 -5 50.5 -15s17.5 -26.333 17.5 -49v-14c0 -45.333 -22.667 -68 -68 -68h-12c-45.333 0 -68 21.667 -68 65v14
c0 23.333 5.83301 40.333 17.5 51s28.5 16 50.5 16h12zM182.006 828.999c0 7.33301 -2 13.332 -6 17.999s-10.333 7 -19 7h-2c-8 0 -14.167 -3 -18.5 -9s-6.5 -13 -6.5 -21v-12c0 -7.33301 2 -13.333 6 -18s10.667 -7 20 -7h1c8 0 14.167 2.83301 18.5 8.5
s6.5 12.834 6.5 21.501v12z" />
    <glyph glyph-name="AE" unicode="&#xc6;" horiz-adv-x="510" 
d="M470 51c3.33301 0 5.83496 -1.49902 7.50195 -4.49902s2.5 -10.167 2.5 -21.5c0 -10.667 -0.833008 -17.5 -2.5 -20.5s-4.16699 -4.5 -7.5 -4.5h-175c-6 0 -9 2.66699 -9 8v137c0 4.66699 -2.66699 7 -8 7h-151l-45 -147c-2 -6.66699 -12 -10 -30 -10
c-9.33301 0 -17.5 0.5 -24.5 1.5s-9.16699 5.16699 -6.5 12.5l196 654c7.33301 21.333 19.666 32 36.999 32h214c3.33301 0 6.16602 -2.33301 8.49902 -7s3.5 -10.334 3.5 -17.001c0 -6 -1 -11.833 -3 -17.5s-4.66699 -8.5 -8 -8.5h-115c-4.66699 0 -7 -2 -7 -6v-252
c0 -4 2 -6 6 -6h105c2 0 4.16699 -1.66699 6.5 -5s3.5 -10.333 3.5 -21c0 -11.333 -1 -18.5 -3 -21.5s-4.66699 -4.5 -8 -4.5h-103c-4.66699 0 -7 -2.66699 -7 -8v-264c0 -4 2.33301 -6 7 -6h116zM280.002 202.001c4 0 6.00098 3.00195 6.00098 9.00195v425c0 6 -2 9 -6 9
c-2.66699 0 -4.33398 -0.833008 -5.00098 -2.5s-1.66699 -3.83398 -3 -6.50098c0 -0.666992 -2 -7.33398 -6 -20.001l-15.5 -50l-21 -70l-23.5 -79l-64 -215h138z" />
    <glyph glyph-name="Ccedilla" unicode="&#xc7;" horiz-adv-x="310" 
d="M160 -46c14 0 25.8301 -4.99707 35.4971 -14.9971s14.5 -24 14.5 -42c-0.666992 -16 -6.5 -29.333 -17.5 -40s-26.167 -16 -45.5 -16c-7.33301 0 -13.666 0.666992 -18.999 2s-9.66602 2.66602 -12.999 3.99902c-4 2 -7.66699 4.33301 -11 7
c-2.66699 2.66699 -4 4.5 -4 5.5s0.666992 4.16699 2 9.5c2 8 4.33301 11.667 7 11c3.33301 -0.666992 7.83301 -2.66699 13.5 -6s14.167 -5 25.5 -5c8 0 14.5 2.66699 19.5 8s7.5 11.666 7.5 18.999v2c0 16 -7.66699 25 -23 27l-23 3c-6.66699 0 -9 2.66699 -7 8
c0.666992 0.666992 2.16699 4.16699 4.5 10.5l7.5 20.5l8 21c2.66699 6.66699 4.33398 10.667 5.00098 12h-20c-58 0 -87 27.667 -87 83v526c0 30 7.33301 51.833 22 65.5s36.334 20.5 65.001 20.5h66c28 0 49.5 -6.5 64.5 -19.5s22.5 -34.167 22.5 -63.5v-48
c0 -2 -3 -4 -9 -6s-13.333 -3 -22 -3c-9.33301 0 -16.833 0.833008 -22.5 2.5s-8.5 3.83398 -8.5 6.50098v48c0 9.33301 -2.5 17.166 -7.5 23.499s-13.167 9.5 -24.5 9.5h-52c-21.333 0 -32 -13 -32 -39v-523c0 -9.33301 2.5 -17 7.5 -23s13.167 -9 24.5 -9h52
c21.333 0 32 10.667 32 32v56c0 2 2.66699 4.5 8 7.5s12.666 4.5 21.999 4.5s17 -1.33301 23 -4s9 -5.33398 9 -8.00098v-56c0 -30 -7.5 -51.333 -22.5 -64s-36.5 -19 -64.5 -19h-16l-18 -46h1v0z" />
    <glyph glyph-name="Egrave" unicode="&#xc8;" horiz-adv-x="264" 
d="M223 51c3.33301 0 6 -1.33203 8 -3.99902s3 -9.66699 3 -21c0 -10.667 -1 -17.667 -3 -21s-4.33301 -5 -7 -5l-176 1c-5.33301 0 -8 2.33301 -8 7v678c0 6 3 9 9 9h173c3.33301 0 6 -2.33301 8 -7s3 -10.334 3 -17.001c0 -6 -0.833008 -11.833 -2.5 -17.5
s-4.16699 -8.5 -7.5 -8.5h-116c-4 0 -6 -2 -6 -6v-252c0 -4 1.66699 -6 5 -6h106c2 0 4.16699 -1.5 6.5 -4.5s3.5 -10.167 3.5 -21.5s-1.16699 -18.5 -3.5 -21.5s-4.83301 -4.5 -7.5 -4.5h-103c-4.66699 0 -7 -2.66699 -7 -8v-263c0 -4.66699 2.33301 -7 7 -7h115z
M198 773.001c2.66699 -5.33301 -0.667969 -12.668 -10.001 -22.001c-10 -10 -17.333 -13.667 -22 -11l-93 94c-4 4 -6 8.16699 -6 12.5s4.33301 10.5 13 18.5c8 8.66699 14.5 13.334 19.5 14.001s9.16699 -1 12.5 -5l25.5 -30l28.5 -33
c10.667 -12 21.334 -24.667 32.001 -38z" />
    <glyph glyph-name="Eacute" unicode="&#xc9;" horiz-adv-x="264" 
d="M223 51c3.33301 0 6 -1.33203 8 -3.99902s3 -9.66699 3 -21c0 -10.667 -1 -17.667 -3 -21s-4.33301 -5 -7 -5l-176 1c-5.33301 0 -8 2.33301 -8 7v678c0 6 3 9 9 9h173c3.33301 0 6 -2.33301 8 -7s3 -10.334 3 -17.001c0 -6 -0.833008 -11.833 -2.5 -17.5
s-4.16699 -8.5 -7.5 -8.5h-116c-4 0 -6 -2 -6 -6v-252c0 -4 1.66699 -6 5 -6h106c2 0 4.16699 -1.5 6.5 -4.5s3.5 -10.167 3.5 -21.5s-1.16699 -18.5 -3.5 -21.5s-4.83301 -4.5 -7.5 -4.5h-103c-4.66699 0 -7 -2.66699 -7 -8v-263c0 -4.66699 2.33301 -7 7 -7h115z
M152 874.001c3.33301 4 7.49902 5.66797 12.499 5.00098s11.833 -5.33398 20.5 -14.001c8 -8 12.167 -14.167 12.5 -18.5s-1.5 -8.5 -5.5 -12.5l-94 -94c-4 -2.66699 -11 1 -21 11s-13.333 17.333 -10 22c10.667 13.333 21.334 26 32.001 38l28 33z" />
    <glyph glyph-name="Ecircumflex" unicode="&#xca;" horiz-adv-x="264" 
d="M223 51c3.33301 0 6 -1.33203 8 -3.99902s3 -9.66699 3 -21c0 -10.667 -1 -17.667 -3 -21s-4.33301 -5 -7 -5l-176 1c-5.33301 0 -8 2.33301 -8 7v678c0 6 3 9 9 9h173c3.33301 0 6 -2.33301 8 -7s3 -10.334 3 -17.001c0 -6 -0.833008 -11.833 -2.5 -17.5
s-4.16699 -8.5 -7.5 -8.5h-116c-4 0 -6 -2 -6 -6v-252c0 -4 1.66699 -6 5 -6h106c2 0 4.16699 -1.5 6.5 -4.5s3.5 -10.167 3.5 -21.5s-1.16699 -18.5 -3.5 -21.5s-4.83301 -4.5 -7.5 -4.5h-103c-4.66699 0 -7 -2.66699 -7 -8v-263c0 -4.66699 2.33301 -7 7 -7h115z
M251 784.001c2 -2 1.49902 -5.50098 -1.50098 -10.501s-6.16699 -9.5 -9.5 -13.5c-3.33301 -3.33301 -7.5 -6.66602 -12.5 -9.99902s-8.5 -4 -10.5 -2l-75 74c-3.33301 3.33301 -6.33301 5.16602 -9 5.49902s-6 -1.16699 -10 -4.5l-12 -12.5l-25 -25.5l-36 -36
c-2.66699 -2.66699 -6 -2.66699 -10 0s-8.66699 6.33398 -14 11.001c-5.33301 5.33301 -9.16602 10.166 -11.499 14.499s-2.5 7.5 -0.5 9.5l85 85c12 12 23.333 17.833 34 17.5s21.667 -6.16602 33 -17.499z" />
    <glyph glyph-name="Edieresis" unicode="&#xcb;" horiz-adv-x="264" 
d="M223 51c3.33301 0 6 -1.33203 8 -3.99902s3 -9.66699 3 -21c0 -10.667 -1 -17.667 -3 -21s-4.33301 -5 -7 -5l-176 1c-5.33301 0 -8 2.33301 -8 7v678c0 6 3 9 9 9h173c3.33301 0 6 -2.33301 8 -7s3 -10.334 3 -17.001c0 -6 -0.833008 -11.833 -2.5 -17.5
s-4.16699 -8.5 -7.5 -8.5h-116c-4 0 -6 -2 -6 -6v-252c0 -4 1.66699 -6 5 -6h106c2 0 4.16699 -1.5 6.5 -4.5s3.5 -10.167 3.5 -21.5s-1.16699 -18.5 -3.5 -21.5s-4.83301 -4.5 -7.5 -4.5h-103c-4.66699 0 -7 -2.66699 -7 -8v-263c0 -4.66699 2.33301 -7 7 -7h115z
M74 800.001c9.33301 0 17 -0.665039 23 -1.99805s9 -3.33301 9 -6v-43c0 -3.33301 -3 -5.83301 -9 -7.5s-13.667 -2.5 -23 -2.5s-17 0.666992 -23 2s-9 3.66602 -9 6.99902v1v42c0 3.33301 3 5.66602 9 6.99902s13.667 2 23 2zM190 800.003
c9.33301 0 17 -0.665039 23 -1.99805s9 -3.33301 9 -6v-43c0 -3.33301 -3 -5.83301 -9 -7.5s-13.667 -2.5 -23 -2.5s-17 0.666992 -23 2s-9 3.66602 -9 6.99902v1v42c0 3.33301 3 5.66602 9 6.99902s13.667 2 23 2z" />
    <glyph glyph-name="Igrave" unicode="&#xcc;" horiz-adv-x="163" 
d="M82 -5c-21.333 0 -32 3 -32 9v685c0 2.66699 2.33301 5.16699 7 7.5s12.667 3.5 24 3.5s19.5 -1.16699 24.5 -3.5s7.5 -4.83301 7.5 -7.5v-683c0 -7.33301 -10.333 -11 -31 -11zM147 773c2.66699 -5.33301 -0.667969 -12.668 -10.001 -22.001
c-10 -10 -17.333 -13.667 -22 -11l-93 94c-4 4 -6 8.16699 -6 12.5s4.33301 10.5 13 18.5c8 8.66699 14.5 13.334 19.5 14.001s9.16699 -1 12.5 -5l25.5 -30l28.5 -33c10.667 -12 21.334 -24.667 32.001 -38z" />
    <glyph glyph-name="Iacute" unicode="&#xcd;" horiz-adv-x="163" 
d="M82 -5c-21.333 0 -32 3 -32 9v685c0 2.66699 2.33301 5.16699 7 7.5s12.667 3.5 24 3.5s19.5 -1.16699 24.5 -3.5s7.5 -4.83301 7.5 -7.5v-683c0 -7.33301 -10.333 -11 -31 -11zM101 874c3.33301 4 7.49902 5.66797 12.499 5.00098s11.833 -5.33398 20.5 -14.001
c8 -8 12.167 -14.167 12.5 -18.5s-1.5 -8.5 -5.5 -12.5l-94 -94c-4 -2.66699 -11 1 -21 11s-13.333 17.333 -10 22c10.667 13.333 21.334 26 32.001 38l28 33z" />
    <glyph glyph-name="Icircumflex" unicode="&#xce;" horiz-adv-x="163" 
d="M82 -5c-21.333 0 -32 3 -32 9v685c0 2.66699 2.33301 5.16699 7 7.5s12.667 3.5 24 3.5s19.5 -1.16699 24.5 -3.5s7.5 -4.83301 7.5 -7.5v-683c0 -7.33301 -10.333 -11 -31 -11zM200 791c2 -2 1.49902 -5.50098 -1.50098 -10.501s-6.16699 -9.5 -9.5 -13.5
c-3.33301 -3.33301 -7.5 -6.66602 -12.5 -9.99902s-8.5 -4 -10.5 -2l-75 74c-3.33301 3.33301 -6.33301 5.16602 -9 5.49902s-6 -1.16699 -10 -4.5l-12 -12.5l-25 -25.5l-36 -36c-2.66699 -2.66699 -6 -2.66699 -10 0s-8.66699 6.33398 -14 11.001
c-5.33301 5.33301 -9.16602 10.166 -11.499 14.499s-2.5 7.5 -0.5 9.5l85 85c12 12 23.333 17.833 34 17.5s21.667 -6.16602 33 -17.499z" />
    <glyph glyph-name="Idieresis" unicode="&#xcf;" horiz-adv-x="163" 
d="M82 -5c-21.333 0 -32 3 -32 9v685c0 2.66699 2.33301 5.16699 7 7.5s12.667 3.5 24 3.5s19.5 -1.16699 24.5 -3.5s7.5 -4.83301 7.5 -7.5v-683c0 -7.33301 -10.333 -11 -31 -11zM24 800c9.33301 0 17 -0.665039 23 -1.99805s9 -3.33301 9 -6v-43
c0 -3.33301 -3 -5.83301 -9 -7.5s-13.667 -2.5 -23 -2.5s-17 0.666992 -23 2s-9 3.66602 -9 6.99902v1v42c0 3.33301 3 5.66602 9 6.99902s13.667 2 23 2zM140 800.002c9.33301 0 17 -0.665039 23 -1.99805s9 -3.33301 9 -6v-43c0 -3.33301 -3 -5.83301 -9 -7.5
s-13.667 -2.5 -23 -2.5s-17 0.666992 -23 2s-9 3.66602 -9 6.99902v1v42c0 3.33301 3 5.66602 9 6.99902s13.667 2 23 2z" />
    <glyph glyph-name="Ntilde" unicode="&#xd1;" horiz-adv-x="327" 
d="M286 6c0 -2.66699 -2.33301 -5.16602 -7 -7.49902s-12.334 -3.5 -23.001 -3.5s-18.167 1.33301 -22.5 4s-7.16602 5.33398 -8.49902 8.00098c0 0.666992 -3 11.5 -9 32.5l-22.5 78l-28.5 100.5l-28.5 100l-22.5 77c-6 20.667 -9 31.334 -9 32.001
c-0.666992 2 -1.33398 3.16699 -2.00098 3.5s-1 -0.833984 -1 -3.50098v-421c0 -2 -2.66699 -4.33301 -8 -7s-13 -4 -23 -4c-9.33301 0 -16.833 1.16699 -22.5 3.5s-8.5 5.16602 -8.5 8.49902v681c0 5.33301 2.5 8.66602 7.5 9.99902s12.833 2 23.5 2
c20 0 31.333 -2.66699 34 -8l57 -207l21.5 -76.5l18.5 -67c5.33301 -19.667 9.83301 -35.667 13.5 -48s5.5 -18.833 5.5 -19.5c0.666992 -2 1.33398 -3.66699 2.00098 -5s1 0.666992 1 6v415c0 6.66699 10.333 10 31 10c21.333 0 32 -3.66699 32 -11zM270 772.001
c-3.33301 -3.33301 -5.66699 -5.33105 -7 -5.99805s-2.33301 -1.33398 -3 -2.00098c-15.333 -10 -30.5 -14.167 -45.5 -12.5s-29.833 4.5 -44.5 8.5s-29.167 6.83301 -43.5 8.5s-28.166 -2.5 -41.499 -12.5c-3.33301 -3.33301 -6.83301 -3.66602 -10.5 -0.999023
s-7.16699 5.66699 -10.5 9s-6.16602 8 -8.49902 14s-1.5 10.667 2.5 14c14 9.33301 26.833 15.166 38.5 17.499s22.667 2.83301 33 1.5s20.166 -3.5 29.499 -6.5s18.666 -5.33301 27.999 -7s19 -2 29 -1s20.667 5.5 32 13.5l1 1c2.66699 1.33301 6 1.16602 10 -0.500977
s7.66699 -5.5 11 -11.5c6 -13.333 6 -22.333 0 -27z" />
    <glyph glyph-name="Ograve" unicode="&#xd2;" 
d="M218 612c0 9.33301 -2.5 17 -7.5 23s-13.167 9 -24.5 9h-52c-10.667 0 -18.667 -3.66699 -24 -11s-8 -16.333 -8 -27v-523c0 -9.33301 2.66699 -17 8 -23s13.333 -9 24 -9h52c10.667 0 18.667 3.66699 24 11s8 16.333 8 27v523zM193 695
c28.667 0 50.334 -6.5 65.001 -19.5s22 -34.167 22 -63.5v-526c0 -30 -7.33301 -51.833 -22 -65.5s-36.334 -20.5 -65.001 -20.5h-65c-28.667 0 -50.5 6.5 -65.5 19.5s-22.5 34.167 -22.5 63.5v526c0 30 7.5 51.833 22.5 65.5s36.833 20.5 65.5 20.5h65zM226 773
c2.66699 -5.33301 -0.667969 -12.668 -10.001 -22.001c-10 -10 -17.333 -13.667 -22 -11l-93 94c-4 4 -6 8.16699 -6 12.5s4.33301 10.5 13 18.5c8 8.66699 14.5 13.334 19.5 14.001s9.16699 -1 12.5 -5l25.5 -30l28.5 -33c10.667 -12 21.334 -24.667 32.001 -38z" />
    <glyph glyph-name="Oacute" unicode="&#xd3;" 
d="M218 612c0 9.33301 -2.5 17 -7.5 23s-13.167 9 -24.5 9h-52c-10.667 0 -18.667 -3.66699 -24 -11s-8 -16.333 -8 -27v-523c0 -9.33301 2.66699 -17 8 -23s13.333 -9 24 -9h52c10.667 0 18.667 3.66699 24 11s8 16.333 8 27v523zM193 695
c28.667 0 50.334 -6.5 65.001 -19.5s22 -34.167 22 -63.5v-526c0 -30 -7.33301 -51.833 -22 -65.5s-36.334 -20.5 -65.001 -20.5h-65c-28.667 0 -50.5 6.5 -65.5 19.5s-22.5 34.167 -22.5 63.5v526c0 30 7.5 51.833 22.5 65.5s36.833 20.5 65.5 20.5h65zM180 874
c3.33301 4 7.49902 5.66797 12.499 5.00098s11.833 -5.33398 20.5 -14.001c8 -8 12.167 -14.167 12.5 -18.5s-1.5 -8.5 -5.5 -12.5l-94 -94c-4 -2.66699 -11 1 -21 11s-13.333 17.333 -10 22c10.667 13.333 21.334 26 32.001 38l28 33z" />
    <glyph glyph-name="Ocircumflex" unicode="&#xd4;" 
d="M218 612c0 9.33301 -2.5 17 -7.5 23s-13.167 9 -24.5 9h-52c-10.667 0 -18.667 -3.66699 -24 -11s-8 -16.333 -8 -27v-523c0 -9.33301 2.66699 -17 8 -23s13.333 -9 24 -9h52c10.667 0 18.667 3.66699 24 11s8 16.333 8 27v523zM193 695
c28.667 0 50.334 -6.5 65.001 -19.5s22 -34.167 22 -63.5v-526c0 -30 -7.33301 -51.833 -22 -65.5s-36.334 -20.5 -65.001 -20.5h-65c-28.667 0 -50.5 6.5 -65.5 19.5s-22.5 34.167 -22.5 63.5v526c0 30 7.5 51.833 22.5 65.5s36.833 20.5 65.5 20.5h65zM278 784
c2 -2 1.49902 -5.50098 -1.50098 -10.501s-6.16699 -9.5 -9.5 -13.5c-3.33301 -3.33301 -7.5 -6.66602 -12.5 -9.99902s-8.5 -4 -10.5 -2l-75 74c-3.33301 3.33301 -6.33301 5.16602 -9 5.49902s-6 -1.16699 -10 -4.5l-12 -12.5l-25 -25.5l-36 -36
c-2.66699 -2.66699 -6 -2.66699 -10 0s-8.66699 6.33398 -14 11.001c-5.33301 5.33301 -9.16602 10.166 -11.499 14.499s-2.5 7.5 -0.5 9.5l85 85c12 12 23.333 17.833 34 17.5s21.667 -6.16602 33 -17.499z" />
    <glyph glyph-name="Otilde" unicode="&#xd5;" 
d="M218 612c0 9.33301 -2.5 17 -7.5 23s-13.167 9 -24.5 9h-52c-10.667 0 -18.667 -3.66699 -24 -11s-8 -16.333 -8 -27v-523c0 -9.33301 2.66699 -17 8 -23s13.333 -9 24 -9h52c10.667 0 18.667 3.66699 24 11s8 16.333 8 27v523zM193 695
c28.667 0 50.334 -6.5 65.001 -19.5s22 -34.167 22 -63.5v-526c0 -30 -7.33301 -51.833 -22 -65.5s-36.334 -20.5 -65.001 -20.5h-65c-28.667 0 -50.5 6.5 -65.5 19.5s-22.5 34.167 -22.5 63.5v526c0 30 7.5 51.833 22.5 65.5s36.833 20.5 65.5 20.5h65zM266 772
c-3.33301 -3.33301 -5.66699 -5.33105 -7 -5.99805s-2.33301 -1.33398 -3 -2.00098c-15.333 -10 -30.5 -14.167 -45.5 -12.5s-29.833 4.5 -44.5 8.5s-29.167 6.83301 -43.5 8.5s-28.166 -2.5 -41.499 -12.5c-3.33301 -3.33301 -6.83301 -3.66602 -10.5 -0.999023
s-7.16699 5.66699 -10.5 9s-6.16602 8 -8.49902 14s-1.5 10.667 2.5 14c14 9.33301 26.833 15.166 38.5 17.499s22.667 2.83301 33 1.5s20.166 -3.5 29.499 -6.5s18.666 -5.33301 27.999 -7s19 -2 29 -1s20.667 5.5 32 13.5l1 1c2.66699 1.33301 6 1.16602 10 -0.500977
s7.66699 -5.5 11 -11.5c6 -13.333 6 -22.333 0 -27z" />
    <glyph glyph-name="Odieresis" unicode="&#xd6;" 
d="M218 612c0 9.33301 -2.5 17 -7.5 23s-13.167 9 -24.5 9h-52c-10.667 0 -18.667 -3.66699 -24 -11s-8 -16.333 -8 -27v-523c0 -9.33301 2.66699 -17 8 -23s13.333 -9 24 -9h52c10.667 0 18.667 3.66699 24 11s8 16.333 8 27v523zM193 695
c28.667 0 50.334 -6.5 65.001 -19.5s22 -34.167 22 -63.5v-526c0 -30 -7.33301 -51.833 -22 -65.5s-36.334 -20.5 -65.001 -20.5h-65c-28.667 0 -50.5 6.5 -65.5 19.5s-22.5 34.167 -22.5 63.5v526c0 30 7.5 51.833 22.5 65.5s36.833 20.5 65.5 20.5h65zM102 800
c9.33301 0 17 -0.665039 23 -1.99805s9 -3.33301 9 -6v-43c0 -3.33301 -3 -5.83301 -9 -7.5s-13.667 -2.5 -23 -2.5s-17 0.666992 -23 2s-9 3.66602 -9 6.99902v1v42c0 3.33301 3 5.66602 9 6.99902s13.667 2 23 2zM218 800.002c9.33301 0 17 -0.665039 23 -1.99805
s9 -3.33301 9 -6v-43c0 -3.33301 -3 -5.83301 -9 -7.5s-13.667 -2.5 -23 -2.5s-17 0.666992 -23 2s-9 3.66602 -9 6.99902v1v42c0 3.33301 3 5.66602 9 6.99902s13.667 2 23 2z" />
    <glyph glyph-name="multiply" unicode="&#xd7;" horiz-adv-x="290" 
d="M266 222c2 -2 1.5 -5.50391 -1.5 -10.5039s-7.83301 -10.833 -14.5 -17.5c-6.66699 -7.33301 -12.5 -12.5 -17.5 -15.5s-8.5 -3.5 -10.5 -1.5l-73 74c-2.66699 2.66699 -5.66699 2.33398 -9 -0.999023l-38 -38l-35 -35c-2 -2 -5.66699 -1.66699 -11 1
s-11 7.33398 -17 14.001c-15.333 14.667 -21 24 -17 28l76 76c2 2 1.66699 4.33301 -1 7l-75 75c-2.66699 2.66699 -2.33398 6.33398 0.999023 11.001s8.33301 10.334 15 17.001c14 15.333 23.333 20.666 28 15.999l76 -76c2 -2 4 -2 6 0l12.5 13l25.5 26l37 36
c2.66699 2.66699 6.5 2.33398 11.5 -0.999023s10.5 -8.33301 16.5 -15c7.33301 -6.66699 12.5 -12.5 15.5 -17.5s3.5 -8.5 1.5 -10.5l-75 -75c-3.33301 -1.33301 -3.66602 -3.33301 -0.999023 -6l74 -74v0z" />
    <glyph glyph-name="Oslash" unicode="&#xd8;" 
d="M230 738c8.66699 0 16.668 -0.667969 24.001 -2.00098s9.66602 -6.33301 6.99902 -15l-8 -42c8.66699 -7.33301 15.334 -16.333 20.001 -27s7 -24 7 -40v-526c0 -30 -7.33301 -51.833 -22 -65.5s-36.334 -20.5 -65.001 -20.5h-65h-1l-6 -32
c-2 -7.33301 -12.333 -11 -31 -11c-8.66699 0 -16.5 0.5 -23.5 1.5s-9.16699 5.5 -6.5 13.5l8 43c-18.667 12.667 -28 35.334 -28 68.001v526c0 30 7.5 51.833 22.5 65.5s36.833 20.5 65.5 20.5h65l6 32c2 7.33301 12.333 11 31 11zM102.001 199.999l81 444h-49
c-10.667 0 -18.667 -3.66699 -24 -11s-8 -16.333 -8 -27v-406zM218.001 488.999l-82 -438h50c10.667 0 18.667 3.66699 24 11s8 16.333 8 27v400z" />
    <glyph glyph-name="Ugrave" unicode="&#xd9;" horiz-adv-x="321" 
d="M281 87c0 -30 -7.33008 -51.999 -21.9971 -65.999s-36.667 -21 -66 -21h-66c-28.667 0 -50.334 6.66699 -65.001 20s-22 34.666 -22 63.999v606c0 2.66699 3 5 9 7s13 3 21 3s15.167 -1 21.5 -3s9.5 -4.66699 9.5 -8v-605c0 -9.33301 2.66699 -17 8 -23
s13.666 -9 24.999 -9h53c10.667 0 18.667 3.66699 24 11s8 16.333 8 27v600c0 2.66699 2.66699 5 8 7s12.666 3 21.999 3s17 -1 23 -3s9 -4.66699 9 -8v-602zM226.003 773.001c2.66699 -5.33301 -0.667969 -12.668 -10.001 -22.001c-10 -10 -17.333 -13.667 -22 -11l-93 94
c-4 4 -6 8.16699 -6 12.5s4.33301 10.5 13 18.5c8 8.66699 14.5 13.334 19.5 14.001s9.16699 -1 12.5 -5l25.5 -30l28.5 -33c10.667 -12 21.334 -24.667 32.001 -38z" />
    <glyph glyph-name="Uacute" unicode="&#xda;" horiz-adv-x="321" 
d="M281 87c0 -30 -7.33008 -51.999 -21.9971 -65.999s-36.667 -21 -66 -21h-66c-28.667 0 -50.334 6.66699 -65.001 20s-22 34.666 -22 63.999v606c0 2.66699 3 5 9 7s13 3 21 3s15.167 -1 21.5 -3s9.5 -4.66699 9.5 -8v-605c0 -9.33301 2.66699 -17 8 -23
s13.666 -9 24.999 -9h53c10.667 0 18.667 3.66699 24 11s8 16.333 8 27v600c0 2.66699 2.66699 5 8 7s12.666 3 21.999 3s17 -1 23 -3s9 -4.66699 9 -8v-602zM180.003 874.001c3.33301 4 7.49902 5.66797 12.499 5.00098s11.833 -5.33398 20.5 -14.001
c8 -8 12.167 -14.167 12.5 -18.5s-1.5 -8.5 -5.5 -12.5l-94 -94c-4 -2.66699 -11 1 -21 11s-13.333 17.333 -10 22c10.667 13.333 21.334 26 32.001 38l28 33z" />
    <glyph glyph-name="Ucircumflex" unicode="&#xdb;" horiz-adv-x="321" 
d="M281 87c0 -30 -7.33008 -51.999 -21.9971 -65.999s-36.667 -21 -66 -21h-66c-28.667 0 -50.334 6.66699 -65.001 20s-22 34.666 -22 63.999v606c0 2.66699 3 5 9 7s13 3 21 3s15.167 -1 21.5 -3s9.5 -4.66699 9.5 -8v-605c0 -9.33301 2.66699 -17 8 -23
s13.666 -9 24.999 -9h53c10.667 0 18.667 3.66699 24 11s8 16.333 8 27v600c0 2.66699 2.66699 5 8 7s12.666 3 21.999 3s17 -1 23 -3s9 -4.66699 9 -8v-602zM279.003 784.001c2 -2 1.49902 -5.50098 -1.50098 -10.501s-6.16699 -9.5 -9.5 -13.5
c-3.33301 -3.33301 -7.5 -6.66602 -12.5 -9.99902s-8.5 -4 -10.5 -2l-75 74c-3.33301 3.33301 -6.33301 5.16602 -9 5.49902s-6 -1.16699 -10 -4.5l-12 -12.5l-25 -25.5l-36 -36c-2.66699 -2.66699 -6 -2.66699 -10 0s-8.66699 6.33398 -14 11.001
c-5.33301 5.33301 -9.16602 10.166 -11.499 14.499s-2.5 7.5 -0.5 9.5l85 85c12 12 23.333 17.833 34 17.5s21.667 -6.16602 33 -17.499z" />
    <glyph glyph-name="Udieresis" unicode="&#xdc;" horiz-adv-x="321" 
d="M281 87c0 -30 -7.33008 -51.999 -21.9971 -65.999s-36.667 -21 -66 -21h-66c-28.667 0 -50.334 6.66699 -65.001 20s-22 34.666 -22 63.999v606c0 2.66699 3 5 9 7s13 3 21 3s15.167 -1 21.5 -3s9.5 -4.66699 9.5 -8v-605c0 -9.33301 2.66699 -17 8 -23
s13.666 -9 24.999 -9h53c10.667 0 18.667 3.66699 24 11s8 16.333 8 27v600c0 2.66699 2.66699 5 8 7s12.666 3 21.999 3s17 -1 23 -3s9 -4.66699 9 -8v-602zM102.003 800.001c9.33301 0 17 -0.665039 23 -1.99805s9 -3.33301 9 -6v-43c0 -3.33301 -3 -5.83301 -9 -7.5
s-13.667 -2.5 -23 -2.5s-17 0.666992 -23 2s-9 3.66602 -9 6.99902v1v42c0 3.33301 3 5.66602 9 6.99902s13.667 2 23 2zM218.003 800.003c9.33301 0 17 -0.665039 23 -1.99805s9 -3.33301 9 -6v-43c0 -3.33301 -3 -5.83301 -9 -7.5s-13.667 -2.5 -23 -2.5
s-17 0.666992 -23 2s-9 3.66602 -9 6.99902v1v42c0 3.33301 3 5.66602 9 6.99902s13.667 2 23 2z" />
    <glyph glyph-name="Yacute" unicode="&#xdd;" horiz-adv-x="300" 
d="M252 700c20 0 29.001 -3.66992 27.001 -11.0029c-1.33301 -4.66699 -3.66602 -13.5 -6.99902 -26.5l-12 -46.5l-15.5 -59l-17.5 -65l-44 -169c-1.33301 -3.33301 -2 -7.66602 -2 -12.999v-298v-7c0 -2 -2.66699 -4.16699 -8 -6.5s-12.333 -3.5 -21 -3.5
c-9.33301 0 -16.5 1.16699 -21.5 3.5s-7.5 5.16602 -7.5 8.49902v6v296v6c0 0.666992 -0.333008 2.33398 -1 5.00098l-47 170l-18 65.5l-16.5 59.5c-5 18 -9.16699 33.667 -12.5 47s-5.66602 22.333 -6.99902 27c-2 7.33301 7 11 27 11c19.333 1.33301 29.666 -1 30.999 -7
l69 -252c1.33301 -3.33301 2.66602 -3.66602 3.99902 -0.999023l34 126l35 126c1.33301 6.66699 11.666 9.33398 30.999 8.00098zM170.001 873.997c3.33301 4 7.49902 5.66797 12.499 5.00098s11.833 -5.33398 20.5 -14.001c8 -8 12.167 -14.167 12.5 -18.5
s-1.5 -8.5 -5.5 -12.5l-94 -94c-4 -2.66699 -11 1 -21 11s-13.333 17.333 -10 22c10.667 13.333 21.334 26 32.001 38l28 33z" />
    <glyph glyph-name="germandbls" unicode="&#xdf;" horiz-adv-x="576" 
d="M238 552c-9.33301 0 -16.8301 1.3291 -22.4971 3.99609s-8.5 5 -8.5 7v49c0 9.33301 -2.5 17 -7.5 23s-13.167 9 -24.5 9h-11h-41c-10.667 0 -18.667 -3.66699 -24 -11s-8 -16.333 -8 -27v-84c0 -18.667 4.33301 -35.5 13 -50.5s19.667 -29.5 33 -43.5
s27.666 -28 42.999 -42s29.666 -29.333 42.999 -46s24.333 -35.167 33 -55.5s13 -43.5 13 -69.5v-129c0 -30 -7.33301 -51.833 -22 -65.5s-36.334 -20.5 -65.001 -20.5h-65c-28.667 0 -50.334 6.5 -65.001 19.5s-22 34.167 -22 63.5v49c0 2 2.33301 4.5 7 7.5
s12.667 4.5 24 4.5c20 0 30 -4 30 -12v-49c0 -9.33301 2.66699 -17 8 -23s13.666 -9 24.999 -9h51c10.667 0 18.667 3.66699 24 11s8 16.333 8 27v129c0 16.667 -4.33301 32.834 -13 48.501s-19.667 31.334 -33 47.001s-27.5 31 -42.5 46s-29.167 30.333 -42.5 46
s-24.333 31.334 -33 47.001s-13 31.834 -13 48.501v108c0 30 7.33301 51.833 22 65.5s36.334 20.5 65.001 20.5h65c28.667 0 50.334 -6.5 65.001 -19.5s22 -34.167 22 -63.5v-49c0 -7.33301 -10.333 -11 -31 -11zM515.003 551.996
c-9.33301 0 -16.8301 1.3291 -22.4971 3.99609s-8.5 5 -8.5 7v49c0 9.33301 -2.5 17 -7.5 23s-13.167 9 -24.5 9h-11h-41c-10.667 0 -18.667 -3.66699 -24 -11s-8 -16.333 -8 -27v-84c0 -18.667 4.33301 -35.5 13 -50.5s19.667 -29.5 33 -43.5s27.666 -28 42.999 -42
s29.666 -29.333 42.999 -46s24.333 -35.167 33 -55.5s13 -43.5 13 -69.5v-129c0 -30 -7.33301 -51.833 -22 -65.5s-36.334 -20.5 -65.001 -20.5h-65c-28.667 0 -50.334 6.5 -65.001 19.5s-22 34.167 -22 63.5v49c0 2 2.33301 4.5 7 7.5s12.667 4.5 24 4.5c20 0 30 -4 30 -12
v-49c0 -9.33301 2.66699 -17 8 -23s13.666 -9 24.999 -9h51c10.667 0 18.667 3.66699 24 11s8 16.333 8 27v129c0 16.667 -4.33301 32.834 -13 48.501s-19.667 31.334 -33 47.001s-27.5 31 -42.5 46s-29.167 30.333 -42.5 46s-24.333 31.334 -33 47.001
s-13 31.834 -13 48.501v108c0 30 7.33301 51.833 22 65.5s36.334 20.5 65.001 20.5h65c28.667 0 50.334 -6.5 65.001 -19.5s22 -34.167 22 -63.5v-49c0 -7.33301 -10.333 -11 -31 -11z" />
    <glyph glyph-name="agrave" unicode="&#xe0;" horiz-adv-x="312" 
d="M200 201c5.33301 0 7.33594 3.33301 6.00293 10c0 0.666992 -1 8.83398 -3 24.501l-7.5 60.5l-10 82l-11 88c-3.66699 28.667 -6.83398 55 -9.50098 79l-6 55c-0.666992 5.33301 -1.33398 7.66602 -2.00098 6.99902s-1.33398 -3 -2.00098 -7
c-1.33301 -12.667 -3.5 -31 -6.5 -55l-9.5 -79c-3.33301 -28.667 -7 -58 -11 -88s-7.5 -57.333 -10.5 -82l-7.5 -61c-2 -16 -3 -24.333 -3 -25c0 -6 2 -9 6 -9h87zM156.003 700c23.333 0 39.1689 -3.66797 47.502 -11.001s13.166 -16 14.499 -26
c0 -1.33301 1.16699 -11.833 3.5 -31.5s5.16602 -45 8.49902 -76l11.5 -105l13.5 -119.5l13.5 -119.5l11.5 -104.5l8 -74c2 -18.667 3 -28.334 3 -29.001c0.666992 -1.33301 -1.16602 -3.16602 -5.49902 -5.49902s-12.5 -3.5 -24.5 -3.5s-19.833 1 -23.5 3
s-5.83398 3.66699 -6.50098 5c0 0.666992 -0.833008 8 -2.5 22l-5.5 46l-5.5 46c-1.66699 14 -2.5 22 -2.5 24c-0.666992 4.66699 -3 7 -7 7h-100c-5.33301 0 -8.33301 -2 -9 -6c0 -1.33301 -1 -9 -3 -23s-4 -29.333 -6 -46l-5.5 -46.5
c-1.66699 -14.333 -2.5 -21.833 -2.5 -22.5c-0.666992 -2 -2.83398 -4 -6.50098 -6s-12.167 -3 -25.5 -3s-21.666 0.833008 -24.999 2.5s-4.66602 3.5 -3.99902 5.5c0 0.666992 1 10.334 3 29.001s4.83301 43.334 8.5 74.001l12 104.5l13.5 120l14 120
c4.66699 39 8.66699 74 12 105s6.16602 56 8.49902 75s3.5 29.167 3.5 30.5c1.33301 11.333 6 20.666 14 27.999s23.333 11 46 11zM222.006 772.999c2.66699 -5.33301 -0.667969 -12.668 -10.001 -22.001c-10 -10 -17.333 -13.667 -22 -11l-93 94c-4 4 -6 8.16699 -6 12.5
s4.33301 10.5 13 18.5c8 8.66699 14.5 13.334 19.5 14.001s9.16699 -1 12.5 -5l25.5 -30l28.5 -33c10.667 -12 21.334 -24.667 32.001 -38z" />
    <glyph glyph-name="aacute" unicode="&#xe1;" horiz-adv-x="312" 
d="M200 201c5.33301 0 7.33594 3.33301 6.00293 10c0 0.666992 -1 8.83398 -3 24.501l-7.5 60.5l-10 82l-11 88c-3.66699 28.667 -6.83398 55 -9.50098 79l-6 55c-0.666992 5.33301 -1.33398 7.66602 -2.00098 6.99902s-1.33398 -3 -2.00098 -7
c-1.33301 -12.667 -3.5 -31 -6.5 -55l-9.5 -79c-3.33301 -28.667 -7 -58 -11 -88s-7.5 -57.333 -10.5 -82l-7.5 -61c-2 -16 -3 -24.333 -3 -25c0 -6 2 -9 6 -9h87zM156.003 700c23.333 0 39.1689 -3.66797 47.502 -11.001s13.166 -16 14.499 -26
c0 -1.33301 1.16699 -11.833 3.5 -31.5s5.16602 -45 8.49902 -76l11.5 -105l13.5 -119.5l13.5 -119.5l11.5 -104.5l8 -74c2 -18.667 3 -28.334 3 -29.001c0.666992 -1.33301 -1.16602 -3.16602 -5.49902 -5.49902s-12.5 -3.5 -24.5 -3.5s-19.833 1 -23.5 3
s-5.83398 3.66699 -6.50098 5c0 0.666992 -0.833008 8 -2.5 22l-5.5 46l-5.5 46c-1.66699 14 -2.5 22 -2.5 24c-0.666992 4.66699 -3 7 -7 7h-100c-5.33301 0 -8.33301 -2 -9 -6c0 -1.33301 -1 -9 -3 -23s-4 -29.333 -6 -46l-5.5 -46.5
c-1.66699 -14.333 -2.5 -21.833 -2.5 -22.5c-0.666992 -2 -2.83398 -4 -6.50098 -6s-12.167 -3 -25.5 -3s-21.666 0.833008 -24.999 2.5s-4.66602 3.5 -3.99902 5.5c0 0.666992 1 10.334 3 29.001s4.83301 43.334 8.5 74.001l12 104.5l13.5 120l14 120
c4.66699 39 8.66699 74 12 105s6.16602 56 8.49902 75s3.5 29.167 3.5 30.5c1.33301 11.333 6 20.666 14 27.999s23.333 11 46 11zM176.006 873.999c3.33301 4 7.49902 5.66797 12.499 5.00098s11.833 -5.33398 20.5 -14.001c8 -8 12.167 -14.167 12.5 -18.5
s-1.5 -8.5 -5.5 -12.5l-94 -94c-4 -2.66699 -11 1 -21 11s-13.333 17.333 -10 22c10.667 13.333 21.334 26 32.001 38l28 33z" />
    <glyph glyph-name="acircumflex" unicode="&#xe2;" horiz-adv-x="312" 
d="M200 201c5.33301 0 7.33594 3.33301 6.00293 10c0 0.666992 -1 8.83398 -3 24.501l-7.5 60.5l-10 82l-11 88c-3.66699 28.667 -6.83398 55 -9.50098 79l-6 55c-0.666992 5.33301 -1.33398 7.66602 -2.00098 6.99902s-1.33398 -3 -2.00098 -7
c-1.33301 -12.667 -3.5 -31 -6.5 -55l-9.5 -79c-3.33301 -28.667 -7 -58 -11 -88s-7.5 -57.333 -10.5 -82l-7.5 -61c-2 -16 -3 -24.333 -3 -25c0 -6 2 -9 6 -9h87zM156.003 700c23.333 0 39.1689 -3.66797 47.502 -11.001s13.166 -16 14.499 -26
c0 -1.33301 1.16699 -11.833 3.5 -31.5s5.16602 -45 8.49902 -76l11.5 -105l13.5 -119.5l13.5 -119.5l11.5 -104.5l8 -74c2 -18.667 3 -28.334 3 -29.001c0.666992 -1.33301 -1.16602 -3.16602 -5.49902 -5.49902s-12.5 -3.5 -24.5 -3.5s-19.833 1 -23.5 3
s-5.83398 3.66699 -6.50098 5c0 0.666992 -0.833008 8 -2.5 22l-5.5 46l-5.5 46c-1.66699 14 -2.5 22 -2.5 24c-0.666992 4.66699 -3 7 -7 7h-100c-5.33301 0 -8.33301 -2 -9 -6c0 -1.33301 -1 -9 -3 -23s-4 -29.333 -6 -46l-5.5 -46.5
c-1.66699 -14.333 -2.5 -21.833 -2.5 -22.5c-0.666992 -2 -2.83398 -4 -6.50098 -6s-12.167 -3 -25.5 -3s-21.666 0.833008 -24.999 2.5s-4.66602 3.5 -3.99902 5.5c0 0.666992 1 10.334 3 29.001s4.83301 43.334 8.5 74.001l12 104.5l13.5 120l14 120
c4.66699 39 8.66699 74 12 105s6.16602 56 8.49902 75s3.5 29.167 3.5 30.5c1.33301 11.333 6 20.666 14 27.999s23.333 11 46 11zM274.006 783.999c2 -2 1.49902 -5.50098 -1.50098 -10.501s-6.16699 -9.5 -9.5 -13.5c-3.33301 -3.33301 -7.5 -6.66602 -12.5 -9.99902
s-8.5 -4 -10.5 -2l-75 74c-3.33301 3.33301 -6.33301 5.16602 -9 5.49902s-6 -1.16699 -10 -4.5l-12 -12.5l-25 -25.5l-36 -36c-2.66699 -2.66699 -6 -2.66699 -10 0s-8.66699 6.33398 -14 11.001c-5.33301 5.33301 -9.16602 10.166 -11.499 14.499s-2.5 7.5 -0.5 9.5l85 85
c12 12 23.333 17.833 34 17.5s21.667 -6.16602 33 -17.499z" />
    <glyph glyph-name="atilde" unicode="&#xe3;" horiz-adv-x="312" 
d="M200 201c5.33301 0 7.33594 3.33301 6.00293 10c0 0.666992 -1 8.83398 -3 24.501l-7.5 60.5l-10 82l-11 88c-3.66699 28.667 -6.83398 55 -9.50098 79l-6 55c-0.666992 5.33301 -1.33398 7.66602 -2.00098 6.99902s-1.33398 -3 -2.00098 -7
c-1.33301 -12.667 -3.5 -31 -6.5 -55l-9.5 -79c-3.33301 -28.667 -7 -58 -11 -88s-7.5 -57.333 -10.5 -82l-7.5 -61c-2 -16 -3 -24.333 -3 -25c0 -6 2 -9 6 -9h87zM156.003 700c23.333 0 39.1689 -3.66797 47.502 -11.001s13.166 -16 14.499 -26
c0 -1.33301 1.16699 -11.833 3.5 -31.5s5.16602 -45 8.49902 -76l11.5 -105l13.5 -119.5l13.5 -119.5l11.5 -104.5l8 -74c2 -18.667 3 -28.334 3 -29.001c0.666992 -1.33301 -1.16602 -3.16602 -5.49902 -5.49902s-12.5 -3.5 -24.5 -3.5s-19.833 1 -23.5 3
s-5.83398 3.66699 -6.50098 5c0 0.666992 -0.833008 8 -2.5 22l-5.5 46l-5.5 46c-1.66699 14 -2.5 22 -2.5 24c-0.666992 4.66699 -3 7 -7 7h-100c-5.33301 0 -8.33301 -2 -9 -6c0 -1.33301 -1 -9 -3 -23s-4 -29.333 -6 -46l-5.5 -46.5
c-1.66699 -14.333 -2.5 -21.833 -2.5 -22.5c-0.666992 -2 -2.83398 -4 -6.50098 -6s-12.167 -3 -25.5 -3s-21.666 0.833008 -24.999 2.5s-4.66602 3.5 -3.99902 5.5c0 0.666992 1 10.334 3 29.001s4.83301 43.334 8.5 74.001l12 104.5l13.5 120l14 120
c4.66699 39 8.66699 74 12 105s6.16602 56 8.49902 75s3.5 29.167 3.5 30.5c1.33301 11.333 6 20.666 14 27.999s23.333 11 46 11zM262.006 771.999c-3.33301 -3.33301 -5.66699 -5.33105 -7 -5.99805s-2.33301 -1.33398 -3 -2.00098c-15.333 -10 -30.5 -14.167 -45.5 -12.5
s-29.833 4.5 -44.5 8.5s-29.167 6.83301 -43.5 8.5s-28.166 -2.5 -41.499 -12.5c-3.33301 -3.33301 -6.83301 -3.66602 -10.5 -0.999023s-7.16699 5.66699 -10.5 9s-6.16602 8 -8.49902 14s-1.5 10.667 2.5 14c14 9.33301 26.833 15.166 38.5 17.499s22.667 2.83301 33 1.5
s20.166 -3.5 29.499 -6.5s18.666 -5.33301 27.999 -7s19 -2 29 -1s20.667 5.5 32 13.5l1 1c2.66699 1.33301 6 1.16602 10 -0.500977s7.66699 -5.5 11 -11.5c6 -13.333 6 -22.333 0 -27z" />
    <glyph glyph-name="adieresis" unicode="&#xe4;" horiz-adv-x="312" 
d="M200 201c5.33301 0 7.33594 3.33301 6.00293 10c0 0.666992 -1 8.83398 -3 24.501l-7.5 60.5l-10 82l-11 88c-3.66699 28.667 -6.83398 55 -9.50098 79l-6 55c-0.666992 5.33301 -1.33398 7.66602 -2.00098 6.99902s-1.33398 -3 -2.00098 -7
c-1.33301 -12.667 -3.5 -31 -6.5 -55l-9.5 -79c-3.33301 -28.667 -7 -58 -11 -88s-7.5 -57.333 -10.5 -82l-7.5 -61c-2 -16 -3 -24.333 -3 -25c0 -6 2 -9 6 -9h87zM156.003 700c23.333 0 39.1689 -3.66797 47.502 -11.001s13.166 -16 14.499 -26
c0 -1.33301 1.16699 -11.833 3.5 -31.5s5.16602 -45 8.49902 -76l11.5 -105l13.5 -119.5l13.5 -119.5l11.5 -104.5l8 -74c2 -18.667 3 -28.334 3 -29.001c0.666992 -1.33301 -1.16602 -3.16602 -5.49902 -5.49902s-12.5 -3.5 -24.5 -3.5s-19.833 1 -23.5 3
s-5.83398 3.66699 -6.50098 5c0 0.666992 -0.833008 8 -2.5 22l-5.5 46l-5.5 46c-1.66699 14 -2.5 22 -2.5 24c-0.666992 4.66699 -3 7 -7 7h-100c-5.33301 0 -8.33301 -2 -9 -6c0 -1.33301 -1 -9 -3 -23s-4 -29.333 -6 -46l-5.5 -46.5
c-1.66699 -14.333 -2.5 -21.833 -2.5 -22.5c-0.666992 -2 -2.83398 -4 -6.50098 -6s-12.167 -3 -25.5 -3s-21.666 0.833008 -24.999 2.5s-4.66602 3.5 -3.99902 5.5c0 0.666992 1 10.334 3 29.001s4.83301 43.334 8.5 74.001l12 104.5l13.5 120l14 120
c4.66699 39 8.66699 74 12 105s6.16602 56 8.49902 75s3.5 29.167 3.5 30.5c1.33301 11.333 6 20.666 14 27.999s23.333 11 46 11zM98.0059 799.999c9.33301 0 17 -0.665039 23 -1.99805s9 -3.33301 9 -6v-43c0 -3.33301 -3 -5.83301 -9 -7.5s-13.667 -2.5 -23 -2.5
s-17 0.666992 -23 2s-9 3.66602 -9 6.99902v1v42c0 3.33301 3 5.66602 9 6.99902s13.667 2 23 2zM214.006 800.001c9.33301 0 17 -0.665039 23 -1.99805s9 -3.33301 9 -6v-43c0 -3.33301 -3 -5.83301 -9 -7.5s-13.667 -2.5 -23 -2.5s-17 0.666992 -23 2
s-9 3.66602 -9 6.99902v1v42c0 3.33301 3 5.66602 9 6.99902s13.667 2 23 2z" />
    <glyph glyph-name="aring" unicode="&#xe5;" horiz-adv-x="312" 
d="M200 201c5.33301 0 7.33594 3.33301 6.00293 10c0 0.666992 -1 8.83398 -3 24.501l-7.5 60.5l-10 82l-11 88c-3.66699 28.667 -6.83398 55 -9.50098 79l-6 55c-0.666992 5.33301 -1.33398 7.66602 -2.00098 6.99902s-1.33398 -3 -2.00098 -7
c-1.33301 -12.667 -3.5 -31 -6.5 -55l-9.5 -79c-3.33301 -28.667 -7 -58 -11 -88s-7.5 -57.333 -10.5 -82l-7.5 -61c-2 -16 -3 -24.333 -3 -25c0 -6 2 -9 6 -9h87zM156.003 700c23.333 0 39.1689 -3.66797 47.502 -11.001s13.166 -16 14.499 -26
c0 -1.33301 1.16699 -11.833 3.5 -31.5s5.16602 -45 8.49902 -76l11.5 -105l13.5 -119.5l13.5 -119.5l11.5 -104.5l8 -74c2 -18.667 3 -28.334 3 -29.001c0.666992 -1.33301 -1.16602 -3.16602 -5.49902 -5.49902s-12.5 -3.5 -24.5 -3.5s-19.833 1 -23.5 3
s-5.83398 3.66699 -6.50098 5c0 0.666992 -0.833008 8 -2.5 22l-5.5 46l-5.5 46c-1.66699 14 -2.5 22 -2.5 24c-0.666992 4.66699 -3 7 -7 7h-100c-5.33301 0 -8.33301 -2 -9 -6c0 -1.33301 -1 -9 -3 -23s-4 -29.333 -6 -46l-5.5 -46.5
c-1.66699 -14.333 -2.5 -21.833 -2.5 -22.5c-0.666992 -2 -2.83398 -4 -6.50098 -6s-12.167 -3 -25.5 -3s-21.666 0.833008 -24.999 2.5s-4.66602 3.5 -3.99902 5.5c0 0.666992 1 10.334 3 29.001s4.83301 43.334 8.5 74.001l12 104.5l13.5 120l14 120
c4.66699 39 8.66699 74 12 105s6.16602 56 8.49902 75s3.5 29.167 3.5 30.5c1.33301 11.333 6 20.666 14 27.999s23.333 11 46 11zM162.006 892.999c22 0 38.833 -5 50.5 -15s17.5 -26.333 17.5 -49v-14c0 -45.333 -22.667 -68 -68 -68h-12c-45.333 0 -68 21.667 -68 65v14
c0 23.333 5.83301 40.333 17.5 51s28.5 16 50.5 16h12zM182.006 828.999c0 7.33301 -2 13.332 -6 17.999s-10.333 7 -19 7h-2c-8 0 -14.167 -3 -18.5 -9s-6.5 -13 -6.5 -21v-12c0 -7.33301 2 -13.333 6 -18s10.667 -7 20 -7h1c8 0 14.167 2.83301 18.5 8.5
s6.5 12.834 6.5 21.501v12z" />
    <glyph glyph-name="ae" unicode="&#xe6;" horiz-adv-x="510" 
d="M470 51c3.33301 0 5.83496 -1.49902 7.50195 -4.49902s2.5 -10.167 2.5 -21.5c0 -10.667 -0.833008 -17.5 -2.5 -20.5s-4.16699 -4.5 -7.5 -4.5h-175c-6 0 -9 2.66699 -9 8v137c0 4.66699 -2.66699 7 -8 7h-151l-45 -147c-2 -6.66699 -12 -10 -30 -10
c-9.33301 0 -17.5 0.5 -24.5 1.5s-9.16699 5.16699 -6.5 12.5l196 654c7.33301 21.333 19.666 32 36.999 32h214c3.33301 0 6.16602 -2.33301 8.49902 -7s3.5 -10.334 3.5 -17.001c0 -6 -1 -11.833 -3 -17.5s-4.66699 -8.5 -8 -8.5h-115c-4.66699 0 -7 -2 -7 -6v-252
c0 -4 2 -6 6 -6h105c2 0 4.16699 -1.66699 6.5 -5s3.5 -10.333 3.5 -21c0 -11.333 -1 -18.5 -3 -21.5s-4.66699 -4.5 -8 -4.5h-103c-4.66699 0 -7 -2.66699 -7 -8v-264c0 -4 2.33301 -6 7 -6h116zM280.002 202.001c4 0 6.00098 3.00195 6.00098 9.00195v425c0 6 -2 9 -6 9
c-2.66699 0 -4.33398 -0.833008 -5.00098 -2.5s-1.66699 -3.83398 -3 -6.50098c0 -0.666992 -2 -7.33398 -6 -20.001l-15.5 -50l-21 -70l-23.5 -79l-64 -215h138z" />
    <glyph glyph-name="ccedilla" unicode="&#xe7;" horiz-adv-x="310" 
d="M160 -46c14 0 25.8301 -4.99707 35.4971 -14.9971s14.5 -24 14.5 -42c-0.666992 -16 -6.5 -29.333 -17.5 -40s-26.167 -16 -45.5 -16c-7.33301 0 -13.666 0.666992 -18.999 2s-9.66602 2.66602 -12.999 3.99902c-4 2 -7.66699 4.33301 -11 7
c-2.66699 2.66699 -4 4.5 -4 5.5s0.666992 4.16699 2 9.5c2 8 4.33301 11.667 7 11c3.33301 -0.666992 7.83301 -2.66699 13.5 -6s14.167 -5 25.5 -5c8 0 14.5 2.66699 19.5 8s7.5 11.666 7.5 18.999v2c0 16 -7.66699 25 -23 27l-23 3c-6.66699 0 -9 2.66699 -7 8
c0.666992 0.666992 2.16699 4.16699 4.5 10.5l7.5 20.5l8 21c2.66699 6.66699 4.33398 10.667 5.00098 12h-20c-58 0 -87 27.667 -87 83v526c0 30 7.33301 51.833 22 65.5s36.334 20.5 65.001 20.5h66c28 0 49.5 -6.5 64.5 -19.5s22.5 -34.167 22.5 -63.5v-48
c0 -2 -3 -4 -9 -6s-13.333 -3 -22 -3c-9.33301 0 -16.833 0.833008 -22.5 2.5s-8.5 3.83398 -8.5 6.50098v48c0 9.33301 -2.5 17.166 -7.5 23.499s-13.167 9.5 -24.5 9.5h-52c-21.333 0 -32 -13 -32 -39v-523c0 -9.33301 2.5 -17 7.5 -23s13.167 -9 24.5 -9h52
c21.333 0 32 10.667 32 32v56c0 2 2.66699 4.5 8 7.5s12.666 4.5 21.999 4.5s17 -1.33301 23 -4s9 -5.33398 9 -8.00098v-56c0 -30 -7.5 -51.333 -22.5 -64s-36.5 -19 -64.5 -19h-16l-18 -46h1v0z" />
    <glyph glyph-name="egrave" unicode="&#xe8;" horiz-adv-x="264" 
d="M223 51c3.33301 0 6 -1.33203 8 -3.99902s3 -9.66699 3 -21c0 -10.667 -1 -17.667 -3 -21s-4.33301 -5 -7 -5l-176 1c-5.33301 0 -8 2.33301 -8 7v678c0 6 3 9 9 9h173c3.33301 0 6 -2.33301 8 -7s3 -10.334 3 -17.001c0 -6 -0.833008 -11.833 -2.5 -17.5
s-4.16699 -8.5 -7.5 -8.5h-116c-4 0 -6 -2 -6 -6v-252c0 -4 1.66699 -6 5 -6h106c2 0 4.16699 -1.5 6.5 -4.5s3.5 -10.167 3.5 -21.5s-1.16699 -18.5 -3.5 -21.5s-4.83301 -4.5 -7.5 -4.5h-103c-4.66699 0 -7 -2.66699 -7 -8v-263c0 -4.66699 2.33301 -7 7 -7h115z
M198 773.001c2.66699 -5.33301 -0.667969 -12.668 -10.001 -22.001c-10 -10 -17.333 -13.667 -22 -11l-93 94c-4 4 -6 8.16699 -6 12.5s4.33301 10.5 13 18.5c8 8.66699 14.5 13.334 19.5 14.001s9.16699 -1 12.5 -5l25.5 -30l28.5 -33
c10.667 -12 21.334 -24.667 32.001 -38z" />
    <glyph glyph-name="eacute" unicode="&#xe9;" horiz-adv-x="264" 
d="M223 51c3.33301 0 6 -1.33203 8 -3.99902s3 -9.66699 3 -21c0 -10.667 -1 -17.667 -3 -21s-4.33301 -5 -7 -5l-176 1c-5.33301 0 -8 2.33301 -8 7v678c0 6 3 9 9 9h173c3.33301 0 6 -2.33301 8 -7s3 -10.334 3 -17.001c0 -6 -0.833008 -11.833 -2.5 -17.5
s-4.16699 -8.5 -7.5 -8.5h-116c-4 0 -6 -2 -6 -6v-252c0 -4 1.66699 -6 5 -6h106c2 0 4.16699 -1.5 6.5 -4.5s3.5 -10.167 3.5 -21.5s-1.16699 -18.5 -3.5 -21.5s-4.83301 -4.5 -7.5 -4.5h-103c-4.66699 0 -7 -2.66699 -7 -8v-263c0 -4.66699 2.33301 -7 7 -7h115z
M152 874.001c3.33301 4 7.49902 5.66797 12.499 5.00098s11.833 -5.33398 20.5 -14.001c8 -8 12.167 -14.167 12.5 -18.5s-1.5 -8.5 -5.5 -12.5l-94 -94c-4 -2.66699 -11 1 -21 11s-13.333 17.333 -10 22c10.667 13.333 21.334 26 32.001 38l28 33z" />
    <glyph glyph-name="ecircumflex" unicode="&#xea;" horiz-adv-x="264" 
d="M223 51c3.33301 0 6 -1.33203 8 -3.99902s3 -9.66699 3 -21c0 -10.667 -1 -17.667 -3 -21s-4.33301 -5 -7 -5l-176 1c-5.33301 0 -8 2.33301 -8 7v678c0 6 3 9 9 9h173c3.33301 0 6 -2.33301 8 -7s3 -10.334 3 -17.001c0 -6 -0.833008 -11.833 -2.5 -17.5
s-4.16699 -8.5 -7.5 -8.5h-116c-4 0 -6 -2 -6 -6v-252c0 -4 1.66699 -6 5 -6h106c2 0 4.16699 -1.5 6.5 -4.5s3.5 -10.167 3.5 -21.5s-1.16699 -18.5 -3.5 -21.5s-4.83301 -4.5 -7.5 -4.5h-103c-4.66699 0 -7 -2.66699 -7 -8v-263c0 -4.66699 2.33301 -7 7 -7h115z
M251 784.001c2 -2 1.49902 -5.50098 -1.50098 -10.501s-6.16699 -9.5 -9.5 -13.5c-3.33301 -3.33301 -7.5 -6.66602 -12.5 -9.99902s-8.5 -4 -10.5 -2l-75 74c-3.33301 3.33301 -6.33301 5.16602 -9 5.49902s-6 -1.16699 -10 -4.5l-12 -12.5l-25 -25.5l-36 -36
c-2.66699 -2.66699 -6 -2.66699 -10 0s-8.66699 6.33398 -14 11.001c-5.33301 5.33301 -9.16602 10.166 -11.499 14.499s-2.5 7.5 -0.5 9.5l85 85c12 12 23.333 17.833 34 17.5s21.667 -6.16602 33 -17.499z" />
    <glyph glyph-name="edieresis" unicode="&#xeb;" horiz-adv-x="264" 
d="M223 51c3.33301 0 6 -1.33203 8 -3.99902s3 -9.66699 3 -21c0 -10.667 -1 -17.667 -3 -21s-4.33301 -5 -7 -5l-176 1c-5.33301 0 -8 2.33301 -8 7v678c0 6 3 9 9 9h173c3.33301 0 6 -2.33301 8 -7s3 -10.334 3 -17.001c0 -6 -0.833008 -11.833 -2.5 -17.5
s-4.16699 -8.5 -7.5 -8.5h-116c-4 0 -6 -2 -6 -6v-252c0 -4 1.66699 -6 5 -6h106c2 0 4.16699 -1.5 6.5 -4.5s3.5 -10.167 3.5 -21.5s-1.16699 -18.5 -3.5 -21.5s-4.83301 -4.5 -7.5 -4.5h-103c-4.66699 0 -7 -2.66699 -7 -8v-263c0 -4.66699 2.33301 -7 7 -7h115z
M74 800.001c9.33301 0 17 -0.665039 23 -1.99805s9 -3.33301 9 -6v-43c0 -3.33301 -3 -5.83301 -9 -7.5s-13.667 -2.5 -23 -2.5s-17 0.666992 -23 2s-9 3.66602 -9 6.99902v1v42c0 3.33301 3 5.66602 9 6.99902s13.667 2 23 2zM190 800.003
c9.33301 0 17 -0.665039 23 -1.99805s9 -3.33301 9 -6v-43c0 -3.33301 -3 -5.83301 -9 -7.5s-13.667 -2.5 -23 -2.5s-17 0.666992 -23 2s-9 3.66602 -9 6.99902v1v42c0 3.33301 3 5.66602 9 6.99902s13.667 2 23 2z" />
    <glyph glyph-name="igrave" unicode="&#xec;" horiz-adv-x="163" 
d="M82 -5c-21.333 0 -32 3 -32 9v685c0 2.66699 2.33301 5.16699 7 7.5s12.667 3.5 24 3.5s19.5 -1.16699 24.5 -3.5s7.5 -4.83301 7.5 -7.5v-683c0 -7.33301 -10.333 -11 -31 -11zM147 773c2.66699 -5.33301 -0.667969 -12.668 -10.001 -22.001
c-10 -10 -17.333 -13.667 -22 -11l-93 94c-4 4 -6 8.16699 -6 12.5s4.33301 10.5 13 18.5c8 8.66699 14.5 13.334 19.5 14.001s9.16699 -1 12.5 -5l25.5 -30l28.5 -33c10.667 -12 21.334 -24.667 32.001 -38z" />
    <glyph glyph-name="iacute" unicode="&#xed;" horiz-adv-x="163" 
d="M82 -5c-21.333 0 -32 3 -32 9v685c0 2.66699 2.33301 5.16699 7 7.5s12.667 3.5 24 3.5s19.5 -1.16699 24.5 -3.5s7.5 -4.83301 7.5 -7.5v-683c0 -7.33301 -10.333 -11 -31 -11zM101 874c3.33301 4 7.49902 5.66797 12.499 5.00098s11.833 -5.33398 20.5 -14.001
c8 -8 12.167 -14.167 12.5 -18.5s-1.5 -8.5 -5.5 -12.5l-94 -94c-4 -2.66699 -11 1 -21 11s-13.333 17.333 -10 22c10.667 13.333 21.334 26 32.001 38l28 33z" />
    <glyph glyph-name="icircumflex" unicode="&#xee;" horiz-adv-x="163" 
d="M82 -5c-21.333 0 -32 3 -32 9v685c0 2.66699 2.33301 5.16699 7 7.5s12.667 3.5 24 3.5s19.5 -1.16699 24.5 -3.5s7.5 -4.83301 7.5 -7.5v-683c0 -7.33301 -10.333 -11 -31 -11zM200 791c2 -2 1.49902 -5.50098 -1.50098 -10.501s-6.16699 -9.5 -9.5 -13.5
c-3.33301 -3.33301 -7.5 -6.66602 -12.5 -9.99902s-8.5 -4 -10.5 -2l-75 74c-3.33301 3.33301 -6.33301 5.16602 -9 5.49902s-6 -1.16699 -10 -4.5l-12 -12.5l-25 -25.5l-36 -36c-2.66699 -2.66699 -6 -2.66699 -10 0s-8.66699 6.33398 -14 11.001
c-5.33301 5.33301 -9.16602 10.166 -11.499 14.499s-2.5 7.5 -0.5 9.5l85 85c12 12 23.333 17.833 34 17.5s21.667 -6.16602 33 -17.499z" />
    <glyph glyph-name="idieresis" unicode="&#xef;" horiz-adv-x="163" 
d="M82 -5c-21.333 0 -32 3 -32 9v685c0 2.66699 2.33301 5.16699 7 7.5s12.667 3.5 24 3.5s19.5 -1.16699 24.5 -3.5s7.5 -4.83301 7.5 -7.5v-683c0 -7.33301 -10.333 -11 -31 -11zM24 800c9.33301 0 17 -0.665039 23 -1.99805s9 -3.33301 9 -6v-43
c0 -3.33301 -3 -5.83301 -9 -7.5s-13.667 -2.5 -23 -2.5s-17 0.666992 -23 2s-9 3.66602 -9 6.99902v1v42c0 3.33301 3 5.66602 9 6.99902s13.667 2 23 2zM140 800.002c9.33301 0 17 -0.665039 23 -1.99805s9 -3.33301 9 -6v-43c0 -3.33301 -3 -5.83301 -9 -7.5
s-13.667 -2.5 -23 -2.5s-17 0.666992 -23 2s-9 3.66602 -9 6.99902v1v42c0 3.33301 3 5.66602 9 6.99902s13.667 2 23 2z" />
    <glyph glyph-name="ntilde" unicode="&#xf1;" horiz-adv-x="327" 
d="M286 6c0 -2.66699 -2.33301 -5.16602 -7 -7.49902s-12.334 -3.5 -23.001 -3.5s-18.167 1.33301 -22.5 4s-7.16602 5.33398 -8.49902 8.00098c0 0.666992 -3 11.5 -9 32.5l-22.5 78l-28.5 100.5l-28.5 100l-22.5 77c-6 20.667 -9 31.334 -9 32.001
c-0.666992 2 -1.33398 3.16699 -2.00098 3.5s-1 -0.833984 -1 -3.50098v-421c0 -2 -2.66699 -4.33301 -8 -7s-13 -4 -23 -4c-9.33301 0 -16.833 1.16699 -22.5 3.5s-8.5 5.16602 -8.5 8.49902v681c0 5.33301 2.5 8.66602 7.5 9.99902s12.833 2 23.5 2
c20 0 31.333 -2.66699 34 -8l57 -207l21.5 -76.5l18.5 -67c5.33301 -19.667 9.83301 -35.667 13.5 -48s5.5 -18.833 5.5 -19.5c0.666992 -2 1.33398 -3.66699 2.00098 -5s1 0.666992 1 6v415c0 6.66699 10.333 10 31 10c21.333 0 32 -3.66699 32 -11zM270 772.001
c-3.33301 -3.33301 -5.66699 -5.33105 -7 -5.99805s-2.33301 -1.33398 -3 -2.00098c-15.333 -10 -30.5 -14.167 -45.5 -12.5s-29.833 4.5 -44.5 8.5s-29.167 6.83301 -43.5 8.5s-28.166 -2.5 -41.499 -12.5c-3.33301 -3.33301 -6.83301 -3.66602 -10.5 -0.999023
s-7.16699 5.66699 -10.5 9s-6.16602 8 -8.49902 14s-1.5 10.667 2.5 14c14 9.33301 26.833 15.166 38.5 17.499s22.667 2.83301 33 1.5s20.166 -3.5 29.499 -6.5s18.666 -5.33301 27.999 -7s19 -2 29 -1s20.667 5.5 32 13.5l1 1c2.66699 1.33301 6 1.16602 10 -0.500977
s7.66699 -5.5 11 -11.5c6 -13.333 6 -22.333 0 -27z" />
    <glyph glyph-name="ograve" unicode="&#xf2;" 
d="M218 612c0 9.33301 -2.5 17 -7.5 23s-13.167 9 -24.5 9h-52c-10.667 0 -18.667 -3.66699 -24 -11s-8 -16.333 -8 -27v-523c0 -9.33301 2.66699 -17 8 -23s13.333 -9 24 -9h52c10.667 0 18.667 3.66699 24 11s8 16.333 8 27v523zM193 695
c28.667 0 50.334 -6.5 65.001 -19.5s22 -34.167 22 -63.5v-526c0 -30 -7.33301 -51.833 -22 -65.5s-36.334 -20.5 -65.001 -20.5h-65c-28.667 0 -50.5 6.5 -65.5 19.5s-22.5 34.167 -22.5 63.5v526c0 30 7.5 51.833 22.5 65.5s36.833 20.5 65.5 20.5h65zM226 773
c2.66699 -5.33301 -0.667969 -12.668 -10.001 -22.001c-10 -10 -17.333 -13.667 -22 -11l-93 94c-4 4 -6 8.16699 -6 12.5s4.33301 10.5 13 18.5c8 8.66699 14.5 13.334 19.5 14.001s9.16699 -1 12.5 -5l25.5 -30l28.5 -33c10.667 -12 21.334 -24.667 32.001 -38z" />
    <glyph glyph-name="oacute" unicode="&#xf3;" 
d="M218 612c0 9.33301 -2.5 17 -7.5 23s-13.167 9 -24.5 9h-52c-10.667 0 -18.667 -3.66699 -24 -11s-8 -16.333 -8 -27v-523c0 -9.33301 2.66699 -17 8 -23s13.333 -9 24 -9h52c10.667 0 18.667 3.66699 24 11s8 16.333 8 27v523zM193 695
c28.667 0 50.334 -6.5 65.001 -19.5s22 -34.167 22 -63.5v-526c0 -30 -7.33301 -51.833 -22 -65.5s-36.334 -20.5 -65.001 -20.5h-65c-28.667 0 -50.5 6.5 -65.5 19.5s-22.5 34.167 -22.5 63.5v526c0 30 7.5 51.833 22.5 65.5s36.833 20.5 65.5 20.5h65zM180 874
c3.33301 4 7.49902 5.66797 12.499 5.00098s11.833 -5.33398 20.5 -14.001c8 -8 12.167 -14.167 12.5 -18.5s-1.5 -8.5 -5.5 -12.5l-94 -94c-4 -2.66699 -11 1 -21 11s-13.333 17.333 -10 22c10.667 13.333 21.334 26 32.001 38l28 33z" />
    <glyph glyph-name="ocircumflex" unicode="&#xf4;" 
d="M218 612c0 9.33301 -2.5 17 -7.5 23s-13.167 9 -24.5 9h-52c-10.667 0 -18.667 -3.66699 -24 -11s-8 -16.333 -8 -27v-523c0 -9.33301 2.66699 -17 8 -23s13.333 -9 24 -9h52c10.667 0 18.667 3.66699 24 11s8 16.333 8 27v523zM193 695
c28.667 0 50.334 -6.5 65.001 -19.5s22 -34.167 22 -63.5v-526c0 -30 -7.33301 -51.833 -22 -65.5s-36.334 -20.5 -65.001 -20.5h-65c-28.667 0 -50.5 6.5 -65.5 19.5s-22.5 34.167 -22.5 63.5v526c0 30 7.5 51.833 22.5 65.5s36.833 20.5 65.5 20.5h65zM278 784
c2 -2 1.49902 -5.50098 -1.50098 -10.501s-6.16699 -9.5 -9.5 -13.5c-3.33301 -3.33301 -7.5 -6.66602 -12.5 -9.99902s-8.5 -4 -10.5 -2l-75 74c-3.33301 3.33301 -6.33301 5.16602 -9 5.49902s-6 -1.16699 -10 -4.5l-12 -12.5l-25 -25.5l-36 -36
c-2.66699 -2.66699 -6 -2.66699 -10 0s-8.66699 6.33398 -14 11.001c-5.33301 5.33301 -9.16602 10.166 -11.499 14.499s-2.5 7.5 -0.5 9.5l85 85c12 12 23.333 17.833 34 17.5s21.667 -6.16602 33 -17.499z" />
    <glyph glyph-name="otilde" unicode="&#xf5;" 
d="M218 612c0 9.33301 -2.5 17 -7.5 23s-13.167 9 -24.5 9h-52c-10.667 0 -18.667 -3.66699 -24 -11s-8 -16.333 -8 -27v-523c0 -9.33301 2.66699 -17 8 -23s13.333 -9 24 -9h52c10.667 0 18.667 3.66699 24 11s8 16.333 8 27v523zM193 695
c28.667 0 50.334 -6.5 65.001 -19.5s22 -34.167 22 -63.5v-526c0 -30 -7.33301 -51.833 -22 -65.5s-36.334 -20.5 -65.001 -20.5h-65c-28.667 0 -50.5 6.5 -65.5 19.5s-22.5 34.167 -22.5 63.5v526c0 30 7.5 51.833 22.5 65.5s36.833 20.5 65.5 20.5h65zM266 772
c-3.33301 -3.33301 -5.66699 -5.33105 -7 -5.99805s-2.33301 -1.33398 -3 -2.00098c-15.333 -10 -30.5 -14.167 -45.5 -12.5s-29.833 4.5 -44.5 8.5s-29.167 6.83301 -43.5 8.5s-28.166 -2.5 -41.499 -12.5c-3.33301 -3.33301 -6.83301 -3.66602 -10.5 -0.999023
s-7.16699 5.66699 -10.5 9s-6.16602 8 -8.49902 14s-1.5 10.667 2.5 14c14 9.33301 26.833 15.166 38.5 17.499s22.667 2.83301 33 1.5s20.166 -3.5 29.499 -6.5s18.666 -5.33301 27.999 -7s19 -2 29 -1s20.667 5.5 32 13.5l1 1c2.66699 1.33301 6 1.16602 10 -0.500977
s7.66699 -5.5 11 -11.5c6 -13.333 6 -22.333 0 -27z" />
    <glyph glyph-name="odieresis" unicode="&#xf6;" 
d="M218 612c0 9.33301 -2.5 17 -7.5 23s-13.167 9 -24.5 9h-52c-10.667 0 -18.667 -3.66699 -24 -11s-8 -16.333 -8 -27v-523c0 -9.33301 2.66699 -17 8 -23s13.333 -9 24 -9h52c10.667 0 18.667 3.66699 24 11s8 16.333 8 27v523zM193 695
c28.667 0 50.334 -6.5 65.001 -19.5s22 -34.167 22 -63.5v-526c0 -30 -7.33301 -51.833 -22 -65.5s-36.334 -20.5 -65.001 -20.5h-65c-28.667 0 -50.5 6.5 -65.5 19.5s-22.5 34.167 -22.5 63.5v526c0 30 7.5 51.833 22.5 65.5s36.833 20.5 65.5 20.5h65zM102 800
c9.33301 0 17 -0.665039 23 -1.99805s9 -3.33301 9 -6v-43c0 -3.33301 -3 -5.83301 -9 -7.5s-13.667 -2.5 -23 -2.5s-17 0.666992 -23 2s-9 3.66602 -9 6.99902v1v42c0 3.33301 3 5.66602 9 6.99902s13.667 2 23 2zM218 800.002c9.33301 0 17 -0.665039 23 -1.99805
s9 -3.33301 9 -6v-43c0 -3.33301 -3 -5.83301 -9 -7.5s-13.667 -2.5 -23 -2.5s-17 0.666992 -23 2s-9 3.66602 -9 6.99902v1v42c0 3.33301 3 5.66602 9 6.99902s13.667 2 23 2z" />
    <glyph glyph-name="divide" unicode="&#xf7;" horiz-adv-x="341" 
d="M200 204c0 -20.667 -2.66504 -31 -7.99805 -31h-43c-2.66699 0 -4.83398 2.83301 -6.50098 8.5s-2.5 13.167 -2.5 22.5s0.666992 17 2 23s3.66602 9 6.99902 9h42c4 0 6.5 -3 7.5 -9s1.5 -13.667 1.5 -23zM140.002 395c0 9.33301 0.668945 17 2.00195 23
s3.66602 9 6.99902 9h42c4 0 6.5 -3 7.5 -9s1.5 -13.667 1.5 -23c0 -20.667 -2.66699 -31 -8 -31h-43c-2.66699 0 -4.83398 2.83301 -6.50098 8.5s-2.5 13.167 -2.5 22.5zM312.004 325c3.33301 0 5.66602 -2.83301 6.99902 -8.5s2 -11.167 2 -16.5
s-0.666992 -10.833 -2 -16.5s-3.33301 -8.5 -6 -8.5h-284c-3.33301 0 -5.66602 2.33301 -6.99902 7s-2 10.667 -2 18s0.5 13.333 1.5 18s3.16699 7 6.5 7h284z" />
    <glyph glyph-name="oslash" unicode="&#xf8;" 
d="M230 738c8.66699 0 16.668 -0.667969 24.001 -2.00098s9.66602 -6.33301 6.99902 -15l-8 -42c8.66699 -7.33301 15.334 -16.333 20.001 -27s7 -24 7 -40v-526c0 -30 -7.33301 -51.833 -22 -65.5s-36.334 -20.5 -65.001 -20.5h-65h-1l-6 -32
c-2 -7.33301 -12.333 -11 -31 -11c-8.66699 0 -16.5 0.5 -23.5 1.5s-9.16699 5.5 -6.5 13.5l8 43c-18.667 12.667 -28 35.334 -28 68.001v526c0 30 7.5 51.833 22.5 65.5s36.833 20.5 65.5 20.5h65l6 32c2 7.33301 12.333 11 31 11zM102.001 199.999l81 444h-49
c-10.667 0 -18.667 -3.66699 -24 -11s-8 -16.333 -8 -27v-406zM218.001 488.999l-82 -438h50c10.667 0 18.667 3.66699 24 11s8 16.333 8 27v400z" />
    <glyph glyph-name="ugrave" unicode="&#xf9;" horiz-adv-x="321" 
d="M281 87c0 -30 -7.33008 -51.999 -21.9971 -65.999s-36.667 -21 -66 -21h-66c-28.667 0 -50.334 6.66699 -65.001 20s-22 34.666 -22 63.999v606c0 2.66699 3 5 9 7s13 3 21 3s15.167 -1 21.5 -3s9.5 -4.66699 9.5 -8v-605c0 -9.33301 2.66699 -17 8 -23
s13.666 -9 24.999 -9h53c10.667 0 18.667 3.66699 24 11s8 16.333 8 27v600c0 2.66699 2.66699 5 8 7s12.666 3 21.999 3s17 -1 23 -3s9 -4.66699 9 -8v-602zM226.003 773.001c2.66699 -5.33301 -0.667969 -12.668 -10.001 -22.001c-10 -10 -17.333 -13.667 -22 -11l-93 94
c-4 4 -6 8.16699 -6 12.5s4.33301 10.5 13 18.5c8 8.66699 14.5 13.334 19.5 14.001s9.16699 -1 12.5 -5l25.5 -30l28.5 -33c10.667 -12 21.334 -24.667 32.001 -38z" />
    <glyph glyph-name="uacute" unicode="&#xfa;" horiz-adv-x="321" 
d="M281 87c0 -30 -7.33008 -51.999 -21.9971 -65.999s-36.667 -21 -66 -21h-66c-28.667 0 -50.334 6.66699 -65.001 20s-22 34.666 -22 63.999v606c0 2.66699 3 5 9 7s13 3 21 3s15.167 -1 21.5 -3s9.5 -4.66699 9.5 -8v-605c0 -9.33301 2.66699 -17 8 -23
s13.666 -9 24.999 -9h53c10.667 0 18.667 3.66699 24 11s8 16.333 8 27v600c0 2.66699 2.66699 5 8 7s12.666 3 21.999 3s17 -1 23 -3s9 -4.66699 9 -8v-602zM180.003 874.001c3.33301 4 7.49902 5.66797 12.499 5.00098s11.833 -5.33398 20.5 -14.001
c8 -8 12.167 -14.167 12.5 -18.5s-1.5 -8.5 -5.5 -12.5l-94 -94c-4 -2.66699 -11 1 -21 11s-13.333 17.333 -10 22c10.667 13.333 21.334 26 32.001 38l28 33z" />
    <glyph glyph-name="ucircumflex" unicode="&#xfb;" horiz-adv-x="321" 
d="M281 87c0 -30 -7.33008 -51.999 -21.9971 -65.999s-36.667 -21 -66 -21h-66c-28.667 0 -50.334 6.66699 -65.001 20s-22 34.666 -22 63.999v606c0 2.66699 3 5 9 7s13 3 21 3s15.167 -1 21.5 -3s9.5 -4.66699 9.5 -8v-605c0 -9.33301 2.66699 -17 8 -23
s13.666 -9 24.999 -9h53c10.667 0 18.667 3.66699 24 11s8 16.333 8 27v600c0 2.66699 2.66699 5 8 7s12.666 3 21.999 3s17 -1 23 -3s9 -4.66699 9 -8v-602zM279.003 784.001c2 -2 1.49902 -5.50098 -1.50098 -10.501s-6.16699 -9.5 -9.5 -13.5
c-3.33301 -3.33301 -7.5 -6.66602 -12.5 -9.99902s-8.5 -4 -10.5 -2l-75 74c-3.33301 3.33301 -6.33301 5.16602 -9 5.49902s-6 -1.16699 -10 -4.5l-12 -12.5l-25 -25.5l-36 -36c-2.66699 -2.66699 -6 -2.66699 -10 0s-8.66699 6.33398 -14 11.001
c-5.33301 5.33301 -9.16602 10.166 -11.499 14.499s-2.5 7.5 -0.5 9.5l85 85c12 12 23.333 17.833 34 17.5s21.667 -6.16602 33 -17.499z" />
    <glyph glyph-name="udieresis" unicode="&#xfc;" horiz-adv-x="321" 
d="M281 87c0 -30 -7.33008 -51.999 -21.9971 -65.999s-36.667 -21 -66 -21h-66c-28.667 0 -50.334 6.66699 -65.001 20s-22 34.666 -22 63.999v606c0 2.66699 3 5 9 7s13 3 21 3s15.167 -1 21.5 -3s9.5 -4.66699 9.5 -8v-605c0 -9.33301 2.66699 -17 8 -23
s13.666 -9 24.999 -9h53c10.667 0 18.667 3.66699 24 11s8 16.333 8 27v600c0 2.66699 2.66699 5 8 7s12.666 3 21.999 3s17 -1 23 -3s9 -4.66699 9 -8v-602zM102.003 800.001c9.33301 0 17 -0.665039 23 -1.99805s9 -3.33301 9 -6v-43c0 -3.33301 -3 -5.83301 -9 -7.5
s-13.667 -2.5 -23 -2.5s-17 0.666992 -23 2s-9 3.66602 -9 6.99902v1v42c0 3.33301 3 5.66602 9 6.99902s13.667 2 23 2zM218.003 800.003c9.33301 0 17 -0.665039 23 -1.99805s9 -3.33301 9 -6v-43c0 -3.33301 -3 -5.83301 -9 -7.5s-13.667 -2.5 -23 -2.5
s-17 0.666992 -23 2s-9 3.66602 -9 6.99902v1v42c0 3.33301 3 5.66602 9 6.99902s13.667 2 23 2z" />
    <glyph glyph-name="yacute" unicode="&#xfd;" horiz-adv-x="300" 
d="M252 700c20 0 29.001 -3.66992 27.001 -11.0029c-1.33301 -4.66699 -3.66602 -13.5 -6.99902 -26.5l-12 -46.5l-15.5 -59l-17.5 -65l-44 -169c-1.33301 -3.33301 -2 -7.66602 -2 -12.999v-298v-7c0 -2 -2.66699 -4.16699 -8 -6.5s-12.333 -3.5 -21 -3.5
c-9.33301 0 -16.5 1.16699 -21.5 3.5s-7.5 5.16602 -7.5 8.49902v6v296v6c0 0.666992 -0.333008 2.33398 -1 5.00098l-47 170l-18 65.5l-16.5 59.5c-5 18 -9.16699 33.667 -12.5 47s-5.66602 22.333 -6.99902 27c-2 7.33301 7 11 27 11c19.333 1.33301 29.666 -1 30.999 -7
l69 -252c1.33301 -3.33301 2.66602 -3.66602 3.99902 -0.999023l34 126l35 126c1.33301 6.66699 11.666 9.33398 30.999 8.00098zM170.001 873.997c3.33301 4 7.49902 5.66797 12.499 5.00098s11.833 -5.33398 20.5 -14.001c8 -8 12.167 -14.167 12.5 -18.5
s-1.5 -8.5 -5.5 -12.5l-94 -94c-4 -2.66699 -11 1 -21 11s-13.333 17.333 -10 22c10.667 13.333 21.334 26 32.001 38l28 33z" />
    <glyph glyph-name="ydieresis" unicode="&#xff;" horiz-adv-x="300" 
d="M252 700c20 0 29.001 -3.66992 27.001 -11.0029c-1.33301 -4.66699 -3.66602 -13.5 -6.99902 -26.5l-12 -46.5l-15.5 -59l-17.5 -65l-44 -169c-1.33301 -3.33301 -2 -7.66602 -2 -12.999v-298v-7c0 -2 -2.66699 -4.16699 -8 -6.5s-12.333 -3.5 -21 -3.5
c-9.33301 0 -16.5 1.16699 -21.5 3.5s-7.5 5.16602 -7.5 8.49902v6v296v6c0 0.666992 -0.333008 2.33398 -1 5.00098l-47 170l-18 65.5l-16.5 59.5c-5 18 -9.16699 33.667 -12.5 47s-5.66602 22.333 -6.99902 27c-2 7.33301 7 11 27 11c19.333 1.33301 29.666 -1 30.999 -7
l69 -252c1.33301 -3.33301 2.66602 -3.66602 3.99902 -0.999023l34 126l35 126c1.33301 6.66699 11.666 9.33398 30.999 8.00098zM92.001 799.997c9.33301 0 17 -0.665039 23 -1.99805s9 -3.33301 9 -6v-43c0 -3.33301 -3 -5.83301 -9 -7.5s-13.667 -2.5 -23 -2.5
s-17 0.666992 -23 2s-9 3.66602 -9 6.99902v1v42c0 3.33301 3 5.66602 9 6.99902s13.667 2 23 2zM208.001 799.999c9.33301 0 17 -0.665039 23 -1.99805s9 -3.33301 9 -6v-43c0 -3.33301 -3 -5.83301 -9 -7.5s-13.667 -2.5 -23 -2.5s-17 0.666992 -23 2
s-9 3.66602 -9 6.99902v1v42c0 3.33301 3 5.66602 9 6.99902s13.667 2 23 2z" />
    <glyph glyph-name="OE" unicode="&#x152;" horiz-adv-x="442" 
d="M401 51c3.33301 0 6 -1.49902 8 -4.49902s3 -9.83301 3 -20.5c0 -11.333 -1 -18.5 -3 -21.5s-4.33301 -4.5 -7 -4.5h-275c-28.667 0 -50.334 6.5 -65.001 19.5s-22 34.167 -22 63.5v526c0 30 7.33301 51.833 22 65.5s36.334 20.5 65.001 20.5h273
c3.33301 0 6 -2.33301 8 -7s3 -10.334 3 -17.001s-0.833008 -12.667 -2.5 -18s-4.16699 -8 -7.5 -8l-116 -1c-4 0 -6 -1.66699 -6 -5v-254c1.33301 -3.33301 3 -5 5 -5h106c2 0 4.16699 -1.5 6.5 -4.5s3.5 -10.167 3.5 -21.5c0 -10.667 -1.16699 -17.667 -3.5 -21
s-4.83301 -5 -7.5 -5h-103c-4 0 -6.33301 -2 -7 -6v-264c0 -4.66699 2.33301 -7 7 -7h115zM101 83.001c0 -9.33301 2.66699 -17 8 -23s13.666 -9 24.999 -9h52c10 0 17.833 3.66699 23.5 11s8.5 16.333 8.5 27v523c0 9.33301 -2.66699 17 -8 23s-13.666 9 -24.999 9h-52
c-10 0 -17.833 -3.66699 -23.5 -11s-8.5 -16.333 -8.5 -27v-523z" />
    <glyph glyph-name="oe" unicode="&#x153;" horiz-adv-x="442" 
d="M401 51c3.33301 0 6 -1.49902 8 -4.49902s3 -9.83301 3 -20.5c0 -11.333 -1 -18.5 -3 -21.5s-4.33301 -4.5 -7 -4.5h-275c-28.667 0 -50.334 6.5 -65.001 19.5s-22 34.167 -22 63.5v526c0 30 7.33301 51.833 22 65.5s36.334 20.5 65.001 20.5h273
c3.33301 0 6 -2.33301 8 -7s3 -10.334 3 -17.001s-0.833008 -12.667 -2.5 -18s-4.16699 -8 -7.5 -8l-116 -1c-4 0 -6 -1.66699 -6 -5v-254c1.33301 -3.33301 3 -5 5 -5h106c2 0 4.16699 -1.5 6.5 -4.5s3.5 -10.167 3.5 -21.5c0 -10.667 -1.16699 -17.667 -3.5 -21
s-4.83301 -5 -7.5 -5h-103c-4 0 -6.33301 -2 -7 -6v-264c0 -4.66699 2.33301 -7 7 -7h115zM101 83.001c0 -9.33301 2.66699 -17 8 -23s13.666 -9 24.999 -9h52c10 0 17.833 3.66699 23.5 11s8.5 16.333 8.5 27v523c0 9.33301 -2.66699 17 -8 23s-13.666 9 -24.999 9h-52
c-10 0 -17.833 -3.66699 -23.5 -11s-8.5 -16.333 -8.5 -27v-523z" />
    <glyph glyph-name="Ydieresis" unicode="&#x178;" horiz-adv-x="300" 
d="M252 700c20 0 29.001 -3.66992 27.001 -11.0029c-1.33301 -4.66699 -3.66602 -13.5 -6.99902 -26.5l-12 -46.5l-15.5 -59l-17.5 -65l-44 -169c-1.33301 -3.33301 -2 -7.66602 -2 -12.999v-298v-7c0 -2 -2.66699 -4.16699 -8 -6.5s-12.333 -3.5 -21 -3.5
c-9.33301 0 -16.5 1.16699 -21.5 3.5s-7.5 5.16602 -7.5 8.49902v6v296v6c0 0.666992 -0.333008 2.33398 -1 5.00098l-47 170l-18 65.5l-16.5 59.5c-5 18 -9.16699 33.667 -12.5 47s-5.66602 22.333 -6.99902 27c-2 7.33301 7 11 27 11c19.333 1.33301 29.666 -1 30.999 -7
l69 -252c1.33301 -3.33301 2.66602 -3.66602 3.99902 -0.999023l34 126l35 126c1.33301 6.66699 11.666 9.33398 30.999 8.00098zM92.001 799.997c9.33301 0 17 -0.665039 23 -1.99805s9 -3.33301 9 -6v-43c0 -3.33301 -3 -5.83301 -9 -7.5s-13.667 -2.5 -23 -2.5
s-17 0.666992 -23 2s-9 3.66602 -9 6.99902v1v42c0 3.33301 3 5.66602 9 6.99902s13.667 2 23 2zM208.001 799.999c9.33301 0 17 -0.665039 23 -1.99805s9 -3.33301 9 -6v-43c0 -3.33301 -3 -5.83301 -9 -7.5s-13.667 -2.5 -23 -2.5s-17 0.666992 -23 2
s-9 3.66602 -9 6.99902v1v42c0 3.33301 3 5.66602 9 6.99902s13.667 2 23 2z" />
    <glyph glyph-name="circumflex" unicode="&#x2c6;" horiz-adv-x="281" 
d="M259 591c2 -2 1.49902 -5.50098 -1.50098 -10.501s-6.16699 -9.5 -9.5 -13.5c-3.33301 -3.33301 -7.5 -6.66602 -12.5 -9.99902s-8.5 -4 -10.5 -2l-75 74c-3.33301 3.33301 -6.33301 5.16602 -9 5.49902s-6 -1.16699 -10 -4.5l-12 -12.5l-25 -25.5l-36 -36
c-2.66699 -2.66699 -6 -2.66699 -10 0s-8.66699 6.33398 -14 11.001c-5.33301 5.33301 -9.16602 10.166 -11.499 14.499s-2.5 7.5 -0.5 9.5l85 85c12 12 23.333 17.833 34 17.5s21.667 -6.16602 33 -17.499l85 -85v0z" />
    <glyph glyph-name="ring" unicode="&#x2da;" horiz-adv-x="188" 
d="M100 693c22 0 38.833 -5 50.5 -15s17.5 -26.333 17.5 -49v-14c0 -45.333 -22.667 -68 -68 -68h-12c-45.333 0 -68 21.667 -68 65v14c0 23.333 5.83301 40.333 17.5 51s28.5 16 50.5 16h12zM120 629c0 7.33301 -2 13.332 -6 17.999s-10.333 7 -19 7h-2
c-8 0 -14.167 -3 -18.5 -9s-6.5 -13 -6.5 -21v-12c0 -7.33301 2 -13.333 6 -18s10.667 -7 20 -7h1c8 0 14.167 2.83301 18.5 8.5s6.5 12.834 6.5 21.501v12z" />
    <glyph glyph-name="tilde" unicode="&#x2dc;" horiz-adv-x="261" 
d="M236 572c-3.33301 -3.33301 -5.66699 -5.33105 -7 -5.99805s-2.33301 -1.33398 -3 -2.00098c-15.333 -10 -30.5 -14.167 -45.5 -12.5s-29.833 4.5 -44.5 8.5s-29.167 6.83301 -43.5 8.5s-28.166 -2.5 -41.499 -12.5c-3.33301 -3.33301 -6.83301 -3.66602 -10.5 -0.999023
s-7.16699 5.66699 -10.5 9s-6.16602 8 -8.49902 14s-1.5 10.667 2.5 14c14 9.33301 26.833 15.166 38.5 17.499s22.667 2.83301 33 1.5s20.166 -3.5 29.499 -6.5s18.666 -5.33301 27.999 -7s19 -2 29 -1s20.667 5.5 32 13.5l1 1c2.66699 1.33301 6 1.16602 10 -0.500977
s7.66699 -5.5 11 -11.5c6 -13.333 6 -22.333 0 -27z" />
    <glyph glyph-name="endash" unicode="&#x2013;" horiz-adv-x="387" 
d="M358 373c2.66699 0 4.83301 -2.83301 6.5 -8.5s2.5 -11.167 2.5 -16.5s-0.666992 -10.833 -2 -16.5s-3.33301 -8.5 -6 -8.5h-330c-4 0 -6.5 2.33301 -7.5 7s-1.5 10.667 -1.5 18s0.5 13.333 1.5 18s3.16699 7 6.5 7h330v0z" />
    <glyph glyph-name="emdash" unicode="&#x2014;" horiz-adv-x="503" 
d="M474 373c2.66699 0 4.83301 -2.83301 6.5 -8.5s2.5 -11.167 2.5 -16.5s-0.666992 -10.833 -2 -16.5s-3.66602 -8.5 -6.99902 -8.5h-444c-4 0 -6.66699 2.33301 -8 7s-2 10.667 -2 18s0.666992 13.333 2 18s3.66602 7 6.99902 7h445v0z" />
    <glyph glyph-name="quoteleft" unicode="&#x2018;" horiz-adv-x="113" 
d="M61 569c-20.667 0 -31.001 2.66602 -31.001 7.99902v43v12c0 13.333 2 23.5 6 30.5s12 16.5 24 28.5c4 3.33301 6.5 4.66602 7.5 3.99902s3.16699 -2 6.5 -4c2.66699 -2.66699 3.83398 -4.66699 3.50098 -6s-2.16602 -3.66602 -5.49902 -6.99902
c-13.333 -13.333 -19.833 -24.833 -19.5 -34.5s5.16602 -14.5 14.499 -14.5c17.333 0 26 -2.66699 26 -8v-1v-42c0 -3.33301 -3 -5.66602 -9 -6.99902s-13.667 -2 -23 -2z" />
    <glyph glyph-name="quoteright" unicode="&#x2019;" horiz-adv-x="103" 
d="M42 695c20.667 0 30.9971 -2.66797 30.9971 -8.00098v-44v-12c0 -13.333 -2 -23.5 -6 -30.5s-12 -16.5 -24 -28.5c-3.33301 -3.33301 -5.66602 -4.66602 -6.99902 -3.99902s-3.33301 2 -6 4c-3.33301 2.66699 -4.83301 4.66699 -4.5 6s2.5 4 6.5 8
c12.667 12.667 18.834 23.834 18.501 33.501s-5.16602 14.5 -14.499 14.5c-17.333 0 -26 3 -26 9v43c0 3.33301 3 5.66602 9 6.99902s13.667 2 23 2z" />
    <glyph glyph-name="quotedblleft" unicode="&#x201c;" horiz-adv-x="208" 
d="M61 569c-20.667 0 -31.001 2.66602 -31.001 7.99902v43v12c0 13.333 2 23.5 6 30.5s12 16.5 24 28.5c4 3.33301 6.5 4.66602 7.5 3.99902s3.16699 -2 6.5 -4c2.66699 -2.66699 3.83398 -4.66699 3.50098 -6s-2.16602 -3.66602 -5.49902 -6.99902
c-13.333 -13.333 -19.833 -24.833 -19.5 -34.5s5.16602 -14.5 14.499 -14.5c17.333 0 26 -2.66699 26 -8v-1v-42c0 -3.33301 -3 -5.66602 -9 -6.99902s-13.667 -2 -23 -2zM155.999 568.999c-20.667 0 -31.001 2.66602 -31.001 7.99902v43v12c0 13.333 2 23.5 6 30.5
s12 16.5 24 28.5c4 3.33301 6.5 4.66602 7.5 3.99902s3.16699 -2 6.5 -4c2.66699 -2.66699 3.83398 -4.66699 3.50098 -6s-2.16602 -3.66602 -5.49902 -6.99902c-13.333 -13.333 -19.833 -24.833 -19.5 -34.5s5.16602 -14.5 14.499 -14.5c17.333 0 26 -2.66699 26 -8v-1v-42
c0 -3.33301 -3 -5.66602 -9 -6.99902s-13.667 -2 -23 -2z" />
    <glyph glyph-name="quotedblright" unicode="&#x201d;" horiz-adv-x="201" 
d="M140 695c20.667 0 30.9971 -2.66797 30.9971 -8.00098v-44v-12c0 -13.333 -2 -23.5 -6 -30.5s-12 -16.5 -24 -28.5c-3.33301 -3.33301 -5.66602 -4.66602 -6.99902 -3.99902s-3.33301 2 -6 4c-3.33301 2.66699 -4.83301 4.66699 -4.5 6s2.5 4 6.5 8
c12.667 12.667 18.834 23.834 18.501 33.501s-5.16602 14.5 -14.499 14.5c-17.333 0 -26 3 -26 9v43c0 3.33301 3 5.66602 9 6.99902s13.667 2 23 2zM41.9971 694.999c20.667 0 30.9971 -2.66797 30.9971 -8.00098v-44v-12c0 -13.333 -2 -23.5 -6 -30.5s-12 -16.5 -24 -28.5
c-3.33301 -3.33301 -5.66602 -4.66602 -6.99902 -3.99902s-3.33301 2 -6 4c-3.33301 2.66699 -4.83301 4.66699 -4.5 6s2.5 4 6.5 8c12.667 12.667 18.834 23.834 18.501 33.501s-5.16602 14.5 -14.499 14.5c-17.333 0 -26 3 -26 9v43c0 3.33301 3 5.66602 9 6.99902
s13.667 2 23 2z" />
    <glyph glyph-name="bullet" unicode="&#x2022;" horiz-adv-x="287" 
d="M169 439c45.333 0 68 -21.667 68 -65v-63c0 -23.333 -5.83301 -40.333 -17.5 -51s-28.5 -16 -50.5 -16h-51c-22 0 -38.833 5 -50.5 15s-17.5 26.333 -17.5 49v64c0 44.667 22.667 67 68 67h51v0z" />
    <glyph glyph-name="ellipsis" unicode="&#x2026;" horiz-adv-x="362" 
d="M52 56c9.33301 0 17 -0.665039 23 -1.99805s9 -3.33301 9 -6v-43c0 -3.33301 -3 -5.83301 -9 -7.5s-13.667 -2.5 -23 -2.5s-17 0.666992 -23 2s-9 3.66602 -9 6.99902v1v42c0 3.33301 3 5.66602 9 6.99902s13.667 2 23 2zM181 56.002c9.33301 0 17 -0.665039 23 -1.99805
s9 -3.33301 9 -6v-43c0 -3.33301 -3 -5.83301 -9 -7.5s-13.667 -2.5 -23 -2.5s-17 0.666992 -23 2s-9 3.66602 -9 6.99902v1v42c0 3.33301 3 5.66602 9 6.99902s13.667 2 23 2zM310 56.0039c9.33301 0 17 -0.665039 23 -1.99805s9 -3.33301 9 -6v-43
c0 -3.33301 -3 -5.83301 -9 -7.5s-13.667 -2.5 -23 -2.5s-17 0.666992 -23 2s-9 3.66602 -9 6.99902v1v42c0 3.33301 3 5.66602 9 6.99902s13.667 2 23 2z" />
    <glyph glyph-name="minus" unicode="&#x2212;" horiz-adv-x="341" 
d="M312 325c3.33301 0 5.66602 -2.83301 6.99902 -8.5s2 -11.167 2 -16.5s-0.666992 -10.833 -2 -16.5s-3.33301 -8.5 -6 -8.5h-284c-3.33301 0 -5.66602 2.33301 -6.99902 7s-2 10.667 -2 18s0.5 13.333 1.5 18s3.16699 7 6.5 7h284v0z" />
    <glyph glyph-name=".null" horiz-adv-x="0" 
 />
    <glyph glyph-name="nonmarkingreturn" horiz-adv-x="180" 
 />
  </font>
</defs>
</svg>
