<?xml version="1.0" standalone="no"?>
<!DOCTYPE svg PUBLIC "-//W3C//DTD SVG 1.1//EN" "http://www.w3.org/Graphics/SVG/1.1/DTD/svg11.dtd" >
<svg>
<metadata>
Created by FontForge 20090914 at Fri Jul 22 12:02:56 2016
 By www-data
Morgan Allan Knutson
</metadata>
<defs>
<font id="MenschThin" horiz-adv-x="833" >
  <font-face 
    font-family="Mensch"
    font-weight="100"
    font-stretch="condensed"
    units-per-em="1000"
    panose-1="2 0 0 0 0 0 0 0 0 0"
    ascent="750"
    descent="-250"
    x-height="728"
    cap-height="733"
    bbox="25.999 -64.6923 697 928"
    underline-thickness="50"
    underline-position="-50"
    unicode-range="U+0020-U+2122"
  />
<missing-glyph horiz-adv-x="500" 
 />
    <glyph glyph-name=".notdef" horiz-adv-x="500" 
 />
    <glyph glyph-name="space" unicode=" " horiz-adv-x="500" 
 />
    <glyph glyph-name="space" unicode="&#xa0;" horiz-adv-x="500" 
 />
    <glyph glyph-name="exclam" unicode="!" horiz-adv-x="248" 
d="M122 86c-7.33301 0 -11 3.33301 -11 10v627c0 6.66699 3.66699 10 11 10s11 -3.33301 11 -10v-627c0 -6.66699 -3.66699 -10 -11 -10zM121 36c4.66699 0 8.66699 -1.5 12 -4.5s5 -7.16699 5 -12.5c0 -4.66699 -1.66699 -8.5 -5 -11.5s-7.33301 -4.5 -12 -4.5
s-8.66699 1.5 -12 4.5s-5 6.83301 -5 11.5c0 5.33301 1.66699 9.5 5 12.5s7.33301 4.5 12 4.5z" />
    <glyph glyph-name="quotedbl" unicode="&#x22;" horiz-adv-x="282" 
d="M97 597c-6.66699 0 -10 3.33301 -10 10v119c0 6.66699 3.33301 10 10 10s10 -3.33301 10 -10v-119c0 -6.66699 -3.33301 -10 -10 -10zM177 597c-6.66699 0 -10 3.33301 -10 10v119c0 6.66699 3.33301 10 10 10s10 -3.33301 10 -10v-119c0 -6.66699 -3.33301 -10 -10 -10z
" />
    <glyph glyph-name="numbersign" unicode="#" 
 />
    <glyph glyph-name="dollar" unicode="$" 
 />
    <glyph glyph-name="percent" unicode="%" 
 />
    <glyph glyph-name="ampersand" unicode="&#x26;" 
 />
    <glyph glyph-name="quotesingle" unicode="'" horiz-adv-x="149" 
d="M71 647c-6.66699 0 -10 3.33301 -10 10v119c0 6.66699 3.33301 10 10 10s10 -3.33301 10 -10v-119c0 -6.66699 -3.33301 -10 -10 -10z" />
    <glyph glyph-name="parenleft" unicode="(" horiz-adv-x="304" 
 />
    <glyph glyph-name="parenright" unicode=")" horiz-adv-x="301" 
 />
    <glyph glyph-name="asterisk" unicode="*" horiz-adv-x="341" 
d="M305 600c6.66699 0 10.0039 -3.66992 10.0039 -11.0029c0 -6.66699 -3.33301 -10 -10 -10h-116l58 -100c1.33301 -2.66699 1.66602 -5.5 0.999023 -8.5s-2.33398 -5.16699 -5.00098 -6.5c-0.666992 -0.666992 -2.33398 -1 -5.00098 -1c-4 0 -7 1.66699 -9 5l-58 100
l-57 -100c-2 -3.33301 -5.33301 -5 -10 -5c-2 0 -3.66699 0.333008 -5 1c-2.66699 1.33301 -4.33398 3.5 -5.00098 6.5s-0.333984 5.83301 0.999023 8.5l57 100h-115c-7.33301 0 -11 3.33301 -11 10c0 7.33301 3.66699 11 11 11h115l-57 100
c-1.33301 2.66699 -1.83301 5.5 -1.5 8.5s2.16602 5.16699 5.49902 6.5c6 2.66699 10.667 1.33398 14 -3.99902l58 -100l57 100c1.33301 2.66699 3.5 4.33398 6.5 5.00098s5.83301 0.333984 8.5 -0.999023s4.33398 -3.5 5.00098 -6.5s0.333984 -5.83301 -0.999023 -8.5
l-58 -100h116v0z" />
    <glyph glyph-name="plus" unicode="+" horiz-adv-x="489" 
d="M370 423c6.66699 0 10 -3.33301 10 -10s-3.33301 -10 -10 -10h-121v-121c0 -6.66699 -3.33301 -10 -10 -10s-10 3.33301 -10 10v121h-122c-6.66699 0 -10 3.33301 -10 10s3.33301 10 10 10h122v122c0 6.66699 3.33301 10 10 10s10 -3.33301 10 -10v-122h121v0z" />
    <glyph glyph-name="comma" unicode="," horiz-adv-x="192" 
d="M74 -64c-6 1.33301 -8.33301 5.33301 -7 12l33 114c2 6.66699 6 9 12 7c6.66699 -1.33301 9 -5.33301 7 -12l-33 -114c-1.33301 -6.66699 -5.33301 -9 -12 -7z" />
    <glyph glyph-name="hyphen" unicode="-" 
d="M509 420c7.33301 0 11 -3.66699 11 -11c0 -6.66699 -3.66699 -10 -11 -10h-216c-7.33301 0 -11 3.33301 -11 10c0 7.33301 3.66699 11 11 11h216v0z" />
    <glyph glyph-name="period" unicode="." horiz-adv-x="105" 
d="M51 36c4.66699 0 8.66699 -1.5 12 -4.5s5 -7.16699 5 -12.5c0 -4.66699 -1.66699 -8.5 -5 -11.5s-7.33301 -4.5 -12 -4.5s-8.66699 1.5 -12 4.5s-5 6.83301 -5 11.5c0 5.33301 1.66699 9.5 5 12.5s7.33301 4.5 12 4.5z" />
    <glyph glyph-name="slash" unicode="/" horiz-adv-x="294" 
d="M212 687l-131.001 -649.001c-1.33301 -5.33301 -4.66602 -8 -9.99902 -8h-2c-6.66699 1.33301 -9.33398 5.33301 -8.00098 12l131 649c1.33301 6.66699 5.33301 9.33398 12 8.00098s9.33398 -5.33301 8.00098 -12z" />
    <glyph glyph-name="zero" unicode="0" horiz-adv-x="402" 
d="M347 163l0.000976562 -15c0 -8.66699 -1.33301 -19.167 -4 -31.5s-6.83398 -25.5 -12.501 -39.5s-14.167 -27 -25.5 -39c-25.333 -27.333 -61 -41 -107 -41c-44.667 0 -79.667 13.667 -105 41c-11.333 12 -19.833 25.333 -25.5 40s-9.5 28.5 -11.5 41.5
s-3 24.167 -3 33.5v17v410c0 53.333 16 95 48 125c12.667 12 27.5 21.167 44.5 27.5s34.5 9.5 52.5 9.5s35.5 -3 52.5 -9s32.167 -14.667 45.5 -26c8.66699 -8 16 -16.333 22 -25l2 -2c18 -26 27 -59.333 27 -100v-417zM75.001 169
c0 -0.666992 -0.168945 -7.33105 -0.501953 -19.998s1.83398 -27.334 6.50098 -44.001l217 568c-12.667 17.333 -28.167 29.666 -46.5 36.999s-36.166 11 -53.499 11c-15.333 0 -30.5 -2.83301 -45.5 -8.5s-28.167 -14.167 -39.5 -25.5s-20.5 -26 -27.5 -44
s-10.5 -39 -10.5 -63v-410v-1zM325.999 580.003c0 26.667 -4.66699 49.999 -14 69.999l-219 -574c4 -9.33301 9.33301 -17.333 16 -24c21.333 -22.667 51 -34 89 -34c39.333 0 70 11.667 92 35c10 10.667 17.333 22.334 22 35.001s8 24.5 10 35.5s3 20.333 3 28v11.5z" />
    <glyph glyph-name="one" unicode="1" horiz-adv-x="412" 
d="M360 28c6.66699 0 10 -3.66699 10 -11s-3.33301 -11 -10 -11h-278c-7.33301 0 -11 3.66699 -11 11s3.66699 11 11 11h130v668l-117 -117c-2 -2 -4.5 -3 -7.5 -3s-5.5 1 -7.5 3c-6 4.66699 -6 9.66699 0 15l135 135c3.33301 3.33301 7.33301 4.33301 12 3
c4 -2 6 -5.33301 6 -10v-694h127v0z" />
    <glyph glyph-name="two" unicode="2" horiz-adv-x="464" 
d="M386 122c7.33301 0 10.999 -3.6709 10.999 -11.0039c0 -18 -1 -33.833 -3 -47.5s-6.66699 -25.5 -14 -35.5c-8 -10.667 -18.667 -18.5 -32 -23.5s-30.666 -7.5 -51.999 -7.5h-211c-6.66699 0 -10 3.33301 -10 10c0 29.333 4.16699 58.333 12.5 87s21.166 58 38.499 88
c14.667 26 31.334 51.167 50.001 75.5l57 71.5l49 62c16 20.667 30.167 41.334 42.5 62.001s22.166 41.667 29.499 63s11 43.333 11 66v1c0.666992 12 -0.333008 24 -3 36c-2 10.667 -5.33301 22 -10 34s-11.667 23 -21 33c-22 23.333 -53 35 -93 35
c-40.667 0 -70.667 -11.333 -90 -34c-8.66699 -10 -15 -21 -19 -33s-6.5 -23.167 -7.5 -33.5s-1.33301 -19 -1 -26l0.5 -10.5c1.33301 -6.66699 -1.66699 -10.667 -9 -12c-6.66699 -1.33301 -10.667 1.66699 -12 9c0 0.666992 -0.333008 5 -1 13s-0.333984 18 0.999023 30
s4.33301 24.667 9 38s12 26 22 38c24 28 59.667 42 107 42c46.667 0 83 -14 109 -42c10.667 -11.333 18.834 -23.5 24.501 -36.5s9.66699 -25.333 12 -37s3.5 -21.667 3.5 -30v-15.5c0 -24 -3.83301 -47.333 -11.5 -70s-18 -44.834 -31 -66.501s-27.667 -43.167 -44 -64.5
s-33.5 -42.666 -51.5 -63.999l-54 -68.5c-18 -23 -34 -46.667 -48 -71s-25.667 -49.666 -35 -75.999s-14.666 -53.833 -15.999 -82.5h200c18 0 32.333 1.83301 43 5.5s18.667 9.33398 24 17.001s8.83301 17.334 10.5 29.001s2.5 25.5 2.5 41.5c0 7.33301 3.33301 11 10 11z
" />
    <glyph glyph-name="three" unicode="3" horiz-adv-x="434" 
d="M322 361c39.333 -40 58.999 -105.671 58.999 -197.004c0 -24 -2.66699 -45.167 -8 -63.5s-13.333 -34.5 -24 -48.5c-29.333 -38 -79 -57 -149 -57c-46.667 0 -82 14 -106 42c-10 12 -17.333 24.667 -22 38s-7.83398 26 -9.50098 38s-2.16699 22 -1.5 30s1 12.333 1 13
c1.33301 7.33301 5.33301 10.333 12 9c7.33301 -1.33301 10.333 -5.33301 9 -12l-0.5 -10.5c-0.333008 -7 0 -15.667 1 -26s3.5 -21.333 7.5 -33s10.333 -22.5 19 -32.5c19.333 -23.333 49.333 -35 90 -35c62.667 0 106.667 16.333 132 49c18.667 23.333 28 56.333 28 99
c0 80 -15.167 138.333 -45.5 175s-78.833 55 -145.5 55c-7.33301 0 -11 3.33301 -11 10v1c0 7.33301 3.66699 11 11 11c28 0 52.167 1.16699 72.5 3.5s36.833 8.83301 49.5 19.5s22 27.5 28 50.5s9 54.5 9 94.5v10.5c0 7 -1 15.833 -3 26.5s-5.5 22 -10.5 34
s-12.167 23 -21.5 33c-21.333 23.333 -52.333 35 -93 35s-70.667 -11.667 -90 -35c-8.66699 -10 -15 -20.833 -19 -32.5s-6.5 -22.667 -7.5 -33s-1.33301 -19 -1 -26l0.5 -10.5c1.33301 -6.66699 -1.66699 -10.667 -9 -12c-6.66699 -1.33301 -10.667 1.66699 -12 9
c0 0.666992 -0.333008 5 -1 13s-0.166992 18 1.5 30s4.83398 24.667 9.50098 38s12 26 22 38c24 28 59.333 42 106 42s83 -14 109 -42c10.667 -11.333 18.834 -23.666 24.501 -36.999s9.66699 -25.666 12 -36.999s3.5 -21.166 3.5 -29.499v-15.5
c0 -43.333 -3.5 -77.5 -10.5 -102.5s-18.167 -44.167 -33.5 -57.5c-12.667 -10.667 -28 -18 -46 -22c25.333 -9.33301 46.333 -22.666 63 -39.999z" />
    <glyph glyph-name="four" unicode="4" horiz-adv-x="407" 
d="M355 733c7.33301 0 10.999 -3.66797 10.999 -11.001v-705c0 -7.33301 -3.66699 -11 -11 -11s-11 3.66699 -11 11v342h-297c-3.33301 0 -6 1.33301 -8 4c-2 3.33301 -2.66699 6.33301 -2 9l93 353c2.66699 6.66699 7 9 13 7
c6.66699 -1.33301 9.33398 -5.66602 8.00098 -12.999l-90 -339h283v342c0 7.33301 3.66699 11 11 11z" />
    <glyph glyph-name="five" unicode="5" horiz-adv-x="466" 
d="M313 410c12 -8 23.1729 -17.3311 33.5059 -27.998s19.166 -22.667 26.499 -36c13.333 -24.667 21.833 -49.334 25.5 -74.001s5.5 -44 5.5 -58c0 -13.333 -1 -31.833 -3 -55.5s-9 -47.5 -21 -71.5c-13.333 -26.667 -32 -47 -56 -61
c-29.333 -17.333 -64.666 -26 -105.999 -26c-24.667 0 -45.334 2.5 -62.001 7.5s-30.334 11.5 -41.001 19.5s-18.834 16.833 -24.501 26.5s-9.83398 19.167 -12.501 28.5c-1.33301 6.66699 1.33398 11 8.00098 13c7.33301 1.33301 11.666 -1.33398 12.999 -8.00098
c11.333 -43.333 51 -65 119 -65c70 0 117.667 25 143 75c5.33301 10.667 9.33301 21.667 12 33s4.66699 22.166 6 32.499s2.16602 20 2.49902 29s0.5 16.5 0.5 22.5c0 12 -1.5 29.167 -4.5 51.5s-10.333 44.5 -22 66.5s-29.334 41.333 -53.001 58s-56.167 25 -97.5 25h-107
c-2.66699 0 -5 1 -7 3c-2.66699 2.66699 -4 5.33398 -4 8.00098l1 302c0 7.33301 3.33301 11 10 11h241c6.66699 0 10 -3.66699 10 -11s-3.33301 -11 -10 -11h-230v-280h96c42 0 78 -9 108 -27z" />
    <glyph glyph-name="six" unicode="6" horiz-adv-x="466" 
d="M420 250c7.33301 -34.667 6.99805 -69.335 -1.00195 -104.002s-22.333 -63.667 -43 -87c-31.333 -35.333 -71.666 -53 -120.999 -53c-6 0 -10.667 0.333008 -14 1c-38.667 2 -72 13 -100 33c-28.667 20.667 -51.334 48 -68.001 82c-30 61.333 -42.333 144 -37 248
c0 64.667 13.667 123.334 41 176.001c20.667 40.667 50.334 78 89.001 112c16 13.333 31.667 24.666 47 33.999s29.166 17 41.499 23s22.333 10.333 30 13s11.834 4 12.501 4c6 2.66699 10.333 0.333984 13 -6.99902c2 -6 -0.333008 -10.333 -7 -13l-11 -4
c-7.33301 -2.66699 -16.833 -6.83398 -28.5 -12.501s-24.834 -13 -39.501 -22s-29.667 -19.833 -45 -32.5c-81.333 -69.333 -122 -159.666 -122 -270.999v-1c-1.33301 -24 -1.66602 -46.833 -0.999023 -68.5s2.66699 -42.167 6 -61.5c0 1.33301 0.166992 2.33301 0.5 3
s0.5 1.33398 0.5 2.00098s0.333008 1.33398 1 2.00098c0.666992 1.33301 3.83398 8.5 9.50098 21.5s15.167 27.167 28.5 42.5c13.333 14.667 32 29 56 43s55 21 93 21s68 -6.66699 90 -20s38.667 -27.333 50 -42s19 -28.334 23 -41.001s6 -19.667 6 -21zM359.998 72.999
c18 21.333 30.665 47.501 37.998 78.501s7.66602 62.5 0.999023 94.5c0 0.666992 -1.66699 6.5 -5 17.5s-10 23.167 -20 36.5c-28 35.333 -69 53 -123 53c-54.667 0 -99 -19 -133 -57c-6.66699 -7.33301 -12 -14.333 -16 -21s-7.33301 -12.667 -10 -18
c-2.66699 -6.66699 -5.33398 -12.334 -8.00098 -17.001c0 -0.666992 -1.16699 -5.5 -3.5 -14.5s-3.16602 -19.833 -2.49902 -32.5c0 -6 0.666992 -12.333 2 -19s2.83301 -13 4.5 -19s3.33398 -11.167 5.00098 -15.5s2.83398 -7.5 3.50098 -9.5c0.666992 0 1 -0.666992 1 -2
c32.667 -62.667 82.334 -96 149.001 -100c48.667 -3.33301 87.667 11.667 117 45z" />
    <glyph glyph-name="seven" unicode="7" horiz-adv-x="403" 
d="M367 729c3.33301 0 5.99805 -1.33301 7.99805 -4c2 -3.33301 2.66699 -6.33301 2 -9l-202 -699c-1.33301 -4.66699 -4.66602 -7 -9.99902 -7h-3c-7.33301 2.66699 -9.66602 7 -6.99902 13l198 685h-304c-7.33301 0 -11 3.33301 -11 10c0 7.33301 3.66699 11 11 11h318v0z
" />
    <glyph glyph-name="eight" unicode="8" horiz-adv-x="405" 
d="M379 153l-0.000976562 -3v-4c-3.33301 -39.333 -14 -70.666 -32 -93.999c-22.667 -28.667 -56 -46.334 -100 -53.001c-10.667 -2.66699 -23.667 -4 -39 -4h-5h-5c-13.333 0 -25.333 1 -36 3c-46.667 7.33301 -81.334 25.333 -104.001 54
c-20.667 27.333 -31 64.666 -31 111.999c0 91.333 19.667 157 59 197c16 17.333 36.667 30.666 62 39.999c-18.667 4 -33.667 11.333 -45 22c-15.333 13.333 -26.5 32.5 -33.5 57.5s-10.5 59.167 -10.5 102.5c0 0.666992 -0.166992 1.66699 -0.5 3s-0.5 3.33301 -0.5 6
c0 4.66699 0.166992 11.334 0.5 20.001s1.5 18 3.5 28s5.33301 20.5 10 31.5s11.334 21.167 20.001 30.5c24 28 59.333 42 106 42h5h5c46.667 0 82 -14 106 -42c8.66699 -9.33301 15.334 -19.5 20.001 -30.5s8 -21.5 10 -31.5s3 -19.333 3 -28v-21v-8
c0 -43.333 -3.5 -77.5 -10.5 -102.5s-18.167 -44.167 -33.5 -57.5c-11.333 -10 -26.333 -17.333 -45 -22c25.333 -9.33301 46 -22.666 62 -39.999c39.333 -40 59 -105.667 59 -197v-11zM115.999 439c10 -8.66699 22.168 -14.3359 36.501 -17.0029s31.166 -4.66699 50.499 -6
c19.333 1.33301 36.166 3.33301 50.499 6s26.166 8.33398 35.499 17.001c12.667 10.667 22 27.334 28 50.001s9 53.334 9 92.001c-0.666992 1.33301 -1 3 -1 5c0.666992 0 1 2 1 6c0 4.66699 -0.333008 10.667 -1 18s-2.16699 15.5 -4.5 24.5s-5.83301 18.167 -10.5 27.5
s-10.667 18 -18 26c-21.333 22.667 -51 34 -89 34s-67.667 -11.333 -89 -34c-7.33301 -8 -13.333 -16.667 -18 -26s-8.16699 -18.5 -10.5 -27.5s-3.83301 -17.333 -4.5 -25s-1 -13.5 -1 -17.5v-6c0.666992 -1.33301 0.833984 -2.16602 0.500977 -2.49902
s-0.5 -1.16602 -0.5 -2.49902c0 -38.667 2.83301 -69.334 8.5 -92.001s14.834 -39.334 27.501 -50.001zM357 147.998c0.666992 2.66699 1.00195 5.33496 1.00195 8.00195v8c0 72.667 -12.333 127.167 -37 163.5s-64 57.833 -118 64.5
c-54 -6.66699 -93.333 -28.167 -118 -64.5s-37 -90.833 -37 -163.5v-7c0.666992 -7.33301 2 -14.666 4 -21.999c1.33301 -6.66699 3.66602 -14.334 6.99902 -23.001s7.66602 -17.334 12.999 -26.001c20.667 -36.667 51.667 -59 93 -67c6 -0.666992 12 -1.16699 18 -1.5
s12.667 -0.833008 20 -1.5c7.33301 0.666992 14.5 1.16699 21.5 1.5s13.5 1.16602 19.5 2.49902c40 8 70 29.333 90 64c8.66699 13.333 14.5 26 17.5 38s4.83301 20.667 5.5 26z" />
    <glyph glyph-name="nine" unicode="9" horiz-adv-x="432" 
d="M401 552c6.66699 -48 0.666992 -106.002 -18 -174.002c-15.333 -54.667 -38.333 -113 -69 -175c-13.333 -27.333 -26.5 -52.5 -39.5 -75.5l-35.5 -60.5l-26 -41l-10 -15c-2 -3.33301 -5 -5 -9 -5c-1.33301 0 -3.33301 0.666992 -6 2s-4.16699 3.5 -4.5 6.5
s0.166992 5.83301 1.5 8.5l10 15l26 40.5c10.667 17 22.334 36.833 35.001 59.5s25.667 47.334 39 74.001c44 90.667 71.667 170.334 83 239.001c-2 -3.33301 -4.16699 -6.33301 -6.5 -9l-7.5 -9c-13.333 -15.333 -33 -30.333 -59 -45s-59.667 -22.334 -101 -23.001
c-38 0 -68.167 6.66699 -90.5 20s-38.833 27 -49.5 41c-11.333 15.333 -19 29.333 -23 42s-6 19.667 -6 21c-7.33301 34.667 -7 69.334 1 104.001s22.333 63.667 43 87c33.333 38.667 78.333 56 135 52c28 -1.33301 51.833 -5.83301 71.5 -13.5s37.167 -18.5 52.5 -32.5
c15.333 -14.667 28.166 -32.667 38.499 -54s18.5 -48 24.5 -80zM383 506.998c0 14 -1.00098 28.0029 -3.00098 42.0029c-11.333 54.667 -29.833 94.5 -55.5 119.5s-63.167 39.167 -112.5 42.5h-12c-43.333 0 -78.333 -15 -105 -45c-18.667 -21.333 -31.5 -47.5 -38.5 -78.5
s-7.5 -62.5 -1.5 -94.5l1 -1c0.666992 -5.33301 2.33398 -11 5.00098 -17c2 -5.33301 4.5 -11 7.5 -17s7.16699 -12.333 12.5 -19c28 -35.333 69 -53 123 -53c60.667 1.33301 108.667 21.666 144 60.999c6.66699 7.33301 12.167 14.666 16.5 21.999
s7.83301 13.666 10.5 18.999l7 18z" />
    <glyph glyph-name="colon" unicode=":" horiz-adv-x="168" 
d="M88 526c4.66699 0 8.66699 -1.5 12 -4.5s5 -7.16699 5 -12.5c0 -4.66699 -1.66699 -8.5 -5 -11.5s-7.33301 -4.5 -12 -4.5s-8.66699 1.5 -12 4.5s-5 6.83301 -5 11.5c0 5.33301 1.66699 9.5 5 12.5s7.33301 4.5 12 4.5zM88 245c4.66699 0 8.66699 -1.5 12 -4.5
s5 -7.16699 5 -12.5c0 -4.66699 -1.66699 -8.5 -5 -11.5s-7.33301 -4.5 -12 -4.5s-8.66699 1.5 -12 4.5s-5 6.83301 -5 11.5c0 5.33301 1.66699 9.5 5 12.5s7.33301 4.5 12 4.5z" />
    <glyph glyph-name="semicolon" unicode=";" horiz-adv-x="157" 
d="M57 203c-6 1.33301 -8.33301 5.33301 -7 12l33 114c2 6.66699 6 9 12 7c6.66699 -1.33301 9 -5.33301 7 -12l-33 -114c-1.33301 -6.66699 -5.33301 -9 -12 -7zM82 526c4.66699 0 8.66699 -1.5 12 -4.5s5 -7.16699 5 -12.5c0 -4.66699 -1.66699 -8.5 -5 -11.5
s-7.33301 -4.5 -12 -4.5s-8.66699 1.5 -12 4.5s-5 6.83301 -5 11.5c0 5.33301 1.66699 9.5 5 12.5s7.33301 4.5 12 4.5z" />
    <glyph glyph-name="less" unicode="&#x3c;" horiz-adv-x="388" 
d="M315 628c4.66699 -5.33301 4.66797 -10.333 0.000976562 -15l-245 -245l243 -242c4.66699 -5.33301 4.66699 -10.333 0 -15c-2.66699 -2.66699 -5.33398 -4 -8.00098 -4s-5 1.33301 -7 4l-251 249c-2 2 -3 4.66699 -3 8c0 2.66699 1 5 3 7l253 253
c4.66699 4.66699 9.66699 4.66699 15 0z" />
    <glyph glyph-name="equal" unicode="=" horiz-adv-x="529" 
d="M45 460c-6.66699 0 -10 3.66699 -10 11c0 6.66699 3.33301 10 10 10h431c7.33301 0 11 -3.33301 11 -10c0 -7.33301 -3.66699 -11 -11 -11h-431zM476 279c7.33301 0 11 -3.66699 11 -11s-3.66699 -11 -11 -11h-431c-6.66699 0 -10 3.66699 -10 11s3.33301 11 10 11h431z
" />
    <glyph glyph-name="greater" unicode="&#x3e;" horiz-adv-x="398" 
d="M345 375c2 -2 3.00098 -4.33301 3.00098 -7c0 -3.33301 -1 -6 -3 -8l-251 -249c-2 -2.66699 -4.33301 -4 -7 -4s-5.33398 1.33301 -8.00098 4c-2 2 -3 4.5 -3 7.5s1 5.5 3 7.5l243 242l-245 245c-2 2 -3 4.5 -3 7.5s1 5.5 3 7.5c4.66699 4.66699 9.66699 4.66699 15 0z
" />
    <glyph glyph-name="question" unicode="?" horiz-adv-x="532" 
d="M281 732c26 0 50.332 -4.99902 72.999 -14.999s42.5 -23.5 59.5 -40.5s30.5 -36.833 40.5 -59.5s15 -47 15 -73c0 -46 -12 -85 -36 -117c-11.333 -13.333 -23.333 -25 -36 -35s-25.667 -19.667 -39 -29c-20.667 -14 -38.667 -28.333 -54 -43s-23 -34.667 -23 -60v-58v-9
v-2v-2v-40c0 -6.66699 -3.66699 -10 -11 -10s-11 3.33301 -11 10v36v6c0 0.666992 0.166992 1.16699 0.5 1.5s0.5 0.833008 0.5 1.5v66c0 27.333 9 52 27 74c8 9.33301 17 17.666 27 24.999s20.667 14.666 32 21.999l37 26.5c12 9 22.833 19.833 32.5 32.5
s17.5 27.334 23.5 44.001s9 36.667 9 60c0 22.667 -4.33301 44.167 -13 64.5s-20.667 38.166 -36 53.499s-33.166 27.333 -53.499 36s-41.833 13 -64.5 13c-23.333 0 -45 -4.33301 -65 -13s-37.667 -20.667 -53 -36s-27.333 -33.166 -36 -53.499s-13 -41.833 -13 -64.5
c0 -7.33301 -3.66699 -11 -11 -11c-6.66699 0 -10 3.66699 -10 11c0 26 4.83301 50.333 14.5 73s23 42.5 40 59.5s37 30.5 60 40.5s47.5 15 73.5 15zM269.999 26.001c3.33301 0 5 -1.33301 5 -4c0 -3.33301 -1.66699 -5 -5 -5s-5 1.66699 -5 5c0 2.66699 1.66699 4 5 4z
M269.999 37.001c4 0 7.5 -1.5 10.5 -4.5s4.5 -6.5 4.5 -10.5c0 -4.66699 -1.5 -8.5 -4.5 -11.5s-6.5 -4.5 -10.5 -4.5s-7.5 1.5 -10.5 4.5s-4.5 6.83301 -4.5 11.5c0 4 1.5 7.5 4.5 10.5s6.5 4.5 10.5 4.5zM269.999 16.001c4 0 6 2 6 6s-2 6 -6 6s-6 -2 -6 -6s2 -6 6 -6z
" />
    <glyph glyph-name="at" unicode="@" 
 />
    <glyph glyph-name="A" unicode="A" horiz-adv-x="423" 
d="M361 18c1.33301 -2.66699 1.16602 -5.16699 -0.500977 -7.5s-4.16699 -3.83301 -7.5 -4.5h-2c-6 0 -9.66699 2.66699 -11 8l-30 151h-202l-31 -151c-1.33301 -5.33301 -4.66602 -8 -9.99902 -8h-2c-7.33301 1.33301 -10.333 5.33301 -9 12l142 707
c0.666992 0 1 0.333008 1 1v1l1 1v1h1v1h1v1h1c0 0.666992 0.333008 1 1 1h1v1h1h2h1h1h2l1 -1h1h1v-1h1v-1h1v-1l1 -1v-1h1v-1v-1zM306 187l-97 481l-97 -481h194z" />
    <glyph glyph-name="B" unicode="B" horiz-adv-x="484" 
d="M362 343c13.333 -19.333 23.3359 -40.835 30.0029 -64.502s10 -48.5 10 -74.5s-3.33301 -50.833 -10 -74.5s-16.667 -45.167 -30 -64.5s-28.5 -34.166 -45.5 -44.499s-34.167 -15.5 -51.5 -15.5h-153h-1h-1c-7.33301 0 -11 3.66699 -11 11v707
c0 7.33301 3.66699 11 11 11h1h135c15.333 0 30.666 -4.66699 45.999 -14s28.666 -22.333 39.999 -39c24 -35.333 36 -76.333 36 -123s-12 -87.667 -36 -123c-10.667 -16 -23 -28.333 -37 -37c25.333 -9.33301 47.666 -27.666 66.999 -54.999zM121.003 402.998
l125 -0.000976562c13.333 0 26 4.16699 38 12.5s22.667 19.666 32 33.999s16.833 30.833 22.5 49.5s8.5 38.334 8.5 59.001s-2.83301 40.334 -8.5 59.001s-13.167 35 -22.5 49s-20 25.167 -32 33.5s-24.667 12.5 -38 12.5h-125v-309zM265.003 25.9971
c15.333 0 30 4.83398 44 14.501s26.333 22.667 37 39s19.167 35.333 25.5 57s9.5 44.167 9.5 67.5c0 24 -3.16699 46.667 -9.5 68s-14.833 40.166 -25.5 56.499s-23 29.333 -37 39s-28.667 14.5 -44 14.5h-144v-356h144z" />
    <glyph glyph-name="C" unicode="C" horiz-adv-x="484" 
d="M239 -5c-44.667 0 -79.668 13.665 -105.001 40.998c-11.333 12.667 -19.833 26.334 -25.5 41.001s-9.66699 28.5 -12 41.5s-3.33301 24.167 -3 33.5s0.5 15 0.5 17v411c0 53.333 16 95 48 125c12.667 11.333 27.5 20.333 44.5 27s34.5 10 52.5 10
s35.5 -3.16699 52.5 -9.5s32.167 -15.166 45.5 -26.499c34 -28 51 -70.333 51 -127c0 -6.66699 -3.33301 -10 -10 -10c-7.33301 0 -11 3.33301 -11 10c0 26 -3.83301 48.167 -11.5 66.5s-17.667 33 -30 44s-26.166 19 -41.499 24s-30.333 7.5 -45 7.5
c-15.333 0 -30.5 -2.83301 -45.5 -8.5s-28.333 -14.167 -40 -25.5s-21 -26 -28 -44s-10.5 -39 -10.5 -63v-412v-1v-12.5c0 -8.33301 0.833008 -18.333 2.5 -30s5 -24.167 10 -37.5s12.5 -25.333 22.5 -36c21.333 -23.333 51 -35 89 -35c39.333 0 70 11.667 92 35
c10 10.667 17.5 22.334 22.5 35.001s8.5 24.5 10.5 35.5s3 20.333 3 28v11.5c-0.666992 3.33301 0 6 2 8s4.66699 3 8 3c3.33301 0.666992 6 0 8 -2s3 -4.66699 3 -8v-14c0 -8.66699 -1.16699 -19.334 -3.5 -32.001s-6.33301 -26.167 -12 -40.5s-14.167 -27.5 -25.5 -39.5
c-26 -27.333 -62 -41 -108 -41z" />
    <glyph glyph-name="D" unicode="D" horiz-adv-x="477" 
d="M338 696c32 -30 48 -71.666 48 -124.999v-403c0 -54.667 -16 -96.334 -48 -125.001c-12.667 -12 -27.334 -21.167 -44.001 -27.5s-34 -9.5 -52 -9.5h-81h-58c-7.33301 0 -11 3.33301 -11 10v707c0 6.66699 3.66699 10 11 10h58h81c18 0 35.333 -3.16699 52 -9.5
s31.334 -15.5 44.001 -27.5zM365 571.001c0 24 -3.5 44.998 -10.5 62.998s-16.333 32.667 -28 44s-24.834 19.833 -39.501 25.5s-29.667 8.5 -45 8.5h-81h-48v-685h48h81c15.333 0 30.333 2.66699 45 8s27.834 13.833 39.501 25.5s21 26.334 28 44.001
s10.5 38.834 10.5 63.501v403z" />
    <glyph glyph-name="E" unicode="E" horiz-adv-x="476" 
d="M372 27c7.33301 0 11 -3.66699 11 -11c0 -6.66699 -3.66699 -10 -11 -10h-260c-7.33301 0 -11 3.33301 -11 10v706c0 7.33301 3.66699 11 11 11h260c7.33301 0 11 -3.66699 11 -11c0 -6.66699 -3.66699 -10 -11 -10h-250v-376h190c7.33301 0 11 -3.33301 11 -10
c0 -7.33301 -3.66699 -11 -11 -11h-190v-288h250v0z" />
    <glyph glyph-name="F" unicode="F" horiz-adv-x="469" 
d="M374 733c7.33301 0 11 -3.66699 11 -11c0 -6.66699 -3.66699 -10 -11 -10h-256v-376h196c7.33301 0 11 -3.33301 11 -10c0 -7.33301 -3.66699 -11 -11 -11h-196v-299c0 -6.66699 -3.66699 -10 -11 -10c-6.66699 0 -10 3.33301 -10 10v706c0 7.33301 3.33301 11 10 11h267
v0z" />
    <glyph glyph-name="G" unicode="G" horiz-adv-x="477" 
d="M237 -4c-44.667 0 -79.6641 13.666 -104.997 40.999c-11.333 12.667 -19.833 26.334 -25.5 41.001s-9.66699 28.5 -12 41.5s-3.33301 24.167 -3 33.5s0.5 15 0.5 17v411c0 53.333 16 95 48 125c12.667 11.333 27.5 20.333 44.5 27s34.5 10 52.5 10
c16.667 0 33.5 -2.83301 50.5 -8.5s32.5 -15 46.5 -28s25.333 -29.833 34 -50.5s13 -46 13 -76c0 -6.66699 -3.33301 -10 -10 -10c-7.33301 0 -11 3.33301 -11 10c0 26 -3.66699 48 -11 66s-16.833 32.5 -28.5 43.5s-24.834 19 -39.501 24s-29.334 7.5 -44.001 7.5
c-15.333 0 -30.5 -2.66699 -45.5 -8s-28.333 -13.833 -40 -25.5s-21 -26.334 -28 -44.001s-10.5 -38.5 -10.5 -62.5v-412v-1v-12.5c0 -8.33301 0.833008 -18.333 2.5 -30s5 -24.167 10 -37.5s12.5 -25.333 22.5 -36c21.333 -23.333 51 -35 89 -35c39.333 0 70 11.667 92 35
c10 10.667 17.5 22.334 22.5 35.001s8.5 24.5 10.5 35.5s3 20.333 3 28v11.5v1v158h-100c-7.33301 0 -11 3.66699 -11 11s3.66699 11 11 11h121v-180v-15.5c0 -9 -1.33301 -19.667 -4 -32s-6.83398 -25.333 -12.501 -39s-14.167 -26.5 -25.5 -38.5
c-25.333 -28 -61 -42 -107 -42z" />
    <glyph glyph-name="H" unicode="H" horiz-adv-x="515" 
d="M402 733c7.33301 0 11 -3.33301 11 -10v-707c0 -6.66699 -3.66699 -10 -11 -10c-6.66699 0 -10 3.33301 -10 10v299h-274v-299c0 -6.66699 -3.33301 -10 -10 -10c-7.33301 0 -11 3.33301 -11 10v707c0 6.66699 3.66699 10 11 10c6.66699 0 10 -3.33301 10 -10v-387h274
v387c0 6.66699 3.33301 10 10 10z" />
    <glyph glyph-name="I" unicode="I" horiz-adv-x="248" 
d="M122 6c-7.33301 0 -11 3.33301 -11 10v707c0 6.66699 3.66699 10 11 10s11 -3.33301 11 -10v-707c0 -6.66699 -3.66699 -10 -11 -10z" />
    <glyph glyph-name="J" unicode="J" horiz-adv-x="493" 
d="M237 1c-44.667 0 -79.665 13.668 -104.998 41.001c-12 12.667 -20.833 26.5 -26.5 41.5s-9.5 29.167 -11.5 42.5s-2.83301 24.5 -2.5 33.5s0.5 14.167 0.5 15.5c1.33301 7.33301 5.33301 10.333 12 9c2.66699 0 5 -1 7 -3s2.66699 -4.66699 2 -8v-12.5
c0 -8.33301 0.833008 -18.333 2.5 -30s5 -24.334 10 -38.001s12.5 -25.834 22.5 -36.501c21.333 -22.667 51 -34 89 -34c39.333 0 70 11.667 92 35c10 10.667 17.5 22.334 22.5 35.001s8.5 24.5 10.5 35.5s3 20.333 3 28v11.5v560c0 7.33301 3.66699 11 11 11
c6.66699 0 10 -3.66699 10 -11v-559v-16c0 -8.66699 -1.33301 -19.167 -4 -31.5s-6.83398 -25.5 -12.501 -39.5s-13.834 -27 -24.501 -39c-26 -27.333 -62 -41 -108 -41z" />
    <glyph glyph-name="K" unicode="K" horiz-adv-x="508" 
d="M444 26c3.33301 -6.66699 2 -11.665 -4 -14.998c-1.33301 0 -2.33301 -0.166992 -3 -0.5s-1.33398 -0.5 -2.00098 -0.5c-4.66699 0 -8 2 -10 6l-201 397l-106 -173v-223c0 -6.66699 -3.66699 -10 -11 -10s-11 3.33301 -11 10v705c0 6.66699 3.66699 10 11 10
s11 -3.33301 11 -10v-441l273 445c4 5.33301 9 6.33301 15 3c2.66699 -1.33301 4.33398 -3.5 5.00098 -6.5s0.333984 -5.83301 -0.999023 -8.5l-174 -281c1.33301 -0.666992 2.16602 -1.33398 2.49902 -2.00098s0.833008 -1.33398 1.5 -2.00098l204 -403v0z" />
    <glyph glyph-name="L" unicode="L" horiz-adv-x="516" 
d="M127 6c-7.33301 0 -11 3.33301 -11 10v707c0 6.66699 3.66699 10 11 10s11 -3.33301 11 -10v-696h257c7.33301 0 11 -3.66699 11 -11c0 -6.66699 -3.66699 -10 -11 -10h-268v0z" />
    <glyph glyph-name="M" unicode="M" horiz-adv-x="570" 
d="M488 16c0 -6.66699 -3.66602 -10 -10.999 -10s-11 3.33301 -11 10v662l-169 -334c-0.666992 -2.66699 -2.66699 -5 -6 -7c-1.33301 -0.666992 -3 -1 -5 -1c-2.66699 0 -4.33398 0.333008 -5.00098 1c-3.33301 2 -5.33301 4.33301 -6 7l-170 334v-662
c0 -6.66699 -3.33301 -10 -10 -10c-7.33301 0 -11 3.33301 -11 10v707v1v1l1 1v1v1h1v1h1v1l1 1c0.666992 0 1 0.333008 1 1h1l1 1h1h1h1h1h1h1h1c0.666992 0 1 -0.333008 1 -1h1l1 -1h1v-1h1v-1h1v-1v-1l182 -356l182 356v1v1h1v1h1v1h1c0 0.666992 0.333008 1 1 1h1
c0 0.666992 0.333008 1 1 1h1h1h1h1h1h1h1c0 -0.666992 0.333008 -1 1 -1h1v-1h1c0 -0.666992 0.333008 -1 1 -1v-1h1v-1c0.666992 0 1 -0.333008 1 -1v-1v-1h1v-1v-1v-707z" />
    <glyph glyph-name="N" unicode="N" horiz-adv-x="507" 
d="M91 724l1.00098 1v1v1l1 1v1h1v1h1v1h1c0 0.666992 0.333008 1 1 1h1c0 0.666992 0.333008 1 1 1h1h1h1h1h1h1h1c0 -0.666992 0.333008 -1 1 -1h1v-1h1l1 -1v-1h1v-1l1 -1l285 -659v655c0 6.66699 3.66699 10 11 10s11 -3.33301 11 -10v-707h-1v-1v-1v-1v-1h-1v-1v-1h-1
v-1h-1v-1h-1v-1h-1l-1 -1h-2h-2h-2h-1c-0.666992 0 -1.33398 0.333008 -2.00098 1h-1c0 0.666992 -0.333008 1 -1 1l-1 1l-1 1v1c-0.666992 0 -1 0.333008 -1 1l-285 659v-655c0 -6.66699 -3.66699 -10 -11 -10s-11 3.33301 -11 10v707v1z" />
    <glyph glyph-name="O" unicode="O" horiz-adv-x="453" 
d="M369 163l0.000976562 -16c0 -8.66699 -1.33301 -19.167 -4 -31.5s-6.83398 -25.5 -12.501 -39.5s-14.167 -27 -25.5 -39c-26 -27.333 -61.667 -41 -107 -41c-44.667 0 -79.667 13.667 -105 41c-11.333 12 -19.833 25.333 -25.5 40s-9.5 28.5 -11.5 41.5
s-3 24.167 -3 33.5v17v410c0 53.333 16 95 48 125c13.333 11.333 28.333 20.333 45 27s34 10 52 10s35.5 -3 52.5 -9s32.167 -14.667 45.5 -26c34 -30 51 -72.333 51 -127v-416zM348.001 579c0 26 -3.83398 48.001 -11.501 66.001s-17.667 32.5 -30 43.5
s-26.166 19 -41.499 24s-30.333 7.5 -45 7.5c-15.333 0 -30.5 -2.83301 -45.5 -8.5s-28.167 -14.167 -39.5 -25.5s-20.5 -26 -27.5 -44s-10.5 -39 -10.5 -63v-411l-0.5 -12.5c-0.333008 -8.33301 0.5 -18.333 2.5 -30s5.33301 -24.334 10 -38.001s12 -25.834 22 -36.501
c21.333 -22.667 51 -34 89 -34c39.333 0 70 11.667 92 35c10 10.667 17.333 22.334 22 35.001s8 24.5 10 35.5s3 20.333 3 28v11.5z" />
    <glyph glyph-name="P" unicode="P" horiz-adv-x="474" 
d="M362 668c12.667 -20 22.5 -42.5 29.5 -67.5s10.5 -50.167 10.5 -75.5c0 -26 -3.5 -51.5 -10.5 -76.5s-16.833 -47.167 -29.5 -66.5c-28 -43.333 -60.333 -65 -97 -65h-144v-300c0 -7.33301 -3.66699 -11 -11 -11c-6.66699 0 -10 3.66699 -10 11v704c0 4.66699 2 8 6 10
c1.33301 1.33301 3.33301 2 6 2h153c17.333 0 34.5 -5.66699 51.5 -17s32.167 -27.333 45.5 -48zM344 393c11.333 18 20.333 38.5 27 61.5s10 46.5 10 70.5c0 23.333 -3.33301 46.5 -10 69.5s-15.667 43.5 -27 61.5c-11.333 17.333 -23.833 30.833 -37.5 40.5
s-27.5 14.5 -41.5 14.5h-144v-373h144c14 0 27.833 4.83301 41.5 14.5s26.167 23.167 37.5 40.5z" />
    <glyph glyph-name="Q" unicode="Q" horiz-adv-x="500" 
d="M405 -38c1.33301 -2.66699 1.99805 -5.5 1.99805 -8.5s-1 -5.16699 -3 -6.5c-3.33301 -2 -5.66602 -3 -6.99902 -3c-3.33301 0 -6.33301 1.33301 -9 4l-59 68c-21.333 -14.667 -49 -22 -83 -22c-44.667 0 -79.667 13.667 -105 41c-11.333 12 -19.833 25.333 -25.5 40
s-9.66699 28.5 -12 41.5s-3.33301 24.167 -3 33.5s0.5 15 0.5 17v410c0 53.333 16 95 48 125c12.667 11.333 27.334 20.333 44.001 27s34 10 52 10c38.667 0 71.667 -11.667 99 -35c34 -30 51 -72.333 51 -127l-1 -416v-16c0 -8.66699 -1.16699 -19.167 -3.5 -31.5
s-6.33301 -25.5 -12 -39.5s-14.167 -27 -25.5 -39c-2.66699 -2.66699 -5 -4.66699 -7 -6zM245.998 15c39.333 0 69.667 11.668 91 35.001c10 10.667 17.5 22.334 22.5 35.001s8.5 24.5 10.5 35.5s3 20.333 3 28v11.5v417c0 26 -3.83301 48 -11.5 66s-17.667 32.5 -30 43.5
s-26.166 19 -41.499 24s-30.333 7.5 -45 7.5c-15.333 0 -30.333 -2.83301 -45 -8.5s-27.834 -14.167 -39.501 -25.5s-21 -26 -28 -44s-10.5 -39 -10.5 -63v-411v-12.5c0 -8.33301 0.833008 -18.333 2.5 -30s5 -24.334 10 -38.001s12.5 -25.834 22.5 -36.501
c21.333 -22.667 51 -34 89 -34z" />
    <glyph glyph-name="R" unicode="R" horiz-adv-x="491" 
d="M420 21c1.33301 -2.66699 1.5 -5.33301 0.5 -8s-2.83301 -4.66699 -5.5 -6h-4c-4.66699 0 -8 2 -10 6l-133 304c-2 -0.666992 -4.66699 -1 -8 -1h-144v-299c0 -6.66699 -3.66699 -10 -11 -10c-6.66699 0 -10 3.33301 -10 10v705c0 6.66699 3.33301 10 10 10h155
c18 0 35.5 -5.5 52.5 -16.5s32.167 -26.833 45.5 -47.5c12.667 -20 22.5 -42.5 29.5 -67.5s10.5 -50.5 10.5 -76.5c0 -25.333 -3.5 -50.5 -10.5 -75.5s-16.833 -47.5 -29.5 -67.5c-20.667 -30.667 -43.667 -50.667 -69 -60zM260 338.001c14 0 28 4.83301 42 14.5
s26.667 23.167 38 40.5c11.333 18 20.166 38.5 26.499 61.5s9.5 46.167 9.5 69.5c0 24 -3.16699 47.5 -9.5 70.5s-15.166 43.5 -26.499 61.5c-11.333 17.333 -24 30.833 -38 40.5s-28 14.5 -42 14.5h-144v-373h144z" />
    <glyph glyph-name="S" unicode="S" horiz-adv-x="468" 
d="M401 159c0 -54 -18.0029 -95.9941 -54.0029 -125.994c-14 -11.333 -30.5 -20.166 -49.5 -26.499s-39.167 -9.5 -60.5 -9.5c-15.333 0 -32.833 2.16699 -52.5 6.5s-38.167 13.833 -55.5 28.5c-33.333 29.333 -50 71.666 -50 126.999c0 7.33301 3.66699 11 11 11
c6.66699 0 10 -3.66699 10 -11c0 -32 5.16699 -57.333 15.5 -76s22.833 -32.834 37.5 -42.501s29.834 -15.834 45.501 -18.501s28.5 -4 38.5 -4c17.333 0 34.5 2.5 51.5 7.5s32.333 13 46 24s24.667 25.5 33 43.5s12.5 40 12.5 66c0 30 -4.33301 56 -13 78
s-20.167 41.833 -34.5 59.5s-30.5 33.334 -48.5 47.001l-55 40.5l-51.5 37.5c-16.333 12.333 -31.166 26.166 -44.499 41.499c-29.333 35.333 -44 74.666 -44 117.999v15.5c0 8.33301 1.16699 18.166 3.5 29.499s6.33301 23.666 12 36.999s13.834 25.666 24.501 36.999
c26 28 62.333 42 109 42c47.333 0 83 -14 107 -42c10 -12 17.167 -24.667 21.5 -38s7.33301 -26 9 -38s2.16699 -22 1.5 -30s-1 -12.333 -1 -13c-1.33301 -7.33301 -5.33301 -10.333 -12 -9c-7.33301 1.33301 -10.333 5.33301 -9 12l0.5 10.5c0.333008 7 0 15.667 -1 26
s-3.5 21.333 -7.5 33s-10.333 22.5 -19 32.5c-19.333 23.333 -49.333 35 -90 35s-71.667 -11.667 -93 -35c-9.33301 -10 -16.333 -21 -21 -33s-8 -23.167 -10 -33.5s-3 -19.166 -3 -26.499v-11c0 -22 3.66699 -41.5 11 -58.5s17 -32.667 29 -47s25.833 -27.5 41.5 -39.5
l48.5 -36c19.333 -13.333 38.333 -27.333 57 -42s35.667 -31.334 51 -50.001c34.667 -42.667 52 -92.667 52 -150z" />
    <glyph glyph-name="T" unicode="T" horiz-adv-x="445" 
d="M209 711h-155c-7.33301 0 -11 3.66699 -11 11c0 6.66699 3.66699 10 11 10h328c7.33301 0 11 -3.33301 11 -10c0 -7.33301 -3.66699 -11 -11 -11h-152v-694c0 -7.33301 -3.66699 -11 -11 -11c-6.66699 0 -10 3.66699 -10 11v694z" />
    <glyph glyph-name="U" unicode="U" horiz-adv-x="501" 
d="M401 168l-0.000976562 -14.999c0 -8.66699 -1.33301 -19.167 -4 -31.5s-6.83398 -25.5 -12.501 -39.5s-14.167 -27 -25.5 -39c-25.333 -27.333 -61 -41 -107 -41c-45.333 0 -80.333 13.667 -105 41c-11.333 12 -19.833 25.333 -25.5 40s-9.5 28.5 -11.5 41.5
s-3 24.167 -3 33.5v17v552c0 6.66699 3.66699 10 11 10s11 -3.33301 11 -10v-553v-1c-1.33301 -14.667 -0.666016 -28.667 2.00098 -42c1.33301 -12 4.5 -24.5 9.5 -37.5s12.5 -25.167 22.5 -36.5c20.667 -22.667 50.334 -34 89.001 -34c39.333 0 70 11.667 92 35
c9.33301 10.667 16.5 22.167 21.5 34.5s8.5 24.166 10.5 35.499c2.66699 12.667 3.66699 25.667 3 39v1v558c0 7.33301 3.66699 11 11 11s11 -3.66699 11 -11v-558z" />
    <glyph glyph-name="V" unicode="V" horiz-adv-x="468" 
d="M377 729c7.33301 -2.66699 10 -7 8 -13l-141 -697c-1.33301 -6 -5 -9 -11 -9h-2h-2c-6 0 -9.66699 3 -11 9l-142 697c-1.33301 6 1.66699 10.333 9 13c6.66699 1.33301 10.667 -1.66699 12 -9l134 -657l133 657c2.66699 7.33301 7 10.333 13 9z" />
    <glyph glyph-name="W" unicode="W" horiz-adv-x="625" 
d="M530 732c3.33301 0 5.83398 -1.16699 7.50098 -3.5s2.5 -5.16602 2.5 -8.49902l-87 -704v-1h-1v-1v-1v-1h-1v-1h-1v-1l-1 -1h-1v-1h-1l-1 -1h-1h-1h-1l-1 -1l-1 1h-1h-1h-1v1h-1h-1v1h-1l-1 1v1c-0.666992 0 -1 0.333008 -1 1l-1 1v1l-114 344l-114 -344v-1h-1v-1l-1 -1
v-1h-1v-1h-1v-1h-1h-1v-1h-1h-1h-1l-1 -1c-0.666992 0 -1 0.333008 -1 1h-1h-1h-1c-0.666992 0 -1 0.333008 -1 1h-1l-1 1h-1v1l-1 1v1h-1v1v1c-0.666992 0 -1 0.333008 -1 1v1l-87 704c-0.666992 3.33301 0 6.16602 2 8.49902s4.33301 3.5 7 3.5
c3.33301 0.666992 6.16602 0.166992 8.49902 -1.5s3.5 -4.16699 3.5 -7.5l82 -657l109 330v1h1v1v1h1v1h1v1h1v1h1h1v1h1h1h1h1h1h1h1h1v-1h1c0.666992 0 1 -0.333008 1 -1h1v-1h1v-1c0.666992 0 1 -0.333008 1 -1s0.333008 -1 1 -1v-1l109 -330l81 657
c1.33301 7.33301 5.33301 10.333 12 9z" />
    <glyph glyph-name="X" unicode="X" horiz-adv-x="477" 
d="M389 24c2.66699 -6.66699 0.666992 -11 -6 -13c-0.666992 -0.666992 -2 -1 -4 -1c-4.66699 0 -8 2.33301 -10 7l-110 288l-19 48l-19 -48l-110 -288c-2 -4.66699 -5.33301 -7 -10 -7c-2 0 -3.33301 0.333008 -4 1c-6.66699 2 -8.66699 6.33301 -6 13l110 288l27 71
l-127 332c-2.66699 6 -0.666992 10.333 6 13c7.33301 2.66699 12 0.666992 14 -6l119 -309l119 309c2 6.66699 6.66699 8.66699 14 6c6.66699 -2.66699 8.66699 -7 6 -13l-128 -332l27 -71z" />
    <glyph glyph-name="Y" unicode="Y" horiz-adv-x="446" 
d="M363 731c6 -2.66699 8 -7.33398 6 -14.001l-134 -339v-360c0 -7.33301 -3.66699 -11 -11 -11s-11 3.66699 -11 11v360l-134 339c-2 6.66699 0 11.334 6 14.001c7.33301 2.66699 12 0.666992 14 -6l125 -316l125 316c2 6.66699 6.66699 8.66699 14 6z" />
    <glyph glyph-name="Z" unicode="Z" horiz-adv-x="477" 
d="M117 28h262c7.33301 0 11 -3.66699 11 -11s-3.66699 -11 -11 -11h-271c-2.66699 0 -5 1 -7 3c-0.666992 0.666992 -1.33398 1 -2.00098 1c-7.33301 2 -9.66602 6.66699 -6.99902 14l272 687h-218c-7.33301 0 -11 3.66699 -11 11s3.66699 11 11 11h233h1v-1h1h1h1
c0.666992 0 1 -0.333008 1 -1h1l1 -1c0.666992 0 1 -0.333008 1 -1h1v-1l1 -1v-1l1 -1v-1v-1v-1v-1v-1v-1l-1 -1z" />
    <glyph glyph-name="bracketleft" unicode="[" 
 />
    <glyph glyph-name="backslash" unicode="\" 
 />
    <glyph glyph-name="bracketright" unicode="]" 
 />
    <glyph glyph-name="asciicircum" unicode="^" 
 />
    <glyph glyph-name="underscore" unicode="_" 
 />
    <glyph glyph-name="grave" unicode="`" horiz-adv-x="202" 
d="M113 668c-6.66699 -2 -10.667 0.333008 -12 7l-33 114c-2 6.66699 0.333008 10.667 7 12c6 2 10 -0.333008 12 -7l33 -114c1.33301 -6.66699 -1 -10.667 -7 -12z" />
    <glyph glyph-name="a" unicode="a" horiz-adv-x="423" 
d="M361 18c1.33301 -2.66699 1.16602 -5.16699 -0.500977 -7.5s-4.16699 -3.83301 -7.5 -4.5h-2c-6 0 -9.66699 2.66699 -11 8l-30 151h-202l-31 -151c-1.33301 -5.33301 -4.66602 -8 -9.99902 -8h-2c-7.33301 1.33301 -10.333 5.33301 -9 12l142 707
c0.666992 0 1 0.333008 1 1v1l1 1v1h1v1h1v1h1c0 0.666992 0.333008 1 1 1h1v1h1h2h1h1h2l1 -1h1h1v-1h1v-1h1v-1l1 -1v-1h1v-1v-1zM306 187l-97 481l-97 -481h194z" />
    <glyph glyph-name="b" unicode="b" horiz-adv-x="484" 
d="M362 343c13.333 -19.333 23.3359 -40.835 30.0029 -64.502s10 -48.5 10 -74.5s-3.33301 -50.833 -10 -74.5s-16.667 -45.167 -30 -64.5s-28.5 -34.166 -45.5 -44.499s-34.167 -15.5 -51.5 -15.5h-153h-1h-1c-7.33301 0 -11 3.66699 -11 11v707
c0 7.33301 3.66699 11 11 11h1h135c15.333 0 30.666 -4.66699 45.999 -14s28.666 -22.333 39.999 -39c24 -35.333 36 -76.333 36 -123s-12 -87.667 -36 -123c-10.667 -16 -23 -28.333 -37 -37c25.333 -9.33301 47.666 -27.666 66.999 -54.999zM121.003 402.998
l125 -0.000976562c13.333 0 26 4.16699 38 12.5s22.667 19.666 32 33.999s16.833 30.833 22.5 49.5s8.5 38.334 8.5 59.001s-2.83301 40.334 -8.5 59.001s-13.167 35 -22.5 49s-20 25.167 -32 33.5s-24.667 12.5 -38 12.5h-125v-309zM265.003 25.9971
c15.333 0 30 4.83398 44 14.501s26.333 22.667 37 39s19.167 35.333 25.5 57s9.5 44.167 9.5 67.5c0 24 -3.16699 46.667 -9.5 68s-14.833 40.166 -25.5 56.499s-23 29.333 -37 39s-28.667 14.5 -44 14.5h-144v-356h144z" />
    <glyph glyph-name="c" unicode="c" horiz-adv-x="484" 
d="M239 -5c-44.667 0 -79.668 13.665 -105.001 40.998c-11.333 12.667 -19.833 26.334 -25.5 41.001s-9.66699 28.5 -12 41.5s-3.33301 24.167 -3 33.5s0.5 15 0.5 17v411c0 53.333 16 95 48 125c12.667 11.333 27.5 20.333 44.5 27s34.5 10 52.5 10
s35.5 -3.16699 52.5 -9.5s32.167 -15.166 45.5 -26.499c34 -28 51 -70.333 51 -127c0 -6.66699 -3.33301 -10 -10 -10c-7.33301 0 -11 3.33301 -11 10c0 26 -3.83301 48.167 -11.5 66.5s-17.667 33 -30 44s-26.166 19 -41.499 24s-30.333 7.5 -45 7.5
c-15.333 0 -30.5 -2.83301 -45.5 -8.5s-28.333 -14.167 -40 -25.5s-21 -26 -28 -44s-10.5 -39 -10.5 -63v-412v-1v-12.5c0 -8.33301 0.833008 -18.333 2.5 -30s5 -24.167 10 -37.5s12.5 -25.333 22.5 -36c21.333 -23.333 51 -35 89 -35c39.333 0 70 11.667 92 35
c10 10.667 17.5 22.334 22.5 35.001s8.5 24.5 10.5 35.5s3 20.333 3 28v11.5c-0.666992 3.33301 0 6 2 8s4.66699 3 8 3c3.33301 0.666992 6 0 8 -2s3 -4.66699 3 -8v-14c0 -8.66699 -1.16699 -19.334 -3.5 -32.001s-6.33301 -26.167 -12 -40.5s-14.167 -27.5 -25.5 -39.5
c-26 -27.333 -62 -41 -108 -41z" />
    <glyph glyph-name="d" unicode="d" horiz-adv-x="477" 
d="M338 696c32 -30 48 -71.666 48 -124.999v-403c0 -54.667 -16 -96.334 -48 -125.001c-12.667 -12 -27.334 -21.167 -44.001 -27.5s-34 -9.5 -52 -9.5h-81h-58c-7.33301 0 -11 3.33301 -11 10v707c0 6.66699 3.66699 10 11 10h58h81c18 0 35.333 -3.16699 52 -9.5
s31.334 -15.5 44.001 -27.5zM365 571.001c0 24 -3.5 44.998 -10.5 62.998s-16.333 32.667 -28 44s-24.834 19.833 -39.501 25.5s-29.667 8.5 -45 8.5h-81h-48v-685h48h81c15.333 0 30.333 2.66699 45 8s27.834 13.833 39.501 25.5s21 26.334 28 44.001
s10.5 38.834 10.5 63.501v403z" />
    <glyph glyph-name="e" unicode="e" horiz-adv-x="476" 
d="M372 27c7.33301 0 11 -3.66699 11 -11c0 -6.66699 -3.66699 -10 -11 -10h-260c-7.33301 0 -11 3.33301 -11 10v706c0 7.33301 3.66699 11 11 11h260c7.33301 0 11 -3.66699 11 -11c0 -6.66699 -3.66699 -10 -11 -10h-250v-376h190c7.33301 0 11 -3.33301 11 -10
c0 -7.33301 -3.66699 -11 -11 -11h-190v-288h250v0z" />
    <glyph glyph-name="f" unicode="f" horiz-adv-x="469" 
d="M374 733c7.33301 0 11 -3.66699 11 -11c0 -6.66699 -3.66699 -10 -11 -10h-256v-376h196c7.33301 0 11 -3.33301 11 -10c0 -7.33301 -3.66699 -11 -11 -11h-196v-299c0 -6.66699 -3.66699 -10 -11 -10c-6.66699 0 -10 3.33301 -10 10v706c0 7.33301 3.33301 11 10 11h267
v0z" />
    <glyph glyph-name="g" unicode="g" horiz-adv-x="477" 
d="M237 -4c-44.667 0 -79.6641 13.666 -104.997 40.999c-11.333 12.667 -19.833 26.334 -25.5 41.001s-9.66699 28.5 -12 41.5s-3.33301 24.167 -3 33.5s0.5 15 0.5 17v411c0 53.333 16 95 48 125c12.667 11.333 27.5 20.333 44.5 27s34.5 10 52.5 10
c16.667 0 33.5 -2.83301 50.5 -8.5s32.5 -15 46.5 -28s25.333 -29.833 34 -50.5s13 -46 13 -76c0 -6.66699 -3.33301 -10 -10 -10c-7.33301 0 -11 3.33301 -11 10c0 26 -3.66699 48 -11 66s-16.833 32.5 -28.5 43.5s-24.834 19 -39.501 24s-29.334 7.5 -44.001 7.5
c-15.333 0 -30.5 -2.66699 -45.5 -8s-28.333 -13.833 -40 -25.5s-21 -26.334 -28 -44.001s-10.5 -38.5 -10.5 -62.5v-412v-1v-12.5c0 -8.33301 0.833008 -18.333 2.5 -30s5 -24.167 10 -37.5s12.5 -25.333 22.5 -36c21.333 -23.333 51 -35 89 -35c39.333 0 70 11.667 92 35
c10 10.667 17.5 22.334 22.5 35.001s8.5 24.5 10.5 35.5s3 20.333 3 28v11.5v1v158h-100c-7.33301 0 -11 3.66699 -11 11s3.66699 11 11 11h121v-180v-15.5c0 -9 -1.33301 -19.667 -4 -32s-6.83398 -25.333 -12.501 -39s-14.167 -26.5 -25.5 -38.5
c-25.333 -28 -61 -42 -107 -42z" />
    <glyph glyph-name="h" unicode="h" horiz-adv-x="515" 
d="M402 733c7.33301 0 11 -3.33301 11 -10v-707c0 -6.66699 -3.66699 -10 -11 -10c-6.66699 0 -10 3.33301 -10 10v299h-274v-299c0 -6.66699 -3.33301 -10 -10 -10c-7.33301 0 -11 3.33301 -11 10v707c0 6.66699 3.66699 10 11 10c6.66699 0 10 -3.33301 10 -10v-387h274
v387c0 6.66699 3.33301 10 10 10z" />
    <glyph glyph-name="i" unicode="i" horiz-adv-x="248" 
d="M122 6c-7.33301 0 -11 3.33301 -11 10v707c0 6.66699 3.66699 10 11 10s11 -3.33301 11 -10v-707c0 -6.66699 -3.66699 -10 -11 -10z" />
    <glyph glyph-name="j" unicode="j" horiz-adv-x="493" 
d="M237 1c-44.667 0 -79.665 13.668 -104.998 41.001c-12 12.667 -20.833 26.5 -26.5 41.5s-9.5 29.167 -11.5 42.5s-2.83301 24.5 -2.5 33.5s0.5 14.167 0.5 15.5c1.33301 7.33301 5.33301 10.333 12 9c2.66699 0 5 -1 7 -3s2.66699 -4.66699 2 -8v-12.5
c0 -8.33301 0.833008 -18.333 2.5 -30s5 -24.334 10 -38.001s12.5 -25.834 22.5 -36.501c21.333 -22.667 51 -34 89 -34c39.333 0 70 11.667 92 35c10 10.667 17.5 22.334 22.5 35.001s8.5 24.5 10.5 35.5s3 20.333 3 28v11.5v560c0 7.33301 3.66699 11 11 11
c6.66699 0 10 -3.66699 10 -11v-559v-16c0 -8.66699 -1.33301 -19.167 -4 -31.5s-6.83398 -25.5 -12.501 -39.5s-13.834 -27 -24.501 -39c-26 -27.333 -62 -41 -108 -41z" />
    <glyph glyph-name="k" unicode="k" horiz-adv-x="508" 
d="M444 26c3.33301 -6.66699 2 -11.665 -4 -14.998c-1.33301 0 -2.33301 -0.166992 -3 -0.5s-1.33398 -0.5 -2.00098 -0.5c-4.66699 0 -8 2 -10 6l-201 397l-106 -173v-223c0 -6.66699 -3.66699 -10 -11 -10s-11 3.33301 -11 10v705c0 6.66699 3.66699 10 11 10
s11 -3.33301 11 -10v-441l273 445c4 5.33301 9 6.33301 15 3c2.66699 -1.33301 4.33398 -3.5 5.00098 -6.5s0.333984 -5.83301 -0.999023 -8.5l-174 -281c1.33301 -0.666992 2.16602 -1.33398 2.49902 -2.00098s0.833008 -1.33398 1.5 -2.00098l204 -403v0z" />
    <glyph glyph-name="l" unicode="l" horiz-adv-x="516" 
d="M127 6c-7.33301 0 -11 3.33301 -11 10v707c0 6.66699 3.66699 10 11 10s11 -3.33301 11 -10v-696h257c7.33301 0 11 -3.66699 11 -11c0 -6.66699 -3.66699 -10 -11 -10h-268v0z" />
    <glyph glyph-name="m" unicode="m" horiz-adv-x="570" 
d="M488 16c0 -6.66699 -3.66602 -10 -10.999 -10s-11 3.33301 -11 10v662l-169 -334c-0.666992 -2.66699 -2.66699 -5 -6 -7c-1.33301 -0.666992 -3 -1 -5 -1c-2.66699 0 -4.33398 0.333008 -5.00098 1c-3.33301 2 -5.33301 4.33301 -6 7l-170 334v-662
c0 -6.66699 -3.33301 -10 -10 -10c-7.33301 0 -11 3.33301 -11 10v707v1v1l1 1v1v1h1v1h1v1l1 1c0.666992 0 1 0.333008 1 1h1l1 1h1h1h1h1h1h1h1c0.666992 0 1 -0.333008 1 -1h1l1 -1h1v-1h1v-1h1v-1v-1l182 -356l182 356v1v1h1v1h1v1h1c0 0.666992 0.333008 1 1 1h1
c0 0.666992 0.333008 1 1 1h1h1h1h1h1h1h1c0 -0.666992 0.333008 -1 1 -1h1v-1h1c0 -0.666992 0.333008 -1 1 -1v-1h1v-1c0.666992 0 1 -0.333008 1 -1v-1v-1h1v-1v-1v-707z" />
    <glyph glyph-name="n" unicode="n" horiz-adv-x="507" 
d="M91 724l1.00098 1v1v1l1 1v1h1v1h1v1h1c0 0.666992 0.333008 1 1 1h1c0 0.666992 0.333008 1 1 1h1h1h1h1h1h1h1c0 -0.666992 0.333008 -1 1 -1h1v-1h1l1 -1v-1h1v-1l1 -1l285 -659v655c0 6.66699 3.66699 10 11 10s11 -3.33301 11 -10v-707h-1v-1v-1v-1v-1h-1v-1v-1h-1
v-1h-1v-1h-1v-1h-1l-1 -1h-2h-2h-2h-1c-0.666992 0 -1.33398 0.333008 -2.00098 1h-1c0 0.666992 -0.333008 1 -1 1l-1 1l-1 1v1c-0.666992 0 -1 0.333008 -1 1l-285 659v-655c0 -6.66699 -3.66699 -10 -11 -10s-11 3.33301 -11 10v707v1z" />
    <glyph glyph-name="o" unicode="o" horiz-adv-x="453" 
d="M369 163l0.000976562 -16c0 -8.66699 -1.33301 -19.167 -4 -31.5s-6.83398 -25.5 -12.501 -39.5s-14.167 -27 -25.5 -39c-26 -27.333 -61.667 -41 -107 -41c-44.667 0 -79.667 13.667 -105 41c-11.333 12 -19.833 25.333 -25.5 40s-9.5 28.5 -11.5 41.5
s-3 24.167 -3 33.5v17v410c0 53.333 16 95 48 125c13.333 11.333 28.333 20.333 45 27s34 10 52 10s35.5 -3 52.5 -9s32.167 -14.667 45.5 -26c34 -30 51 -72.333 51 -127v-416zM348.001 579c0 26 -3.83398 48.001 -11.501 66.001s-17.667 32.5 -30 43.5
s-26.166 19 -41.499 24s-30.333 7.5 -45 7.5c-15.333 0 -30.5 -2.83301 -45.5 -8.5s-28.167 -14.167 -39.5 -25.5s-20.5 -26 -27.5 -44s-10.5 -39 -10.5 -63v-411l-0.5 -12.5c-0.333008 -8.33301 0.5 -18.333 2.5 -30s5.33301 -24.334 10 -38.001s12 -25.834 22 -36.501
c21.333 -22.667 51 -34 89 -34c39.333 0 70 11.667 92 35c10 10.667 17.333 22.334 22 35.001s8 24.5 10 35.5s3 20.333 3 28v11.5z" />
    <glyph glyph-name="p" unicode="p" horiz-adv-x="474" 
d="M362 668c12.667 -20 22.5 -42.5 29.5 -67.5s10.5 -50.167 10.5 -75.5c0 -26 -3.5 -51.5 -10.5 -76.5s-16.833 -47.167 -29.5 -66.5c-28 -43.333 -60.333 -65 -97 -65h-144v-300c0 -7.33301 -3.66699 -11 -11 -11c-6.66699 0 -10 3.66699 -10 11v704c0 4.66699 2 8 6 10
c1.33301 1.33301 3.33301 2 6 2h153c17.333 0 34.5 -5.66699 51.5 -17s32.167 -27.333 45.5 -48zM344 393c11.333 18 20.333 38.5 27 61.5s10 46.5 10 70.5c0 23.333 -3.33301 46.5 -10 69.5s-15.667 43.5 -27 61.5c-11.333 17.333 -23.833 30.833 -37.5 40.5
s-27.5 14.5 -41.5 14.5h-144v-373h144c14 0 27.833 4.83301 41.5 14.5s26.167 23.167 37.5 40.5z" />
    <glyph glyph-name="q" unicode="q" horiz-adv-x="500" 
d="M405 -38c1.33301 -2.66699 1.99805 -5.5 1.99805 -8.5s-1 -5.16699 -3 -6.5c-3.33301 -2 -5.66602 -3 -6.99902 -3c-3.33301 0 -6.33301 1.33301 -9 4l-59 68c-21.333 -14.667 -49 -22 -83 -22c-44.667 0 -79.667 13.667 -105 41c-11.333 12 -19.833 25.333 -25.5 40
s-9.66699 28.5 -12 41.5s-3.33301 24.167 -3 33.5s0.5 15 0.5 17v410c0 53.333 16 95 48 125c12.667 11.333 27.334 20.333 44.001 27s34 10 52 10c38.667 0 71.667 -11.667 99 -35c34 -30 51 -72.333 51 -127l-1 -416v-16c0 -8.66699 -1.16699 -19.167 -3.5 -31.5
s-6.33301 -25.5 -12 -39.5s-14.167 -27 -25.5 -39c-2.66699 -2.66699 -5 -4.66699 -7 -6zM245.998 15c39.333 0 69.667 11.668 91 35.001c10 10.667 17.5 22.334 22.5 35.001s8.5 24.5 10.5 35.5s3 20.333 3 28v11.5v417c0 26 -3.83301 48 -11.5 66s-17.667 32.5 -30 43.5
s-26.166 19 -41.499 24s-30.333 7.5 -45 7.5c-15.333 0 -30.333 -2.83301 -45 -8.5s-27.834 -14.167 -39.501 -25.5s-21 -26 -28 -44s-10.5 -39 -10.5 -63v-411v-12.5c0 -8.33301 0.833008 -18.333 2.5 -30s5 -24.334 10 -38.001s12.5 -25.834 22.5 -36.501
c21.333 -22.667 51 -34 89 -34z" />
    <glyph glyph-name="r" unicode="r" horiz-adv-x="491" 
d="M420 21c1.33301 -2.66699 1.5 -5.33301 0.5 -8s-2.83301 -4.66699 -5.5 -6h-4c-4.66699 0 -8 2 -10 6l-133 304c-2 -0.666992 -4.66699 -1 -8 -1h-144v-299c0 -6.66699 -3.66699 -10 -11 -10c-6.66699 0 -10 3.33301 -10 10v705c0 6.66699 3.33301 10 10 10h155
c18 0 35.5 -5.5 52.5 -16.5s32.167 -26.833 45.5 -47.5c12.667 -20 22.5 -42.5 29.5 -67.5s10.5 -50.5 10.5 -76.5c0 -25.333 -3.5 -50.5 -10.5 -75.5s-16.833 -47.5 -29.5 -67.5c-20.667 -30.667 -43.667 -50.667 -69 -60zM260 338.001c14 0 28 4.83301 42 14.5
s26.667 23.167 38 40.5c11.333 18 20.166 38.5 26.499 61.5s9.5 46.167 9.5 69.5c0 24 -3.16699 47.5 -9.5 70.5s-15.166 43.5 -26.499 61.5c-11.333 17.333 -24 30.833 -38 40.5s-28 14.5 -42 14.5h-144v-373h144z" />
    <glyph glyph-name="s" unicode="s" horiz-adv-x="468" 
d="M401 159c0 -54 -18.0029 -95.9941 -54.0029 -125.994c-14 -11.333 -30.5 -20.166 -49.5 -26.499s-39.167 -9.5 -60.5 -9.5c-15.333 0 -32.833 2.16699 -52.5 6.5s-38.167 13.833 -55.5 28.5c-33.333 29.333 -50 71.666 -50 126.999c0 7.33301 3.66699 11 11 11
c6.66699 0 10 -3.66699 10 -11c0 -32 5.16699 -57.333 15.5 -76s22.833 -32.834 37.5 -42.501s29.834 -15.834 45.501 -18.501s28.5 -4 38.5 -4c17.333 0 34.5 2.5 51.5 7.5s32.333 13 46 24s24.667 25.5 33 43.5s12.5 40 12.5 66c0 30 -4.33301 56 -13 78
s-20.167 41.833 -34.5 59.5s-30.5 33.334 -48.5 47.001l-55 40.5l-51.5 37.5c-16.333 12.333 -31.166 26.166 -44.499 41.499c-29.333 35.333 -44 74.666 -44 117.999v15.5c0 8.33301 1.16699 18.166 3.5 29.499s6.33301 23.666 12 36.999s13.834 25.666 24.501 36.999
c26 28 62.333 42 109 42c47.333 0 83 -14 107 -42c10 -12 17.167 -24.667 21.5 -38s7.33301 -26 9 -38s2.16699 -22 1.5 -30s-1 -12.333 -1 -13c-1.33301 -7.33301 -5.33301 -10.333 -12 -9c-7.33301 1.33301 -10.333 5.33301 -9 12l0.5 10.5c0.333008 7 0 15.667 -1 26
s-3.5 21.333 -7.5 33s-10.333 22.5 -19 32.5c-19.333 23.333 -49.333 35 -90 35s-71.667 -11.667 -93 -35c-9.33301 -10 -16.333 -21 -21 -33s-8 -23.167 -10 -33.5s-3 -19.166 -3 -26.499v-11c0 -22 3.66699 -41.5 11 -58.5s17 -32.667 29 -47s25.833 -27.5 41.5 -39.5
l48.5 -36c19.333 -13.333 38.333 -27.333 57 -42s35.667 -31.334 51 -50.001c34.667 -42.667 52 -92.667 52 -150z" />
    <glyph glyph-name="t" unicode="t" horiz-adv-x="445" 
d="M209 711h-155c-7.33301 0 -11 3.66699 -11 11c0 6.66699 3.66699 10 11 10h328c7.33301 0 11 -3.33301 11 -10c0 -7.33301 -3.66699 -11 -11 -11h-152v-694c0 -7.33301 -3.66699 -11 -11 -11c-6.66699 0 -10 3.66699 -10 11v694z" />
    <glyph glyph-name="u" unicode="u" horiz-adv-x="501" 
d="M401 168l-0.000976562 -14.999c0 -8.66699 -1.33301 -19.167 -4 -31.5s-6.83398 -25.5 -12.501 -39.5s-14.167 -27 -25.5 -39c-25.333 -27.333 -61 -41 -107 -41c-45.333 0 -80.333 13.667 -105 41c-11.333 12 -19.833 25.333 -25.5 40s-9.5 28.5 -11.5 41.5
s-3 24.167 -3 33.5v17v552c0 6.66699 3.66699 10 11 10s11 -3.33301 11 -10v-553v-1c-1.33301 -14.667 -0.666016 -28.667 2.00098 -42c1.33301 -12 4.5 -24.5 9.5 -37.5s12.5 -25.167 22.5 -36.5c20.667 -22.667 50.334 -34 89.001 -34c39.333 0 70 11.667 92 35
c9.33301 10.667 16.5 22.167 21.5 34.5s8.5 24.166 10.5 35.499c2.66699 12.667 3.66699 25.667 3 39v1v558c0 7.33301 3.66699 11 11 11s11 -3.66699 11 -11v-558z" />
    <glyph glyph-name="v" unicode="v" horiz-adv-x="468" 
d="M377 729c7.33301 -2.66699 10 -7 8 -13l-141 -697c-1.33301 -6 -5 -9 -11 -9h-2h-2c-6 0 -9.66699 3 -11 9l-142 697c-1.33301 6 1.66699 10.333 9 13c6.66699 1.33301 10.667 -1.66699 12 -9l134 -657l133 657c2.66699 7.33301 7 10.333 13 9z" />
    <glyph glyph-name="w" unicode="w" horiz-adv-x="625" 
d="M530 732c3.33301 0 5.83398 -1.16699 7.50098 -3.5s2.5 -5.16602 2.5 -8.49902l-87 -704v-1h-1v-1v-1v-1h-1v-1h-1v-1l-1 -1h-1v-1h-1l-1 -1h-1h-1h-1l-1 -1l-1 1h-1h-1h-1v1h-1h-1v1h-1l-1 1v1c-0.666992 0 -1 0.333008 -1 1l-1 1v1l-114 344l-114 -344v-1h-1v-1l-1 -1
v-1h-1v-1h-1v-1h-1h-1v-1h-1h-1h-1l-1 -1c-0.666992 0 -1 0.333008 -1 1h-1h-1h-1c-0.666992 0 -1 0.333008 -1 1h-1l-1 1h-1v1l-1 1v1h-1v1v1c-0.666992 0 -1 0.333008 -1 1v1l-87 704c-0.666992 3.33301 0 6.16602 2 8.49902s4.33301 3.5 7 3.5
c3.33301 0.666992 6.16602 0.166992 8.49902 -1.5s3.5 -4.16699 3.5 -7.5l82 -657l109 330v1h1v1v1h1v1h1v1h1v1h1h1v1h1h1h1h1h1h1h1h1v-1h1c0.666992 0 1 -0.333008 1 -1h1v-1h1v-1c0.666992 0 1 -0.333008 1 -1s0.333008 -1 1 -1v-1l109 -330l81 657
c1.33301 7.33301 5.33301 10.333 12 9z" />
    <glyph glyph-name="x" unicode="x" horiz-adv-x="477" 
d="M389 24c2.66699 -6.66699 0.666992 -11 -6 -13c-0.666992 -0.666992 -2 -1 -4 -1c-4.66699 0 -8 2.33301 -10 7l-110 288l-19 48l-19 -48l-110 -288c-2 -4.66699 -5.33301 -7 -10 -7c-2 0 -3.33301 0.333008 -4 1c-6.66699 2 -8.66699 6.33301 -6 13l110 288l27 71
l-127 332c-2.66699 6 -0.666992 10.333 6 13c7.33301 2.66699 12 0.666992 14 -6l119 -309l119 309c2 6.66699 6.66699 8.66699 14 6c6.66699 -2.66699 8.66699 -7 6 -13l-128 -332l27 -71z" />
    <glyph glyph-name="y" unicode="y" horiz-adv-x="446" 
d="M363 731c6 -2.66699 8 -7.33398 6 -14.001l-134 -339v-360c0 -7.33301 -3.66699 -11 -11 -11s-11 3.66699 -11 11v360l-134 339c-2 6.66699 0 11.334 6 14.001c7.33301 2.66699 12 0.666992 14 -6l125 -316l125 316c2 6.66699 6.66699 8.66699 14 6z" />
    <glyph glyph-name="z" unicode="z" horiz-adv-x="477" 
d="M117 28h262c7.33301 0 11 -3.66699 11 -11s-3.66699 -11 -11 -11h-271c-2.66699 0 -5 1 -7 3c-0.666992 0.666992 -1.33398 1 -2.00098 1c-7.33301 2 -9.66602 6.66699 -6.99902 14l272 687h-218c-7.33301 0 -11 3.66699 -11 11s3.66699 11 11 11h233h1v-1h1h1h1
c0.666992 0 1 -0.333008 1 -1h1l1 -1c0.666992 0 1 -0.333008 1 -1h1v-1l1 -1v-1l1 -1v-1v-1v-1v-1v-1v-1l-1 -1z" />
    <glyph glyph-name="braceleft" unicode="{" 
 />
    <glyph glyph-name="bar" unicode="|" 
 />
    <glyph glyph-name="braceright" unicode="}" 
 />
    <glyph glyph-name="asciitilde" unicode="~" 
 />
    <glyph glyph-name="Aring" unicode="&#xc5;" horiz-adv-x="423" 
d="M366 17c1.33301 -2.66699 1.16602 -5.16797 -0.500977 -7.50098s-4.16699 -3.83301 -7.5 -4.5h-2c-5.33301 0 -8.66602 2.66699 -9.99902 8l-31 151h-201l-31 -151c-1.33301 -5.33301 -4.66602 -8 -9.99902 -8h-2c-6.66699 1.33301 -9.33398 5.33301 -8.00098 12l141 704
c0 0.666992 0.333008 1.33398 1 2.00098v1v1h1v1h1v1h1l1 1h1v1h1c1.33301 0 2.33301 0.333008 3 1h1h1c0 -0.666992 0.666992 -1 2 -1h1l1 -1c0.666992 0 1 -0.333008 1 -1h1v-1h1v-1h1v-1v-1c0.666992 0 1 -0.333008 1 -1v-1zM311 183.999l-96 483l-97 -483h193z
M215 794.999c-18 0 -33.5 6.66699 -46.5 20s-19.5 29 -19.5 47c0 18.667 6.5 34.334 19.5 47.001s28.5 19 46.5 19c18.667 0 34.334 -6.33301 47.001 -19s19 -28.334 19 -47.001c0 -18 -6.33301 -33.667 -19 -47s-28.334 -20 -47.001 -20zM215 906.999
c-12.667 0 -23.5 -4.33301 -32.5 -13s-13.5 -19.334 -13.5 -32.001c0 -13.333 4.5 -24.333 13.5 -33s19.833 -13 32.5 -13s23.5 4.33301 32.5 13s13.5 19.667 13.5 33c0 12.667 -4.5 23.334 -13.5 32.001s-19.833 13 -32.5 13z" />
    <glyph glyph-name="AE" unicode="&#xc6;" horiz-adv-x="899" 
d="M686 24c7.33301 0 11 -3.66602 11 -10.999c0 -6.66699 -3.66699 -10 -11 -10h-262c-7.33301 0 -11 3.33301 -11 10v145h5c6.66699 0 10 3.66699 10 11c0 6.66699 -3.33301 10 -10 10h-5v146v388h3h5c6.66699 0 10 3.66699 10 11c0 5.33301 -3 8.66602 -9 9.99902h2h262
c7.33301 0 11 -3.33301 11 -10c0 -7.33301 -3.66699 -11 -11 -11h-251v-378h191c6.66699 0 10 -3.33301 10 -10c0 -7.33301 -3.33301 -11 -10 -11h-191v-290h251zM428 169.001c0 -7.33301 -3.33398 -11.001 -10.001 -11.001h-5h-221l-59 -166
c-1.33301 -4.66699 -4.66602 -7 -9.99902 -7c-1.33301 0 -2.33301 0.333008 -3 1c-7.33301 2.66699 -9.66602 7 -6.99902 13l257 728c1.33301 4.66699 4.66602 7 9.99902 7h41h1c6 -1.33301 9 -4.66602 9 -9.99902c0 -7.33301 -3.33301 -11 -10 -11h-5h-3h-25l-182 -514
l-7 -20h214h5c6.66699 0 10 -3.33301 10 -10z" />
    <glyph glyph-name="Oslash" unicode="&#xd8;" horiz-adv-x="453" 
d="M377 782c6 -2.66699 7.99707 -7.33496 5.99707 -14.002l-33 -87c16.667 -27.333 25 -59.666 25 -96.999v-423v-15.5c0 -9 -1.33301 -19.833 -4 -32.5s-6.83398 -26 -12.501 -40s-14.167 -27 -25.5 -39c-26 -28 -62.333 -42 -109 -42c-46 0 -81.333 14 -106 42
c-2 2 -3.83301 4 -5.5 6s-3.5 4.33301 -5.5 7l-27 -71c-1.33301 -4.66699 -4.66602 -7 -9.99902 -7c-1.33301 0 -2.66602 0.333008 -3.99902 1c-6 2.66699 -8 7.33398 -6 14.001l34 87c-5.33301 10.667 -9.16602 21.5 -11.499 32.5s-3.83301 21 -4.5 30s-1 16.667 -1 23
v11.5v416c0 54 16.333 96.333 49 127c12.667 12 27.5 21.167 44.5 27.5s34.833 9.5 53.5 9.5c38.667 0 72 -12 100 -36c2 -1.33301 3.83301 -3 5.5 -5s3.5 -3.66699 5.5 -5l28 74c2.66699 6 7.33398 8 14.001 6zM98.9971 146.999c0 -6 0.331055 -12.8281 0.998047 -20.4951
s2.33398 -15.834 5.00098 -24.501l221 576c-13.333 17.333 -29.166 29.666 -47.499 36.999s-36.5 11 -54.5 11c-16 0 -31.5 -2.83301 -46.5 -8.5s-28.333 -14.334 -40 -26.001s-21 -26.334 -28 -44.001s-10.5 -38.834 -10.5 -63.501v-417v-1v-19zM352.995 584.004
c0 14 -1.16699 26.832 -3.5 38.499s-5.5 22.5 -9.5 32.5l-223 -583l8 -12c2.66699 -4 5.66699 -8 9 -12c20.667 -22.667 50.667 -34 90 -34c40 0 71 11.667 93 35c10 10.667 17.5 22.334 22.5 35.001s8.5 24.667 10.5 36c2.66699 12.667 3.66699 26 3 40v1v423z" />
    <glyph glyph-name="dotlessi" unicode="&#x131;" 
 />
    <glyph glyph-name="florin" unicode="&#x192;" 
 />
    <glyph glyph-name="circumflex" unicode="&#x2c6;" 
 />
    <glyph glyph-name="caron" unicode="&#x2c7;" 
 />
    <glyph glyph-name="breve" unicode="&#x2d8;" 
 />
    <glyph glyph-name="dotaccent" unicode="&#x2d9;" 
 />
    <glyph glyph-name="ring" unicode="&#x2da;" 
 />
    <glyph glyph-name="ogonek" unicode="&#x2db;" 
 />
    <glyph glyph-name="tilde" unicode="&#x2dc;" horiz-adv-x="374" 
d="M276 663c10.667 -4 19.666 -8.33203 26.999 -12.999l10 -8c4.66699 -5.33301 4.66699 -10.333 0 -15c-2 -2 -4.5 -3 -7.5 -3s-5.5 1 -7.5 3c-0.666992 0.666992 -3.5 3 -8.5 7s-12 7.16699 -21 9.5s-20 2.66602 -33 0.999023s-27.5 -7.83398 -43.5 -18.501
c-13.333 -9.33301 -26 -15.666 -38 -18.999s-22.667 -5 -32 -5c-11.333 0 -20.666 1.33301 -27.999 4c-12 3.33301 -21.5 7.5 -28.5 12.5s-10.5 7.83301 -10.5 8.5c-2 2 -3 4.5 -3 7.5s1 5.5 3 7.5c4.66699 4.66699 9.66699 4.66699 15 0
c0.666992 -0.666992 3.66699 -3 9 -7s12.833 -7.33301 22.5 -10s21.167 -3.16699 34.5 -1.5s28 8.16699 44 19.5c20.667 14 39.167 21.667 55.5 23s29.833 0.333008 40.5 -3z" />
    <glyph glyph-name="hungarumlaut" unicode="&#x2dd;" horiz-adv-x="1666" 
 />
    <glyph glyph-name="endash" unicode="&#x2013;" 
 />
    <glyph glyph-name="emdash" unicode="&#x2014;" 
 />
    <glyph glyph-name="quoteleft" unicode="&#x2018;" horiz-adv-x="202" 
d="M113 668c-6.66699 -2 -10.667 0.333008 -12 7l-33 114c-2 6.66699 0.333008 10.667 7 12c6 2 10 -0.333008 12 -7l33 -114c1.33301 -6.66699 -1 -10.667 -7 -12z" />
    <glyph glyph-name="quoteright" unicode="&#x2019;" horiz-adv-x="192" 
d="M74 668c-6 1.33301 -8.33301 5.33301 -7 12l33 114c2 6.66699 6 9 12 7c6.66699 -1.33301 9 -5.33301 7 -12l-33 -114c-1.33301 -6.66699 -5.33301 -9 -12 -7z" />
    <glyph glyph-name="quotesinglbase" unicode="&#x201a;" 
 />
    <glyph glyph-name="quotedblleft" unicode="&#x201c;" horiz-adv-x="253" 
d="M174 668c-6.66699 -2 -10.667 0.333008 -12 7l-33 114c-2 6.66699 0.333008 10.667 7 12c6 2 10 -0.333008 12 -7l33 -114c1.33301 -6.66699 -1 -10.667 -7 -12zM113 668c-6.66699 -2 -10.667 0.333008 -12 7l-33 114c-2 6.66699 0.333008 10.667 7 12
c6 2 10 -0.333008 12 -7l33 -114c1.33301 -6.66699 -1 -10.667 -7 -12z" />
    <glyph glyph-name="quotedblright" unicode="&#x201d;" horiz-adv-x="247" 
d="M74 668c-6 1.33301 -8.33301 5.33301 -7 12l33 114c2 6.66699 6 9 12 7c6.66699 -1.33301 9 -5.33301 7 -12l-33 -114c-1.33301 -6.66699 -5.33301 -9 -12 -7zM135 668c-6 1.33301 -8.33301 5.33301 -7 12l33 114c2 6.66699 6 9 12 7c6.66699 -1.33301 9 -5.33301 7 -12
l-33 -114c-1.33301 -6.66699 -5.33301 -9 -12 -7z" />
    <glyph glyph-name="quotedblbase" unicode="&#x201e;" 
 />
    <glyph glyph-name="dagger" unicode="&#x2020;" horiz-adv-x="500" 
 />
    <glyph glyph-name="daggerdbl" unicode="&#x2021;" horiz-adv-x="500" 
 />
    <glyph glyph-name="bullet" unicode="&#x2022;" 
 />
    <glyph glyph-name="ellipsis" unicode="&#x2026;" 
 />
    <glyph glyph-name="perthousand" unicode="&#x2030;" 
 />
    <glyph glyph-name="guilsinglleft" unicode="&#x2039;" 
 />
    <glyph glyph-name="fraction" unicode="&#x2044;" horiz-adv-x="500" 
 />
    <glyph glyph-name="Euro" unicode="&#x20ac;" 
 />
    <glyph glyph-name="trademark" unicode="&#x2122;" horiz-adv-x="461" 
d="M186 680c10.667 0 16 -5.33301 16 -16s-5.33301 -16 -16 -16h-54v-204c0 -4.66699 -1.5 -8.5 -4.5 -11.5s-6.5 -4.5 -10.5 -4.5c-10.667 0 -16 5.33301 -16 16v204h-55c-10.667 0 -16 5.33301 -16 16s5.33301 16 16 16h140zM422 443c0 -10.667 -5.33496 -16 -16.002 -16
c-4 0 -7.5 1.5 -10.5 4.5s-4.5 6.83301 -4.5 11.5v155l-51 -100c-1.33301 -1.33301 -2.5 -2.83301 -3.5 -4.5s-2.5 -3.16699 -4.5 -4.5c-1.33301 -0.666992 -3.66602 -1 -6.99902 -1s-5.66602 0.333008 -6.99902 1c-4 2 -6.66699 5 -8 9l-51 100v-155
c0 -4.66699 -1.5 -8.5 -4.5 -11.5s-6.5 -4.5 -10.5 -4.5c-10.667 0 -16 5.33301 -16 16v220v1v1v1v1c0.666992 0.666992 1 2 1 4h1v1c0.666992 0 1 0.333008 1 1l2 2c0 0.666992 0.333008 1 1 1h1v1h1h1v1h1l1 1h1h1h1h1h1h1h1h1l2 -1h1l1 -1h1v-1h1l2 -2h1v-1v-1h1v-1h1
l67 -133l67 133h1v1l1 1v1c0.666992 0.666992 1.16699 1 1.5 1s0.833008 0.333008 1.5 1h1v1h1v1c1.33301 0 2.33301 0.333008 3 1h1h1h1h1h1h1h1h1h1v-1h1h1v-1h1h1v-1h1v-1h1l2 -2v-1h1v-1c0.666992 -0.666992 1 -2 1 -4h1v-1v-1v-1v-1v-220z" />
    <glyph glyph-name=".null" horiz-adv-x="0" 
 />
    <glyph glyph-name="nonmarkingreturn" horiz-adv-x="500" 
 />
    <glyph glyph-name="glyph28" horiz-adv-x="0" 
 />
    <glyph glyph-name="glyph30" horiz-adv-x="0" 
 />
    <glyph glyph-name="glyph40" horiz-adv-x="0" 
 />
    <glyph glyph-name="glyph41" horiz-adv-x="0" 
 />
    <glyph glyph-name="glyph42" horiz-adv-x="0" 
 />
    <glyph glyph-name="glyph43" horiz-adv-x="0" 
 />
    <glyph glyph-name="glyph54" horiz-adv-x="0" 
 />
    <glyph glyph-name="glyph55" horiz-adv-x="0" 
 />
    <glyph glyph-name="glyph56" horiz-adv-x="0" 
 />
    <glyph glyph-name="glyph57" horiz-adv-x="0" 
 />
    <glyph glyph-name="glyph58" horiz-adv-x="0" 
 />
    <glyph glyph-name="glyph61" horiz-adv-x="0" 
 />
    <glyph glyph-name="glyph70" horiz-adv-x="0" 
 />
    <glyph glyph-name="glyph102" horiz-adv-x="0" 
 />
    <glyph glyph-name="glyph103" horiz-adv-x="0" 
 />
    <glyph glyph-name="glyph104" horiz-adv-x="0" 
 />
    <glyph glyph-name="glyph105" horiz-adv-x="0" 
 />
    <glyph glyph-name="glyph106" horiz-adv-x="0" 
 />
    <glyph glyph-name="glyph107" horiz-adv-x="0" 
 />
    <glyph glyph-name="glyph108" horiz-adv-x="0" 
 />
    <glyph glyph-name="glyph109" horiz-adv-x="0" 
 />
    <glyph glyph-name="glyph111" horiz-adv-x="0" 
 />
    <glyph glyph-name="glyph112" horiz-adv-x="0" 
 />
    <glyph glyph-name="glyph113" horiz-adv-x="0" 
 />
    </font>
</defs>
</svg>
