<?xml version="1.0" standalone="no"?>
<!DOCTYPE svg PUBLIC "-//W3C//DTD SVG 1.1//EN" "http://www.w3.org/Graphics/SVG/1.1/DTD/svg11.dtd" >
<svg xmlns="http://www.w3.org/2000/svg">
<metadata></metadata>
<defs>
<font id="rivannaregular" horiz-adv-x="956" >
<font-face units-per-em="2048" ascent="1638" descent="-410" />
<missing-glyph horiz-adv-x="409" />
<glyph horiz-adv-x="2048" />
<glyph horiz-adv-x="2048" />
<glyph unicode="&#xd;" horiz-adv-x="409" />
<glyph unicode=" "  horiz-adv-x="409" />
<glyph unicode="&#x09;" horiz-adv-x="409" />
<glyph unicode="&#xa0;" horiz-adv-x="409" />
<glyph unicode="!" horiz-adv-x="245" d="M20 102q0 41 31 72t74 31q41 0 71.5 -31t30.5 -72q0 -43 -30.5 -73.5t-71.5 -30.5q-43 0 -74 30.5t-31 73.5zM33 1696h182q-43 -977 -37 -1411h-108q6 504 -37 1411z" />
<glyph unicode="&#x22;" horiz-adv-x="380" d="M29 1716h325q-14 -119 -37 -305h-108l-19 143l-16 -143h-108q-10 84 -37 305z" />
<glyph unicode="$" horiz-adv-x="659" d="M29 1391q0 45 31.5 75.5t76.5 30.5h121v199h111v-199h200v-111h-200v-131q127 -76 184 -149q78 -96 78 -229q0 -203 -133 -410q-61 -92 -129 -168v-301h-111v190q-66 -59 -154 -131v267q94 59 154 102v766q-14 8 -27 16q-53 29 -151 90q-51 35 -51 93zM147 1386 q52 -32 111 -67v67h-111zM369 522q149 156 149 355q0 139 -149 245v-600z" />
<glyph unicode="&#x26;" horiz-adv-x="1095" d="M51 449q0 256 172 589q-123 319 -149 596l-6 62h596v-111h-365l-55 -10q-35 -16 -35 -68q0 -18 4 -39q90 -500 405 -866v694q0 31 -22.5 60.5t-48.5 29.5h-129v111h311v-1014q141 -135 318 -241v-260q-164 104 -318 258v-242h-227q-301 0 -406 223q-45 96 -45 228z M162 504q0 -92 35 -160q72 -139 305 -139h116v223q-203 215 -337 479q-119 -223 -119 -403z" />
<glyph unicode="'" horiz-adv-x="245" d="M33 1716h182q-14 -119 -37 -305h-108q-10 84 -37 305z" />
<glyph unicode="(" horiz-adv-x="442" d="M20 782q-8 291 62 539q53 199 194 420l97 -62q-133 -190 -193 -430q-47 -180 -41 -370q10 -457 252 -758l33 -41l-96 -246l-31 47q-264 406 -277 901z" />
<glyph unicode=")" horiz-adv-x="442" d="M20 80l97 -246l30 47q264 406 277 901q6 291 -62 539q-55 199 -194 420l-96 -62q131 -190 192 -430q45 -180 41 -370q-12 -457 -252 -758z" />
<glyph unicode="*" horiz-adv-x="567" d="M47 1214v111q106 0 158 92q-49 90 -158 90v113q98 0 182 -64v144h111v-144q80 63 180 64v-113q-106 0 -155 -90q51 -92 155 -92v-111q-100 0 -180 64v-145h-111v145q-84 -63 -182 -64z" />
<glyph unicode="," horiz-adv-x="264" d="M25 102q0 41 30.5 72t73.5 31q37 0 64 -23q47 -39 47 -121q0 -77 -37 -143q-55 -100 -160 -133v59q113 43 137 168q-29 -14 -51 -14q-43 0 -73.5 30.5t-30.5 73.5z" />
<glyph unicode="-" horiz-adv-x="362" d="M55 803v141h254v-141h-254z" />
<glyph unicode="." horiz-adv-x="245" d="M20 102q0 41 31 72t74 31q41 0 71.5 -31t30.5 -72q0 -43 -30.5 -73.5t-71.5 -30.5q-43 0 -74 30.5t-31 73.5z" />
<glyph unicode="0" d="M45 848q0 293 80 530q115 336 354 336q238 0 352 -336q82 -237 82 -530q0 -295 -82 -531q-115 -338 -352 -337q-240 0 -354 337q-80 238 -80 531zM156 903q0 -219 61 -418q88 -281 262 -280q174 0 262 280q62 195 62 418q0 326 -101 522q-92 178 -223 179 q-133 0 -221 -179q-102 -205 -102 -522z" />
<glyph unicode="1" horiz-adv-x="446" d="M20 1290v111h56q98 0 168.5 69.5t70.5 167.5v58h111v-1698h-111v1216q0 74 -28 97q-31 27 -101 -2q-45 -18 -110 -19h-56z" />
<glyph unicode="2" horiz-adv-x="696" d="M31 1444q102 260 309 278q145 12 235.5 -84t90.5 -241q0 -102 -52 -191q-178 -309 -256 -491q-119 -281 -129 -510h406v-207h-586q96 635 365 1077q96 160 96 275q0 76 -45 123q-61 63 -148 55q-115 -10 -178 -125z" />
<glyph unicode="3" horiz-adv-x="774" d="M35 205q115 37 260 227q139 180 233 402q90 211 90 352q0 201 -186 200h-285v113h404q43 0 43 43t-43 43h-510v111h510q63 0 108.5 -45.5t45.5 -108.5q0 -74 -54 -117q88 -92 88 -280q0 -305 -200 -678q-215 -399 -469 -483z" />
<glyph unicode="4" horiz-adv-x="929" d="M43 1384l412 439l82 -76l-238 -252h236q88 0 88 88v111h110v-138q0 -20 20.5 -40.5t41.5 -20.5h92v-111h-70q-29 0 -56.5 -26.5t-27.5 -54.5v-1307h-110v1249q0 139 -152 139h-428z" />
<glyph unicode="5" horiz-adv-x="765" d="M35 1696h663v-111h-520l23 -86h190q49 0 82 -2q258 -16 258 -350q0 -303 -196 -674q-211 -395 -463 -485v237q174 98 356 425t182 542q0 195 -172 194h-321q-29 104 -82 310z" />
<glyph unicode="6" horiz-adv-x="743" d="M35 1280q0 178 35 371l8 45h633v-111h-371q-184 0 -190 -207q195 121 497 121h55v-1522l-73 25q-297 98 -463 545q-131 354 -131 733zM147 1243q8 -367 156 -672q123 -256 289 -348v1028q0 125 -121 125q-72 0 -172 -43q-92 -41 -152 -90z" />
<glyph unicode="7" horiz-adv-x="669" d="M31 -20v231q266 125 397 459q106 272 100 610q-2 154 -24 211q-37 94 -154 94h-319v111h567l8 -45q33 -178 33 -383q0 -434 -135 -768q-162 -395 -473 -520z" />
<glyph unicode="8" horiz-adv-x="761" d="M35 901q0 365 155 518h-4q-109 43 -108 123q0 82 117 123q84 31 186 31t184 -29q119 -41 119 -125q0 -80 -106 -123h-7q156 -156 156 -528q0 -72 -6 -148q-33 -344 -109 -530q-90 -215 -231 -215q-266 0 -338 745q-8 82 -8 158zM147 934q0 -72 7 -133q31 -305 102 -465 q57 -131 125 -131q100 0 170 260q41 156 59 336q4 57 4 123q0 463 -233 462q-233 0 -234 -452zM242 1542q0 -43 139 -43q141 0 141 43t-141 43q-139 0 -139 -43z" />
<glyph unicode="9" horiz-adv-x="905" d="M41 1317q0 379 330 379h454q39 -205 39 -432q0 -428 -131 -752q-166 -410 -508 -526v233q274 111 416 408q121 256 121 600q0 84 -8 168q-98 -113 -219 -193q-156 -104 -281 -104q-98 0 -155.5 58t-57.5 161zM180 1376q0 -90 111 -90q121 0 272 92q162 101 170 207h-334 q-174 0 -209 -115q-10 -35 -10 -94z" />
<glyph unicode=":" horiz-adv-x="264" d="M27 102q0 41 30.5 72t73.5 31q41 0 71.5 -31t30.5 -72q0 -43 -30.5 -73.5t-71.5 -30.5q-43 0 -73.5 30.5t-30.5 73.5zM33 819q0 41 30.5 72t73.5 31q41 0 72 -31t31 -72q0 -43 -31 -73.5t-72 -30.5q-43 0 -73.5 30.5t-30.5 73.5z" />
<glyph unicode=";" horiz-adv-x="264" d="M25 819q0 41 30.5 72t73.5 31q41 0 71.5 -31t30.5 -72q0 -43 -30.5 -73.5t-71.5 -30.5q-43 0 -73.5 30.5t-30.5 73.5zM27 102q0 41 30.5 72t73.5 31q37 0 64 -23q45 -39 45 -121q0 -77 -35 -143q-57 -100 -160 -133v59q113 43 137 168q-29 -14 -51 -14q-43 0 -73.5 30.5 t-30.5 73.5z" />
<glyph unicode="?" horiz-adv-x="704" d="M33 1524q0 37 14 67q43 104 164 105h274q173 0 187 -117q8 -80 -64 -238q-78 -164 -153 -329q-92 -199 -142 -334q-47 -125 -47 -205q0 -53 15 -104l14 -54l-107 -26l-14 53q-18 68 -18 135q0 98 53 240q29 80 280 629q49 109 50 127q-2 47 -113 47h-213q-51 0 -51 -33 q0 -27 37 -49l-82 -74l-37 41q-47 51 -47 119zM150 102q0 41 29.5 72t72.5 31q41 0 72.5 -31t31.5 -72q0 -43 -30.5 -73.5t-73.5 -30.5t-72.5 30.5t-29.5 73.5z" />
<glyph unicode="@" horiz-adv-x="772" d="M37 969q8 330 92 516q94 215 256 215t260 -211q90 -197 92 -471q0 -266 -26 -371q-55 -213 -244 -213h-221l-8 49q-12 74 -13 174q0 391 135 551q-45 94 -96 142l76 82q129 -121 190 -394q47 -213 41 -409q55 96 54 387q-2 260 -80 428q-68 145 -158 145q-92 0 -156 -147 q-74 -166 -84 -477q-10 -287 48 -504q70 -256 204 -256q143 0 189 162l104 -78q-25 -113 -63 -178q-80 -129 -230 -125q-190 6 -288 321q-86 274 -74 662zM342 612q90 0 115 4q4 45 4 97q0 156 -39 309q-6 18 -14 53q-31 -55 -50 -149q-33 -154 -16 -314z" />
<glyph unicode="A" horiz-adv-x="933" d="M25 -2l387 1698h108l389 -1698h-114q-23 98 -121 156q-88 51 -207 51t-209 -51q-98 -57 -121 -156h-112zM236 387q0 -51 49 -51l358 -2q25 0 37 16t12 39q-2 57 -51 57h-356q-49 0 -49 -59zM262 557h404l-199 887z" />
<glyph unicode="B" horiz-adv-x="704" d="M33 -2v1698h391q192 0 192 -114q0 -75 -108 -183q164 -395 164 -803q0 -453 -252 -565q-74 -33 -160 -33h-227zM143 373q0 -88 37 -144q42 -65 123 -65h2q37 0 70 14q186 84 186 465q0 317 -141 676q-57 -43 -178 -135q-72 -57 -90 -137q-8 -35 -9 -152v-522zM143 1249 q226 154 314 254q18 20 18 41q0 41 -51 41h-158q-59 0 -91 -38t-32 -87v-211z" />
<glyph unicode="C" horiz-adv-x="669" d="M31 1268q0 205 32 383l9 45h567v-111h-236q-152 0 -213 -94q-47 -72 -49 -211v-36q0 -317 101 -574q131 -334 397 -459v-231q-311 125 -473 520q-135 334 -135 768z" />
<glyph unicode="D" horiz-adv-x="745" d="M35 -2v1728q420 -198 610 -823q66 -221 66 -403q0 -242 -119 -372t-330 -130h-227zM145 336q0 -63 40 -97t104 -34q94 0 176 90q71 80 96 182q14 66 14 141q0 131 -45 285q-133 436 -385 637v-1204z" />
<glyph unicode="E" horiz-adv-x="731" d="M33 1272q0 203 33 379l8 45h624v-111h-411q-84 0 -115 -88h520v-111h-545q-8 -70 -8 -141q0 -330 125 -602q143 -315 408 -424v-233q-330 115 -498 514q-141 334 -141 772z" />
<glyph unicode="F" horiz-adv-x="698" d="M33 -2v1698h635v-111h-523v-88h517v-111h-517v-1388h-112z" />
<glyph unicode="G" horiz-adv-x="731" d="M35 1270q0 205 31 381l8 45h622v-111h-290q-150 0 -213 -94q-47 -72 -50 -211v-26q0 -301 90 -547q115 -309 353 -447v907q0 119 -37 168q-43 51 -154 51h-127v111h428v-1499q-94 0 -202 72q-233 154 -355 514q-104 307 -104 686z" />
<glyph unicode="H" horiz-adv-x="798" d="M37 -2v1698h110v-107q0 -82 82 -82h332q90 0 90 90v99h111v-1698h-111v1059q0 78 -88 78h-336q-80 0 -80 -78v-1059h-110zM150 1323q0 -57 79 -57h332q37 0 61.5 17t24.5 42q0 53 -84 53h-336q-78 0 -77 -55z" />
<glyph unicode="I" horiz-adv-x="202" d="M47 -2v1698h111v-1698h-111z" />
<glyph unicode="J" horiz-adv-x="669" d="M31 -20v231q266 125 397 459q100 257 100 574v36q-2 139 -49 211q-61 94 -213 94h-235v111h567l8 -45q33 -178 33 -383q0 -434 -135 -768q-162 -395 -473 -520z" />
<glyph unicode="K" horiz-adv-x="839" d="M27 -4v1690h110v-170q0 -41 37 -41q10 0 23 6l510 260l49 -99l-211 -104q-59 -29 -60 -82q0 -20 7 -47l323 -1413h-178l-227 1251q-29 156 -105 156q-27 0 -53 -19q-115 -78 -115 -198v-1190h-110z" />
<glyph unicode="L" horiz-adv-x="663" d="M31 -2v1698h110v-1395q0 -33 32 -64.5t65 -31.5h395v-207h-602z" />
<glyph unicode="M" horiz-adv-x="983" d="M35 -2v1698h110q14 -111 140 -287q104 -150 209 -260q59 66 196 256q70 98 92 137q47 82 58 154h110v-1698h-110v1186q0 96 -52 96q-27 0 -53 -31l-241 -329l-244 331q-23 31 -49 31q-55 0 -56 -96v-1188h-110z" />
<glyph unicode="N" horiz-adv-x="741" d="M35 -2v1698q129 0 254 -45q70 -25 223 -92q23 -12 43 -13q49 0 49 66v84h105v-1698h-105v1096q0 182 -141 315q-121 115 -238 115q-78 0 -78 -66v-1460h-112z" />
<glyph unicode="O" d="M45 848q0 293 80 530q115 336 354 336q238 0 352 -336q82 -237 82 -530q0 -295 -82 -531q-115 -337 -351 -337h-1q-240 0 -354 337q-80 238 -80 531zM156 903q0 -219 61 -418q88 -280 261 -280h1q174 0 262 280q62 195 62 418q0 326 -101 522q-92 178 -223 179 q-133 0 -221 -179q-102 -205 -102 -522z" />
<glyph unicode="P" horiz-adv-x="643" d="M29 -2v1698h393q192 0 192 -110q0 -75 -90 -169q-127 -115 -252 -227q-133 -137 -133 -305v-887h-110zM139 1190q12 37 78 92q232 199 232 248q0 55 -68 55h-242v-395z" />
<glyph unicode="Q" d="M45 1034q0 250 90 439q119 241 342 241h2q223 0 342 -241q92 -189 92 -439q0 -293 -137 -520q-131 -219 -303 -340h438v-176h-819v108q246 76 424 252q-12 -2 -37 -2q-225 0 -342 240q-92 188 -92 438zM156 1077q0 -240 100 -391q88 -135 223 -135q166 0 254 190 q70 148 70 336t-70 336q-88 190 -254 191q-135 0 -223 -136q-100 -154 -100 -391z" />
<glyph unicode="R" horiz-adv-x="806" d="M29 -2v1698h393q190 0 190 -111q0 -72 -88 -168l-147 -157q-45 -47 -45 -99q0 -25 12 -51l436 -1112h-184l-315 969q-31 90 -76 90q-66 0 -66 -172v-887h-110zM139 1143q8 27 78 102l193 213q35 41 34 76q0 51 -63 51h-242v-442z" />
<glyph unicode="S" horiz-adv-x="784" d="M35 1579q0 117 170 117h471v-111h-297q-82 0 -96 -47q-2 -8 -2 -15q0 -37 49 -65q209 -117 288 -198q132 -132 132 -318q0 -279 -199 -551q-143 -199 -420 -428v270q506 301 506 709q0 143 -113 252q-70 68 -248 168q-76 41 -149 82q-92 63 -92 135z" />
<glyph unicode="T" horiz-adv-x="825" d="M39 1585v111h749v-111h-200q-51 0 -85 -27.5t-34 -72.5v-1487h-111v1483q0 49 -34.5 76.5t-85.5 27.5h-199z" />
<glyph unicode="U" horiz-adv-x="786" d="M35 1055q0 174 22 641h103q-20 -317 -21 -574q0 -917 253 -917h1q256 0 256 917q0 285 -22 574h102q23 -483 23 -649q-1 -1067 -359 -1067t-358 1075z" />
<glyph unicode="V" horiz-adv-x="823" d="M37 1364q0 160 10 332h111q-25 -147 -25 -336q0 -301 60 -576q72 -350 219 -512q147 164 219 514q57 272 57 576q0 188 -22 334h112q8 -158 8 -312q0 -1069 -374 -1423q-375 356 -375 1403z" />
<glyph unicode="W" horiz-adv-x="1214" d="M31 1384q0 154 10 312h113q-25 -147 -25 -336q0 -301 57 -576q74 -350 222 -512q72 82 127 209q-100 385 -101 901q0 154 10 314h330q8 -160 8 -314q0 -365 -47 -655q-25 -141 -53 -246q53 -127 127 -209q147 164 219 508q57 268 57 572q0 193 -22 344h113q8 -158 8 -312 q0 -1069 -375 -1423q-117 113 -201 305q-84 -197 -200 -305q-377 358 -377 1423zM535 1257q10 -291 73 -555q64 250 74 555q1 23 1 44q0 129 -21 210q-20 84 -54 84q-35 0 -57 -86q-18 -72 -18 -182q0 -33 2 -70z" />
<glyph unicode="X" horiz-adv-x="845" d="M39 623v27q0 347 98 589q49 123 121 191q-117 78 -117 210v56h111v-56q0 -63 46 -103t124 -40q72 0 122 37t50 106v56h111v-56q0 -131 -119 -210q70 -66 121 -191q100 -254 100 -592v-26q-4 -350 -109 -623h-174q152 414 152 776q0 244 -72 424q-76 188 -182 188 q-104 0 -180 -188q-72 -178 -72 -422q0 -381 152 -778h-175q-104 272 -108 625z" />
<glyph unicode="Y" horiz-adv-x="835" d="M39 1657l59 92l320 -209l319 209l60 -92l-185 -121q-63 -41 -101 -119t-38 -157v-1266h-111v1266q0 80 -37.5 157.5t-101.5 118.5z" />
<glyph unicode="Z" horiz-adv-x="821" d="M37 -2q27 205 113 461q51 154 173.5 462t174.5 461q14 43 14 78q0 125 -145 125h-301v111h653q-66 -260 -211 -621q-180 -444 -227 -586q-37 -111 -37 -147q0 -137 219 -137h321l-32 -207h-715z" />
<glyph unicode="_" horiz-adv-x="681" d="M0 -14h682v-66h-682v66z" />
<glyph unicode="`" horiz-adv-x="450" d="M43 1679l8 13h156l203 -115l-9 -18h-108z" />
<glyph unicode="a" horiz-adv-x="933" d="M25 -2l387 1698h108l389 -1698h-114q-23 98 -121 156q-88 51 -207 51t-209 -51q-98 -57 -121 -156h-112zM236 387q0 -51 49 -51l358 -2q25 0 37 16t12 39q-2 57 -51 57h-356q-49 0 -49 -59zM262 557h404l-199 887z" />
<glyph unicode="b" horiz-adv-x="704" d="M33 -2v1698h391q192 0 192 -114q0 -75 -108 -183q164 -395 164 -803q0 -453 -252 -565q-74 -33 -160 -33h-227zM143 373q0 -88 37 -144q42 -65 123 -65h2q37 0 70 14q186 84 186 465q0 317 -141 676q-57 -43 -178 -135q-72 -57 -90 -137q-8 -35 -9 -152v-522zM143 1249 q226 154 314 254q18 20 18 41q0 41 -51 41h-158q-59 0 -91 -38t-32 -87v-211z" />
<glyph unicode="c" horiz-adv-x="669" d="M31 1268q0 205 32 383l9 45h567v-111h-236q-152 0 -213 -94q-47 -72 -49 -211v-36q0 -317 101 -574q131 -334 397 -459v-231q-311 125 -473 520q-135 334 -135 768z" />
<glyph unicode="d" horiz-adv-x="745" d="M35 -2v1728q420 -198 610 -823q66 -221 66 -403q0 -242 -119 -372t-330 -130h-227zM145 336q0 -63 40 -97t104 -34q94 0 176 90q71 80 96 182q14 66 14 141q0 131 -45 285q-133 436 -385 637v-1204z" />
<glyph unicode="e" horiz-adv-x="731" d="M33 1272q0 203 33 379l8 45h624v-111h-411q-84 0 -115 -88h520v-111h-545q-8 -70 -8 -141q0 -330 125 -602q143 -315 408 -424v-233q-330 115 -498 514q-141 334 -141 772z" />
<glyph unicode="f" horiz-adv-x="698" d="M33 -2v1698h635v-111h-523v-88h517v-111h-517v-1388h-112z" />
<glyph unicode="g" horiz-adv-x="731" d="M35 1270q0 205 31 381l8 45h622v-111h-290q-150 0 -213 -94q-47 -72 -50 -211v-26q0 -301 90 -547q115 -309 353 -447v907q0 119 -37 168q-43 51 -154 51h-127v111h428v-1499q-94 0 -202 72q-233 154 -355 514q-104 307 -104 686z" />
<glyph unicode="h" horiz-adv-x="798" d="M37 -2v1698h110v-107q0 -82 82 -82h332q90 0 90 90v99h111v-1698h-111v1059q0 78 -88 78h-336q-80 0 -80 -78v-1059h-110zM150 1323q0 -57 79 -57h332q37 0 61.5 17t24.5 42q0 53 -84 53h-336q-78 0 -77 -55z" />
<glyph unicode="i" horiz-adv-x="202" d="M47 -2v1698h111v-1698h-111z" />
<glyph unicode="j" horiz-adv-x="669" d="M31 -20v231q266 125 397 459q100 257 100 574v36q-2 139 -49 211q-61 94 -213 94h-235v111h567l8 -45q33 -178 33 -383q0 -434 -135 -768q-162 -395 -473 -520z" />
<glyph unicode="k" horiz-adv-x="839" d="M27 -4v1690h110v-170q0 -41 37 -41q10 0 23 6l510 260l49 -99l-211 -104q-59 -29 -60 -82q0 -20 7 -47l323 -1413h-178l-227 1251q-29 156 -105 156q-27 0 -53 -19q-115 -78 -115 -198v-1190h-110z" />
<glyph unicode="l" horiz-adv-x="663" d="M31 -2v1698h110v-1395q0 -33 32 -64.5t65 -31.5h395v-207h-602z" />
<glyph unicode="m" horiz-adv-x="983" d="M35 -2v1698h110q14 -111 140 -287q104 -150 209 -260q59 66 196 256q70 98 92 137q47 82 58 154h110v-1698h-110v1186q0 96 -52 96q-27 0 -53 -31l-241 -329l-244 331q-23 31 -49 31q-55 0 -56 -96v-1188h-110z" />
<glyph unicode="n" horiz-adv-x="741" d="M35 -2v1698q129 0 254 -45q70 -25 223 -92q23 -12 43 -13q49 0 49 66v84h105v-1698h-105v1096q0 182 -141 315q-121 115 -238 115q-78 0 -78 -66v-1460h-112z" />
<glyph unicode="o" d="M45 848q0 293 80 530q115 336 354 336q238 0 352 -336q82 -237 82 -530q0 -295 -82 -531q-115 -337 -351 -337h-1q-240 0 -354 337q-80 238 -80 531zM156 903q0 -219 61 -418q88 -280 261 -280h1q174 0 262 280q62 195 62 418q0 326 -101 522q-92 178 -223 179 q-133 0 -221 -179q-102 -205 -102 -522z" />
<glyph unicode="p" horiz-adv-x="643" d="M29 -2v1698h393q192 0 192 -110q0 -75 -90 -169q-127 -115 -252 -227q-133 -137 -133 -305v-887h-110zM139 1190q12 37 78 92q232 199 232 248q0 55 -68 55h-242v-395z" />
<glyph unicode="q" d="M45 1034q0 250 90 439q119 241 342 241h2q223 0 342 -241q92 -189 92 -439q0 -293 -137 -520q-131 -219 -303 -340h438v-176h-819v108q246 76 424 252q-12 -2 -37 -2q-225 0 -342 240q-92 188 -92 438zM156 1077q0 -240 100 -391q88 -135 223 -135q166 0 254 190 q70 148 70 336t-70 336q-88 190 -254 191q-135 0 -223 -136q-100 -154 -100 -391z" />
<glyph unicode="r" horiz-adv-x="806" d="M29 -2v1698h393q190 0 190 -111q0 -72 -88 -168l-147 -157q-45 -47 -45 -99q0 -25 12 -51l436 -1112h-184l-315 969q-31 90 -76 90q-66 0 -66 -172v-887h-110zM139 1143q8 27 78 102l193 213q35 41 34 76q0 51 -63 51h-242v-442z" />
<glyph unicode="s" horiz-adv-x="784" d="M35 1579q0 117 170 117h471v-111h-297q-82 0 -96 -47q-2 -8 -2 -15q0 -37 49 -65q209 -117 288 -198q132 -132 132 -318q0 -279 -199 -551q-143 -199 -420 -428v270q506 301 506 709q0 143 -113 252q-70 68 -248 168q-76 41 -149 82q-92 63 -92 135z" />
<glyph unicode="t" horiz-adv-x="825" d="M39 1585v111h749v-111h-200q-51 0 -85 -27.5t-34 -72.5v-1487h-111v1483q0 49 -34.5 76.5t-85.5 27.5h-199z" />
<glyph unicode="u" horiz-adv-x="786" d="M35 1055q0 174 22 641h103q-20 -317 -21 -574q0 -917 253 -917h1q256 0 256 917q0 285 -22 574h102q23 -483 23 -649q-1 -1067 -359 -1067t-358 1075z" />
<glyph unicode="v" horiz-adv-x="823" d="M37 1364q0 160 10 332h111q-25 -147 -25 -336q0 -301 60 -576q72 -350 219 -512q147 164 219 514q57 272 57 576q0 188 -22 334h112q8 -158 8 -312q0 -1069 -374 -1423q-375 356 -375 1403z" />
<glyph unicode="w" horiz-adv-x="1214" d="M31 1384q0 154 10 312h113q-25 -147 -25 -336q0 -301 57 -576q74 -350 222 -512q72 82 127 209q-100 385 -101 901q0 154 10 314h330q8 -160 8 -314q0 -365 -47 -655q-25 -141 -53 -246q53 -127 127 -209q147 164 219 508q57 268 57 572q0 193 -22 344h113q8 -158 8 -312 q0 -1069 -375 -1423q-117 113 -201 305q-84 -197 -200 -305q-377 358 -377 1423zM535 1257q10 -291 73 -555q64 250 74 555q1 23 1 44q0 129 -21 210q-20 84 -54 84q-35 0 -57 -86q-18 -72 -18 -182q0 -33 2 -70z" />
<glyph unicode="x" horiz-adv-x="845" d="M39 623v27q0 347 98 589q49 123 121 191q-117 78 -117 210v56h111v-56q0 -63 46 -103t124 -40q72 0 122 37t50 106v56h111v-56q0 -131 -119 -210q70 -66 121 -191q100 -254 100 -592v-26q-4 -350 -109 -623h-174q152 414 152 776q0 244 -72 424q-76 188 -182 188 q-104 0 -180 -188q-72 -178 -72 -422q0 -381 152 -778h-175q-104 272 -108 625z" />
<glyph unicode="y" horiz-adv-x="835" d="M39 1657l59 92l320 -209l319 209l60 -92l-185 -121q-63 -41 -101 -119t-38 -157v-1266h-111v1266q0 80 -37.5 157.5t-101.5 118.5z" />
<glyph unicode="z" horiz-adv-x="821" d="M37 -2q27 205 113 461q51 154 173.5 462t174.5 461q14 43 14 78q0 125 -145 125h-301v111h653q-66 -260 -211 -621q-180 -444 -227 -586q-37 -111 -37 -147q0 -137 219 -137h321l-32 -207h-715z" />
<glyph unicode="&#xa1;" horiz-adv-x="245" d="M23 1386q0 43 30.5 74t71.5 31q43 0 73.5 -30.5t30.5 -74.5q0 -41 -30.5 -71.5t-73.5 -30.5q-41 0 -71.5 30.5t-30.5 71.5zM35 -207q43 977 37 1411h108q-6 -504 37 -1411h-182z" />
<glyph unicode="&#xa2;" horiz-adv-x="509" d="M25 1214q0 113 22 238l8 45h168v199h111v-199h153v-111h-153v-710q53 -43 125 -74v-231q-84 27 -125 55v-428h-111v537q-100 123 -153 323q-45 176 -45 356zM135 1214q0 -245 88 -403v575h-76q-12 -115 -12 -172z" />
<glyph unicode="&#xa3;" horiz-adv-x="878" d="M41 287v110h117q0 395 125 742q78 221 190 352q131 152 332 219l35 -104q-352 -121 -488 -617q-80 -285 -71 -592h247v-110h-243q0 -27 22 -51q25 -31 58 -31h460v-207h-624q-33 162 -39 289h-121z" />
<glyph unicode="&#xa4;" horiz-adv-x="845" d="M39 1200l51 111h76q2 27 4 75h-111l54 111h65q8 88 29 199h600v-111h-508q-2 -29 -10 -88h416l-54 -111h-370q-2 -25 -2 -75h337l-51 -111h-286q12 -319 114 -559q127 -297 371 -412v-237q-274 96 -438 471q-141 326 -158 737h-129z" />
<glyph unicode="&#xa5;" horiz-adv-x="835" d="M39 1649l59 92l320 -209l319 209l60 -92l-185 -121q-27 -18 -49 -43h191v-111h-258q-16 -49 -19 -76h277v-110h-281v-1202h-111v1202h-282v110h278q-8 45 -20 76h-258v111h192q-23 25 -49 43z" />
<glyph unicode="&#xa8;" horiz-adv-x="456" d="M55 1614l82 82l82 -82l-82 -82zM238 1614l81 82l82 -82l-82 -82z" />
<glyph unicode="&#xaa;" horiz-adv-x="522" d="M39 881l194 848h54l194 -848h-57q-23 102 -164 102t-164 -102h-57zM145 1077q-2 -29 25 -28h178q12 -2 18.5 7t6.5 19q-2 29 -25 29h-178q-25 0 -25 -27zM158 1159h202l-100 445z" />
<glyph unicode="&#xad;" horiz-adv-x="362" d="M55 803v141h254v-141h-254z" />
<glyph unicode="&#xb4;" horiz-adv-x="450" d="M43 1577l203 115h155l9 -13l-250 -120h-109z" />
<glyph unicode="&#xb7;" horiz-adv-x="245" d="M20 819q0 41 31 72t74 31q41 0 71.5 -31t30.5 -72q0 -43 -30.5 -73.5t-71.5 -30.5q-43 0 -74 30.5t-31 73.5z" />
<glyph unicode="&#xb8;" horiz-adv-x="450" d="M68 -309l36 92h134q6 70 6 98q0 90 -43 152l102 180l80 -45l-74 -131q49 -94 49 -207q0 -61 -14 -139h-276z" />
<glyph unicode="&#xba;" horiz-adv-x="516" d="M41 1305q0 145 41 264q57 170 176 170t176 -170q41 -117 41 -264t-39 -267q-59 -168 -178 -168t-176 168q-41 119 -41 267zM96 1333q0 -111 31 -209q45 -141 131 -141q88 0 131 139q31 98 31 211q0 111 -29 209q-45 141 -133 141q-86 0 -131 -141q-31 -100 -31 -209z" />
<glyph unicode="&#xbf;" horiz-adv-x="704" d="M33 -90q-10 80 64.5 240.5t152.5 326.5q90 199 141 334q47 125 47 205q0 53 -14 104l-14 54l106 26l14 -53q18 -68 19 -135q0 -98 -53 -240q-31 -80 -281 -629q-49 -109 -49 -127q2 -47 113 -47h213q51 0 51 33q0 27 -37 49l82 74l37 -41q47 -51 47 -119q0 -37 -15 -67 q-45 -104 -163 -105h-275q-172 0 -186 117zM348 1386q0 43 31 74t74 31t72.5 -30.5t29.5 -74.5q0 -41 -29.5 -71.5t-72.5 -30.5t-74 30.5t-31 71.5z" />
<glyph unicode="&#xc0;" horiz-adv-x="933" d="M25 -2l387 1698h108l389 -1698h-114q-23 98 -121 156q-88 51 -207 51t-209 -51q-98 -57 -121 -156h-112zM186 1884l8 13h156l203 -115l-9 -18h-108zM236 391q-2 -55 49 -55l358 -2q25 0 37 16t12 39q-2 57 -51 57h-356q-47 0 -49 -55zM262 557h404l-199 887z" />
<glyph unicode="&#xc1;" horiz-adv-x="933" d="M25 -2l387 1698h108l389 -1698h-114q-23 98 -121 156q-88 51 -207 51t-209 -51q-98 -57 -121 -156h-112zM236 391q-2 -55 49 -55l358 -2q25 0 37 16t12 39q-2 57 -51 57h-356q-47 0 -49 -55zM262 557h404l-199 887zM412 1782l203 115h155l9 -13l-250 -120h-109z" />
<glyph unicode="&#xc2;" horiz-adv-x="933" d="M25 -2l387 1698h108l389 -1698h-114q-23 98 -121 156q-88 51 -207 51t-209 -51q-98 -57 -121 -156h-112zM236 391q-2 -55 49 -55l358 -2q25 0 37 16t12 39q-2 57 -51 57h-356q-47 0 -49 -55zM262 557h404l-199 887zM266 1807l207 172l209 -172l-28 -66h-121v43 q31 14 30 39q0 51 -88 51t-88 -51q0 -23 29 -39v-43h-121z" />
<glyph unicode="&#xc3;" horiz-adv-x="933" d="M25 -2l387 1698h108l389 -1698h-114q-23 98 -121 156q-88 51 -207 51t-209 -51q-98 -57 -121 -156h-112zM236 391q-2 -55 49 -55l358 -2q25 0 37 16t12 39q-2 57 -51 57h-356q-47 0 -49 -55zM262 557h404l-199 887zM286 1751q8 61 25 94q37 57 86 54q27 -2 86 -24.5 t82 -20.5q37 0 51 47h80q-16 -78 -40.5 -115t-67.5 -35q-27 0 -81.5 21.5t-82.5 19.5q-41 -2 -58 -41h-80z" />
<glyph unicode="&#xc4;" horiz-adv-x="933" d="M25 -2l387 1698h108l389 -1698h-114q-23 98 -121 156q-88 51 -207 51t-209 -51q-98 -57 -121 -156h-112zM236 391q-2 -55 49 -55l358 -2q25 0 37 16t12 39q-2 57 -51 57h-356q-47 0 -49 -55zM262 557h404l-199 887zM301 1819l82 82l82 -82l-82 -82zM484 1819l81 82 l82 -82l-82 -82z" />
<glyph unicode="&#xc5;" horiz-adv-x="933" d="M25 -2l387 1698h108l389 -1698h-114q-23 98 -121 156q-88 51 -207 51t-209 -51q-98 -57 -121 -156h-112zM236 391q-2 -55 49 -55l358 -2q25 0 37 16t12 39q-2 57 -51 57h-356q-47 0 -49 -55zM262 557h404l-199 887zM305 1827q0 70 49.5 119t118.5 49q70 0 120 -49 t50 -119t-50 -119t-120 -49t-119 49t-49 119zM379 1827q0 -39 27.5 -67.5t66.5 -28.5q41 0 69 28.5t28 67.5t-28 66.5t-69 27.5q-39 0 -66.5 -27.5t-27.5 -66.5z" />
<glyph unicode="&#xc6;" horiz-adv-x="1265" d="M29 -2l389 1698h108l54 -234q10 111 24 189l8 45h625v-111h-412q-82 0 -116 -88h520v-111h-543q-6 -70 -6 -141q0 -330 123 -602q143 -315 407 -424v-233q-209 74 -352 260l55 -248h-112q-23 98 -121 156q-90 51 -209 51t-207 -51q-98 -57 -121 -156h-114zM242 391 q-2 -57 49 -57h358q49 0 47 55q-2 57 -49 57h-356q-47 0 -49 -55zM268 557h404l-201 887z" />
<glyph unicode="&#xc7;" horiz-adv-x="669" d="M31 1268q0 205 32 383l9 45h567v-111h-236q-152 0 -213 -94q-47 -72 -49 -211q-6 -338 101 -610q131 -334 397 -459v-231q-311 125 -473 520q-135 334 -135 768zM170 -309l36 92h134q6 70 6 98q0 90 -43 152l102 180l80 -45l-74 -131q49 -94 49 -207q0 -61 -14 -139h-276 z" />
<glyph unicode="&#xc8;" horiz-adv-x="731" d="M33 1272q0 203 33 379l8 45h624v-111h-411q-84 0 -115 -88h520v-111h-545q-8 -70 -8 -141q0 -330 125 -602q143 -315 408 -424v-233q-330 115 -498 514q-141 334 -141 772zM125 1884l8 13h156l203 -115l-9 -18h-108z" />
<glyph unicode="&#xc9;" horiz-adv-x="731" d="M33 1272q0 203 33 379l8 45h624v-111h-411q-84 0 -115 -88h520v-111h-545q-8 -70 -8 -141q0 -330 125 -602q143 -315 408 -424v-233q-330 115 -498 514q-141 334 -141 772zM330 1782l203 115h155l9 -13l-250 -120h-109z" />
<glyph unicode="&#xca;" horiz-adv-x="731" d="M33 1272q0 203 33 379l8 45h624v-111h-411q-84 0 -115 -88h520v-111h-545q-8 -70 -8 -141q0 -330 125 -602q143 -315 408 -424v-233q-330 115 -498 514q-141 334 -141 772zM184 1807l207 172l209 -172l-28 -66h-121v43q31 14 30 39q0 51 -88 51t-88 -51q0 -23 29 -39v-43 h-121z" />
<glyph unicode="&#xcb;" horiz-adv-x="731" d="M33 1272q0 203 33 379l8 45h624v-111h-411q-84 0 -115 -88h520v-111h-545q-8 -70 -8 -141q0 -330 125 -602q143 -315 408 -424v-233q-330 115 -498 514q-141 334 -141 772zM239 1819l82 82l82 -82l-82 -82zM422 1819l81 82l82 -82l-82 -82z" />
<glyph unicode="&#xcc;" horiz-adv-x="202" d="M-203 1884l8 13h156l203 -115l-9 -18h-108zM47 -2v1698h111v-1698h-111z" />
<glyph unicode="&#xcd;" horiz-adv-x="202" d="M43 1782l203 115h155l9 -13l-250 -120h-109zM47 -2v1698h111v-1698h-111z" />
<glyph unicode="&#xce;" horiz-adv-x="202" d="M-103 1807l207 172l209 -172l-28 -66h-121v43q31 14 30 39q0 51 -88 51t-88 -51q0 -23 29 -39v-43h-121zM47 -2v1698h111v-1698h-111z" />
<glyph unicode="&#xcf;" horiz-adv-x="202" d="M-68 1819l82 82l82 -82l-82 -82zM47 -2v1698h111v-1698h-111zM115 1819l81 82l82 -82l-82 -82z" />
<glyph unicode="&#xd0;" horiz-adv-x="870" d="M39 1042v111h113v573q424 -200 612 -823q68 -219 67 -401q0 -242 -120.5 -373t-329.5 -131h-229v1044h-113zM262 336q0 -61 45 -98q39 -33 103 -33q94 0 176 90q71 80 94 182q16 66 16 141q0 131 -47 285q-131 434 -387 637v-387h174v-111h-174v-706z" />
<glyph unicode="&#xd1;" horiz-adv-x="741" d="M35 -2v1698q129 0 254 -45q70 -25 223 -92q23 -12 43 -13q49 0 49 66v84h105v-1698h-105v1096q0 182 -141 315q-121 115 -238 115q-78 0 -78 -66v-1460h-112zM163 1751q8 61 25 94q37 57 86 54q27 -2 86 -24.5t82 -20.5q37 0 51 47h80q-16 -78 -40.5 -115t-67.5 -35 q-27 0 -81.5 21.5t-82.5 19.5q-41 -2 -58 -41h-80z" />
<glyph unicode="&#xd2;" d="M45 848q0 293 80 530q115 336 354 336q238 0 352 -336q82 -237 82 -530q0 -295 -82 -531q-115 -338 -352 -337q-240 0 -354 337q-80 238 -80 531zM156 903q0 -219 61 -418q88 -281 262 -280q174 0 262 280q62 195 62 418q0 326 -101 522q-92 178 -223 179 q-133 0 -221 -179q-102 -205 -102 -522zM166 1884l8 13h156l203 -115l-9 -18h-108z" />
<glyph unicode="&#xd3;" d="M45 848q0 293 80 530q115 336 354 336q238 0 352 -336q82 -237 82 -530q0 -295 -82 -531q-115 -338 -352 -337q-240 0 -354 337q-80 238 -80 531zM156 903q0 -219 61 -418q88 -281 262 -280q174 0 262 280q62 195 62 418q0 326 -101 522q-92 178 -223 179 q-133 0 -221 -179q-102 -205 -102 -522zM453 1782l203 115h155l9 -13l-250 -120h-109z" />
<glyph unicode="&#xd4;" d="M45 848q0 293 80 530q115 336 354 336q238 0 352 -336q82 -237 82 -530q0 -295 -82 -531q-115 -338 -352 -337q-240 0 -354 337q-80 238 -80 531zM156 903q0 -219 61 -418q88 -281 262 -280q174 0 262 280q62 195 62 418q0 326 -101 522q-92 178 -223 179 q-133 0 -221 -179q-102 -205 -102 -522zM266 1807l207 172l209 -172l-28 -66h-121v43q31 14 30 39q0 51 -88 51t-88 -51q0 -23 29 -39v-43h-121z" />
<glyph unicode="&#xd5;" d="M45 848q0 293 80 530q115 336 354 336q238 0 352 -336q82 -237 82 -530q0 -295 -82 -531q-115 -338 -352 -337q-240 0 -354 337q-80 238 -80 531zM156 903q0 -219 61 -418q88 -281 262 -280q174 0 262 280q62 195 62 418q0 326 -101 522q-92 178 -223 179 q-133 0 -221 -179q-102 -205 -102 -522zM286 1751q8 61 25 94q37 57 86 54q27 -2 86 -24.5t82 -20.5q37 0 51 47h80q-16 -78 -40.5 -115t-67.5 -35q-27 0 -81.5 21.5t-82.5 19.5q-41 -2 -58 -41h-80z" />
<glyph unicode="&#xd6;" d="M45 848q0 293 80 530q115 336 354 336q238 0 352 -336q82 -237 82 -530q0 -295 -82 -531q-115 -338 -352 -337q-240 0 -354 337q-80 238 -80 531zM156 903q0 -219 61 -418q88 -281 262 -280q174 0 262 280q62 195 62 418q0 326 -101 522q-92 178 -223 179 q-133 0 -221 -179q-102 -205 -102 -522zM301 1819l82 82l82 -82l-82 -82zM484 1819l81 82l82 -82l-82 -82z" />
<glyph unicode="&#xd8;" d="M45 848q0 293 80 530q115 336 354 336q115 0 205 -86l23 68h116l-57 -172q147 -246 147 -676q0 -295 -82 -531q-115 -338 -352 -337q-113 0 -205 86l-22 -68h-117l58 172q-147 246 -148 678zM156 903q0 -319 102 -520q0 -2 4 -8l383 1138q-76 90 -166 91 q-133 0 -221 -179q-102 -205 -102 -522zM342 264q61 -59 137 -59q174 0 262 280q62 195 62 418q0 291 -84 483z" />
<glyph unicode="&#xd9;" horiz-adv-x="786" d="M35 1055q0 174 22 641h103q-20 -317 -21 -574q0 -918 254 -917q256 0 256 917q0 285 -22 574h102q23 -483 23 -649q-1 -1067 -359 -1067t-358 1075zM125 1884l8 13h156l203 -115l-9 -18h-108z" />
<glyph unicode="&#xda;" horiz-adv-x="786" d="M35 1055q0 174 22 641h103q-20 -317 -21 -574q0 -918 254 -917q256 0 256 917q0 285 -22 574h102q23 -483 23 -649q-1 -1067 -359 -1067t-358 1075zM330 1782l203 115h155l9 -13l-250 -120h-109z" />
<glyph unicode="&#xdb;" horiz-adv-x="786" d="M35 1055q0 174 22 641h103q-20 -317 -21 -574q0 -918 254 -917q256 0 256 917q0 285 -22 574h102q23 -483 23 -649q-1 -1067 -359 -1067t-358 1075zM184 1807l207 172l209 -172l-28 -66h-121v43q31 14 30 39q0 51 -88 51t-88 -51q0 -23 29 -39v-43h-121z" />
<glyph unicode="&#xdc;" horiz-adv-x="786" d="M35 1055q0 174 22 641h103q-20 -317 -21 -574q0 -918 254 -917q256 0 256 917q0 285 -22 574h102q23 -483 23 -649q-1 -1067 -359 -1067t-358 1075zM219 1819l82 82l82 -82l-82 -82zM402 1819l81 82l82 -82l-82 -82z" />
<glyph unicode="&#xdd;" horiz-adv-x="835" d="M39 1657l59 92l320 -209l319 209l60 -92l-185 -121q-63 -41 -101 -119t-38 -157v-1266h-111v1266q0 80 -37.5 157.5t-101.5 118.5zM371 1782l203 115h155l9 -13l-250 -120h-109z" />
<glyph unicode="&#xde;" horiz-adv-x="643" d="M29 -2v1698h110v-355h283q193 0 192 -110q0 -70 -90 -166q-127 -115 -252 -227q-133 -135 -133 -306v-534h-110zM139 836q12 39 78 94q232 199 232 248q0 53 -68 53h-242v-395z" />
<glyph unicode="&#xdf;" horiz-adv-x="1148" d="M35 1579q0 117 172 117h833v-111h-297q-82 0 -96 -47q-12 -47 49 -80q207 -115 289 -198q129 -132 129 -318q0 -279 -199 -551q-143 -199 -419 -428v270q508 299 508 709q0 143 -113 250q-70 68 -250 170q-76 43 -152 84q-92 66 -88 139h-20q-82 0 -96 -47 q-12 -47 47 -80q207 -115 289 -198q129 -131 129 -318q0 -279 -199 -551q-141 -199 -418 -428v270q506 301 506 709q0 143 -113 252q-70 68 -247 168q-76 41 -150 84q-94 61 -94 133z" />
<glyph unicode="&#xe0;" horiz-adv-x="933" d="M25 -2l387 1698h108l389 -1698h-114q-23 98 -121 156q-88 51 -207 51t-209 -51q-98 -57 -121 -156h-112zM166 1884l8 13h156l203 -115l-9 -18h-108zM236 391q-2 -55 49 -55l358 -2q25 0 37 16t12 39q-2 57 -51 57h-356q-47 0 -49 -55zM262 557h404l-199 887z" />
<glyph unicode="&#xe1;" horiz-adv-x="933" d="M25 -2l387 1698h108l389 -1698h-114q-23 98 -121 156q-88 51 -207 51t-209 -51q-98 -57 -121 -156h-112zM236 391q-2 -55 49 -55l358 -2q25 0 37 16t12 39q-2 57 -51 57h-356q-47 0 -49 -55zM262 557h404l-199 887zM453 1782l203 115h155l9 -13l-250 -120h-109z" />
<glyph unicode="&#xe2;" horiz-adv-x="933" d="M25 -2l387 1698h108l389 -1698h-114q-23 98 -121 156q-88 51 -207 51t-209 -51q-98 -57 -121 -156h-112zM236 391q-2 -55 49 -55l358 -2q25 0 37 16t12 39q-2 57 -51 57h-356q-47 0 -49 -55zM262 557h404l-199 887zM266 1807l207 172l209 -172l-28 -66h-121v43 q31 14 30 39q0 51 -88 51t-88 -51q0 -23 29 -39v-43h-121z" />
<glyph unicode="&#xe3;" horiz-adv-x="933" d="M25 -2l387 1698h108l389 -1698h-114q-23 98 -121 156q-88 51 -207 51t-209 -51q-98 -57 -121 -156h-112zM236 391q-2 -55 49 -55l358 -2q25 0 37 16t12 39q-2 57 -51 57h-356q-47 0 -49 -55zM262 557h404l-199 887zM286 1751q8 61 25 94q37 57 86 54q27 -2 86 -24.5 t82 -20.5q37 0 51 47h80q-16 -78 -40.5 -115t-67.5 -35q-27 0 -81.5 21.5t-82.5 19.5q-41 -2 -58 -41h-80z" />
<glyph unicode="&#xe4;" horiz-adv-x="933" d="M25 -2l387 1698h108l389 -1698h-114q-23 98 -121 156q-88 51 -207 51t-209 -51q-98 -57 -121 -156h-112zM236 391q-2 -55 49 -55l358 -2q25 0 37 16t12 39q-2 57 -51 57h-356q-47 0 -49 -55zM262 557h404l-199 887zM301 1819l82 82l82 -82l-82 -82zM484 1819l81 82 l82 -82l-82 -82z" />
<glyph unicode="&#xe5;" horiz-adv-x="933" d="M25 -2l387 1698h108l389 -1698h-114q-23 98 -121 156q-88 51 -207 51t-209 -51q-98 -57 -121 -156h-112zM236 391q-2 -55 49 -55l358 -2q25 0 37 16t12 39q-2 57 -51 57h-356q-47 0 -49 -55zM262 557h404l-199 887zM305 1827q0 70 49.5 119t118.5 49q70 0 120 -49 t50 -119t-50 -119t-120 -49t-119 49t-49 119zM379 1827q0 -39 27.5 -67.5t66.5 -28.5q41 0 69 28.5t28 67.5t-28 66.5t-69 27.5q-39 0 -66.5 -27.5t-27.5 -66.5z" />
<glyph unicode="&#xe6;" horiz-adv-x="1265" d="M29 -2l389 1698h108l54 -234q10 111 24 189l8 45h625v-111h-412q-82 0 -116 -88h520v-111h-543q-6 -70 -6 -141q0 -330 123 -602q143 -315 407 -424v-233q-209 74 -352 260l55 -248h-112q-23 98 -121 156q-90 51 -209 51t-207 -51q-98 -57 -121 -156h-114zM242 391 q-2 -57 49 -57h358q49 0 47 55q-2 57 -49 57h-356q-47 0 -49 -55zM268 557h404l-201 887z" />
<glyph unicode="&#xe7;" horiz-adv-x="669" d="M31 1268q0 205 32 383l9 45h567v-111h-236q-152 0 -213 -94q-47 -72 -49 -211q-6 -338 101 -610q131 -334 397 -459v-231q-311 125 -473 520q-135 334 -135 768zM170 -309l36 92h134q6 70 6 98q0 90 -43 152l102 180l80 -45l-74 -131q49 -94 49 -207q0 -61 -14 -139h-276 z" />
<glyph unicode="&#xe8;" horiz-adv-x="731" d="M33 1272q0 203 33 379l8 45h624v-111h-411q-84 0 -115 -88h520v-111h-545q-8 -70 -8 -141q0 -330 125 -602q143 -315 408 -424v-233q-330 115 -498 514q-141 334 -141 772zM125 1884l8 13h156l203 -115l-9 -18h-108z" />
<glyph unicode="&#xe9;" horiz-adv-x="731" d="M33 1272q0 203 33 379l8 45h624v-111h-411q-84 0 -115 -88h520v-111h-545q-8 -70 -8 -141q0 -330 125 -602q143 -315 408 -424v-233q-330 115 -498 514q-141 334 -141 772zM309 1782l203 115h155l9 -13l-250 -120h-109z" />
<glyph unicode="&#xea;" horiz-adv-x="731" d="M33 1272q0 203 33 379l8 45h624v-111h-411q-84 0 -115 -88h520v-111h-545q-8 -70 -8 -141q0 -330 125 -602q143 -315 408 -424v-233q-330 115 -498 514q-141 334 -141 772zM184 1807l207 172l209 -172l-28 -66h-121v43q31 14 30 39q0 51 -88 51t-88 -51q0 -23 29 -39v-43 h-121z" />
<glyph unicode="&#xeb;" horiz-adv-x="731" d="M33 1272q0 203 33 379l8 45h624v-111h-411q-84 0 -115 -88h520v-111h-545q-8 -70 -8 -141q0 -330 125 -602q143 -315 408 -424v-233q-330 115 -498 514q-141 334 -141 772zM219 1819l82 82l82 -82l-82 -82zM402 1819l81 82l82 -82l-82 -82z" />
<glyph unicode="&#xec;" horiz-adv-x="202" d="M-203 1884l8 13h156l203 -115l-9 -18h-108zM47 -2v1698h111v-1698h-111z" />
<glyph unicode="&#xed;" horiz-adv-x="202" d="M43 1782l203 115h155l9 -13l-250 -120h-109zM47 -2v1698h111v-1698h-111z" />
<glyph unicode="&#xee;" horiz-adv-x="202" d="M-103 1807l207 172l209 -172l-28 -66h-121v43q31 14 30 39q0 51 -88 51t-88 -51q0 -23 29 -39v-43h-121zM47 -2v1698h111v-1698h-111z" />
<glyph unicode="&#xef;" horiz-adv-x="202" d="M-68 1819l82 82l82 -82l-82 -82zM47 -2v1698h111v-1698h-111zM115 1819l81 82l82 -82l-82 -82z" />
<glyph unicode="&#xf0;" horiz-adv-x="870" d="M39 1042v111h113v573q424 -200 612 -823q68 -219 67 -401q0 -242 -120.5 -373t-329.5 -131h-229v1044h-113zM262 336q0 -61 45 -98q39 -33 103 -33q94 0 176 90q71 80 94 182q16 66 16 141q0 131 -47 285q-131 434 -387 637v-387h174v-111h-174v-706z" />
<glyph unicode="&#xf1;" horiz-adv-x="741" d="M35 -2v1698q129 0 254 -45q70 -25 223 -92q23 -12 43 -13q49 0 49 66v84h105v-1698h-105v1096q0 182 -141 315q-121 115 -238 115q-78 0 -78 -66v-1460h-112zM163 1751q8 61 25 94q37 57 86 54q27 -2 86 -24.5t82 -20.5q37 0 51 47h80q-16 -78 -40.5 -115t-67.5 -35 q-27 0 -81.5 21.5t-82.5 19.5q-41 -2 -58 -41h-80z" />
<glyph unicode="&#xf2;" d="M45 848q0 293 80 530q115 336 354 336q238 0 352 -336q82 -237 82 -530q0 -295 -82 -531q-115 -338 -352 -337q-240 0 -354 337q-80 238 -80 531zM156 903q0 -219 61 -418q88 -281 262 -280q174 0 262 280q62 195 62 418q0 326 -101 522q-92 178 -223 179 q-133 0 -221 -179q-102 -205 -102 -522zM166 1884l8 13h156l203 -115l-9 -18h-108z" />
<glyph unicode="&#xf3;" d="M45 848q0 293 80 530q115 336 354 336q238 0 352 -336q82 -237 82 -530q0 -295 -82 -531q-115 -338 -352 -337q-240 0 -354 337q-80 238 -80 531zM156 903q0 -219 61 -418q88 -281 262 -280q174 0 262 280q62 195 62 418q0 326 -101 522q-92 178 -223 179 q-133 0 -221 -179q-102 -205 -102 -522zM453 1782l203 115h155l9 -13l-250 -120h-109z" />
<glyph unicode="&#xf4;" d="M45 848q0 293 80 530q115 336 354 336q238 0 352 -336q82 -237 82 -530q0 -295 -82 -531q-115 -338 -352 -337q-240 0 -354 337q-80 238 -80 531zM156 903q0 -219 61 -418q88 -281 262 -280q174 0 262 280q62 195 62 418q0 326 -101 522q-92 178 -223 179 q-133 0 -221 -179q-102 -205 -102 -522zM266 1807l207 172l209 -172l-28 -66h-121v43q31 14 30 39q0 51 -88 51t-88 -51q0 -23 29 -39v-43h-121z" />
<glyph unicode="&#xf5;" d="M45 848q0 293 80 530q115 336 354 336q238 0 352 -336q82 -237 82 -530q0 -295 -82 -531q-115 -338 -352 -337q-240 0 -354 337q-80 238 -80 531zM156 903q0 -219 61 -418q88 -281 262 -280q174 0 262 280q62 195 62 418q0 326 -101 522q-92 178 -223 179 q-133 0 -221 -179q-102 -205 -102 -522zM286 1751q8 61 25 94q37 57 86 54q27 -2 86 -24.5t82 -20.5q37 0 51 47h80q-16 -78 -40.5 -115t-67.5 -35q-27 0 -81.5 21.5t-82.5 19.5q-41 -2 -58 -41h-80z" />
<glyph unicode="&#xf6;" d="M45 848q0 293 80 530q115 336 354 336q238 0 352 -336q82 -237 82 -530q0 -295 -82 -531q-115 -338 -352 -337q-240 0 -354 337q-80 238 -80 531zM156 903q0 -219 61 -418q88 -281 262 -280q174 0 262 280q62 195 62 418q0 326 -101 522q-92 178 -223 179 q-133 0 -221 -179q-102 -205 -102 -522zM301 1819l82 82l82 -82l-82 -82zM484 1819l81 82l82 -82l-82 -82z" />
<glyph unicode="&#xf8;" d="M45 848q0 293 80 530q115 336 354 336q115 0 205 -86l23 68h116l-57 -172q147 -246 147 -676q0 -295 -82 -531q-115 -338 -352 -337q-113 0 -205 86l-22 -68h-117l58 172q-147 246 -148 678zM156 903q0 -319 102 -520q0 -2 4 -8l383 1138q-76 90 -166 91 q-133 0 -221 -179q-102 -205 -102 -522zM342 264q61 -59 137 -59q174 0 262 280q62 195 62 418q0 291 -84 483z" />
<glyph unicode="&#xf9;" horiz-adv-x="786" d="M35 1055q0 174 22 641h103q-20 -317 -21 -574q0 -918 254 -917q256 0 256 917q0 285 -22 574h102q23 -483 23 -649q-1 -1067 -359 -1067t-358 1075zM104 1884l8 13h156l203 -115l-9 -18h-108z" />
<glyph unicode="&#xfa;" horiz-adv-x="786" d="M35 1055q0 174 22 641h103q-20 -317 -21 -574q0 -918 254 -917q256 0 256 917q0 285 -22 574h102q23 -483 23 -649q-1 -1067 -359 -1067t-358 1075zM309 1782l203 115h155l9 -13l-250 -120h-109z" />
<glyph unicode="&#xfb;" horiz-adv-x="786" d="M35 1055q0 174 22 641h103q-20 -317 -21 -574q0 -918 254 -917q256 0 256 917q0 285 -22 574h102q23 -483 23 -649q-1 -1067 -359 -1067t-358 1075zM184 1807l207 172l209 -172l-28 -66h-121v43q31 14 30 39q0 51 -88 51t-88 -51q0 -23 29 -39v-43h-121z" />
<glyph unicode="&#xfc;" horiz-adv-x="786" d="M35 1055q0 174 22 641h103q-20 -317 -21 -574q0 -918 254 -917q256 0 256 917q0 285 -22 574h102q23 -483 23 -649q-1 -1067 -359 -1067t-358 1075zM219 1819l82 82l82 -82l-82 -82zM402 1819l81 82l82 -82l-82 -82z" />
<glyph unicode="&#xfd;" horiz-adv-x="835" d="M39 1657l59 92l320 -209l319 209l60 -92l-185 -121q-63 -41 -101 -119t-38 -157v-1266h-111v1266q0 80 -37.5 157.5t-101.5 118.5zM350 1782l203 115h155l9 -13l-250 -120h-109z" />
<glyph unicode="&#xfe;" horiz-adv-x="643" d="M29 -2v1698h110v-355h283q193 0 192 -110q0 -70 -90 -166q-127 -115 -252 -227q-133 -135 -133 -306v-534h-110zM139 836q12 39 78 94q232 199 232 248q0 53 -68 53h-242v-395z" />
<glyph unicode="&#xff;" horiz-adv-x="835" d="M39 1657l59 92l320 -209l319 209l60 -92l-185 -121q-63 -41 -101 -119t-38 -157v-1266h-111v1266q0 80 -37.5 157.5t-101.5 118.5zM239 1778l82 82l82 -82l-82 -82zM422 1778l81 82l82 -82l-82 -82z" />
<glyph unicode="&#x152;" horiz-adv-x="1456" d="M25 848q0 375 110 610q121 256 324 256q197 0 315 -244q4 61 23 181l10 45h625v-111h-412q-82 0 -117 -88h520v-111h-544q-6 -68 -7 -137q0 -332 123 -604q143 -315 410 -426v-233q-367 127 -531 596q-29 -205 -94 -346q-119 -256 -321 -256q-242 0 -355 335 q-80 236 -79 533zM135 903q0 -223 62 -418q86 -281 262 -280q174 0 262 280q61 199 61 418q0 317 -102 522q-88 178 -221 179q-133 0 -223 -179q-100 -201 -101 -522z" />
<glyph unicode="&#x153;" horiz-adv-x="1456" d="M25 848q0 375 110 610q121 256 324 256q197 0 315 -244q4 61 23 181l10 45h625v-111h-412q-82 0 -117 -88h520v-111h-544q-6 -68 -7 -137q0 -332 123 -604q143 -315 410 -426v-233q-367 127 -531 596q-29 -205 -94 -346q-119 -256 -321 -256q-242 0 -355 335 q-80 236 -79 533zM135 903q0 -223 62 -418q86 -281 262 -280q174 0 262 280q61 199 61 418q0 317 -102 522q-88 178 -221 179q-133 0 -223 -179q-100 -201 -101 -522z" />
<glyph unicode="&#x178;" horiz-adv-x="835" d="M39 1657l59 92l320 -209l319 209l60 -92l-185 -121q-63 -41 -101 -119t-38 -157v-1266h-111v1266q0 80 -37.5 157.5t-101.5 118.5zM239 1778l82 82l82 -82l-82 -82zM422 1778l81 82l82 -82l-82 -82z" />
<glyph unicode="&#x2c6;" horiz-adv-x="456" d="M20 1602l207 172l209 -172l-28 -66h-121v43q31 14 30 39q0 51 -88 51t-88 -51q0 -23 29 -39v-43h-121z" />
<glyph unicode="&#x2dc;" horiz-adv-x="450" d="M20 1546q8 61 25 94q37 57 86 54q27 -2 86 -24.5t82 -20.5q37 0 51 47h80q-16 -78 -40.5 -115t-67.5 -35q-27 0 -81.5 21.5t-82.5 19.5q-41 -2 -58 -41h-80z" />
<glyph unicode="&#x2000;" horiz-adv-x="997" />
<glyph unicode="&#x2001;" horiz-adv-x="1995" />
<glyph unicode="&#x2002;" horiz-adv-x="997" />
<glyph unicode="&#x2003;" horiz-adv-x="1995" />
<glyph unicode="&#x2004;" horiz-adv-x="665" />
<glyph unicode="&#x2005;" horiz-adv-x="498" />
<glyph unicode="&#x2006;" horiz-adv-x="332" />
<glyph unicode="&#x2007;" horiz-adv-x="332" />
<glyph unicode="&#x2008;" horiz-adv-x="249" />
<glyph unicode="&#x2009;" horiz-adv-x="399" />
<glyph unicode="&#x200a;" horiz-adv-x="110" />
<glyph unicode="&#x2010;" horiz-adv-x="362" d="M55 803v141h254v-141h-254z" />
<glyph unicode="&#x2011;" horiz-adv-x="362" d="M55 803v141h254v-141h-254z" />
<glyph unicode="&#x2012;" horiz-adv-x="362" d="M55 803v141h254v-141h-254z" />
<glyph unicode="&#x2013;" horiz-adv-x="614" d="M27 803v141h561v-141h-561z" />
<glyph unicode="&#x2014;" horiz-adv-x="1366" d="M25 803v141h1318v-141h-1318z" />
<glyph unicode="&#x2018;" horiz-adv-x="245" d="M35 1411q0 96 38 166t38 139h116v-305h-192z" />
<glyph unicode="&#x2019;" horiz-adv-x="245" d="M27 1411v305h192q0 -96 -38 -165.5t-38 -139.5h-116z" />
<glyph unicode="&#x201a;" horiz-adv-x="247" d="M29 -104v305h192q0 -96 -38 -166t-38 -139h-116z" />
<glyph unicode="&#x201c;" horiz-adv-x="456" d="M31 1411q0 96 37.5 166t37.5 139h117v-305h-192zM236 1411q0 96 37.5 166t37.5 139h117v-305h-192z" />
<glyph unicode="&#x201d;" horiz-adv-x="456" d="M31 1411v305h192q0 -96 -38 -165.5t-38 -139.5h-116zM236 1411v305h192q0 -96 -38 -165.5t-38 -139.5h-116z" />
<glyph unicode="&#x201e;" horiz-adv-x="456" d="M31 -104v305h192q0 -96 -38 -166t-38 -139h-116zM236 -104v305h192q0 -96 -38 -166t-38 -139h-116z" />
<glyph unicode="&#x2022;" horiz-adv-x="391" d="M18 848q0 72 52.5 124t126.5 52q72 0 124 -52t52 -124q0 -74 -52.5 -127t-123.5 -53q-74 0 -126.5 53t-52.5 127z" />
<glyph unicode="&#x2026;" horiz-adv-x="915" d="M68 102q0 41 30.5 72t73.5 31q41 0 71.5 -31t30.5 -72q0 -43 -30.5 -73.5t-71.5 -30.5q-43 0 -73.5 30.5t-30.5 73.5zM354 102q0 41 31 72t74 31q41 0 71.5 -31t30.5 -72q0 -43 -30.5 -73.5t-71.5 -30.5q-43 0 -74 30.5t-31 73.5zM641 102q0 41 30.5 72t73.5 31 q41 0 72 -31t31 -72q0 -43 -31 -73.5t-72 -30.5q-43 0 -73.5 30.5t-30.5 73.5z" />
<glyph unicode="&#x202f;" horiz-adv-x="399" />
<glyph unicode="&#x2039;" horiz-adv-x="344" d="M16 854l189 360h125l-94 -178q-43 -80 -43 -184q0 -102 43 -182l94 -178h-125z" />
<glyph unicode="&#x205f;" horiz-adv-x="498" />
<glyph unicode="&#xe000;" horiz-adv-x="1699" d="M0 0v1700h1700v-1700h-1700z" />
</font>
</defs>
</svg>
